<?xml version="1.0" encoding="utf-8"?>
<!-- Generator: Adobe Illustrator 19.1.0, SVG Export Plug-In . SVG Version: 6.00 Build 0)  -->
<svg version="1.1" id="Layer_1" xmlns="http://www.w3.org/2000/svg" xmlns:xlink="http://www.w3.org/1999/xlink" x="0px" y="0px"
	 viewBox="0 0 276.8 261.5" style="enable-background:new 0 0 276.8 261.5;" xml:space="preserve">
<style type="text/css">
	.st0{fill:#363D39;}
	.st1{clip-path:url(#SVGID_2_);fill:#363D39;}
	.st2{clip-path:url(#SVGID_4_);fill:#363D39;}
	.st3{fill:#BCC0BC;}
	.st4{clip-path:url(#SVGID_6_);fill:#BCC0BC;}
	.st5{clip-path:url(#SVGID_8_);fill:#BCC0BC;}
	.st6{fill:#F2BE1A;}
	.st7{clip-path:url(#SVGID_10_);fill:#F2BE1A;}
	.st8{clip-path:url(#SVGID_12_);fill:#F2BE1A;}
</style>
<rect x="65.6" y="0.8" class="st0" width="0.8" height="60"/>
<rect x="137.6" y="0.8" class="st0" width="0.8" height="60"/>
<rect x="209.6" y="0.8" class="st0" width="0.8" height="60"/>
<g>
	<defs>
		<rect id="SVGID_1_" width="276.8" height="261.5"/>
	</defs>
	<clipPath id="SVGID_2_">
		<use xlink:href="#SVGID_1_"  style="overflow:visible;"/>
	</clipPath>
	<path class="st1" d="M174,57.5c-14.8,0-26.8-12-26.8-26.8C147.2,16,159.2,4,174,4c14.8,0,26.8,12,26.8,26.8
		C200.8,45.5,188.8,57.5,174,57.5 M174,0c-17,0-30.8,13.8-30.8,30.8S157,61.5,174,61.5s30.8-13.8,30.8-30.8S191,0,174,0"/>
</g>
<polygon class="st0" points="0,0.7 0,60.7 12,60.7 12,39.7 57,39.7 57,27.7 12,27.7 12,12.7 60,12.7 60,0.7 "/>
<polygon class="st0" points="84,48.7 84,0.7 72,0.7 72,60.7 132,60.7 132,48.7 "/>
<g>
	<defs>
		<rect id="SVGID_3_" width="276.8" height="261.5"/>
	</defs>
	<clipPath id="SVGID_4_">
		<use xlink:href="#SVGID_3_"  style="overflow:visible;"/>
	</clipPath>
	<path class="st2" d="M228,12.7h27.8c5,0,9,4,9,9c0,5-4,9-9,9H228V12.7z M276.8,21.7c0-11.6-9.4-21-21-21H216v60h12v-18h21.5l18,18
		h8.5v-8.5l-11.4-11.4C271.8,37.5,276.8,30.2,276.8,21.7"/>
	<path class="st2" d="M272.7,2.7c0,1.1,0.9,2,2,2c1.1,0,2-0.9,2-2c0-1.1-0.9-2-2-2C273.6,0.7,272.7,1.6,272.7,2.7 M273.2,2.7
		c0-0.9,0.7-1.6,1.6-1.6c0.9,0,1.6,0.7,1.6,1.6c0,0.9-0.7,1.6-1.6,1.6C273.9,4.3,273.2,3.6,273.2,2.7 M275.3,3L275.3,3
		c0.3-0.2,0.4-0.4,0.4-0.7c0-0.4-0.3-0.7-0.7-0.7h-1.1l-0.1,0.1v2.1l0.1,0.1h0.3l0.1-0.1V3l0.1-0.1h0.3l0.1,0.1l0.6,0.8l0.1,0.1h0.2
		l0.1-0.1V3.5L275.3,3z M275.3,2.3c0,0.2-0.1,0.3-0.3,0.3h-0.7l-0.1-0.1V2.1l0.1-0.1h0.7C275.2,2,275.3,2.1,275.3,2.3"/>
</g>
<rect x="65.6" y="100.8" class="st3" width="0.8" height="60"/>
<rect x="137.6" y="100.8" class="st3" width="0.8" height="60"/>
<rect x="209.6" y="100.8" class="st3" width="0.8" height="60"/>
<g>
	<defs>
		<rect id="SVGID_5_" width="276.8" height="261.5"/>
	</defs>
	<clipPath id="SVGID_6_">
		<use xlink:href="#SVGID_5_"  style="overflow:visible;"/>
	</clipPath>
	<path class="st4" d="M174,157.5c-14.8,0-26.8-12-26.8-26.8c0-14.8,12-26.8,26.8-26.8c14.8,0,26.8,12,26.8,26.8
		C200.8,145.5,188.8,157.5,174,157.5 M174,100c-17,0-30.8,13.8-30.8,30.8s13.8,30.8,30.8,30.8s30.8-13.8,30.8-30.8S191,100,174,100"
		/>
</g>
<polygon class="st3" points="0,100.7 0,160.7 12,160.7 12,139.7 57,139.7 57,127.7 12,127.7 12,112.7 60,112.7 60,100.7 "/>
<polygon class="st3" points="84,148.7 84,100.7 72,100.7 72,160.7 132,160.7 132,148.7 "/>
<g>
	<defs>
		<rect id="SVGID_7_" width="276.8" height="261.5"/>
	</defs>
	<clipPath id="SVGID_8_">
		<use xlink:href="#SVGID_7_"  style="overflow:visible;"/>
	</clipPath>
	<path class="st5" d="M228,112.7h27.8c5,0,9,4,9,9c0,5-4,9-9,9H228V112.7z M276.8,121.7c0-11.6-9.4-21-21-21H216v60h12v-18h21.5
		l18,18h8.5v-8.5l-11.4-11.4C271.8,137.5,276.8,130.2,276.8,121.7"/>
	<path class="st5" d="M272.7,102.7c0,1.1,0.9,2,2,2c1.1,0,2-0.9,2-2c0-1.1-0.9-2-2-2C273.6,100.7,272.7,101.6,272.7,102.7
		 M273.2,102.7c0-0.9,0.7-1.6,1.6-1.6c0.9,0,1.6,0.7,1.6,1.6c0,0.9-0.7,1.6-1.6,1.6C273.9,104.3,273.2,103.6,273.2,102.7 M275.3,103
		L275.3,103c0.3-0.2,0.4-0.4,0.4-0.7c0-0.4-0.3-0.7-0.7-0.7h-1.1l-0.1,0.1v2.1l0.1,0.1h0.3l0.1-0.1V103l0.1-0.1h0.3l0.1,0.1l0.6,0.8
		l0.1,0.1h0.2l0.1-0.1v-0.3L275.3,103z M275.3,102.3c0,0.2-0.1,0.3-0.3,0.3h-0.7l-0.1-0.1v-0.4l0.1-0.1h0.7
		C275.2,102,275.3,102.1,275.3,102.3"/>
</g>
<rect x="65.6" y="200.8" class="st6" width="0.8" height="60"/>
<rect x="137.6" y="200.8" class="st6" width="0.8" height="60"/>
<rect x="209.6" y="200.8" class="st6" width="0.8" height="60"/>
<g>
	<defs>
		<rect id="SVGID_9_" width="276.8" height="261.5"/>
	</defs>
	<clipPath id="SVGID_10_">
		<use xlink:href="#SVGID_9_"  style="overflow:visible;"/>
	</clipPath>
	<path class="st7" d="M174,257.5c-14.8,0-26.8-12-26.8-26.8c0-14.8,12-26.8,26.8-26.8c14.8,0,26.8,12,26.8,26.8
		C200.8,245.5,188.8,257.5,174,257.5 M174,200c-17,0-30.8,13.8-30.8,30.8s13.8,30.8,30.8,30.8s30.8-13.8,30.8-30.8S191,200,174,200"
		/>
</g>
<polygon class="st6" points="0,200.7 0,260.7 12,260.7 12,239.8 57,239.8 57,227.7 12,227.7 12,212.8 60,212.8 60,200.7 "/>
<polygon class="st6" points="72,200.7 72,260.7 132,260.7 132,248.8 84,248.8 84,200.7 "/>
<g>
	<defs>
		<rect id="SVGID_11_" width="276.8" height="261.5"/>
	</defs>
	<clipPath id="SVGID_12_">
		<use xlink:href="#SVGID_11_"  style="overflow:visible;"/>
	</clipPath>
	<path class="st8" d="M228,212.7h27.8c5,0,9,4,9,9c0,5-4,9-9,9H228V212.7z M276.8,221.7c0-11.6-9.4-21-21-21H216v60h12v-18h21.5
		l18,18h8.5v-8.5l-11.4-11.4C271.8,237.5,276.8,230.2,276.8,221.7"/>
	<path class="st8" d="M272.7,202.7c0,1.1,0.9,2,2,2c1.1,0,2-0.9,2-2c0-1.1-0.9-2-2-2C273.6,200.7,272.7,201.6,272.7,202.7
		 M273.2,202.7c0-0.9,0.7-1.6,1.6-1.6c0.9,0,1.6,0.7,1.6,1.6c0,0.9-0.7,1.6-1.6,1.6C273.9,204.3,273.2,203.6,273.2,202.7 M275.3,203
		L275.3,203c0.3-0.2,0.4-0.4,0.4-0.7c0-0.4-0.3-0.7-0.7-0.7h-1.1l-0.1,0.1v2.1l0.1,0.1h0.3l0.1-0.1V203l0.1-0.1h0.3l0.1,0.1l0.6,0.8
		l0.1,0.1h0.2l0.1-0.1v-0.3L275.3,203z M275.3,202.3c0,0.2-0.1,0.3-0.3,0.3h-0.7l-0.1-0.1v-0.4l0.1-0.1h0.7
		C275.2,202,275.3,202.1,275.3,202.3"/>
</g>
<g>
</g>
<g>
</g>
<g>
</g>
<g>
</g>
<g>
</g>
<g>
</g>
</svg>
