<?xml version="1.0" encoding="utf-8"?>
<!-- Generator: Adobe Illustrator 19.1.0, SVG Export Plug-In . SVG Version: 6.00 Build 0)  -->
<svg version="1.1" id="Layer_1" xmlns="http://www.w3.org/2000/svg" xmlns:xlink="http://www.w3.org/1999/xlink" x="0px" y="0px"
	 viewBox="0 0 732 216" style="enable-background:new 0 0 732 216;" xml:space="preserve">
<style type="text/css">
	.st0{clip-path:url(#SVGID_2_);fill:#363D39;}
	.st1{fill:#363D39;}
	.st2{clip-path:url(#SVGID_4_);fill:#363D39;}
	.st3{clip-path:url(#SVGID_6_);fill:#363D39;}
	.st4{clip-path:url(#SVGID_6_);fill:#BCC0BC;}
	.st5{fill:#BCC0BC;}
	.st6{clip-path:url(#SVGID_8_);fill:#BCC0BC;}
	.st7{clip-path:url(#SVGID_10_);fill:#BCC0BC;}
	.st8{clip-path:url(#SVGID_10_);fill:#F2BE1A;}
	.st9{fill:#F2BE1A;}
	.st10{clip-path:url(#SVGID_12_);fill:#F2BE1A;}
	.st11{clip-path:url(#SVGID_14_);fill:#F2BE1A;}
	.st12{clip-path:url(#SVGID_16_);fill:#FFFFFF;}
	.st13{fill:#FFFFFF;}
	.st14{clip-path:url(#SVGID_18_);fill:#FFFFFF;}
	.st15{clip-path:url(#SVGID_20_);fill:#FFFFFF;}
</style>
<g>
	<defs>
		<rect id="SVGID_1_" width="732" height="216"/>
	</defs>
	<clipPath id="SVGID_2_">
		<use xlink:href="#SVGID_1_"  style="overflow:visible;"/>
	</clipPath>
	<path class="st0" d="M93.5,192.5c-0.8,0-1-1.1-1-1.7c0-0.6,0.2-1.5,1-1.5c0.8,0,1.1,1,1.1,1.7C94.6,191.6,94.3,192.5,93.5,192.5
		 M96.8,188.3c-0.6,0-0.9,0.4-1.2,0.9c-0.6-0.6-1.2-0.8-2.1-0.8c-1.5,0-2.7,0.9-2.7,2.5c0,1,0.3,1.5,1.2,2c-0.5,0.4-1.3,1.1-1.3,1.8
		c0,0.3,0.1,0.5,0.4,0.6c0.5,0.2,1.5,0.2,2.1,0.2c0.4,0,1.3,0,1.8,0.1c0.2,0.1,0.5,0.3,0.5,0.5c0,0.7-1,0.8-1.5,0.8
		c-0.7,0-1.3-0.1-1.8-0.6c-0.2-0.2-0.3-0.4-0.6-0.4c-0.4,0-0.7,0.5-0.7,0.9c0,0.9,1.6,1.1,2.2,1.1c1.5,0,3.5-0.4,3.5-2.3
		c0-1.5-1.5-1.4-2.6-1.5c-0.3,0-0.7,0-1,0c-0.1,0-0.6,0-0.6-0.2c0-0.3,0.2-0.5,0.4-0.7c0.3,0,0.6,0.1,0.8,0.1c1.5,0,2.6-0.9,2.6-2.4
		c0-0.2,0-0.4,0-0.6c0-0.1-0.1-0.3-0.1-0.5c0-0.2,0.1-0.3,0.2-0.3c0.3,0,0.3,0.4,0.6,0.4c0.4,0,0.6-0.4,0.6-0.7
		C97.6,188.8,97.3,188.3,96.8,188.3"/>
	<path class="st0" d="M85.1,206.2c0-0.8,0.4-1.8,1.3-1.8c0.5,0,1.1,0.3,1.1,0.9c0,0.1,0,0.1-0.1,0.2c-0.2,0.2-0.9,0.5-1.2,0.6
		c-0.4,0.1-0.8,0.3-1.1,0.5C85.1,206.5,85.1,206.3,85.1,206.2 M89,208.2c-0.4,0-0.6,0.6-1.6,0.6c-0.3,0-0.7-0.1-1-0.2
		c-0.6-0.3-0.8-0.6-1.1-1.2l3.2-1.4c0.3-0.1,0.6-0.4,0.6-0.7c0-0.3-0.2-0.7-0.4-1c-0.5-0.6-1-0.9-1.8-0.9c-1.9,0-3.2,1.7-3.2,3.5
		s1.3,3.2,3.1,3.2c0.7,0,1.4-0.2,1.9-0.7c0.2-0.2,0.6-0.6,0.6-0.9C89.3,208.4,89.2,208.2,89,208.2"/>
	<path class="st0" d="M103.2,207.5c-0.8,0-1-1.1-1-1.7c0-0.6,0.2-1.5,1-1.5c0.8,0,1.1,1,1.1,1.6C104.3,206.6,104,207.5,103.2,207.5
		 M106.5,203.3c-0.6,0-0.9,0.4-1.2,0.9c-0.6-0.6-1.2-0.8-2.1-0.8c-1.5,0-2.7,0.9-2.7,2.5c0,1,0.3,1.5,1.2,2
		c-0.5,0.4-1.3,1.1-1.3,1.8c0,0.3,0.1,0.5,0.4,0.6c0.5,0.2,1.5,0.2,2.1,0.2c0.4,0,1.3,0,1.8,0.2c0.2,0.1,0.5,0.3,0.5,0.5
		c0,0.7-1,0.8-1.5,0.8c-0.7,0-1.3-0.1-1.8-0.6c-0.2-0.2-0.3-0.4-0.6-0.4c-0.4,0-0.7,0.5-0.7,0.9c0,0.9,1.6,1.1,2.2,1.1
		c1.5,0,3.5-0.4,3.5-2.3c0-1.5-1.5-1.4-2.6-1.5c-0.3,0-0.7,0-1,0c-0.1,0-0.6,0-0.6-0.2c0-0.3,0.2-0.5,0.4-0.7c0.3,0,0.6,0.1,0.8,0.1
		c1.5,0,2.6-0.9,2.6-2.4c0-0.2,0-0.4,0-0.6c0-0.2-0.1-0.3-0.1-0.5c0-0.1,0.1-0.3,0.2-0.3c0.3,0,0.3,0.4,0.6,0.4
		c0.4,0,0.6-0.4,0.6-0.7C107.2,203.8,106.9,203.3,106.5,203.3"/>
	<path class="st0" d="M115.2,208.8c-0.2,0-0.4,0.1-0.5,0.1c-0.3,0-0.3-0.4-0.3-0.7v-2.2c0-0.7,0-1.3-0.4-1.8c-0.4-0.5-1-0.8-1.6-0.8
		c-0.8,0-1.5,0.4-2.1,0.9c0-0.5,0-0.8-0.6-0.8H108c-0.3,0-0.5,0.1-0.5,0.4c0,0.2,0.2,0.3,0.4,0.4c0.6,0.1,0.7,0.2,0.7,0.9v3.1
		c0,0.6-0.1,0.7-0.6,0.9c-0.2,0-0.4,0.1-0.4,0.4c0,0.3,0.3,0.4,0.6,0.4c0.4,0,0.9-0.1,1.3-0.1c0.4,0,0.9,0.1,1.3,0.1
		c0.3,0,0.6-0.1,0.6-0.4c0-0.2-0.2-0.3-0.4-0.4c-0.6-0.1-0.6-0.3-0.6-0.9v-3c0.4-0.4,0.8-0.7,1.4-0.7c0.9,0,1,0.9,1,1.6v2.4
		c0,0.7,0.4,1.4,1.2,1.4c0.6,0,1.6-0.4,1.6-1C115.5,209,115.4,208.8,115.2,208.8"/>
	<path class="st0" d="M92,205.3c-0.1-0.1-0.4-0.3-0.3-0.7c0.2-0.3,0.7-0.3,1.4,0.1c0.4,0.2,0.7,0.6,1,0.6c0.2,0,0.4-0.3,0.5-0.8
		c0.1-0.3-0.2-0.5-0.6-0.7c-0.4-0.2-0.9-0.3-1.3-0.3c-0.5,0-1.1,0.2-1.6,0.5c-0.3,0.3-0.7,0.7-0.7,1.3c0,1,1.3,1.8,1.9,2.3
		c0.3,0.2,1.1,0.7,1.1,1.2c0,0.4-0.3,0.5-0.6,0.5c-0.5,0-1.1-0.3-1.4-0.7c0,0-0.2-0.3-0.3-0.4c-0.1-0.1-0.2-0.1-0.2-0.1
		c-0.3,0-0.7,0.7-0.7,1c0,0.6,1.1,0.9,1.5,1c0.3,0.1,0.6,0.1,0.9,0.1c1.1,0,2.3-0.8,2.3-1.8c0-0.5-0.4-1-0.6-1.3
		C93.5,206.3,92.7,205.8,92,205.3"/>
	<path class="st0" d="M89.5,194.3c-0.5-0.1-0.6-0.4-0.6-1l0-4c0-0.4,0-0.7-0.5-0.7h-1.9c-0.3,0-0.4,0.1-0.4,0.4
		c0,0.2,0.2,0.3,0.4,0.4c0.6,0.1,0.7,0.2,0.7,0.9v3c-0.4,0.3-0.8,0.6-1.4,0.6c-0.9,0-1.1-0.7-1.1-1.5l0-3.1c0-0.4,0-0.7-0.5-0.7
		h-1.9c-0.3,0-0.4,0.1-0.4,0.4c0,0.2,0.2,0.3,0.4,0.4c0.6,0.1,0.7,0.2,0.7,0.9l0,2.5c0,1.3,0.8,2.3,2.2,2.3c0.8,0,1.4-0.4,2-1
		c0.1,0.4,0.1,0.9,0.6,0.9c0.3,0,0.5-0.1,0.8-0.1h0.9c0.2,0,0.4-0.1,0.4-0.4C89.9,194.4,89.7,194.3,89.5,194.3"/>
	<path class="st0" d="M99,209.3c-0.6-0.1-0.6-0.3-0.6-0.9v-4.2c0-0.5,0-0.6-0.5-0.6h-1.8c-0.3,0-0.5,0.1-0.5,0.4
		c0,0.2,0.2,0.3,0.4,0.4c0.6,0.1,0.7,0.2,0.7,0.9v3.1c0,0.6-0.1,0.7-0.6,0.9c-0.2,0-0.4,0.1-0.4,0.4c0,0.3,0.3,0.4,0.6,0.4
		c0.4,0,0.9-0.1,1.3-0.1c0.4,0,0.9,0.1,1.3,0.1c0.3,0,0.6-0.1,0.6-0.4C99.4,209.5,99.2,209.4,99,209.3"/>
	<path class="st0" d="M96.4,201.1c0,0.5,0.6,1.1,1,1.1c0.4,0,1-0.7,1-1.1s-0.6-1.1-1-1.1C97.1,200.1,96.4,200.7,96.4,201.1"/>
	<path class="st0" d="M75.6,187.6c0-1,0.2-1.8,1.3-1.8c1,0,1.8,0.7,1.8,1.8c0,0.7-0.4,1.4-1.1,1.7c-0.4,0.2-0.7,0.2-1.1,0.2
		c-0.3,0-0.6,0-0.9,0V187.6z M73.6,186.5c0,0.2,0,0.4,0,0.6v5.7c0,1.2-0.3,1.3-0.9,1.4c-0.3,0.1-0.5,0.2-0.5,0.4
		c0,0.3,0.3,0.4,0.6,0.4c0.5,0,1.3-0.1,1.7-0.1c0.5,0,1.3,0.1,1.7,0.1c0.3,0,0.6-0.1,0.6-0.4c0-0.3-0.2-0.3-0.5-0.4
		c-0.6-0.2-0.9-0.3-0.9-1.4v-2.4c0.1,0,0.3,0,0.4,0c0.5,0,0.7,0.2,1,0.6c0.1,0.1,0.3,0.3,0.4,0.5l1.2,2.1c0.3,0.5,0.7,1.1,1.3,1.3
		c0.4,0.2,0.9,0.2,1.4,0.2c0.3,0,0.9,0,0.9-0.4c0-0.2-0.1-0.3-0.3-0.4l-0.6-0.3c-0.2-0.1-0.4-0.4-0.5-0.6c-0.3-0.4-0.6-0.9-0.9-1.3
		c-0.2-0.3-0.4-0.7-0.7-1c-0.4-0.6-0.5-0.7-1.1-0.9c0.7-0.1,1.2-0.3,1.8-0.7c0.6-0.5,0.9-1.1,0.9-1.8c0-1.8-1.6-2.7-3.2-2.7
		c-0.9,0-1.8,0.1-2.7,0.1c-0.6,0-1.3-0.1-1.9-0.1c-0.3,0-0.7,0-0.7,0.4C72.2,186,73.5,185.7,73.6,186.5"/>
	<path class="st0" d="M77.5,209.3c-0.5,0-1.1-0.1-1.5-0.5c-0.4-0.5-0.4-1.4-0.4-2v-4c0-0.5-0.1-1.4,0.3-1.7c0.3-0.3,0.7-0.4,1.1-0.4
		c2.5,0,4.1,2.5,4.1,4.7C81,207.5,79.7,209.3,77.5,209.3 M77.8,199.9c-1,0-1.9,0.1-2.9,0.1c-0.7,0-1.4-0.1-2.1-0.1
		c-0.3,0-0.7,0.1-0.7,0.5c0,0.4,0.6,0.4,0.9,0.5c0.7,0.2,0.6,1.2,0.6,1.8v4.9c0,0.4,0,1-0.3,1.3c-0.3,0.3-1.1,0.3-1.1,0.7
		c0,0.4,0.5,0.5,0.8,0.5c0.5,0,1-0.1,1.5-0.1c0.7,0,1.6,0.1,2.3,0.1c1.1,0,2.6-0.3,3.6-0.9c0.5-0.3,0.9-0.7,1.2-1.1
		c0.7-1,1.2-2.2,1.2-3.4C82.9,201.8,80.6,199.9,77.8,199.9"/>
	<path class="st0" d="M116.3,173.6h-1.6c-0.2,0-0.4,0.2-0.4,0.4c0,0.5,0.7,0.3,0.7,0.8c0,0.3-0.1,0.6-0.2,0.9
		c-0.3,0.9-0.7,1.8-1.1,2.6l-1.1-2.6c-0.1-0.3-0.3-0.6-0.3-0.8c0-0.5,0.7-0.3,0.7-0.8c0-0.2-0.1-0.4-0.4-0.4H110
		c-0.3,0-0.5,0.1-0.5,0.4c0,0.3,0.3,0.4,0.5,0.6c0.2,0.2,0.3,0.5,0.4,0.8l1.9,4.4c0.2,0.3,0.4,0.6,0.8,0.6c0.3,0,0.6-0.2,0.7-0.5
		c0.6-1.2,1.2-2.6,1.7-3.8c0.1-0.2,0.4-1.3,0.6-1.5c0.2-0.1,0.5-0.2,0.5-0.5C116.7,173.8,116.6,173.6,116.3,173.6"/>
	<path class="st0" d="M90.6,174.4c0.5,0,1,0.3,1,0.9c0,0.1,0,0.1-0.1,0.2c-0.2,0.2-0.9,0.5-1.2,0.6c-0.4,0.1-0.8,0.3-1.1,0.5
		c0-0.1,0-0.3,0-0.4C89.3,175.3,89.7,174.4,90.6,174.4 M91,180.2c0.7,0,1.4-0.2,1.9-0.7c0.2-0.2,0.6-0.6,0.6-0.9
		c0-0.2-0.1-0.3-0.3-0.3c-0.4,0-0.6,0.6-1.6,0.6c-0.3,0-0.7-0.1-1-0.2c-0.6-0.3-0.8-0.6-1.1-1.2l3.2-1.4c0.3-0.1,0.6-0.4,0.6-0.7
		c0-0.3-0.2-0.7-0.4-1c-0.5-0.6-1-0.9-1.8-0.9c-1.9,0-3.2,1.7-3.2,3.5S89.1,180.2,91,180.2"/>
	<path class="st0" d="M118.2,176.2c0-0.8,0.4-1.8,1.3-1.8c0.5,0,1.1,0.3,1.1,0.9c0,0.1,0,0.1-0.1,0.2c-0.2,0.2-0.9,0.5-1.2,0.6
		c-0.4,0.1-0.8,0.3-1.1,0.5C118.2,176.5,118.2,176.3,118.2,176.2 M122.1,178.2c-0.4,0-0.6,0.6-1.6,0.6c-0.3,0-0.7-0.1-1-0.2
		c-0.6-0.3-0.8-0.6-1.1-1.2l3.2-1.4c0.3-0.1,0.6-0.4,0.6-0.7c0-0.3-0.2-0.7-0.4-1c-0.5-0.6-1-0.9-1.8-0.9c-1.9,0-3.2,1.7-3.2,3.5
		s1.3,3.2,3.1,3.2c0.7,0,1.4-0.2,1.9-0.7c0.2-0.2,0.6-0.6,0.6-0.9C122.4,178.4,122.3,178.2,122.1,178.2"/>
	<path class="st0" d="M101.7,174.5v3.2c0,0.6,0,1.4,0.4,1.8c0.4,0.5,1,0.6,1.6,0.6c0.4,0,1.7-0.2,1.7-0.8c0-0.2-0.2-0.3-0.4-0.3
		s-0.4,0.1-0.6,0.1c-0.9,0-1-0.9-1-1.7v-2.9h1.2c0.3,0,0.5-0.1,0.5-0.5c0-0.3-0.2-0.5-0.5-0.5h-1.2l0-1.3c0-0.3-0.1-0.6-0.4-0.6
		c-0.4,0-0.5,0.4-0.6,0.7c-0.2,0.5-0.6,0.9-1.1,1.2c-0.2,0.1-0.6,0.2-0.6,0.6C100.6,174.6,101.4,174.5,101.7,174.5"/>
	<path class="st0" d="M77.4,180.2c1,0,2-0.3,2.9-0.8c0.4-0.2,1.4-0.9,1.4-1.4c0-0.2-0.2-0.4-0.4-0.4c-0.3,0.1-0.6,0.4-1.2,0.7
		c-0.5,0.2-1.3,0.4-1.8,0.4c-2.3,0-4-1.8-4-4.1c0-2,1.3-3.6,3.4-3.6c0.7,0,2.4,0.3,2.4,1.3c0,0.2-0.2,0.4-0.2,0.6
		c0,0.2,0.2,0.4,0.4,0.4c0.5,0,1.4-1.2,1.4-1.7c0-0.2-0.1-0.4-0.2-0.6c-0.1-0.1-0.3-0.3-0.4-0.3c-0.8-0.6-2.1-0.8-3-0.8
		c-3.1,0-5.6,2.2-5.6,5.4C72.5,178.1,74.6,180.2,77.4,180.2"/>
	<path class="st0" d="M82.5,174.4c0.6,0.1,0.7,0.2,0.7,0.9v3.1c0,0.6-0.1,0.7-0.6,0.9c-0.2,0-0.4,0.2-0.4,0.4c0,0.3,0.3,0.4,0.6,0.4
		c0.4,0,0.9-0.1,1.3-0.1s0.9,0.1,1.3,0.1c0.3,0,0.6-0.1,0.6-0.4c0-0.2-0.2-0.3-0.4-0.4c-0.6-0.1-0.6-0.3-0.6-0.9v-2.8
		c0.2-0.4,0.5-0.8,1-0.8c0.5,0,0.7,0.5,0.9,0.5c0.6,0,0.7-0.8,0.7-1.2c0-0.6-0.3-0.8-0.8-0.8c-0.8,0-1.4,0.6-1.9,1.1
		c0-0.5,0-0.9-0.7-0.9h-1.6c-0.3,0-0.5,0.1-0.5,0.4C82.1,174.2,82.3,174.3,82.5,174.4"/>
	<path class="st0" d="M97.9,178.3c-0.2,0.3-0.7,0.7-1.2,0.7c-0.5,0-0.8-0.4-0.8-0.9c0-0.5,0.6-0.9,1-1.1l1-0.4V178.3z M100.5,179.7
		c0-0.3-0.3-0.3-0.5-0.4c-0.3-0.1-0.4-0.2-0.4-0.9v-2.8c0-0.6-0.1-1.2-0.6-1.6c-0.4-0.4-1-0.5-1.6-0.5c-0.9,0-1.8,0.5-2.4,1.1
		c-0.3,0.3-0.3,0.4,0,0.6c0.2,0.2,0.5,0.2,0.8,0c0.3-0.2,0.9-0.5,1.3-0.5c0.6,0,1,0.4,0.9,1.2l-1.5,0.6c-0.9,0.4-2.2,1.1-2.2,2.2
		c0,1,0.9,1.6,1.8,1.6c0.9,0,1.5-0.4,2-1c0.2,1,1,1,1.5,1C99.8,180.1,100.5,180.1,100.5,179.7"/>
	<path class="st0" d="M106.2,174.4c0.6,0.1,0.7,0.2,0.7,0.9v3.1c0,0.6-0.1,0.7-0.6,0.9c-0.2,0-0.4,0.2-0.4,0.4
		c0,0.3,0.3,0.4,0.6,0.4c0.4,0,0.9-0.1,1.3-0.1s0.9,0.1,1.3,0.1c0.3,0,0.6-0.1,0.6-0.4c0-0.2-0.2-0.3-0.4-0.4
		c-0.6-0.1-0.6-0.3-0.6-0.9v-4.2c0-0.5,0-0.6-0.5-0.6h-1.8c-0.3,0-0.5,0.1-0.5,0.4C105.8,174.2,106,174.3,106.2,174.4"/>
	<path class="st0" d="M107.6,172.2c0.4,0,1-0.7,1-1.1s-0.6-1.1-1-1.1c-0.3,0-1.1,0.6-1.1,1.1C106.6,171.6,107.2,172.2,107.6,172.2"
		/>
</g>
<rect x="66.4" y="6" class="st1" width="0.8" height="132"/>
<rect x="0.8" y="71.6" class="st1" width="132" height="0.8"/>
<g>
	<defs>
		<rect id="SVGID_3_" width="732" height="216"/>
	</defs>
	<clipPath id="SVGID_4_">
		<use xlink:href="#SVGID_3_"  style="overflow:visible;"/>
	</clipPath>
	<path class="st2" d="M30.8,134.8C16,134.8,4,122.8,4,108c0-14.8,12-26.8,26.8-26.8s26.8,12,26.8,26.8
		C57.5,122.8,45.5,134.8,30.8,134.8 M30.8,77.3C13.8,77.3,0,91,0,108s13.8,30.8,30.8,30.8S61.5,125,61.5,108S47.7,77.3,30.8,77.3"/>
</g>
<polygon class="st1" points="0.7,6 0.7,66 12.8,66 12.8,45 57.8,45 57.8,33 12.8,33 12.8,18 60.7,18 60.7,6 "/>
<polygon class="st1" points="84.8,54 84.8,6 72.8,6 72.8,66 132.8,66 132.8,54 "/>
<g>
	<defs>
		<rect id="SVGID_5_" width="732" height="216"/>
	</defs>
	<clipPath id="SVGID_6_">
		<use xlink:href="#SVGID_5_"  style="overflow:visible;"/>
	</clipPath>
	<path class="st3" d="M84.8,90h27.8c5,0,9,4,9,9c0,5-4,9-9,9H84.8V90z M133.5,99c0-11.6-9.4-21-21-21H72.8v60h12v-18h21.5l18,18h8.5
		v-8.5l-11.4-11.4C128.5,114.7,133.5,107.5,133.5,99"/>
	<path class="st3" d="M129.5,80c0,1.1,0.9,2,2,2c1.1,0,2-0.9,2-2c0-1.1-0.9-2-2-2C130.4,78,129.5,78.9,129.5,80 M129.9,80
		c0-0.9,0.7-1.6,1.6-1.6c0.9,0,1.6,0.7,1.6,1.6c0,0.9-0.7,1.6-1.6,1.6C130.6,81.6,129.9,80.9,129.9,80 M132.1,80.2L132.1,80.2
		c0.3-0.2,0.4-0.4,0.4-0.7c0-0.4-0.3-0.7-0.7-0.7h-1.1l-0.1,0.1v2.1l0.1,0.1h0.3l0.1-0.1v-0.8l0.1-0.1h0.3l0.1,0.1l0.6,0.8l0.1,0.1
		h0.2l0.1-0.1v-0.3L132.1,80.2z M132.1,79.6c0,0.2-0.1,0.3-0.3,0.3h-0.7l-0.1-0.1v-0.4l0.1-0.1h0.7
		C131.9,79.3,132.1,79.4,132.1,79.6"/>
	<path class="st4" d="M291.3,192.5c-0.8,0-1-1.1-1-1.7c0-0.6,0.2-1.5,1-1.5c0.8,0,1.1,1,1.1,1.7
		C292.3,191.6,292.1,192.5,291.3,192.5 M294.5,188.3c-0.6,0-0.9,0.4-1.2,0.9c-0.6-0.6-1.2-0.8-2.1-0.8c-1.5,0-2.7,0.9-2.7,2.5
		c0,1,0.3,1.5,1.2,2c-0.5,0.4-1.3,1.1-1.3,1.8c0,0.3,0.1,0.5,0.4,0.6c0.5,0.2,1.5,0.2,2.1,0.2c0.4,0,1.4,0,1.8,0.1
		c0.2,0.1,0.5,0.3,0.5,0.5c0,0.7-1,0.8-1.5,0.8c-0.7,0-1.3-0.1-1.8-0.6c-0.2-0.2-0.3-0.4-0.6-0.4c-0.4,0-0.7,0.5-0.7,0.9
		c0,0.9,1.6,1.1,2.2,1.1c1.5,0,3.5-0.4,3.5-2.3c0-1.5-1.5-1.4-2.6-1.5c-0.3,0-0.7,0-1,0c-0.1,0-0.6,0-0.6-0.2c0-0.3,0.2-0.5,0.4-0.7
		c0.3,0,0.6,0.1,0.8,0.1c1.5,0,2.6-0.9,2.6-2.4c0-0.2,0-0.4,0-0.6c0-0.1-0.1-0.3-0.1-0.5c0-0.2,0.1-0.3,0.2-0.3
		c0.3,0,0.3,0.4,0.6,0.4c0.4,0,0.6-0.4,0.6-0.7C295.3,188.8,295,188.3,294.5,188.3"/>
	<path class="st4" d="M282.9,206.2c0-0.8,0.4-1.8,1.4-1.8c0.5,0,1,0.3,1,0.9c0,0.1,0,0.1-0.1,0.2c-0.2,0.2-0.9,0.5-1.2,0.6
		c-0.4,0.1-0.8,0.3-1.1,0.5C282.9,206.5,282.9,206.3,282.9,206.2 M286.7,208.2c-0.4,0-0.6,0.6-1.6,0.6c-0.3,0-0.7-0.1-1-0.2
		c-0.6-0.3-0.8-0.6-1.1-1.2l3.2-1.4c0.3-0.1,0.6-0.4,0.6-0.7c0-0.3-0.2-0.7-0.4-1c-0.5-0.6-1-0.9-1.8-0.9c-1.9,0-3.2,1.7-3.2,3.5
		s1.3,3.2,3.1,3.2c0.7,0,1.4-0.2,1.9-0.7c0.2-0.2,0.6-0.6,0.6-0.9C287,208.4,286.9,208.2,286.7,208.2"/>
	<path class="st4" d="M300.9,207.5c-0.8,0-1-1.1-1-1.7c0-0.6,0.2-1.5,1-1.5c0.8,0,1.1,1,1.1,1.6C302,206.6,301.7,207.5,300.9,207.5
		 M304.2,203.3c-0.6,0-0.9,0.4-1.2,0.9c-0.6-0.6-1.2-0.8-2.1-0.8c-1.5,0-2.7,0.9-2.7,2.5c0,1,0.3,1.5,1.2,2
		c-0.5,0.4-1.3,1.1-1.3,1.8c0,0.3,0.1,0.5,0.4,0.6c0.5,0.2,1.5,0.2,2.1,0.2c0.4,0,1.4,0,1.8,0.2c0.2,0.1,0.5,0.3,0.5,0.5
		c0,0.7-1,0.8-1.5,0.8c-0.7,0-1.3-0.1-1.8-0.6c-0.2-0.2-0.3-0.4-0.6-0.4c-0.4,0-0.7,0.5-0.7,0.9c0,0.9,1.6,1.1,2.2,1.1
		c1.5,0,3.5-0.4,3.5-2.3c0-1.5-1.5-1.4-2.6-1.5c-0.3,0-0.7,0-1,0c-0.1,0-0.6,0-0.6-0.2c0-0.3,0.2-0.5,0.4-0.7c0.3,0,0.6,0.1,0.8,0.1
		c1.5,0,2.6-0.9,2.6-2.4c0-0.2,0-0.4,0-0.6c0-0.2-0.1-0.3-0.1-0.5c0-0.1,0.1-0.3,0.2-0.3c0.3,0,0.3,0.4,0.6,0.4
		c0.4,0,0.6-0.4,0.6-0.7C305,203.8,304.7,203.3,304.2,203.3"/>
	<path class="st4" d="M313,208.8c-0.2,0-0.4,0.1-0.5,0.1c-0.3,0-0.3-0.4-0.3-0.7v-2.2c0-0.7,0-1.3-0.4-1.8c-0.4-0.5-1-0.8-1.6-0.8
		c-0.8,0-1.5,0.4-2.1,0.9c0-0.5,0-0.8-0.6-0.8h-1.6c-0.3,0-0.5,0.1-0.5,0.4c0,0.2,0.2,0.3,0.4,0.4c0.6,0.1,0.7,0.2,0.7,0.9v3.1
		c0,0.6-0.1,0.7-0.6,0.9c-0.2,0-0.4,0.1-0.4,0.4c0,0.3,0.3,0.4,0.6,0.4c0.4,0,0.9-0.1,1.3-0.1s0.9,0.1,1.3,0.1
		c0.3,0,0.6-0.1,0.6-0.4c0-0.2-0.2-0.3-0.4-0.4c-0.6-0.1-0.6-0.3-0.6-0.9v-3c0.4-0.4,0.8-0.7,1.4-0.7c0.9,0,1,0.9,1,1.6v2.4
		c0,0.7,0.4,1.4,1.2,1.4c0.5,0,1.6-0.4,1.6-1C313.3,209,313.2,208.8,313,208.8"/>
	<path class="st4" d="M289.7,205.3c-0.1-0.1-0.4-0.3-0.3-0.7c0.2-0.3,0.7-0.3,1.4,0.1c0.4,0.2,0.7,0.6,1,0.6c0.2,0,0.4-0.3,0.5-0.8
		c0.1-0.3-0.2-0.5-0.6-0.7c-0.4-0.2-0.9-0.3-1.3-0.3c-0.5,0-1.1,0.2-1.6,0.5c-0.3,0.3-0.7,0.7-0.7,1.3c0,1,1.3,1.8,1.9,2.3
		c0.3,0.2,1.1,0.7,1.1,1.2c0,0.4-0.3,0.5-0.6,0.5c-0.5,0-1.1-0.3-1.4-0.7c0,0-0.2-0.3-0.3-0.4c-0.1-0.1-0.2-0.1-0.2-0.1
		c-0.3,0-0.7,0.7-0.7,1c0,0.6,1.1,0.9,1.5,1c0.3,0.1,0.6,0.1,0.9,0.1c1.1,0,2.3-0.8,2.3-1.8c0-0.5-0.4-1-0.6-1.3
		C291.2,206.3,290.5,205.8,289.7,205.3"/>
	<path class="st4" d="M287.2,194.3c-0.5-0.1-0.6-0.4-0.6-1l0-4c0-0.4,0-0.7-0.5-0.7h-1.9c-0.3,0-0.4,0.1-0.4,0.4
		c0,0.2,0.2,0.3,0.4,0.4c0.6,0.1,0.7,0.2,0.7,0.9v3c-0.4,0.3-0.8,0.6-1.4,0.6c-0.9,0-1.1-0.7-1.1-1.5l0-3.1c0-0.4,0-0.7-0.5-0.7
		h-1.9c-0.3,0-0.4,0.1-0.4,0.4c0,0.2,0.2,0.3,0.4,0.4c0.6,0.1,0.7,0.2,0.7,0.9l0,2.5c0,1.3,0.8,2.3,2.2,2.3c0.8,0,1.4-0.4,2-1
		c0.1,0.4,0.1,0.9,0.6,0.9c0.3,0,0.5-0.1,0.8-0.1h0.9c0.2,0,0.4-0.1,0.4-0.4C287.6,194.4,287.5,194.3,287.2,194.3"/>
	<path class="st4" d="M296.8,209.3c-0.6-0.1-0.6-0.3-0.6-0.9v-4.2c0-0.5,0-0.6-0.5-0.6h-1.8c-0.3,0-0.5,0.1-0.5,0.4
		c0,0.2,0.2,0.3,0.4,0.4c0.6,0.1,0.7,0.2,0.7,0.9v3.1c0,0.6-0.1,0.7-0.6,0.9c-0.2,0-0.4,0.1-0.4,0.4c0,0.3,0.3,0.4,0.6,0.4
		c0.4,0,0.9-0.1,1.3-0.1c0.4,0,0.9,0.1,1.3,0.1c0.3,0,0.6-0.1,0.6-0.4C297.2,209.5,297,209.4,296.8,209.3"/>
	<path class="st4" d="M294.2,201.1c0,0.5,0.6,1.1,1,1.1c0.4,0,1-0.7,1-1.1s-0.6-1.1-1-1.1C294.9,200.1,294.2,200.7,294.2,201.1"/>
	<path class="st4" d="M273.4,187.6c0-1,0.2-1.8,1.3-1.8c1,0,1.8,0.7,1.8,1.8c0,0.7-0.4,1.4-1.1,1.7c-0.4,0.2-0.7,0.2-1.1,0.2
		c-0.3,0-0.6,0-0.9,0V187.6z M271.4,186.5c0,0.2,0,0.4,0,0.6v5.7c0,1.2-0.3,1.3-0.9,1.4c-0.3,0.1-0.5,0.2-0.5,0.4
		c0,0.3,0.3,0.4,0.6,0.4c0.5,0,1.3-0.1,1.7-0.1s1.3,0.1,1.7,0.1c0.3,0,0.6-0.1,0.6-0.4c0-0.3-0.2-0.3-0.5-0.4
		c-0.6-0.2-0.9-0.3-0.9-1.4v-2.4c0.1,0,0.3,0,0.4,0c0.5,0,0.7,0.2,1,0.6c0.1,0.1,0.3,0.3,0.4,0.5l1.2,2.1c0.3,0.5,0.7,1.1,1.3,1.3
		c0.4,0.2,0.9,0.2,1.4,0.2c0.3,0,0.9,0,0.9-0.4c0-0.2-0.1-0.3-0.3-0.4l-0.6-0.3c-0.2-0.1-0.4-0.4-0.5-0.6c-0.3-0.4-0.6-0.9-0.9-1.3
		c-0.2-0.3-0.4-0.7-0.7-1c-0.4-0.6-0.5-0.7-1.1-0.9c0.7-0.1,1.2-0.3,1.8-0.7c0.6-0.5,0.9-1.1,0.9-1.8c0-1.8-1.6-2.7-3.2-2.7
		c-0.9,0-1.8,0.1-2.7,0.1c-0.6,0-1.3-0.1-1.9-0.1c-0.3,0-0.7,0-0.7,0.4C270,186,271.2,185.7,271.4,186.5"/>
	<path class="st4" d="M275.3,209.3c-0.5,0-1.1-0.1-1.5-0.5c-0.4-0.5-0.4-1.4-0.4-2v-4c0-0.5-0.1-1.4,0.3-1.7
		c0.3-0.3,0.7-0.4,1.1-0.4c2.5,0,4.1,2.5,4.1,4.7C278.8,207.5,277.5,209.3,275.3,209.3 M275.5,199.9c-1,0-1.9,0.1-2.9,0.1
		c-0.7,0-1.4-0.1-2.1-0.1c-0.3,0-0.7,0.1-0.7,0.5c0,0.4,0.6,0.4,0.9,0.5c0.7,0.2,0.6,1.2,0.6,1.8v4.9c0,0.4,0,1-0.3,1.3
		c-0.3,0.3-1.1,0.3-1.1,0.7c0,0.4,0.5,0.5,0.8,0.5c0.5,0,1-0.1,1.5-0.1c0.7,0,1.6,0.1,2.3,0.1c1.1,0,2.6-0.3,3.6-0.9
		c0.5-0.3,0.9-0.7,1.2-1.1c0.7-1,1.2-2.2,1.2-3.4C280.7,201.8,278.3,199.9,275.5,199.9"/>
	<path class="st4" d="M314,173.6h-1.6c-0.2,0-0.4,0.2-0.4,0.4c0,0.5,0.7,0.3,0.7,0.8c0,0.3-0.1,0.6-0.2,0.9
		c-0.3,0.9-0.7,1.8-1.1,2.6l-1.1-2.6c-0.1-0.3-0.3-0.6-0.3-0.8c0-0.5,0.7-0.3,0.7-0.8c0-0.2-0.1-0.4-0.4-0.4h-2.5
		c-0.3,0-0.5,0.1-0.5,0.4c0,0.3,0.3,0.4,0.5,0.6c0.2,0.2,0.3,0.5,0.4,0.8l1.9,4.4c0.2,0.3,0.4,0.6,0.8,0.6c0.3,0,0.6-0.2,0.7-0.5
		c0.6-1.2,1.2-2.6,1.7-3.8c0.1-0.2,0.4-1.3,0.6-1.5c0.2-0.1,0.5-0.2,0.5-0.5C314.4,173.8,314.4,173.6,314,173.6"/>
	<path class="st4" d="M288.4,174.4c0.5,0,1,0.3,1,0.9c0,0.1,0,0.1-0.1,0.2c-0.2,0.2-0.9,0.5-1.2,0.6c-0.4,0.1-0.8,0.3-1.1,0.5
		c0-0.1,0-0.3,0-0.4C287,175.3,287.4,174.4,288.4,174.4 M288.7,180.2c0.7,0,1.4-0.2,1.9-0.7c0.2-0.2,0.6-0.6,0.6-0.9
		c0-0.2-0.1-0.3-0.3-0.3c-0.4,0-0.6,0.6-1.6,0.6c-0.3,0-0.7-0.1-1-0.2c-0.6-0.3-0.8-0.6-1.1-1.2l3.2-1.4c0.3-0.1,0.6-0.4,0.6-0.7
		c0-0.3-0.2-0.7-0.4-1c-0.5-0.6-1-0.9-1.8-0.9c-1.9,0-3.2,1.7-3.2,3.5S286.9,180.2,288.7,180.2"/>
	<path class="st4" d="M315.9,176.2c0-0.8,0.4-1.8,1.4-1.8c0.5,0,1,0.3,1,0.9c0,0.1,0,0.1-0.1,0.2c-0.2,0.2-0.9,0.5-1.2,0.6
		c-0.4,0.1-0.8,0.3-1.1,0.5C315.9,176.5,315.9,176.3,315.9,176.2 M319.8,178.2c-0.4,0-0.6,0.6-1.6,0.6c-0.3,0-0.7-0.1-1-0.2
		c-0.6-0.3-0.8-0.6-1.1-1.2l3.2-1.4c0.3-0.1,0.6-0.4,0.6-0.7c0-0.3-0.2-0.7-0.4-1c-0.5-0.6-1-0.9-1.8-0.9c-1.9,0-3.2,1.7-3.2,3.5
		s1.3,3.2,3.1,3.2c0.7,0,1.4-0.2,1.9-0.7c0.2-0.2,0.6-0.6,0.6-0.9C320.1,178.4,320,178.2,319.8,178.2"/>
	<path class="st4" d="M299.4,174.5v3.2c0,0.6,0,1.4,0.4,1.8c0.4,0.5,1,0.6,1.6,0.6c0.4,0,1.7-0.2,1.7-0.8c0-0.2-0.2-0.3-0.4-0.3
		s-0.4,0.1-0.6,0.1c-0.9,0-1-0.9-1-1.7v-2.9h1.2c0.3,0,0.5-0.1,0.5-0.5c0-0.3-0.2-0.5-0.5-0.5h-1.2l0-1.3c0-0.3-0.1-0.6-0.4-0.6
		c-0.4,0-0.5,0.4-0.6,0.7c-0.2,0.5-0.6,0.9-1,1.2c-0.2,0.1-0.6,0.2-0.6,0.6C298.4,174.6,299.1,174.5,299.4,174.5"/>
	<path class="st4" d="M275.2,180.2c1,0,2-0.3,2.9-0.8c0.4-0.2,1.4-0.9,1.4-1.4c0-0.2-0.2-0.4-0.4-0.4c-0.3,0.1-0.6,0.4-1.2,0.7
		c-0.5,0.2-1.3,0.4-1.8,0.4c-2.3,0-4-1.8-4-4.1c0-2,1.3-3.6,3.4-3.6c0.7,0,2.4,0.3,2.4,1.3c0,0.2-0.1,0.4-0.1,0.6
		c0,0.2,0.2,0.4,0.4,0.4c0.5,0,1.4-1.2,1.4-1.7c0-0.2-0.1-0.4-0.2-0.6c-0.1-0.1-0.3-0.3-0.4-0.3c-0.8-0.6-2.1-0.8-3-0.8
		c-3.1,0-5.6,2.2-5.6,5.4C270.2,178.1,272.3,180.2,275.2,180.2"/>
	<path class="st4" d="M280.2,174.4c0.6,0.1,0.7,0.2,0.7,0.9v3.1c0,0.6-0.1,0.7-0.6,0.9c-0.2,0-0.4,0.2-0.4,0.4
		c0,0.3,0.3,0.4,0.6,0.4c0.4,0,0.9-0.1,1.3-0.1s0.9,0.1,1.3,0.1c0.3,0,0.6-0.1,0.6-0.4c0-0.2-0.2-0.3-0.4-0.4
		c-0.6-0.1-0.6-0.3-0.6-0.9v-2.8c0.2-0.4,0.5-0.8,1-0.8c0.5,0,0.7,0.5,0.9,0.5c0.6,0,0.7-0.8,0.7-1.2c0-0.6-0.3-0.8-0.8-0.8
		c-0.8,0-1.4,0.6-1.9,1.1c0-0.5,0-0.9-0.7-0.9h-1.6c-0.3,0-0.5,0.1-0.5,0.4C279.9,174.2,280,174.3,280.2,174.4"/>
	<path class="st4" d="M295.6,178.3c-0.2,0.3-0.7,0.7-1.2,0.7c-0.5,0-0.8-0.4-0.8-0.9c0-0.5,0.6-0.9,1-1.1l1-0.4V178.3z M298.3,179.7
		c0-0.3-0.3-0.3-0.5-0.4c-0.3-0.1-0.4-0.2-0.4-0.9v-2.8c0-0.6-0.1-1.2-0.6-1.6c-0.5-0.4-1-0.5-1.6-0.5c-0.9,0-1.8,0.5-2.4,1.1
		c-0.3,0.3-0.3,0.4,0,0.6c0.2,0.2,0.5,0.2,0.8,0c0.3-0.2,0.9-0.5,1.3-0.5c0.6,0,1,0.4,0.9,1.2l-1.5,0.6c-0.9,0.4-2.2,1.1-2.2,2.2
		c0,1,0.9,1.6,1.8,1.6c0.9,0,1.5-0.4,2-1c0.2,1,1,1,1.5,1C297.5,180.1,298.3,180.1,298.3,179.7"/>
	<path class="st4" d="M303.9,174.4c0.6,0.1,0.7,0.2,0.7,0.9v3.1c0,0.6-0.1,0.7-0.6,0.9c-0.2,0-0.4,0.2-0.4,0.4
		c0,0.3,0.3,0.4,0.6,0.4c0.4,0,0.9-0.1,1.3-0.1s0.9,0.1,1.3,0.1c0.3,0,0.6-0.1,0.6-0.4c0-0.2-0.2-0.3-0.4-0.4
		c-0.6-0.1-0.6-0.3-0.6-0.9v-4.2c0-0.5,0-0.6-0.5-0.6h-1.8c-0.3,0-0.5,0.1-0.5,0.4C303.5,174.2,303.7,174.3,303.9,174.4"/>
	<path class="st4" d="M305.4,172.2c0.4,0,1-0.7,1-1.1s-0.6-1.1-1-1.1c-0.3,0-1.1,0.6-1.1,1.1C304.4,171.6,305,172.2,305.4,172.2"/>
</g>
<rect x="264.1" y="6" class="st5" width="0.8" height="132"/>
<rect x="198.5" y="71.6" class="st5" width="132" height="0.8"/>
<g>
	<defs>
		<rect id="SVGID_7_" width="732" height="216"/>
	</defs>
	<clipPath id="SVGID_8_">
		<use xlink:href="#SVGID_7_"  style="overflow:visible;"/>
	</clipPath>
	<path class="st6" d="M228.5,134.8c-14.8,0-26.8-12-26.8-26.8c0-14.8,12-26.8,26.8-26.8c14.8,0,26.8,12,26.8,26.8
		C255.2,122.8,243.3,134.8,228.5,134.8 M228.5,77.3c-17,0-30.8,13.8-30.8,30.8s13.8,30.8,30.8,30.8s30.8-13.8,30.8-30.8
		S245.5,77.3,228.5,77.3"/>
</g>
<polygon class="st5" points="258.5,18 258.5,6 198.5,6 198.5,66 210.5,66 210.5,45 255.5,45 255.5,33 210.5,33 210.5,18 "/>
<polygon class="st5" points="282.5,54 282.5,6 270.5,6 270.5,66 330.5,66 330.5,54 "/>
<g>
	<defs>
		<rect id="SVGID_9_" width="732" height="216"/>
	</defs>
	<clipPath id="SVGID_10_">
		<use xlink:href="#SVGID_9_"  style="overflow:visible;"/>
	</clipPath>
	<path class="st7" d="M282.5,90h27.8c5,0,9,4,9,9c0,5-4,9-9,9h-27.8V90z M331.2,99c0-11.6-9.4-21-21-21h-39.8v60h12v-18H304l18,18
		h8.5v-8.5l-11.4-11.4C326.3,114.7,331.2,107.5,331.2,99"/>
	<path class="st7" d="M327.2,80c0,1.1,0.9,2,2,2c1.1,0,2-0.9,2-2c0-1.1-0.9-2-2-2C328.1,78,327.2,78.9,327.2,80 M327.7,80
		c0-0.9,0.7-1.6,1.6-1.6c0.9,0,1.6,0.7,1.6,1.6c0,0.9-0.7,1.6-1.6,1.6C328.4,81.6,327.7,80.9,327.7,80 M329.8,80.2L329.8,80.2
		c0.3-0.2,0.4-0.4,0.4-0.7c0-0.4-0.3-0.7-0.7-0.7h-1.1l-0.1,0.1v2.1l0.1,0.1h0.3l0.1-0.1v-0.8l0.1-0.1h0.3l0.1,0.1l0.6,0.8l0.1,0.1
		h0.2l0.1-0.1v-0.3L329.8,80.2z M329.8,79.6c0,0.2-0.1,0.3-0.3,0.3h-0.7l-0.1-0.1v-0.4l0.1-0.1h0.7
		C329.7,79.3,329.8,79.4,329.8,79.6"/>
	<path class="st8" d="M489,192.5c-0.8,0-1-1.1-1-1.7c0-0.6,0.2-1.5,1-1.5c0.8,0,1.1,1,1.1,1.7C490.1,191.6,489.8,192.5,489,192.5
		 M492.3,188.3c-0.6,0-0.9,0.4-1.2,0.9c-0.6-0.6-1.2-0.8-2.1-0.8c-1.5,0-2.7,0.9-2.7,2.5c0,1,0.3,1.5,1.2,2
		c-0.5,0.4-1.3,1.1-1.3,1.8c0,0.3,0.1,0.5,0.4,0.6c0.5,0.2,1.5,0.2,2.1,0.2c0.4,0,1.4,0,1.8,0.1c0.2,0.1,0.5,0.3,0.5,0.5
		c0,0.7-1,0.8-1.5,0.8c-0.7,0-1.3-0.1-1.8-0.6c-0.2-0.2-0.3-0.4-0.6-0.4c-0.4,0-0.7,0.5-0.7,0.9c0,0.9,1.6,1.1,2.2,1.1
		c1.5,0,3.5-0.4,3.5-2.3c0-1.5-1.5-1.4-2.6-1.5c-0.3,0-0.7,0-1,0c-0.1,0-0.6,0-0.6-0.2c0-0.3,0.2-0.5,0.4-0.7c0.3,0,0.6,0.1,0.8,0.1
		c1.5,0,2.6-0.9,2.6-2.4c0-0.2,0-0.4,0-0.6c0-0.1-0.1-0.3-0.1-0.5c0-0.2,0.1-0.3,0.2-0.3c0.3,0,0.3,0.4,0.6,0.4
		c0.4,0,0.6-0.4,0.6-0.7C493.1,188.8,492.8,188.3,492.3,188.3"/>
	<path class="st8" d="M480.6,206.2c0-0.8,0.4-1.8,1.4-1.8c0.5,0,1,0.3,1,0.9c0,0.1,0,0.1-0.1,0.2c-0.2,0.2-0.9,0.5-1.2,0.6
		c-0.4,0.1-0.8,0.3-1.1,0.5C480.6,206.5,480.6,206.3,480.6,206.2 M484.5,208.2c-0.4,0-0.6,0.6-1.6,0.6c-0.3,0-0.7-0.1-1-0.2
		c-0.6-0.3-0.8-0.6-1.1-1.2l3.2-1.4c0.3-0.1,0.6-0.4,0.6-0.7c0-0.3-0.2-0.7-0.4-1c-0.5-0.6-1-0.9-1.8-0.9c-1.9,0-3.2,1.7-3.2,3.5
		s1.3,3.2,3.1,3.2c0.7,0,1.4-0.2,1.9-0.7c0.2-0.2,0.6-0.6,0.6-0.9C484.8,208.4,484.7,208.2,484.5,208.2"/>
	<path class="st8" d="M498.7,207.5c-0.8,0-1-1.1-1-1.7c0-0.6,0.2-1.5,1-1.5c0.8,0,1.1,1,1.1,1.6
		C499.8,206.6,499.5,207.5,498.7,207.5 M502,203.3c-0.6,0-0.9,0.4-1.2,0.9c-0.6-0.6-1.2-0.8-2.1-0.8c-1.5,0-2.7,0.9-2.7,2.5
		c0,1,0.3,1.5,1.2,2c-0.5,0.4-1.3,1.1-1.3,1.8c0,0.3,0.1,0.5,0.4,0.6c0.5,0.2,1.5,0.2,2.1,0.2c0.4,0,1.4,0,1.8,0.2
		c0.2,0.1,0.5,0.3,0.5,0.5c0,0.7-1,0.8-1.5,0.8c-0.7,0-1.3-0.1-1.8-0.6c-0.2-0.2-0.3-0.4-0.6-0.4c-0.4,0-0.7,0.5-0.7,0.9
		c0,0.9,1.6,1.1,2.2,1.1c1.5,0,3.5-0.4,3.5-2.3c0-1.5-1.5-1.4-2.6-1.5c-0.3,0-0.7,0-1,0c-0.1,0-0.6,0-0.6-0.2c0-0.3,0.2-0.5,0.4-0.7
		c0.3,0,0.6,0.1,0.8,0.1c1.5,0,2.6-0.9,2.6-2.4c0-0.2,0-0.4,0-0.6c0-0.2-0.1-0.3-0.1-0.5c0-0.1,0.1-0.3,0.2-0.3
		c0.3,0,0.3,0.4,0.6,0.4c0.4,0,0.6-0.4,0.6-0.7C502.7,203.8,502.4,203.3,502,203.3"/>
	<path class="st8" d="M510.7,208.8c-0.2,0-0.4,0.1-0.5,0.1c-0.3,0-0.3-0.4-0.3-0.7v-2.2c0-0.7,0-1.3-0.4-1.8c-0.4-0.5-1-0.8-1.6-0.8
		c-0.8,0-1.5,0.4-2.1,0.9c0-0.5,0-0.8-0.6-0.8h-1.6c-0.3,0-0.5,0.1-0.5,0.4c0,0.2,0.2,0.3,0.4,0.4c0.6,0.1,0.7,0.2,0.7,0.9v3.1
		c0,0.6-0.1,0.7-0.6,0.9c-0.2,0-0.4,0.1-0.4,0.4c0,0.3,0.3,0.4,0.6,0.4c0.4,0,0.9-0.1,1.3-0.1s0.9,0.1,1.3,0.1
		c0.3,0,0.6-0.1,0.6-0.4c0-0.2-0.2-0.3-0.4-0.4c-0.6-0.1-0.6-0.3-0.6-0.9v-3c0.4-0.4,0.8-0.7,1.4-0.7c0.9,0,1,0.9,1,1.6v2.4
		c0,0.7,0.4,1.4,1.2,1.4c0.5,0,1.6-0.4,1.6-1C511,209,510.9,208.8,510.7,208.8"/>
	<path class="st8" d="M487.5,205.3c-0.1-0.1-0.4-0.3-0.3-0.7c0.2-0.3,0.7-0.3,1.4,0.1c0.4,0.2,0.7,0.6,1,0.6c0.2,0,0.4-0.3,0.5-0.8
		c0.1-0.3-0.2-0.5-0.6-0.7c-0.4-0.2-0.9-0.3-1.3-0.3c-0.5,0-1.1,0.2-1.6,0.5c-0.3,0.3-0.7,0.7-0.7,1.3c0,1,1.3,1.8,1.9,2.3
		c0.3,0.2,1.1,0.7,1.1,1.2c0,0.4-0.3,0.5-0.6,0.5c-0.5,0-1.1-0.3-1.4-0.7c0,0-0.2-0.3-0.3-0.4c-0.1-0.1-0.2-0.1-0.2-0.1
		c-0.3,0-0.7,0.7-0.7,1c0,0.6,1.1,0.9,1.5,1c0.3,0.1,0.6,0.1,0.9,0.1c1.1,0,2.3-0.8,2.3-1.8c0-0.5-0.4-1-0.6-1.3
		C489,206.3,488.2,205.8,487.5,205.3"/>
	<path class="st8" d="M485,194.3c-0.5-0.1-0.6-0.4-0.6-1l0-4c0-0.4,0-0.7-0.5-0.7h-1.9c-0.3,0-0.4,0.1-0.4,0.4
		c0,0.2,0.2,0.3,0.4,0.4c0.6,0.1,0.7,0.2,0.7,0.9v3c-0.4,0.3-0.8,0.6-1.4,0.6c-0.9,0-1.1-0.7-1.1-1.5l0-3.1c0-0.4,0-0.7-0.5-0.7
		h-1.9c-0.3,0-0.4,0.1-0.4,0.4c0,0.2,0.2,0.3,0.4,0.4c0.6,0.1,0.7,0.2,0.7,0.9l0,2.5c0,1.3,0.8,2.3,2.2,2.3c0.8,0,1.4-0.4,2-1
		c0.1,0.4,0.1,0.9,0.6,0.9c0.3,0,0.5-0.1,0.8-0.1h0.9c0.2,0,0.4-0.1,0.4-0.4C485.4,194.4,485.2,194.3,485,194.3"/>
	<path class="st8" d="M494.5,209.3c-0.6-0.1-0.6-0.3-0.6-0.9v-4.2c0-0.5,0-0.6-0.5-0.6h-1.8c-0.3,0-0.5,0.1-0.5,0.4
		c0,0.2,0.2,0.3,0.4,0.4c0.6,0.1,0.7,0.2,0.7,0.9v3.1c0,0.6-0.1,0.7-0.6,0.9c-0.2,0-0.4,0.1-0.4,0.4c0,0.3,0.3,0.4,0.6,0.4
		c0.4,0,0.9-0.1,1.3-0.1c0.4,0,0.9,0.1,1.3,0.1c0.3,0,0.6-0.1,0.6-0.4C494.9,209.5,494.7,209.4,494.5,209.3"/>
	<path class="st8" d="M491.9,201.1c0,0.5,0.6,1.1,1,1.1c0.4,0,1-0.7,1-1.1s-0.6-1.1-1-1.1C492.6,200.1,491.9,200.7,491.9,201.1"/>
	<path class="st8" d="M471.1,187.6c0-1,0.2-1.8,1.3-1.8c1,0,1.8,0.7,1.8,1.8c0,0.7-0.4,1.4-1.1,1.7c-0.4,0.2-0.7,0.2-1.1,0.2
		c-0.3,0-0.6,0-0.9,0V187.6z M469.1,186.5c0,0.2,0,0.4,0,0.6v5.7c0,1.2-0.3,1.3-0.9,1.4c-0.3,0.1-0.5,0.2-0.5,0.4
		c0,0.3,0.3,0.4,0.6,0.4c0.5,0,1.3-0.1,1.7-0.1s1.3,0.1,1.7,0.1c0.3,0,0.6-0.1,0.6-0.4c0-0.3-0.2-0.3-0.5-0.4
		c-0.6-0.2-0.9-0.3-0.9-1.4v-2.4c0.1,0,0.3,0,0.4,0c0.5,0,0.7,0.2,1,0.6c0.1,0.1,0.3,0.3,0.4,0.5l1.2,2.1c0.3,0.5,0.7,1.1,1.3,1.3
		c0.4,0.2,0.9,0.2,1.4,0.2c0.3,0,0.9,0,0.9-0.4c0-0.2-0.1-0.3-0.3-0.4l-0.6-0.3c-0.2-0.1-0.4-0.4-0.5-0.6c-0.3-0.4-0.6-0.9-0.9-1.3
		c-0.2-0.3-0.4-0.7-0.7-1c-0.4-0.6-0.5-0.7-1.1-0.9c0.7-0.1,1.2-0.3,1.8-0.7c0.6-0.5,0.9-1.1,0.9-1.8c0-1.8-1.6-2.7-3.2-2.7
		c-0.9,0-1.8,0.1-2.7,0.1c-0.6,0-1.3-0.1-1.9-0.1c-0.3,0-0.7,0-0.7,0.4C467.7,186,469,185.7,469.1,186.5"/>
	<path class="st8" d="M473,209.3c-0.5,0-1.1-0.1-1.5-0.5c-0.4-0.5-0.4-1.4-0.4-2v-4c0-0.5-0.1-1.4,0.3-1.7c0.3-0.3,0.7-0.4,1.1-0.4
		c2.5,0,4.1,2.5,4.1,4.7C476.5,207.5,475.2,209.3,473,209.3 M473.3,199.9c-1,0-1.9,0.1-2.9,0.1c-0.7,0-1.4-0.1-2.1-0.1
		c-0.3,0-0.7,0.1-0.7,0.5c0,0.4,0.6,0.4,0.9,0.5c0.7,0.2,0.6,1.2,0.6,1.8v4.9c0,0.4,0,1-0.3,1.3c-0.3,0.3-1.1,0.3-1.1,0.7
		c0,0.4,0.5,0.5,0.8,0.5c0.5,0,1-0.1,1.5-0.1c0.7,0,1.6,0.1,2.3,0.1c1.1,0,2.6-0.3,3.6-0.9c0.5-0.3,0.9-0.7,1.2-1.1
		c0.7-1,1.2-2.2,1.2-3.4C478.4,201.8,476.1,199.9,473.3,199.9"/>
	<path class="st8" d="M511.8,173.6h-1.6c-0.2,0-0.4,0.2-0.4,0.4c0,0.5,0.7,0.3,0.7,0.8c0,0.3-0.1,0.6-0.2,0.9
		c-0.3,0.9-0.7,1.8-1.1,2.6l-1.1-2.6c-0.1-0.3-0.3-0.6-0.3-0.8c0-0.5,0.7-0.3,0.7-0.8c0-0.2-0.1-0.4-0.4-0.4h-2.5
		c-0.3,0-0.5,0.1-0.5,0.4c0,0.3,0.3,0.4,0.5,0.6c0.2,0.2,0.3,0.5,0.4,0.8l1.9,4.4c0.2,0.3,0.4,0.6,0.8,0.6c0.3,0,0.6-0.2,0.7-0.5
		c0.6-1.2,1.2-2.6,1.7-3.8c0.1-0.2,0.4-1.3,0.6-1.5c0.2-0.1,0.5-0.2,0.5-0.5C512.2,173.8,512.1,173.6,511.8,173.6"/>
	<path class="st8" d="M486.1,174.4c0.5,0,1,0.3,1,0.9c0,0.1,0,0.1-0.1,0.2c-0.2,0.2-0.9,0.5-1.2,0.6c-0.4,0.1-0.8,0.3-1.1,0.5
		c0-0.1,0-0.3,0-0.4C484.8,175.3,485.2,174.4,486.1,174.4 M486.5,180.2c0.7,0,1.4-0.2,1.9-0.7c0.2-0.2,0.6-0.6,0.6-0.9
		c0-0.2-0.1-0.3-0.3-0.3c-0.4,0-0.6,0.6-1.6,0.6c-0.3,0-0.7-0.1-1-0.2c-0.6-0.3-0.8-0.6-1.1-1.2l3.2-1.4c0.3-0.1,0.6-0.4,0.6-0.7
		c0-0.3-0.2-0.7-0.4-1c-0.5-0.6-1-0.9-1.8-0.9c-1.9,0-3.2,1.7-3.2,3.5S484.6,180.2,486.5,180.2"/>
	<path class="st8" d="M513.7,176.2c0-0.8,0.4-1.8,1.3-1.8c0.5,0,1,0.3,1,0.9c0,0.1,0,0.1-0.1,0.2c-0.2,0.2-0.9,0.5-1.2,0.6
		c-0.4,0.1-0.8,0.3-1.1,0.5C513.7,176.5,513.7,176.3,513.7,176.2 M517.6,178.2c-0.4,0-0.6,0.6-1.6,0.6c-0.3,0-0.7-0.1-1-0.2
		c-0.6-0.3-0.8-0.6-1.1-1.2l3.2-1.4c0.3-0.1,0.6-0.4,0.6-0.7c0-0.3-0.2-0.7-0.4-1c-0.5-0.6-1-0.9-1.8-0.9c-1.9,0-3.2,1.7-3.2,3.5
		s1.3,3.2,3.1,3.2c0.7,0,1.4-0.2,1.9-0.7c0.2-0.2,0.6-0.6,0.6-0.9C517.9,178.4,517.8,178.2,517.6,178.2"/>
	<path class="st8" d="M497.2,174.5v3.2c0,0.6,0,1.4,0.4,1.8c0.4,0.5,1,0.6,1.6,0.6c0.4,0,1.7-0.2,1.7-0.8c0-0.2-0.2-0.3-0.4-0.3
		s-0.4,0.1-0.6,0.1c-0.9,0-1-0.9-1-1.7v-2.9h1.2c0.3,0,0.5-0.1,0.5-0.5c0-0.3-0.2-0.5-0.5-0.5h-1.2l0-1.3c0-0.3-0.1-0.6-0.4-0.6
		c-0.4,0-0.5,0.4-0.6,0.7c-0.2,0.5-0.6,0.9-1,1.2c-0.2,0.1-0.6,0.2-0.6,0.6C496.1,174.6,496.9,174.5,497.2,174.5"/>
	<path class="st8" d="M472.9,180.2c1,0,2-0.3,2.9-0.8c0.4-0.2,1.4-0.9,1.4-1.4c0-0.2-0.2-0.4-0.4-0.4c-0.3,0.1-0.6,0.4-1.2,0.7
		c-0.5,0.2-1.3,0.4-1.8,0.4c-2.3,0-4-1.8-4-4.1c0-2,1.3-3.6,3.4-3.6c0.7,0,2.4,0.3,2.4,1.3c0,0.2-0.1,0.4-0.1,0.6
		c0,0.2,0.2,0.4,0.4,0.4c0.5,0,1.4-1.2,1.4-1.7c0-0.2-0.1-0.4-0.2-0.6c-0.1-0.1-0.3-0.3-0.4-0.3c-0.8-0.6-2.1-0.8-3-0.8
		c-3.1,0-5.6,2.2-5.6,5.4C468,178.1,470.1,180.2,472.9,180.2"/>
	<path class="st8" d="M478,174.4c0.6,0.1,0.7,0.2,0.7,0.9v3.1c0,0.6-0.1,0.7-0.6,0.9c-0.2,0-0.4,0.2-0.4,0.4c0,0.3,0.3,0.4,0.6,0.4
		c0.4,0,0.9-0.1,1.3-0.1s0.9,0.1,1.3,0.1c0.3,0,0.6-0.1,0.6-0.4c0-0.2-0.2-0.3-0.4-0.4c-0.6-0.1-0.6-0.3-0.6-0.9v-2.8
		c0.2-0.4,0.5-0.8,1-0.8c0.5,0,0.7,0.5,0.9,0.5c0.6,0,0.7-0.8,0.7-1.2c0-0.6-0.3-0.8-0.8-0.8c-0.8,0-1.4,0.6-1.9,1.1
		c0-0.5,0-0.9-0.7-0.9h-1.6c-0.3,0-0.5,0.1-0.5,0.4C477.6,174.2,477.8,174.3,478,174.4"/>
	<path class="st8" d="M493.4,178.3c-0.2,0.3-0.7,0.7-1.2,0.7c-0.5,0-0.8-0.4-0.8-0.9c0-0.5,0.6-0.9,1-1.1l1-0.4V178.3z M496,179.7
		c0-0.3-0.3-0.3-0.5-0.4c-0.3-0.1-0.4-0.2-0.4-0.9v-2.8c0-0.6-0.1-1.2-0.6-1.6c-0.5-0.4-1-0.5-1.6-0.5c-0.9,0-1.8,0.5-2.4,1.1
		c-0.3,0.3-0.3,0.4,0,0.6c0.2,0.2,0.5,0.2,0.8,0c0.3-0.2,0.9-0.5,1.3-0.5c0.6,0,1,0.4,0.9,1.2l-1.5,0.6c-0.9,0.4-2.2,1.1-2.2,2.2
		c0,1,0.9,1.6,1.8,1.6c0.9,0,1.5-0.4,2-1c0.2,1,1,1,1.5,1C495.3,180.1,496,180.1,496,179.7"/>
	<path class="st8" d="M501.7,174.4c0.6,0.1,0.7,0.2,0.7,0.9v3.1c0,0.6-0.1,0.7-0.6,0.9c-0.2,0-0.4,0.2-0.4,0.4
		c0,0.3,0.3,0.4,0.6,0.4c0.4,0,0.9-0.1,1.3-0.1s0.9,0.1,1.3,0.1c0.3,0,0.6-0.1,0.6-0.4c0-0.2-0.2-0.3-0.4-0.4
		c-0.6-0.1-0.6-0.3-0.6-0.9v-4.2c0-0.5,0-0.6-0.5-0.6h-1.8c-0.3,0-0.5,0.1-0.5,0.4C501.3,174.2,501.5,174.3,501.7,174.4"/>
	<path class="st8" d="M503.1,172.2c0.4,0,1-0.7,1-1.1s-0.6-1.1-1-1.1c-0.3,0-1.1,0.6-1.1,1.1C502.1,171.6,502.7,172.2,503.1,172.2"
		/>
</g>
<rect x="461.9" y="6" class="st9" width="0.8" height="132"/>
<rect x="396.2" y="71.6" class="st9" width="132" height="0.8"/>
<g>
	<defs>
		<rect id="SVGID_11_" width="732" height="216"/>
	</defs>
	<clipPath id="SVGID_12_">
		<use xlink:href="#SVGID_11_"  style="overflow:visible;"/>
	</clipPath>
	<path class="st10" d="M426.2,134.8c-14.8,0-26.8-12-26.8-26.8c0-14.8,12-26.8,26.8-26.8c14.8,0,26.8,12,26.8,26.8
		C453,122.8,441,134.8,426.2,134.8 M426.2,77.3c-17,0-30.8,13.8-30.8,30.8s13.8,30.8,30.8,30.8c17,0,30.8-13.8,30.8-30.8
		S443.2,77.3,426.2,77.3"/>
</g>
<polygon class="st9" points="456.2,18 456.2,6 396.2,6 396.2,66 408.2,66 408.2,45 453.2,45 453.2,33 408.2,33 408.2,18 "/>
<polygon class="st9" points="480.2,54 480.2,6 468.2,6 468.2,66 528.2,66 528.2,54 "/>
<g>
	<defs>
		<rect id="SVGID_13_" width="732" height="216"/>
	</defs>
	<clipPath id="SVGID_14_">
		<use xlink:href="#SVGID_13_"  style="overflow:visible;"/>
	</clipPath>
	<path class="st11" d="M480.2,90H508c5,0,9,4,9,9c0,5-4,9-9,9h-27.8V90z M529,99c0-11.6-9.4-21-21-21h-39.8v60h12v-18h21.5l18,18
		h8.5v-8.5l-11.4-11.4C524,114.7,529,107.5,529,99"/>
	<path class="st11" d="M525,80c0,1.1,0.9,2,2,2s2-0.9,2-2c0-1.1-0.9-2-2-2S525,78.9,525,80 M525.4,80c0-0.9,0.7-1.6,1.6-1.6
		s1.6,0.7,1.6,1.6c0,0.9-0.7,1.6-1.6,1.6S525.4,80.9,525.4,80 M527.6,80.2L527.6,80.2c0.3-0.2,0.4-0.4,0.4-0.7
		c0-0.4-0.3-0.7-0.7-0.7h-1.1l-0.1,0.1v2.1l0.1,0.1h0.3l0.1-0.1v-0.8l0.1-0.1h0.3l0.1,0.1l0.6,0.8l0.1,0.1h0.2l0.1-0.1v-0.3
		L527.6,80.2z M527.6,79.6c0,0.2-0.1,0.3-0.3,0.3h-0.7l-0.1-0.1v-0.4l0.1-0.1h0.7C527.4,79.3,527.6,79.4,527.6,79.6"/>
</g>
<rect x="588" class="st9" width="144" height="216"/>
<g>
	<defs>
		<rect id="SVGID_15_" width="732" height="216"/>
	</defs>
	<clipPath id="SVGID_16_">
		<use xlink:href="#SVGID_15_"  style="overflow:visible;"/>
	</clipPath>
	<path class="st12" d="M687.5,192.5c-0.8,0-1-1.1-1-1.7c0-0.6,0.2-1.5,1-1.5c0.8,0,1.1,1,1.1,1.7
		C688.6,191.6,688.3,192.5,687.5,192.5 M690.8,188.3c-0.6,0-0.9,0.4-1.2,0.9c-0.6-0.6-1.2-0.8-2.1-0.8c-1.5,0-2.7,0.9-2.7,2.5
		c0,1,0.3,1.5,1.2,2c-0.5,0.4-1.3,1.1-1.3,1.8c0,0.3,0.1,0.5,0.4,0.6c0.5,0.2,1.5,0.2,2.1,0.2c0.4,0,1.4,0,1.8,0.1
		c0.2,0.1,0.5,0.3,0.5,0.5c0,0.7-1,0.8-1.5,0.8c-0.7,0-1.3-0.1-1.8-0.6c-0.2-0.2-0.3-0.4-0.6-0.4c-0.4,0-0.7,0.5-0.7,0.9
		c0,0.9,1.6,1.1,2.2,1.1c1.5,0,3.5-0.4,3.5-2.3c0-1.5-1.5-1.4-2.6-1.5c-0.3,0-0.7,0-1,0c-0.1,0-0.6,0-0.6-0.2c0-0.3,0.2-0.5,0.4-0.7
		c0.3,0,0.6,0.1,0.8,0.1c1.5,0,2.6-0.9,2.6-2.4c0-0.2,0-0.4,0-0.6c0-0.1-0.1-0.3-0.1-0.5c0-0.2,0.1-0.3,0.2-0.3
		c0.3,0,0.3,0.4,0.6,0.4c0.4,0,0.6-0.4,0.6-0.7C691.6,188.8,691.3,188.3,690.8,188.3"/>
	<path class="st12" d="M679.1,206.2c0-0.8,0.4-1.8,1.3-1.8c0.5,0,1,0.3,1,0.9c0,0.1,0,0.1-0.1,0.2c-0.2,0.2-0.9,0.5-1.2,0.6
		c-0.4,0.1-0.8,0.3-1.1,0.5C679.1,206.5,679.1,206.3,679.1,206.2 M683,208.2c-0.4,0-0.6,0.6-1.6,0.6c-0.3,0-0.7-0.1-1-0.2
		c-0.6-0.3-0.8-0.6-1.1-1.2l3.2-1.4c0.3-0.1,0.6-0.4,0.6-0.7c0-0.3-0.2-0.7-0.4-1c-0.5-0.6-1-0.9-1.8-0.9c-1.9,0-3.2,1.7-3.2,3.5
		s1.3,3.2,3.1,3.2c0.7,0,1.4-0.2,1.9-0.7c0.2-0.2,0.6-0.6,0.6-0.9C683.3,208.4,683.2,208.2,683,208.2"/>
	<path class="st12" d="M697.2,207.5c-0.8,0-1-1.1-1-1.7c0-0.6,0.2-1.5,1-1.5c0.8,0,1.1,1,1.1,1.6C698.3,206.6,698,207.5,697.2,207.5
		 M700.5,203.3c-0.6,0-0.9,0.4-1.2,0.9c-0.6-0.6-1.2-0.8-2.1-0.8c-1.5,0-2.7,0.9-2.7,2.5c0,1,0.3,1.5,1.2,2
		c-0.5,0.4-1.3,1.1-1.3,1.8c0,0.3,0.1,0.5,0.4,0.6c0.5,0.2,1.5,0.2,2.1,0.2c0.4,0,1.4,0,1.8,0.2c0.2,0.1,0.5,0.3,0.5,0.5
		c0,0.7-1,0.8-1.5,0.8c-0.7,0-1.3-0.1-1.8-0.6c-0.2-0.2-0.3-0.4-0.6-0.4c-0.4,0-0.7,0.5-0.7,0.9c0,0.9,1.6,1.1,2.2,1.1
		c1.5,0,3.5-0.4,3.5-2.3c0-1.5-1.5-1.4-2.6-1.5c-0.3,0-0.7,0-1,0c-0.1,0-0.6,0-0.6-0.2c0-0.3,0.2-0.5,0.4-0.7c0.3,0,0.6,0.1,0.8,0.1
		c1.5,0,2.6-0.9,2.6-2.4c0-0.2,0-0.4,0-0.6c0-0.2-0.1-0.3-0.1-0.5c0-0.1,0.1-0.3,0.2-0.3c0.3,0,0.3,0.4,0.6,0.4
		c0.4,0,0.6-0.4,0.6-0.7C701.2,203.8,700.9,203.3,700.5,203.3"/>
	<path class="st12" d="M709.2,208.8c-0.2,0-0.4,0.1-0.5,0.1c-0.3,0-0.3-0.4-0.3-0.7v-2.2c0-0.7,0-1.3-0.4-1.8
		c-0.4-0.5-1-0.8-1.6-0.8c-0.8,0-1.5,0.4-2.1,0.9c0-0.5,0-0.8-0.6-0.8H702c-0.3,0-0.5,0.1-0.5,0.4c0,0.2,0.2,0.3,0.4,0.4
		c0.6,0.1,0.7,0.2,0.7,0.9v3.1c0,0.6-0.1,0.7-0.6,0.9c-0.2,0-0.4,0.1-0.4,0.4c0,0.3,0.3,0.4,0.6,0.4c0.4,0,0.9-0.1,1.3-0.1
		c0.4,0,0.9,0.1,1.3,0.1c0.3,0,0.6-0.1,0.6-0.4c0-0.2-0.2-0.3-0.4-0.4c-0.6-0.1-0.6-0.3-0.6-0.9v-3c0.4-0.4,0.8-0.7,1.4-0.7
		c0.9,0,1,0.9,1,1.6v2.4c0,0.7,0.4,1.4,1.2,1.4c0.5,0,1.6-0.4,1.6-1C709.5,209,709.4,208.8,709.2,208.8"/>
	<path class="st12" d="M686,205.3c-0.1-0.1-0.4-0.3-0.3-0.7c0.2-0.3,0.7-0.3,1.4,0.1c0.4,0.2,0.7,0.6,1,0.6c0.2,0,0.4-0.3,0.5-0.8
		c0.1-0.3-0.2-0.5-0.6-0.7c-0.4-0.2-0.9-0.3-1.3-0.3c-0.5,0-1.1,0.2-1.6,0.5c-0.3,0.3-0.7,0.7-0.7,1.3c0,1,1.3,1.8,1.9,2.3
		c0.3,0.2,1.1,0.7,1.1,1.2c0,0.4-0.3,0.5-0.6,0.5c-0.5,0-1.1-0.3-1.4-0.7c0,0-0.2-0.3-0.3-0.4c-0.1-0.1-0.2-0.1-0.2-0.1
		c-0.3,0-0.7,0.7-0.7,1c0,0.6,1.1,0.9,1.5,1c0.3,0.1,0.6,0.1,0.9,0.1c1.1,0,2.3-0.8,2.3-1.8c0-0.5-0.4-1-0.6-1.3
		C687.5,206.3,686.7,205.8,686,205.3"/>
	<path class="st12" d="M683.5,194.3c-0.5-0.1-0.6-0.4-0.6-1l0-4c0-0.4,0-0.7-0.5-0.7h-1.9c-0.3,0-0.4,0.1-0.4,0.4
		c0,0.2,0.2,0.3,0.4,0.4c0.6,0.1,0.7,0.2,0.7,0.9v3c-0.4,0.3-0.8,0.6-1.4,0.6c-0.9,0-1.1-0.7-1.1-1.5l0-3.1c0-0.4,0-0.7-0.5-0.7
		h-1.9c-0.3,0-0.4,0.1-0.4,0.4c0,0.2,0.2,0.3,0.4,0.4c0.6,0.1,0.7,0.2,0.7,0.9l0,2.5c0,1.3,0.8,2.3,2.2,2.3c0.8,0,1.4-0.4,2-1
		c0.1,0.4,0.1,0.9,0.6,0.9c0.3,0,0.5-0.1,0.8-0.1h0.9c0.2,0,0.4-0.1,0.4-0.4C683.9,194.4,683.7,194.3,683.5,194.3"/>
	<path class="st12" d="M693,209.3c-0.6-0.1-0.6-0.3-0.6-0.9v-4.2c0-0.5,0-0.6-0.5-0.6h-1.8c-0.3,0-0.5,0.1-0.5,0.4
		c0,0.2,0.2,0.3,0.4,0.4c0.6,0.1,0.7,0.2,0.7,0.9v3.1c0,0.6-0.1,0.7-0.6,0.9c-0.2,0-0.4,0.1-0.4,0.4c0,0.3,0.3,0.4,0.6,0.4
		c0.4,0,0.9-0.1,1.3-0.1c0.4,0,0.9,0.1,1.3,0.1c0.3,0,0.6-0.1,0.6-0.4C693.4,209.5,693.2,209.4,693,209.3"/>
	<path class="st12" d="M690.4,201.1c0,0.5,0.6,1.1,1,1.1c0.4,0,1-0.7,1-1.1s-0.6-1.1-1-1.1C691.1,200.1,690.4,200.7,690.4,201.1"/>
	<path class="st12" d="M669.6,187.6c0-1,0.2-1.8,1.3-1.8c1,0,1.8,0.7,1.8,1.8c0,0.7-0.4,1.4-1.1,1.7c-0.4,0.2-0.7,0.2-1.1,0.2
		c-0.3,0-0.6,0-0.9,0V187.6z M667.6,186.5c0,0.2,0,0.4,0,0.6v5.7c0,1.2-0.3,1.3-0.9,1.4c-0.3,0.1-0.5,0.2-0.5,0.4
		c0,0.3,0.3,0.4,0.6,0.4c0.5,0,1.3-0.1,1.7-0.1s1.3,0.1,1.7,0.1c0.3,0,0.6-0.1,0.6-0.4c0-0.3-0.2-0.3-0.5-0.4
		c-0.6-0.2-0.9-0.3-0.9-1.4v-2.4c0.1,0,0.3,0,0.4,0c0.5,0,0.7,0.2,1,0.6c0.1,0.1,0.3,0.3,0.4,0.5l1.2,2.1c0.3,0.5,0.7,1.1,1.3,1.3
		c0.4,0.2,0.9,0.2,1.4,0.2c0.3,0,0.9,0,0.9-0.4c0-0.2-0.1-0.3-0.3-0.4l-0.6-0.3c-0.2-0.1-0.4-0.4-0.5-0.6c-0.3-0.4-0.6-0.9-0.9-1.3
		c-0.2-0.3-0.4-0.7-0.7-1c-0.4-0.6-0.5-0.7-1.1-0.9c0.7-0.1,1.2-0.3,1.8-0.7c0.6-0.5,0.9-1.1,0.9-1.8c0-1.8-1.6-2.7-3.2-2.7
		c-0.9,0-1.8,0.1-2.7,0.1c-0.6,0-1.3-0.1-1.9-0.1c-0.3,0-0.7,0-0.7,0.4C666.2,186,667.5,185.7,667.6,186.5"/>
	<path class="st12" d="M671.5,209.3c-0.5,0-1.1-0.1-1.5-0.5c-0.4-0.5-0.4-1.4-0.4-2v-4c0-0.5-0.1-1.4,0.3-1.7
		c0.3-0.3,0.7-0.4,1.1-0.4c2.5,0,4.1,2.5,4.1,4.7C675,207.5,673.7,209.3,671.5,209.3 M671.8,199.9c-1,0-1.9,0.1-2.9,0.1
		c-0.7,0-1.4-0.1-2.1-0.1c-0.3,0-0.7,0.1-0.7,0.5c0,0.4,0.6,0.4,0.9,0.5c0.7,0.2,0.6,1.2,0.6,1.8v4.9c0,0.4,0,1-0.3,1.3
		c-0.3,0.3-1.1,0.3-1.1,0.7c0,0.4,0.5,0.5,0.8,0.5c0.5,0,1-0.1,1.5-0.1c0.7,0,1.6,0.1,2.3,0.1c1.1,0,2.6-0.3,3.6-0.9
		c0.5-0.3,0.9-0.7,1.2-1.1c0.7-1,1.2-2.2,1.2-3.4C676.9,201.8,674.6,199.9,671.8,199.9"/>
	<path class="st12" d="M710.3,173.6h-1.6c-0.2,0-0.4,0.2-0.4,0.4c0,0.5,0.7,0.3,0.7,0.8c0,0.3-0.1,0.6-0.2,0.9
		c-0.3,0.9-0.7,1.8-1.1,2.6l-1.1-2.6c-0.1-0.3-0.3-0.6-0.3-0.8c0-0.5,0.7-0.3,0.7-0.8c0-0.2-0.1-0.4-0.4-0.4H704
		c-0.3,0-0.5,0.1-0.5,0.4c0,0.3,0.3,0.4,0.5,0.6c0.2,0.2,0.3,0.5,0.4,0.8l1.9,4.4c0.2,0.3,0.4,0.6,0.8,0.6c0.3,0,0.6-0.2,0.7-0.5
		c0.6-1.2,1.2-2.6,1.7-3.8c0.1-0.2,0.4-1.3,0.6-1.5c0.2-0.1,0.5-0.2,0.5-0.5C710.7,173.8,710.6,173.6,710.3,173.6"/>
	<path class="st12" d="M684.6,174.4c0.5,0,1,0.3,1,0.9c0,0.1,0,0.1-0.1,0.2c-0.2,0.2-0.9,0.5-1.2,0.6c-0.4,0.1-0.8,0.3-1.1,0.5
		c0-0.1,0-0.3,0-0.4C683.3,175.3,683.7,174.4,684.6,174.4 M685,180.2c0.7,0,1.4-0.2,1.9-0.7c0.2-0.2,0.6-0.6,0.6-0.9
		c0-0.2-0.1-0.3-0.3-0.3c-0.4,0-0.6,0.6-1.6,0.6c-0.3,0-0.7-0.1-1-0.2c-0.6-0.3-0.8-0.6-1.1-1.2l3.2-1.4c0.3-0.1,0.6-0.4,0.6-0.7
		c0-0.3-0.2-0.7-0.4-1c-0.5-0.6-1-0.9-1.8-0.9c-1.9,0-3.2,1.7-3.2,3.5S683.1,180.2,685,180.2"/>
	<path class="st12" d="M712.2,176.2c0-0.8,0.4-1.8,1.3-1.8c0.5,0,1,0.3,1,0.9c0,0.1,0,0.1-0.1,0.2c-0.2,0.2-0.9,0.5-1.2,0.6
		c-0.4,0.1-0.8,0.3-1.1,0.5C712.2,176.5,712.2,176.3,712.2,176.2 M716.1,178.2c-0.4,0-0.6,0.6-1.6,0.6c-0.3,0-0.7-0.1-1-0.2
		c-0.6-0.3-0.8-0.6-1.1-1.2l3.2-1.4c0.3-0.1,0.6-0.4,0.6-0.7c0-0.3-0.2-0.7-0.4-1c-0.5-0.6-1-0.9-1.8-0.9c-1.9,0-3.2,1.7-3.2,3.5
		s1.3,3.2,3.1,3.2c0.7,0,1.4-0.2,1.9-0.7c0.2-0.2,0.6-0.6,0.6-0.9C716.4,178.4,716.3,178.2,716.1,178.2"/>
	<path class="st12" d="M695.7,174.5v3.2c0,0.6,0,1.4,0.4,1.8c0.4,0.5,1,0.6,1.6,0.6c0.4,0,1.7-0.2,1.7-0.8c0-0.2-0.2-0.3-0.4-0.3
		s-0.4,0.1-0.6,0.1c-0.9,0-1-0.9-1-1.7v-2.9h1.2c0.3,0,0.5-0.1,0.5-0.5c0-0.3-0.2-0.5-0.5-0.5h-1.2l0-1.3c0-0.3-0.1-0.6-0.4-0.6
		c-0.4,0-0.5,0.4-0.6,0.7c-0.2,0.5-0.6,0.9-1,1.2c-0.2,0.1-0.6,0.2-0.6,0.6C694.6,174.6,695.4,174.5,695.7,174.5"/>
	<path class="st12" d="M671.4,180.2c1,0,2-0.3,2.9-0.8c0.4-0.2,1.4-0.9,1.4-1.4c0-0.2-0.2-0.4-0.4-0.4c-0.3,0.1-0.6,0.4-1.2,0.7
		c-0.5,0.2-1.3,0.4-1.8,0.4c-2.3,0-4-1.8-4-4.1c0-2,1.3-3.6,3.4-3.6c0.7,0,2.4,0.3,2.4,1.3c0,0.2-0.1,0.4-0.1,0.6
		c0,0.2,0.2,0.4,0.4,0.4c0.5,0,1.4-1.2,1.4-1.7c0-0.2-0.1-0.4-0.2-0.6c-0.1-0.1-0.3-0.3-0.4-0.3c-0.8-0.6-2.1-0.8-3-0.8
		c-3.1,0-5.6,2.2-5.6,5.4C666.5,178.1,668.6,180.2,671.4,180.2"/>
	<path class="st12" d="M676.5,174.4c0.6,0.1,0.7,0.2,0.7,0.9v3.1c0,0.6-0.1,0.7-0.6,0.9c-0.2,0-0.4,0.2-0.4,0.4
		c0,0.3,0.3,0.4,0.6,0.4c0.4,0,0.9-0.1,1.3-0.1c0.4,0,0.9,0.1,1.3,0.1c0.3,0,0.6-0.1,0.6-0.4c0-0.2-0.2-0.3-0.4-0.4
		c-0.6-0.1-0.6-0.3-0.6-0.9v-2.8c0.2-0.4,0.5-0.8,1-0.8c0.5,0,0.7,0.5,0.9,0.5c0.6,0,0.7-0.8,0.7-1.2c0-0.6-0.3-0.8-0.8-0.8
		c-0.8,0-1.4,0.6-1.9,1.1c0-0.5,0-0.9-0.7-0.9h-1.6c-0.3,0-0.5,0.1-0.5,0.4C676.1,174.2,676.3,174.3,676.5,174.4"/>
	<path class="st12" d="M691.9,178.3c-0.2,0.3-0.7,0.7-1.2,0.7c-0.5,0-0.8-0.4-0.8-0.9c0-0.5,0.6-0.9,1-1.1l1-0.4V178.3z
		 M694.5,179.7c0-0.3-0.3-0.3-0.5-0.4c-0.3-0.1-0.4-0.2-0.4-0.9v-2.8c0-0.6-0.1-1.2-0.6-1.6c-0.5-0.4-1-0.5-1.6-0.5
		c-0.9,0-1.8,0.5-2.4,1.1c-0.3,0.3-0.3,0.4,0,0.6c0.2,0.2,0.5,0.2,0.8,0c0.3-0.2,0.9-0.5,1.3-0.5c0.6,0,1,0.4,0.9,1.2l-1.5,0.6
		c-0.9,0.4-2.2,1.1-2.2,2.2c0,1,0.9,1.6,1.8,1.6c0.9,0,1.5-0.4,2-1c0.2,1,1,1,1.5,1C693.8,180.1,694.5,180.1,694.5,179.7"/>
	<path class="st12" d="M700.2,174.4c0.6,0.1,0.7,0.2,0.7,0.9v3.1c0,0.6-0.1,0.7-0.6,0.9c-0.2,0-0.4,0.2-0.4,0.4
		c0,0.3,0.3,0.4,0.6,0.4c0.4,0,0.9-0.1,1.3-0.1c0.4,0,0.9,0.1,1.3,0.1c0.3,0,0.6-0.1,0.6-0.4c0-0.2-0.2-0.3-0.4-0.4
		c-0.6-0.1-0.6-0.3-0.6-0.9v-4.2c0-0.5,0-0.6-0.5-0.6h-1.8c-0.3,0-0.5,0.1-0.5,0.4C699.8,174.2,700,174.3,700.2,174.4"/>
	<path class="st12" d="M701.6,172.2c0.4,0,1-0.7,1-1.1s-0.6-1.1-1-1.1c-0.3,0-1.1,0.6-1.1,1.1C700.6,171.6,701.2,172.2,701.6,172.2"
		/>
</g>
<rect x="659.6" y="6" class="st13" width="0.8" height="132"/>
<rect x="594" y="71.6" class="st13" width="132" height="0.8"/>
<g>
	<defs>
		<rect id="SVGID_17_" width="732" height="216"/>
	</defs>
	<clipPath id="SVGID_18_">
		<use xlink:href="#SVGID_17_"  style="overflow:visible;"/>
	</clipPath>
	<path class="st14" d="M624,134.8c-14.8,0-26.8-12-26.8-26.8c0-14.8,12-26.8,26.8-26.8c14.8,0,26.8,12,26.8,26.8
		C650.8,122.8,638.8,134.8,624,134.8 M624,77.3c-17,0-30.8,13.8-30.8,30.8s13.8,30.8,30.8,30.8c17,0,30.8-13.8,30.8-30.8
		S641,77.3,624,77.3"/>
</g>
<polygon class="st13" points="654,18 654,6 594,6 594,66 606,66 606,45 651,45 651,33 606,33 606,18 "/>
<polygon class="st13" points="678,54 678,6 666,6 666,66 726,66 726,54 "/>
<g>
	<defs>
		<rect id="SVGID_19_" width="732" height="216"/>
	</defs>
	<clipPath id="SVGID_20_">
		<use xlink:href="#SVGID_19_"  style="overflow:visible;"/>
	</clipPath>
	<path class="st15" d="M678,90h27.8c5,0,9,4,9,9c0,5-4,9-9,9H678V90z M726.8,99c0-11.6-9.4-21-21-21H666v60h12v-18h21.5l18,18h8.5
		v-8.5l-11.4-11.4C721.8,114.7,726.8,107.5,726.8,99"/>
	<path class="st15" d="M722.8,80c0,1.1,0.9,2,2,2s2-0.9,2-2c0-1.1-0.9-2-2-2S722.8,78.9,722.8,80 M723.2,80c0-0.9,0.7-1.6,1.6-1.6
		s1.6,0.7,1.6,1.6c0,0.9-0.7,1.6-1.6,1.6S723.2,80.9,723.2,80 M725.3,80.2L725.3,80.2c0.3-0.2,0.4-0.4,0.4-0.7
		c0-0.4-0.3-0.7-0.7-0.7h-1.1l-0.1,0.1v2.1l0.1,0.1h0.3l0.1-0.1v-0.8l0.1-0.1h0.3l0.1,0.1l0.6,0.8l0.1,0.1h0.2l0.1-0.1v-0.3
		L725.3,80.2z M725.3,79.6c0,0.2-0.1,0.3-0.3,0.3h-0.7l-0.1-0.1v-0.4l0.1-0.1h0.7C725.2,79.3,725.3,79.4,725.3,79.6"/>
</g>
<g>
</g>
<g>
</g>
<g>
</g>
<g>
</g>
<g>
</g>
<g>
</g>
</svg>
