<?xml version="1.0" encoding="utf-8"?>
<!-- Generator: Adobe Illustrator 19.1.0, SVG Export Plug-In . SVG Version: 6.00 Build 0)  -->
<svg version="1.1" id="Layer_1" xmlns="http://www.w3.org/2000/svg" xmlns:xlink="http://www.w3.org/1999/xlink" x="0px" y="0px"
	 viewBox="0 0 732 216" style="enable-background:new 0 0 732 216;" xml:space="preserve">
<style type="text/css">
	.st0{fill:#F2BE1A;}
	.st1{fill:#BCC0BC;}
	.st2{clip-path:url(#SVGID_2_);fill:#BCC0BC;}
	.st3{clip-path:url(#SVGID_4_);fill:#BCC0BC;}
	.st4{clip-path:url(#SVGID_4_);fill:#363D39;}
	.st5{fill:#363D39;}
	.st6{clip-path:url(#SVGID_6_);fill:#363D39;}
	.st7{clip-path:url(#SVGID_8_);fill:#363D39;}
	.st8{clip-path:url(#SVGID_8_);fill:#BCC0BC;}
	.st9{clip-path:url(#SVGID_10_);fill:#BCC0BC;}
	.st10{clip-path:url(#SVGID_12_);fill:#BCC0BC;}
	.st11{clip-path:url(#SVGID_12_);fill:#F2BE1A;}
	.st12{clip-path:url(#SVGID_14_);fill:#F2BE1A;}
	.st13{clip-path:url(#SVGID_16_);fill:#F2BE1A;}
	.st14{clip-path:url(#SVGID_16_);fill:#FFFFFF;}
	.st15{fill:#FFFFFF;}
	.st16{clip-path:url(#SVGID_18_);fill:#FFFFFF;}
	.st17{clip-path:url(#SVGID_20_);fill:#FFFFFF;}
</style>
<rect x="588" class="st0" width="144" height="216"/>
<rect x="264.1" y="6" class="st1" width="0.8" height="132"/>
<rect x="198.5" y="71.6" class="st1" width="132" height="0.8"/>
<g>
	<defs>
		<rect id="SVGID_1_" width="732" height="216"/>
	</defs>
	<clipPath id="SVGID_2_">
		<use xlink:href="#SVGID_1_"  style="overflow:visible;"/>
	</clipPath>
	<path class="st2" d="M228.5,134.8c-14.8,0-26.8-12-26.8-26.8c0-14.8,12-26.8,26.8-26.8c14.8,0,26.8,12,26.8,26.8
		C255.2,122.8,243.3,134.8,228.5,134.8 M228.5,77.3c-17,0-30.8,13.8-30.8,30.8s13.8,30.8,30.8,30.8s30.8-13.8,30.8-30.8
		S245.5,77.3,228.5,77.3"/>
</g>
<polygon class="st1" points="258.5,18 258.5,6 198.5,6 198.5,66 210.5,66 210.5,45 255.5,45 255.5,33 210.5,33 210.5,18 "/>
<polygon class="st1" points="282.5,54 282.5,6 270.5,6 270.5,66 330.5,66 330.5,54 "/>
<g>
	<defs>
		<rect id="SVGID_3_" width="732" height="216"/>
	</defs>
	<clipPath id="SVGID_4_">
		<use xlink:href="#SVGID_3_"  style="overflow:visible;"/>
	</clipPath>
	<path class="st3" d="M282.5,90h27.8c5,0,9,4,9,9c0,5-4,9-9,9h-27.8V90z M331.2,99c0-11.6-9.4-21-21-21h-39.8v60h12v-18H304l18,18
		h8.5v-8.5l-11.4-11.4C326.3,114.7,331.2,107.5,331.2,99"/>
	<path class="st4" d="M109.8,192.7c0,0.7-0.6,1-1.2,1c-0.5,0-0.8-0.3-0.8-0.8c0-1.1,1.2-1.1,2-1.2V192.7z M108.9,187.9
		c-0.9,0-2,0.3-2.7,1l0.8,1.2c0.4-0.5,1.1-0.8,1.8-0.8c0.4,0,1.1,0.1,1.1,0.7v0.6c-1.7,0.2-3.9,0.3-3.9,2.6c0,1.2,0.8,2.1,2,2.1
		c0.8,0,1.4-0.3,1.9-0.8l0.1,0.7h1.9v-5.2C111.7,188.2,110.1,187.9,108.9,187.9 M102.2,187.1v0.9h-0.8v1.4h0.8v5.5h1.9v-5.5h1.3
		v-1.4h-1.3v-0.6c0-0.7,0.3-1,0.9-1c0.2,0,0.4,0,0.6,0.1v-1.3c-0.3-0.1-0.7-0.1-1.1-0.1C103.3,185.2,102.2,185.7,102.2,187.1
		 M116.3,193.7c-0.9,0-1.4-0.8-1.4-2.2c0-1.4,0.3-2.2,1.4-2.2c0.6,0,1,0.5,1.1,0.9l1.3-0.7c-0.4-1.1-1.4-1.6-2.7-1.6
		c-1.7,0-3.2,1.3-3.2,3.6c0,2.3,1.1,3.7,3.2,3.7c1.1,0,2.3-0.4,2.7-1.5l-1.2-0.8C117.4,193.4,117,193.7,116.3,193.7 M121.3,190.9
		c0-0.8,0.3-1.7,1.3-1.7c0.9,0,1.1,0.9,1.1,1.7H121.3z M122.7,187.9c-2.2,0-3.4,1.5-3.4,3.6c0,2,1.2,3.7,3.3,3.7
		c1.2,0,2.1-0.3,2.9-1.1l-0.9-1.1c-0.5,0.6-1,0.8-1.7,0.8c-1,0-1.6-0.6-1.6-1.7h4.3c0-0.2,0-0.4,0-0.5
		C125.7,189.6,124.7,187.9,122.7,187.9 M81,187.9c-0.8,0-1.4,0.3-2.1,0.8l-0.1-0.7H77v7h1.9v-4.4c0-0.8,0.4-1.3,1.3-1.3
		c0.5,0,0.7,0.4,0.7,0.8v4.8h1.9v-5.2C82.8,188.6,82.2,187.9,81,187.9 M86.5,192.7v-3.3h1.5v-1.4h-1.5v-1.7h-1.1
		c-0.2,0.9-0.7,1.7-1.7,2v1.1h0.8v4c0,1.3,1.2,1.7,2.1,1.7c0.6,0,1.2-0.2,1.6-0.3v-1.3c-0.1,0.1-0.6,0.2-0.9,0.2
		C86.7,193.8,86.5,193.3,86.5,192.7 M73.1,195h2.2v-9.2h-2.2V195z M98.6,189.1l-0.1-1h-1.8v7h1.9v-3.9c0-0.8,0.6-1.5,1.4-1.5
		c0.2,0,0.3,0,0.6,0.1v-1.8c-0.1,0-0.1,0-0.2,0C99.7,187.9,99,188.4,98.6,189.1 M91,190.9c0-0.8,0.3-1.7,1.3-1.7
		c0.9,0,1.1,0.9,1.1,1.7H91z M92.4,187.9c-2.2,0-3.4,1.5-3.4,3.6c0,2,1.2,3.7,3.3,3.7c1.2,0,2.1-0.3,2.9-1.1l-0.9-1.1
		c-0.5,0.6-1,0.8-1.7,0.8c-1,0-1.6-0.6-1.6-1.7h4.3c0-0.2,0-0.4,0-0.5C95.4,189.6,94.4,187.9,92.4,187.9"/>
	<path class="st4" d="M127.5,190c-0.6,0-1.1-0.5-1.1-1.1c0-0.6,0.5-1.1,1.1-1.1c0.6,0,1.1,0.5,1.1,1.1
		C128.6,189.6,128.1,190,127.5,190 M127.5,187.8c-0.7,0-1.2,0.5-1.2,1.2c0,0.7,0.5,1.2,1.2,1.2c0.7,0,1.2-0.5,1.2-1.2
		C128.7,188.3,128.2,187.8,127.5,187.8 M127.3,188.9v-0.5h0.2c0.2,0,0.3,0.1,0.3,0.3c0,0.2-0.1,0.3-0.3,0.3H127.3z M128,188.6
		c0-0.3-0.1-0.4-0.5-0.4h-0.4v1.5h0.2V189h0.2l0.3,0.7h0.2l-0.3-0.7C127.9,189,128,188.8,128,188.6"/>
	<path class="st4" d="M80.4,203.3c0.5,0,1.4-1.2,1.4-1.7c0-0.2-0.1-0.4-0.2-0.6c-0.1-0.1-0.3-0.3-0.4-0.3c-0.8-0.6-2.1-0.8-3-0.8
		c-3.1,0-5.6,2.2-5.6,5.4c0,2.8,2.1,4.9,4.9,4.9c1,0,2-0.3,2.9-0.8c0.4-0.2,1.4-0.9,1.4-1.4c0-0.2-0.2-0.4-0.4-0.4
		c-0.3,0.1-0.6,0.4-1.2,0.7c-0.5,0.2-1.3,0.4-1.8,0.4c-2.3,0-4-1.8-4-4.1c0-2,1.3-3.6,3.4-3.6c0.7,0,2.4,0.3,2.4,1.3
		c0,0.2-0.1,0.4-0.1,0.6C80,203.1,80.2,203.3,80.4,203.3"/>
	<path class="st4" d="M86.1,209.3c-1.3,0-1.8-1.7-1.8-2.7c0-0.9,0.4-2.2,1.5-2.2c1.3,0,1.7,1.7,1.7,2.8
		C87.5,207.9,87.2,209.3,86.1,209.3 M85.8,203.4c-2,0-3.3,1.5-3.3,3.5s1.5,3.2,3.4,3.2c1.9,0,3.4-1.4,3.4-3.3
		C89.3,204.8,87.9,203.4,85.8,203.4"/>
	<path class="st4" d="M74.9,175.6c0.2-0.6,1.3-3.2,1.5-3.5c0.1,0.3,0.8,1.9,1,2.5c0.1,0.2,0.4,1,0.4,1.1c0,0.2-0.1,0.2-0.3,0.2h-2.4
		C74.9,176,74.8,175.9,74.9,175.6 M72.3,180.1c0.4,0,0.7-0.1,1.1-0.1c0.4,0,0.7,0.1,1.1,0.1c0.3,0,0.6,0,0.6-0.4
		c0-0.2-0.1-0.3-0.4-0.4c-0.6-0.2-0.7-0.3-0.7-0.6c0-0.3,0.2-1.1,0.4-1.4c0.1-0.2,0.3-0.3,0.5-0.3l3,0c0.4,0,0.5,0.3,0.6,0.6
		c0.1,0.3,0.2,0.7,0.2,1c0,0.1,0,0.4-0.3,0.6c-0.3,0.1-0.6,0.2-0.6,0.5c0,0.3,0.3,0.4,0.8,0.4c0.6,0,0.9-0.1,1.4-0.1
		c0.5,0,0.8,0.1,1.4,0.1c0.4,0,0.8-0.1,0.7-0.4c0-0.2,0-0.3-0.4-0.5c-0.4-0.2-0.5-0.4-0.7-0.8c-0.3-0.5-0.5-1.2-0.7-1.7
		c-0.4-1-0.8-1.9-1.2-2.8c-0.4-0.8-0.7-1.6-1.1-2.5c-0.4-0.9-0.5-1.2-0.8-1.3c-0.1-0.1-0.3-0.1-0.4-0.1c-0.3,0-0.6,0-0.9,0
		c-0.3,0-1,0-1,0.5c0,0.4,0.7,0.4,0.7,0.8c0,0.1-0.1,0.3-0.1,0.5c-0.1,0.2-0.2,0.4-0.3,0.7c-0.7,1.8-1.5,3.4-2.1,5.3
		c-0.1,0.4-0.2,0.9-0.4,1.2c-0.2,0.3-0.3,0.3-0.6,0.4c-0.2,0.1-0.5,0.2-0.5,0.5C71.7,180,72,180.1,72.3,180.1"/>
	<path class="st4" d="M124.4,208.8c-0.2,0-0.4,0.2-0.5,0.2c-0.3,0-0.3-0.5-0.3-0.7v-2.2c0-0.7,0-1.3-0.4-1.8c-0.4-0.5-1-0.8-1.6-0.8
		c-0.8,0-1.5,0.4-2.1,0.9c0-0.5,0-0.8-0.6-0.8h-1.6c-0.3,0-0.5,0.1-0.5,0.4c0,0.2,0.2,0.3,0.4,0.4c0.6,0.1,0.7,0.2,0.7,0.9v3.1
		c0,0.6-0.1,0.7-0.6,0.9c-0.2,0-0.4,0.2-0.4,0.4c0,0.3,0.3,0.4,0.6,0.4c0.4,0,0.9-0.1,1.3-0.1c0.4,0,0.9,0.1,1.3,0.1
		c0.3,0,0.6-0.1,0.6-0.4c0-0.2-0.2-0.3-0.4-0.4c-0.6-0.1-0.6-0.3-0.6-0.9v-3c0.4-0.4,0.8-0.7,1.4-0.7c0.9,0,1,0.9,1,1.6v2.4
		c0,0.7,0.4,1.4,1.2,1.4c0.6,0,1.6-0.4,1.6-1C124.7,209,124.6,208.8,124.4,208.8"/>
	<path class="st4" d="M106,209.1c-0.4,0-0.8-0.2-1-0.5c-0.3-0.4-0.3-0.9-0.3-1.3v-1.9c0.4-0.3,0.8-0.6,1.3-0.6
		c1.1,0,1.8,1.1,1.8,2.1C107.9,208.1,107.3,209.1,106,209.1 M106.9,203.5c-0.9,0-1.4,0.5-2.1,1c0-0.5,0-0.9-0.6-0.9h-1.6
		c-0.3,0-0.5,0.1-0.5,0.4c0,0.2,0.2,0.3,0.4,0.4c0.6,0.1,0.7,0.2,0.7,0.9v6c0,0.6-0.1,0.7-0.6,0.9c-0.2,0-0.4,0.1-0.4,0.4
		c0,0.3,0.3,0.4,0.6,0.4c0.4,0,0.9-0.1,1.3-0.1s0.9,0.1,1.3,0.1c0.3,0,0.6-0.1,0.6-0.4c0-0.2-0.2-0.3-0.4-0.4
		c-0.6-0.1-0.6-0.3-0.6-0.9V210c0.3,0.1,0.7,0.2,1.1,0.2c1.9,0,3.4-1.8,3.4-3.7C109.2,205,108.5,203.5,106.9,203.5"/>
	<path class="st4" d="M82.8,174.4c0.6,0.1,0.7,0.2,0.7,0.9v3.1c0,0.6-0.1,0.7-0.6,0.9c-0.2,0-0.4,0.2-0.4,0.4c0,0.3,0.3,0.4,0.6,0.4
		c0.4,0,0.9-0.1,1.3-0.1s0.9,0.1,1.3,0.1c0.3,0,0.6-0.1,0.6-0.4c0-0.2-0.2-0.3-0.4-0.4c-0.6-0.1-0.6-0.3-0.6-0.9v-3
		c0.4-0.4,0.8-0.7,1.4-0.7c0.9,0,1,0.9,1,1.6v2.4c0,0.7,0.4,1.4,1.2,1.4c0.5,0,1.6-0.4,1.6-1c0-0.2-0.1-0.3-0.3-0.3
		c-0.2,0-0.4,0.2-0.5,0.2c-0.3,0-0.3-0.5-0.3-0.7v-2.2c0-0.7,0-1.3-0.4-1.8c-0.4-0.5-1-0.8-1.6-0.8c-0.8,0-1.5,0.4-2.1,0.9
		c0-0.5,0-0.8-0.6-0.8h-1.6c-0.3,0-0.5,0.1-0.5,0.4C82.4,174.2,82.6,174.3,82.8,174.4"/>
	<path class="st4" d="M101.5,208.8c-0.2,0-0.4,0.2-0.5,0.2c-0.3,0-0.3-0.5-0.3-0.7v-2.2c0-0.7,0-1.3-0.4-1.8
		c-0.4-0.5-0.9-0.8-1.6-0.8c-0.8,0-1.4,0.4-2.2,1.2c-0.1-0.1-0.1-0.2-0.2-0.4c-0.4-0.5-0.9-0.8-1.6-0.8c-0.8,0-1.4,0.5-2,1
		c0-0.5,0-0.8-0.6-0.8h-1.6c-0.3,0-0.5,0.1-0.5,0.4c0,0.2,0.2,0.3,0.4,0.4c0.6,0.1,0.7,0.2,0.7,0.9v3.1c0,0.6-0.1,0.7-0.6,0.9
		c-0.2,0-0.4,0.2-0.4,0.4c0,0.3,0.3,0.4,0.6,0.4c0.4,0,0.9-0.1,1.3-0.1c0.4,0,0.9,0.1,1.3,0.1c0.3,0,0.6-0.1,0.6-0.4
		c0-0.2-0.2-0.3-0.4-0.4c-0.6-0.1-0.6-0.3-0.6-0.9v-3.1c0.4-0.4,0.9-0.7,1.3-0.7c0.9,0,1,0.9,1,1.6v2.4c0,0.7,0.4,1.4,1.2,1.4
		c0.6,0,1.6-0.4,1.6-1c0-0.2-0.1-0.3-0.3-0.3c-0.2,0-0.4,0.2-0.5,0.2c-0.3,0-0.3-0.5-0.3-0.7v-2.2c0-0.2,0-0.5,0-0.7
		c0.5-0.5,0.9-0.7,1.4-0.7c0.9,0,1,0.9,1,1.6v2.4c0,0.7,0.4,1.4,1.2,1.4c0.6,0,1.6-0.4,1.6-1C101.8,209,101.7,208.8,101.5,208.8"/>
	<path class="st4" d="M131.2,203.6h-1.8c-0.2,0-0.4,0.2-0.4,0.4c0,0.5,0.7,0.2,0.7,0.8c0,0.4-0.6,2.1-1.2,3.5
		c-0.4-0.8-0.7-1.5-1.1-2.3c-0.1-0.3-0.4-0.9-0.4-1.2c0-0.5,0.7-0.3,0.7-0.8c0-0.2-0.2-0.4-0.5-0.4h-1.2h-1.3
		c-0.2,0-0.4,0.1-0.4,0.4c0,0.2,0.1,0.3,0.3,0.4c0.3,0.2,0.4,0.3,0.6,0.6s0.3,0.7,0.4,1c0.6,1.5,1.3,3,2,4.4
		c-0.2,0.5-0.7,1.4-1.2,1.4c-0.7,0-0.3-0.9-0.8-0.9c-0.4,0-1,0.8-1,1.2c0,0.2,0.1,0.4,0.3,0.5c0.3,0.3,0.6,0.4,1,0.4
		c0.8,0,1.5-0.5,1.9-1.2c0.7-1.2,1.2-2.6,1.7-3.8l1.1-3.1c0.3-0.8,0.9-0.6,0.9-1.1C131.6,203.8,131.6,203.6,131.2,203.6"/>
	<path class="st4" d="M113.6,208.3c-0.2,0.3-0.7,0.7-1.2,0.7c-0.5,0-0.8-0.4-0.8-0.9c0-0.5,0.6-0.9,1-1.1l1-0.4V208.3z M115.7,209.3
		c-0.3-0.1-0.4-0.2-0.4-0.9v-2.8c0-0.6-0.1-1.2-0.6-1.6c-0.4-0.4-1-0.5-1.6-0.5c-0.9,0-1.8,0.5-2.4,1.1c-0.3,0.3-0.3,0.4,0,0.6
		c0.2,0.2,0.5,0.2,0.8,0c0.3-0.2,0.9-0.5,1.3-0.5c0.6,0,1,0.4,0.9,1.2l-1.5,0.6c-0.9,0.4-2.2,1-2.2,2.2c0,1,0.9,1.6,1.8,1.6
		c0.9,0,1.5-0.4,2-1c0.2,1,1,1,1.5,1c0.3,0,1,0,1-0.4C116.2,209.4,116,209.4,115.7,209.3"/>
</g>
<rect x="66.4" y="6" class="st5" width="0.8" height="132"/>
<rect x="0.8" y="71.6" class="st5" width="132" height="0.8"/>
<g>
	<defs>
		<rect id="SVGID_5_" width="732" height="216"/>
	</defs>
	<clipPath id="SVGID_6_">
		<use xlink:href="#SVGID_5_"  style="overflow:visible;"/>
	</clipPath>
	<path class="st6" d="M30.8,134.8C16,134.8,4,122.8,4,108c0-14.8,12-26.8,26.8-26.8s26.8,12,26.8,26.8
		C57.5,122.8,45.5,134.8,30.8,134.8 M30.8,77.3C13.8,77.3,0,91,0,108s13.8,30.8,30.8,30.8S61.5,125,61.5,108S47.7,77.3,30.8,77.3"/>
</g>
<polygon class="st5" points="0.7,6 0.7,66 12.8,66 12.8,45 57.8,45 57.8,33 12.8,33 12.8,18 60.7,18 60.7,6 "/>
<polygon class="st5" points="84.8,54 84.8,6 72.8,6 72.8,66 132.8,66 132.8,54 "/>
<g>
	<defs>
		<rect id="SVGID_7_" width="732" height="216"/>
	</defs>
	<clipPath id="SVGID_8_">
		<use xlink:href="#SVGID_7_"  style="overflow:visible;"/>
	</clipPath>
	<path class="st7" d="M84.8,90h27.8c5,0,9,4,9,9c0,5-4,9-9,9H84.8V90z M133.5,99c0-11.6-9.4-21-21-21H72.8v60h12v-18h21.5l18,18h8.5
		v-8.5l-11.4-11.4C128.5,114.7,133.5,107.5,133.5,99"/>
	<path class="st7" d="M129.5,80c0,1.1,0.9,2,2,2c1.1,0,2-0.9,2-2c0-1.1-0.9-2-2-2C130.4,78,129.5,78.9,129.5,80 M129.9,80
		c0-0.9,0.7-1.6,1.6-1.6c0.9,0,1.6,0.7,1.6,1.6c0,0.9-0.7,1.6-1.6,1.6C130.6,81.6,129.9,80.9,129.9,80 M132.1,80.2L132.1,80.2
		c0.3-0.2,0.4-0.4,0.4-0.7c0-0.4-0.3-0.7-0.7-0.7h-1.1l-0.1,0.1v2.1l0.1,0.1h0.3l0.1-0.1v-0.8l0.1-0.1h0.3l0.1,0.1l0.6,0.8l0.1,0.1
		h0.2l0.1-0.1v-0.3L132.1,80.2z M132.1,79.6c0,0.2-0.1,0.3-0.3,0.3h-0.7l-0.1-0.1v-0.4l0.1-0.1h0.7
		C131.9,79.3,132.1,79.4,132.1,79.6"/>
	<path class="st8" d="M307.5,192.7c0,0.7-0.6,1-1.2,1c-0.5,0-0.8-0.3-0.8-0.8c0-1.1,1.2-1.1,2-1.2V192.7z M306.6,187.9
		c-0.9,0-2,0.3-2.7,1l0.8,1.2c0.4-0.5,1.1-0.8,1.8-0.8c0.4,0,1.1,0.1,1.1,0.7v0.6c-1.7,0.2-3.9,0.3-3.9,2.6c0,1.2,0.8,2.1,2,2.1
		c0.8,0,1.4-0.3,1.9-0.8l0.1,0.7h1.9v-5.2C309.4,188.2,307.9,187.9,306.6,187.9 M299.9,187.1v0.9h-0.8v1.4h0.8v5.5h1.9v-5.5h1.3
		v-1.4h-1.3v-0.6c0-0.7,0.3-1,0.9-1c0.2,0,0.4,0,0.6,0.1v-1.3c-0.3-0.1-0.7-0.1-1.1-0.1C301.1,185.2,299.9,185.7,299.9,187.1
		 M314.1,193.7c-0.9,0-1.4-0.8-1.4-2.2c0-1.4,0.3-2.2,1.4-2.2c0.6,0,1,0.5,1.1,0.9l1.3-0.7c-0.4-1.1-1.4-1.6-2.7-1.6
		c-1.7,0-3.2,1.3-3.2,3.6c0,2.3,1.1,3.7,3.2,3.7c1.1,0,2.3-0.4,2.7-1.5l-1.2-0.8C315.2,193.4,314.7,193.7,314.1,193.7 M319,190.9
		c0-0.8,0.3-1.7,1.3-1.7c0.9,0,1.1,0.9,1.1,1.7H319z M320.4,187.9c-2.2,0-3.4,1.5-3.4,3.6c0,2,1.2,3.7,3.3,3.7
		c1.2,0,2.1-0.3,2.9-1.1l-0.9-1.1c-0.5,0.6-1,0.8-1.7,0.8c-1,0-1.6-0.6-1.6-1.7h4.3c0-0.2,0-0.4,0-0.5
		C323.4,189.6,322.5,187.9,320.4,187.9 M278.7,187.9c-0.8,0-1.4,0.3-2.1,0.8l-0.1-0.7h-1.8v7h1.9v-4.4c0-0.8,0.4-1.3,1.3-1.3
		c0.5,0,0.7,0.4,0.7,0.8v4.8h1.9v-5.2C280.5,188.6,279.9,187.9,278.7,187.9 M284.3,192.7v-3.3h1.5v-1.4h-1.5v-1.7h-1.1
		c-0.2,0.9-0.7,1.7-1.7,2v1.1h0.8v4c0,1.3,1.2,1.7,2.1,1.7c0.6,0,1.2-0.2,1.6-0.3v-1.3c-0.1,0.1-0.6,0.2-0.9,0.2
		C284.4,193.8,284.3,193.3,284.3,192.7 M270.8,195h2.2v-9.2h-2.2V195z M296.4,189.1l-0.1-1h-1.8v7h1.9v-3.9c0-0.8,0.6-1.5,1.4-1.5
		c0.2,0,0.3,0,0.6,0.1v-1.8c-0.1,0-0.1,0-0.2,0C297.4,187.9,296.7,188.4,296.4,189.1 M288.7,190.9c0-0.8,0.3-1.7,1.3-1.7
		c0.9,0,1.1,0.9,1.1,1.7H288.7z M290.1,187.9c-2.2,0-3.4,1.5-3.4,3.6c0,2,1.2,3.7,3.3,3.7c1.2,0,2.1-0.3,2.9-1.1l-0.9-1.1
		c-0.5,0.6-1,0.8-1.7,0.8c-1,0-1.6-0.6-1.6-1.7h4.3c0-0.2,0-0.4,0-0.5C293.1,189.6,292.2,187.9,290.1,187.9"/>
	<path class="st8" d="M325.3,190c-0.6,0-1.1-0.5-1.1-1.1c0-0.6,0.5-1.1,1.1-1.1c0.6,0,1.1,0.5,1.1,1.1
		C326.4,189.6,325.9,190,325.3,190 M325.3,187.8c-0.7,0-1.2,0.5-1.2,1.2c0,0.7,0.5,1.2,1.2,1.2c0.7,0,1.2-0.5,1.2-1.2
		C326.5,188.3,325.9,187.8,325.3,187.8 M325,188.9v-0.5h0.2c0.2,0,0.3,0.1,0.3,0.3c0,0.2-0.1,0.3-0.3,0.3H325z M325.8,188.6
		c0-0.3-0.1-0.4-0.5-0.4h-0.4v1.5h0.2V189h0.2l0.3,0.7h0.2l-0.3-0.7C325.6,189,325.8,188.8,325.8,188.6"/>
	<path class="st8" d="M278.1,203.3c0.5,0,1.4-1.2,1.4-1.7c0-0.2-0.1-0.4-0.2-0.6c-0.1-0.1-0.3-0.3-0.4-0.3c-0.8-0.6-2.1-0.8-3-0.8
		c-3.1,0-5.6,2.2-5.6,5.4c0,2.8,2.1,4.9,4.9,4.9c1,0,2-0.3,2.9-0.8c0.4-0.2,1.4-0.9,1.4-1.4c0-0.2-0.2-0.4-0.4-0.4
		c-0.3,0.1-0.6,0.4-1.2,0.7c-0.5,0.2-1.3,0.4-1.8,0.4c-2.3,0-4-1.8-4-4.1c0-2,1.3-3.6,3.4-3.6c0.7,0,2.4,0.3,2.4,1.3
		c0,0.2-0.1,0.4-0.1,0.6C277.8,203.1,277.9,203.3,278.1,203.3"/>
	<path class="st8" d="M283.8,209.3c-1.3,0-1.8-1.7-1.8-2.7c0-0.9,0.4-2.2,1.5-2.2c1.3,0,1.7,1.7,1.7,2.8
		C285.3,207.9,284.9,209.3,283.8,209.3 M283.6,203.4c-2,0-3.3,1.5-3.3,3.5s1.5,3.2,3.4,3.2c1.9,0,3.4-1.4,3.4-3.3
		C287,204.8,285.6,203.4,283.6,203.4"/>
	<path class="st8" d="M272.6,175.6c0.2-0.6,1.3-3.2,1.5-3.5c0.1,0.3,0.8,1.9,1,2.5c0.1,0.2,0.4,1,0.4,1.1c0,0.2-0.1,0.2-0.3,0.2
		h-2.4C272.7,176,272.5,175.9,272.6,175.6 M270,180.1c0.4,0,0.7-0.1,1.1-0.1c0.4,0,0.7,0.1,1.1,0.1c0.3,0,0.6,0,0.6-0.4
		c0-0.2-0.1-0.3-0.4-0.4c-0.6-0.2-0.7-0.3-0.7-0.6c0-0.3,0.2-1.1,0.4-1.4c0.1-0.2,0.3-0.3,0.5-0.3l3,0c0.4,0,0.5,0.3,0.6,0.6
		c0.1,0.3,0.2,0.7,0.2,1c0,0.1,0,0.4-0.3,0.6c-0.3,0.1-0.6,0.2-0.6,0.5c0,0.3,0.3,0.4,0.8,0.4c0.6,0,0.9-0.1,1.4-0.1
		c0.5,0,0.8,0.1,1.4,0.1c0.4,0,0.8-0.1,0.7-0.4c0-0.2,0-0.3-0.4-0.5c-0.4-0.2-0.5-0.4-0.7-0.8c-0.3-0.5-0.5-1.2-0.7-1.7
		c-0.4-1-0.8-1.9-1.2-2.8c-0.4-0.8-0.7-1.6-1.1-2.5c-0.4-0.9-0.5-1.2-0.8-1.3c-0.1-0.1-0.3-0.1-0.4-0.1c-0.3,0-0.6,0-0.9,0
		c-0.3,0-1,0-1,0.5c0,0.4,0.7,0.4,0.7,0.8c0,0.1-0.1,0.3-0.1,0.5c-0.1,0.2-0.2,0.4-0.3,0.7c-0.7,1.8-1.5,3.4-2.1,5.3
		c-0.1,0.4-0.2,0.9-0.5,1.2c-0.2,0.3-0.3,0.3-0.6,0.4c-0.2,0.1-0.5,0.2-0.5,0.5C269.4,180,269.8,180.1,270,180.1"/>
	<path class="st8" d="M322.1,208.8c-0.2,0-0.4,0.2-0.5,0.2c-0.3,0-0.3-0.5-0.3-0.7v-2.2c0-0.7,0-1.3-0.4-1.8c-0.4-0.5-1-0.8-1.6-0.8
		c-0.8,0-1.5,0.4-2.1,0.9c0-0.5,0-0.8-0.6-0.8h-1.6c-0.3,0-0.5,0.1-0.5,0.4c0,0.2,0.2,0.3,0.4,0.4c0.6,0.1,0.7,0.2,0.7,0.9v3.1
		c0,0.6-0.1,0.7-0.6,0.9c-0.2,0-0.4,0.2-0.4,0.4c0,0.3,0.3,0.4,0.6,0.4c0.4,0,0.9-0.1,1.3-0.1s0.9,0.1,1.3,0.1
		c0.3,0,0.6-0.1,0.6-0.4c0-0.2-0.2-0.3-0.4-0.4c-0.6-0.1-0.6-0.3-0.6-0.9v-3c0.4-0.4,0.8-0.7,1.4-0.7c0.9,0,1,0.9,1,1.6v2.4
		c0,0.7,0.4,1.4,1.2,1.4c0.5,0,1.6-0.4,1.6-1C322.4,209,322.3,208.8,322.1,208.8"/>
	<path class="st8" d="M303.8,209.1c-0.4,0-0.8-0.2-1-0.5c-0.3-0.4-0.3-0.9-0.3-1.3v-1.9c0.4-0.3,0.8-0.6,1.3-0.6
		c1.1,0,1.8,1.1,1.8,2.1C305.6,208.1,305,209.1,303.8,209.1 M304.6,203.5c-0.9,0-1.4,0.5-2.1,1c0-0.5,0-0.9-0.6-0.9h-1.6
		c-0.3,0-0.5,0.1-0.5,0.4c0,0.2,0.2,0.3,0.4,0.4c0.6,0.1,0.7,0.2,0.7,0.9v6c0,0.6-0.1,0.7-0.6,0.9c-0.2,0-0.4,0.1-0.4,0.4
		c0,0.3,0.3,0.4,0.6,0.4c0.4,0,0.9-0.1,1.3-0.1s0.9,0.1,1.3,0.1c0.3,0,0.6-0.1,0.6-0.4c0-0.2-0.2-0.3-0.4-0.4
		c-0.6-0.1-0.6-0.3-0.6-0.9V210c0.3,0.1,0.7,0.2,1.1,0.2c1.9,0,3.4-1.8,3.4-3.7C307,205,306.2,203.5,304.6,203.5"/>
	<path class="st8" d="M280.6,174.4c0.6,0.1,0.7,0.2,0.7,0.9v3.1c0,0.6-0.1,0.7-0.6,0.9c-0.2,0-0.4,0.2-0.4,0.4
		c0,0.3,0.3,0.4,0.6,0.4c0.4,0,0.9-0.1,1.3-0.1s0.9,0.1,1.3,0.1c0.3,0,0.6-0.1,0.6-0.4c0-0.2-0.2-0.3-0.4-0.4
		c-0.6-0.1-0.6-0.3-0.6-0.9v-3c0.4-0.4,0.8-0.7,1.4-0.7c0.9,0,1,0.9,1,1.6v2.4c0,0.7,0.4,1.4,1.2,1.4c0.5,0,1.6-0.4,1.6-1
		c0-0.2-0.1-0.3-0.3-0.3c-0.2,0-0.4,0.2-0.5,0.2c-0.3,0-0.3-0.5-0.3-0.7v-2.2c0-0.7,0-1.3-0.4-1.8c-0.4-0.5-1-0.8-1.6-0.8
		c-0.8,0-1.5,0.4-2.1,0.9c0-0.5,0-0.8-0.6-0.8h-1.6c-0.3,0-0.5,0.1-0.5,0.4C280.2,174.2,280.4,174.3,280.6,174.4"/>
	<path class="st8" d="M299.3,208.8c-0.2,0-0.4,0.2-0.5,0.2c-0.3,0-0.3-0.5-0.3-0.7v-2.2c0-0.7,0-1.3-0.4-1.8
		c-0.4-0.5-0.9-0.8-1.6-0.8c-0.8,0-1.4,0.4-2.2,1.2c-0.1-0.1-0.1-0.2-0.2-0.4c-0.4-0.5-0.9-0.8-1.6-0.8c-0.8,0-1.4,0.5-2,1
		c0-0.5,0-0.8-0.6-0.8h-1.6c-0.3,0-0.5,0.1-0.5,0.4c0,0.2,0.2,0.3,0.4,0.4c0.6,0.1,0.7,0.2,0.7,0.9v3.1c0,0.6-0.1,0.7-0.6,0.9
		c-0.2,0-0.4,0.2-0.4,0.4c0,0.3,0.3,0.4,0.6,0.4c0.4,0,0.9-0.1,1.3-0.1c0.4,0,0.9,0.1,1.3,0.1c0.3,0,0.6-0.1,0.6-0.4
		c0-0.2-0.2-0.3-0.4-0.4c-0.6-0.1-0.6-0.3-0.6-0.9v-3.1c0.4-0.4,0.9-0.7,1.4-0.7c0.9,0,1,0.9,1,1.6v2.4c0,0.7,0.4,1.4,1.2,1.4
		c0.5,0,1.6-0.4,1.6-1c0-0.2-0.1-0.3-0.3-0.3c-0.2,0-0.4,0.2-0.5,0.2c-0.3,0-0.3-0.5-0.3-0.7v-2.2c0-0.2,0-0.5,0-0.7
		c0.5-0.5,0.9-0.7,1.4-0.7c0.9,0,1,0.9,1,1.6v2.4c0,0.7,0.4,1.4,1.2,1.4c0.5,0,1.6-0.4,1.6-1C299.6,209,299.5,208.8,299.3,208.8"/>
	<path class="st8" d="M329,203.6h-1.8c-0.2,0-0.4,0.2-0.4,0.4c0,0.5,0.7,0.2,0.7,0.8c0,0.4-0.6,2.1-1.2,3.5
		c-0.4-0.8-0.7-1.5-1.1-2.3c-0.1-0.3-0.4-0.9-0.4-1.2c0-0.5,0.7-0.3,0.7-0.8c0-0.2-0.2-0.4-0.4-0.4h-1.2h-1.3
		c-0.2,0-0.4,0.1-0.4,0.4c0,0.2,0.1,0.3,0.3,0.4c0.3,0.2,0.4,0.3,0.6,0.6c0.2,0.3,0.3,0.7,0.5,1c0.6,1.5,1.3,3,2,4.4
		c-0.2,0.5-0.7,1.4-1.2,1.4c-0.7,0-0.3-0.9-0.8-0.9c-0.4,0-1,0.8-1,1.2c0,0.2,0.1,0.4,0.3,0.5c0.3,0.3,0.6,0.4,1,0.4
		c0.8,0,1.5-0.5,2-1.2c0.7-1.2,1.2-2.6,1.7-3.8l1.1-3.1c0.3-0.8,0.9-0.6,0.9-1.1C329.4,203.8,329.3,203.6,329,203.6"/>
	<path class="st8" d="M311.3,208.3c-0.2,0.3-0.7,0.7-1.2,0.7c-0.5,0-0.8-0.4-0.8-0.9c0-0.5,0.6-0.9,1-1.1l1-0.4V208.3z M313.5,209.3
		c-0.3-0.1-0.4-0.2-0.4-0.9v-2.8c0-0.6-0.1-1.2-0.6-1.6c-0.5-0.4-1-0.5-1.6-0.5c-0.9,0-1.8,0.5-2.4,1.1c-0.3,0.3-0.3,0.4,0,0.6
		s0.5,0.2,0.8,0c0.3-0.2,0.9-0.5,1.3-0.5c0.6,0,1,0.4,0.9,1.2l-1.5,0.6c-0.9,0.4-2.2,1-2.2,2.2c0,1,0.9,1.6,1.8,1.6
		c0.9,0,1.5-0.4,2-1c0.2,1,1,1,1.5,1c0.3,0,1,0,1-0.4C314,209.4,313.7,209.4,313.5,209.3"/>
</g>
<rect x="264.1" y="6" class="st1" width="0.8" height="132"/>
<rect x="198.5" y="71.6" class="st1" width="132" height="0.8"/>
<g>
	<defs>
		<rect id="SVGID_9_" width="732" height="216"/>
	</defs>
	<clipPath id="SVGID_10_">
		<use xlink:href="#SVGID_9_"  style="overflow:visible;"/>
	</clipPath>
	<path class="st9" d="M228.5,134.8c-14.8,0-26.8-12-26.8-26.8c0-14.8,12-26.8,26.8-26.8c14.8,0,26.8,12,26.8,26.8
		C255.2,122.8,243.3,134.8,228.5,134.8 M228.5,77.3c-17,0-30.8,13.8-30.8,30.8s13.8,30.8,30.8,30.8s30.8-13.8,30.8-30.8
		S245.5,77.3,228.5,77.3"/>
</g>
<polygon class="st1" points="258.5,18 258.5,6 198.5,6 198.5,66 210.5,66 210.5,45 255.5,45 255.5,33 210.5,33 210.5,18 "/>
<polygon class="st1" points="282.5,54 282.5,6 270.5,6 270.5,66 330.5,66 330.5,54 "/>
<g>
	<defs>
		<rect id="SVGID_11_" width="732" height="216"/>
	</defs>
	<clipPath id="SVGID_12_">
		<use xlink:href="#SVGID_11_"  style="overflow:visible;"/>
	</clipPath>
	<path class="st10" d="M282.5,90h27.8c5,0,9,4,9,9c0,5-4,9-9,9h-27.8V90z M331.2,99c0-11.6-9.4-21-21-21h-39.8v60h12v-18H304l18,18
		h8.5v-8.5l-11.4-11.4C326.3,114.7,331.2,107.5,331.2,99"/>
	<path class="st10" d="M327.2,80c0,1.1,0.9,2,2,2c1.1,0,2-0.9,2-2c0-1.1-0.9-2-2-2C328.1,78,327.2,78.9,327.2,80 M327.7,80
		c0-0.9,0.7-1.6,1.6-1.6c0.9,0,1.6,0.7,1.6,1.6c0,0.9-0.7,1.6-1.6,1.6C328.4,81.6,327.7,80.9,327.7,80 M329.8,80.2L329.8,80.2
		c0.3-0.2,0.4-0.4,0.4-0.7c0-0.4-0.3-0.7-0.7-0.7h-1.1l-0.1,0.1v2.1l0.1,0.1h0.3l0.1-0.1v-0.8l0.1-0.1h0.3l0.1,0.1l0.6,0.8l0.1,0.1
		h0.2l0.1-0.1v-0.3L329.8,80.2z M329.8,79.6c0,0.2-0.1,0.3-0.3,0.3h-0.7l-0.1-0.1v-0.4l0.1-0.1h0.7
		C329.7,79.3,329.8,79.4,329.8,79.6"/>
	<path class="st11" d="M505.3,192.7c0,0.7-0.6,1-1.2,1c-0.5,0-0.8-0.3-0.8-0.8c0-1.1,1.2-1.1,2-1.2V192.7z M504.4,187.9
		c-0.9,0-2,0.3-2.7,1l0.8,1.2c0.4-0.5,1.1-0.8,1.8-0.8c0.4,0,1.1,0.1,1.1,0.7v0.6c-1.7,0.2-3.9,0.3-3.9,2.6c0,1.2,0.8,2.1,2,2.1
		c0.8,0,1.4-0.3,1.9-0.8l0.1,0.7h1.9v-5.2C507.2,188.2,505.6,187.9,504.4,187.9 M497.7,187.1v0.9h-0.8v1.4h0.8v5.5h1.9v-5.5h1.3
		v-1.4h-1.3v-0.6c0-0.7,0.3-1,0.9-1c0.2,0,0.4,0,0.6,0.1v-1.3c-0.3-0.1-0.7-0.1-1.1-0.1C498.8,185.2,497.7,185.7,497.7,187.1
		 M511.8,193.7c-0.9,0-1.4-0.8-1.4-2.2c0-1.4,0.3-2.2,1.4-2.2c0.6,0,1,0.5,1.1,0.9l1.3-0.7c-0.4-1.1-1.4-1.6-2.7-1.6
		c-1.7,0-3.2,1.3-3.2,3.6c0,2.3,1.1,3.7,3.2,3.7c1.1,0,2.3-0.4,2.7-1.5l-1.2-0.8C512.9,193.4,512.5,193.7,511.8,193.7 M516.8,190.9
		c0-0.8,0.3-1.7,1.3-1.7c0.9,0,1.1,0.9,1.1,1.7H516.8z M518.2,187.9c-2.2,0-3.4,1.5-3.4,3.6c0,2,1.2,3.7,3.3,3.7
		c1.2,0,2.1-0.3,2.9-1.1l-0.9-1.1c-0.5,0.6-1,0.8-1.7,0.8c-1,0-1.6-0.6-1.6-1.7h4.3c0-0.2,0-0.4,0-0.5
		C521.2,189.6,520.2,187.9,518.2,187.9 M476.5,187.9c-0.8,0-1.4,0.3-2.1,0.8l-0.1-0.7h-1.8v7h1.9v-4.4c0-0.8,0.4-1.3,1.3-1.3
		c0.5,0,0.7,0.4,0.7,0.8v4.8h1.9v-5.2C478.3,188.6,477.7,187.9,476.5,187.9 M482,192.7v-3.3h1.5v-1.4H482v-1.7H481
		c-0.2,0.9-0.7,1.7-1.7,2v1.1h0.8v4c0,1.3,1.2,1.7,2.1,1.7c0.6,0,1.2-0.2,1.6-0.3v-1.3c-0.1,0.1-0.6,0.2-0.9,0.2
		C482.2,193.8,482,193.3,482,192.7 M468.6,195h2.2v-9.2h-2.2V195z M494.1,189.1l-0.1-1h-1.8v7h1.9v-3.9c0-0.8,0.6-1.5,1.4-1.5
		c0.2,0,0.3,0,0.6,0.1v-1.8c-0.1,0-0.1,0-0.2,0C495.2,187.9,494.5,188.4,494.1,189.1 M486.5,190.9c0-0.8,0.3-1.7,1.3-1.7
		c0.9,0,1.1,0.9,1.1,1.7H486.5z M487.9,187.9c-2.2,0-3.4,1.5-3.4,3.6c0,2,1.2,3.7,3.3,3.7c1.2,0,2.1-0.3,2.9-1.1l-0.9-1.1
		c-0.5,0.6-1,0.8-1.7,0.8c-1,0-1.6-0.6-1.6-1.7h4.3c0-0.2,0-0.4,0-0.5C490.9,189.6,489.9,187.9,487.9,187.9"/>
	<path class="st11" d="M523,190c-0.6,0-1.1-0.5-1.1-1.1c0-0.6,0.5-1.1,1.1-1.1c0.6,0,1.1,0.5,1.1,1.1C524.1,189.6,523.6,190,523,190
		 M523,187.8c-0.7,0-1.2,0.5-1.2,1.2c0,0.7,0.5,1.2,1.2,1.2c0.7,0,1.2-0.5,1.2-1.2C524.2,188.3,523.7,187.8,523,187.8 M522.8,188.9
		v-0.5h0.2c0.2,0,0.3,0.1,0.3,0.3c0,0.2-0.1,0.3-0.3,0.3H522.8z M523.5,188.6c0-0.3-0.1-0.4-0.5-0.4h-0.4v1.5h0.2V189h0.2l0.3,0.7
		h0.2l-0.3-0.7C523.4,189,523.5,188.8,523.5,188.6"/>
	<path class="st11" d="M475.9,203.3c0.5,0,1.4-1.2,1.4-1.7c0-0.2-0.1-0.4-0.2-0.6c-0.1-0.1-0.3-0.3-0.4-0.3c-0.8-0.6-2.1-0.8-3-0.8
		c-3.1,0-5.6,2.2-5.6,5.4c0,2.8,2.1,4.9,4.9,4.9c1,0,2-0.3,2.9-0.8c0.4-0.2,1.4-0.9,1.4-1.4c0-0.2-0.2-0.4-0.4-0.4
		c-0.3,0.1-0.6,0.4-1.2,0.7c-0.5,0.2-1.3,0.4-1.8,0.4c-2.3,0-4-1.8-4-4.1c0-2,1.3-3.6,3.4-3.6c0.7,0,2.4,0.3,2.4,1.3
		c0,0.2-0.1,0.4-0.1,0.6C475.5,203.1,475.7,203.3,475.9,203.3"/>
	<path class="st11" d="M481.6,209.3c-1.3,0-1.8-1.7-1.8-2.7c0-0.9,0.4-2.2,1.5-2.2c1.3,0,1.7,1.7,1.7,2.8
		C483,207.9,482.7,209.3,481.6,209.3 M481.3,203.4c-2,0-3.3,1.5-3.3,3.5s1.5,3.2,3.4,3.2c1.9,0,3.4-1.4,3.4-3.3
		C484.8,204.8,483.4,203.4,481.3,203.4"/>
	<path class="st11" d="M470.4,175.6c0.2-0.6,1.3-3.2,1.5-3.5c0.1,0.3,0.8,1.9,1,2.5c0.1,0.2,0.4,1,0.4,1.1c0,0.2-0.1,0.2-0.3,0.2
		h-2.4C470.4,176,470.3,175.9,470.4,175.6 M467.8,180.1c0.4,0,0.7-0.1,1.1-0.1c0.4,0,0.7,0.1,1.1,0.1c0.3,0,0.6,0,0.6-0.4
		c0-0.2-0.1-0.3-0.4-0.4c-0.6-0.2-0.7-0.3-0.7-0.6c0-0.3,0.2-1.1,0.4-1.4c0.1-0.2,0.3-0.3,0.5-0.3l3,0c0.4,0,0.5,0.3,0.6,0.6
		c0.1,0.3,0.2,0.7,0.2,1c0,0.1,0,0.4-0.3,0.6c-0.3,0.1-0.6,0.2-0.6,0.5c0,0.3,0.3,0.4,0.8,0.4c0.6,0,0.9-0.1,1.4-0.1
		c0.5,0,0.8,0.1,1.4,0.1c0.4,0,0.8-0.1,0.7-0.4c0-0.2,0-0.3-0.4-0.5c-0.4-0.2-0.5-0.4-0.7-0.8c-0.3-0.5-0.5-1.2-0.7-1.7
		c-0.4-1-0.8-1.9-1.2-2.8c-0.4-0.8-0.7-1.6-1.1-2.5c-0.4-0.9-0.5-1.2-0.8-1.3c-0.1-0.1-0.3-0.1-0.4-0.1c-0.3,0-0.6,0-0.9,0
		c-0.3,0-1,0-1,0.5c0,0.4,0.7,0.4,0.7,0.8c0,0.1-0.1,0.3-0.1,0.5c-0.1,0.2-0.2,0.4-0.3,0.7c-0.7,1.8-1.5,3.4-2.1,5.3
		c-0.1,0.4-0.2,0.9-0.5,1.2c-0.2,0.3-0.3,0.3-0.6,0.4c-0.2,0.1-0.5,0.2-0.5,0.5C467.2,180,467.5,180.1,467.8,180.1"/>
	<path class="st11" d="M519.9,208.8c-0.2,0-0.4,0.2-0.5,0.2c-0.3,0-0.3-0.5-0.3-0.7v-2.2c0-0.7,0-1.3-0.4-1.8
		c-0.4-0.5-1-0.8-1.6-0.8c-0.8,0-1.5,0.4-2.1,0.9c0-0.5,0-0.8-0.6-0.8h-1.6c-0.3,0-0.5,0.1-0.5,0.4c0,0.2,0.2,0.3,0.4,0.4
		c0.6,0.1,0.7,0.2,0.7,0.9v3.1c0,0.6-0.1,0.7-0.6,0.9c-0.2,0-0.4,0.2-0.4,0.4c0,0.3,0.3,0.4,0.6,0.4c0.4,0,0.9-0.1,1.3-0.1
		c0.4,0,0.9,0.1,1.3,0.1c0.3,0,0.6-0.1,0.6-0.4c0-0.2-0.2-0.3-0.4-0.4c-0.6-0.1-0.6-0.3-0.6-0.9v-3c0.4-0.4,0.8-0.7,1.4-0.7
		c0.9,0,1,0.9,1,1.6v2.4c0,0.7,0.4,1.4,1.2,1.4c0.5,0,1.6-0.4,1.6-1C520.2,209,520.1,208.8,519.9,208.8"/>
	<path class="st11" d="M501.5,209.1c-0.4,0-0.8-0.2-1-0.5c-0.3-0.4-0.3-0.9-0.3-1.3v-1.9c0.4-0.3,0.8-0.6,1.3-0.6
		c1.1,0,1.8,1.1,1.8,2.1C503.4,208.1,502.8,209.1,501.5,209.1 M502.4,203.5c-0.9,0-1.4,0.5-2.1,1c0-0.5,0-0.9-0.6-0.9H498
		c-0.3,0-0.5,0.1-0.5,0.4c0,0.2,0.2,0.3,0.4,0.4c0.6,0.1,0.7,0.2,0.7,0.9v6c0,0.6-0.1,0.7-0.6,0.9c-0.2,0-0.4,0.1-0.4,0.4
		c0,0.3,0.3,0.4,0.6,0.4c0.4,0,0.9-0.1,1.3-0.1s0.9,0.1,1.3,0.1c0.3,0,0.6-0.1,0.6-0.4c0-0.2-0.2-0.3-0.4-0.4
		c-0.6-0.1-0.6-0.3-0.6-0.9V210c0.3,0.1,0.7,0.2,1.1,0.2c1.9,0,3.4-1.8,3.4-3.7C504.7,205,504,203.5,502.4,203.5"/>
	<path class="st11" d="M478.3,174.4c0.6,0.1,0.7,0.2,0.7,0.9v3.1c0,0.6-0.1,0.7-0.6,0.9c-0.2,0-0.4,0.2-0.4,0.4
		c0,0.3,0.3,0.4,0.6,0.4c0.4,0,0.9-0.1,1.3-0.1s0.9,0.1,1.3,0.1c0.3,0,0.6-0.1,0.6-0.4c0-0.2-0.2-0.3-0.4-0.4
		c-0.6-0.1-0.6-0.3-0.6-0.9v-3c0.4-0.4,0.8-0.7,1.4-0.7c0.9,0,1,0.9,1,1.6v2.4c0,0.7,0.4,1.4,1.2,1.4c0.5,0,1.6-0.4,1.6-1
		c0-0.2-0.1-0.3-0.3-0.3c-0.2,0-0.4,0.2-0.5,0.2c-0.3,0-0.3-0.5-0.3-0.7v-2.2c0-0.7,0-1.3-0.4-1.8c-0.4-0.5-1-0.8-1.6-0.8
		c-0.8,0-1.5,0.4-2.1,0.9c0-0.5,0-0.8-0.6-0.8h-1.6c-0.3,0-0.5,0.1-0.5,0.4C477.9,174.2,478.1,174.3,478.3,174.4"/>
	<path class="st11" d="M497,208.8c-0.2,0-0.4,0.2-0.5,0.2c-0.3,0-0.3-0.5-0.3-0.7v-2.2c0-0.7,0-1.3-0.4-1.8
		c-0.4-0.5-0.9-0.8-1.6-0.8c-0.8,0-1.4,0.4-2.2,1.2c-0.1-0.1-0.1-0.2-0.2-0.4c-0.4-0.5-0.9-0.8-1.6-0.8c-0.8,0-1.4,0.5-2,1
		c0-0.5,0-0.8-0.6-0.8h-1.6c-0.3,0-0.5,0.1-0.5,0.4c0,0.2,0.2,0.3,0.4,0.4c0.6,0.1,0.7,0.2,0.7,0.9v3.1c0,0.6-0.1,0.7-0.6,0.9
		c-0.2,0-0.4,0.2-0.4,0.4c0,0.3,0.3,0.4,0.6,0.4c0.4,0,0.9-0.1,1.3-0.1c0.4,0,0.9,0.1,1.3,0.1c0.3,0,0.6-0.1,0.6-0.4
		c0-0.2-0.2-0.3-0.4-0.4c-0.6-0.1-0.6-0.3-0.6-0.9v-3.1c0.4-0.4,0.9-0.7,1.4-0.7c0.9,0,1,0.9,1,1.6v2.4c0,0.7,0.4,1.4,1.2,1.4
		c0.5,0,1.6-0.4,1.6-1c0-0.2-0.1-0.3-0.3-0.3c-0.2,0-0.4,0.2-0.5,0.2c-0.3,0-0.3-0.5-0.3-0.7v-2.2c0-0.2,0-0.5,0-0.7
		c0.5-0.5,0.9-0.7,1.4-0.7c0.9,0,1,0.9,1,1.6v2.4c0,0.7,0.4,1.4,1.2,1.4c0.5,0,1.6-0.4,1.6-1C497.3,209,497.2,208.8,497,208.8"/>
	<path class="st11" d="M526.7,203.6H525c-0.2,0-0.4,0.2-0.4,0.4c0,0.5,0.7,0.2,0.7,0.8c0,0.4-0.6,2.1-1.2,3.5
		c-0.4-0.8-0.7-1.5-1.1-2.3c-0.1-0.3-0.4-0.9-0.4-1.2c0-0.5,0.7-0.3,0.7-0.8c0-0.2-0.2-0.4-0.4-0.4h-1.2h-1.3
		c-0.2,0-0.4,0.1-0.4,0.4c0,0.2,0.1,0.3,0.3,0.4c0.3,0.2,0.4,0.3,0.6,0.6s0.3,0.7,0.5,1c0.6,1.5,1.3,3,2,4.4
		c-0.2,0.5-0.7,1.4-1.2,1.4c-0.7,0-0.3-0.9-0.8-0.9c-0.4,0-1,0.8-1,1.2c0,0.2,0.1,0.4,0.3,0.5c0.3,0.3,0.6,0.4,1,0.4
		c0.8,0,1.5-0.5,2-1.2c0.7-1.2,1.2-2.6,1.7-3.8l1.1-3.1c0.3-0.8,0.9-0.6,0.9-1.1C527.1,203.8,527.1,203.6,526.7,203.6"/>
	<path class="st11" d="M509.1,208.3c-0.2,0.3-0.7,0.7-1.2,0.7c-0.5,0-0.8-0.4-0.8-0.9c0-0.5,0.6-0.9,1-1.1l1-0.4V208.3z
		 M511.2,209.3c-0.3-0.1-0.4-0.2-0.4-0.9v-2.8c0-0.6-0.1-1.2-0.6-1.6c-0.5-0.4-1-0.5-1.6-0.5c-0.9,0-1.8,0.5-2.4,1.1
		c-0.3,0.3-0.3,0.4,0,0.6s0.5,0.2,0.8,0c0.3-0.2,0.9-0.5,1.3-0.5c0.6,0,1,0.4,0.9,1.2l-1.5,0.6c-0.9,0.4-2.2,1-2.2,2.2
		c0,1,0.9,1.6,1.8,1.6c0.9,0,1.5-0.4,2-1c0.2,1,1,1,1.5,1c0.3,0,1,0,1-0.4C511.7,209.4,511.5,209.4,511.2,209.3"/>
</g>
<rect x="461.9" y="6" class="st0" width="0.8" height="132"/>
<rect x="396.2" y="71.6" class="st0" width="132" height="0.8"/>
<g>
	<defs>
		<rect id="SVGID_13_" width="732" height="216"/>
	</defs>
	<clipPath id="SVGID_14_">
		<use xlink:href="#SVGID_13_"  style="overflow:visible;"/>
	</clipPath>
	<path class="st12" d="M426.2,134.8c-14.8,0-26.8-12-26.8-26.8c0-14.8,12-26.8,26.8-26.8c14.8,0,26.8,12,26.8,26.8
		C453,122.8,441,134.8,426.2,134.8 M426.2,77.3c-17,0-30.8,13.8-30.8,30.8s13.8,30.8,30.8,30.8c17,0,30.8-13.8,30.8-30.8
		S443.2,77.3,426.2,77.3"/>
</g>
<polygon class="st0" points="456.2,18 456.2,6 396.2,6 396.2,66 408.2,66 408.2,45 453.2,45 453.2,33 408.2,33 408.2,18 "/>
<polygon class="st0" points="480.2,54 480.2,6 468.2,6 468.2,66 528.2,66 528.2,54 "/>
<g>
	<defs>
		<rect id="SVGID_15_" width="732" height="216"/>
	</defs>
	<clipPath id="SVGID_16_">
		<use xlink:href="#SVGID_15_"  style="overflow:visible;"/>
	</clipPath>
	<path class="st13" d="M480.2,90H508c5,0,9,4,9,9c0,5-4,9-9,9h-27.8V90z M529,99c0-11.6-9.4-21-21-21h-39.8v60h12v-18h21.5l18,18
		h8.5v-8.5l-11.4-11.4C524,114.7,529,107.5,529,99"/>
	<path class="st13" d="M525,80c0,1.1,0.9,2,2,2s2-0.9,2-2c0-1.1-0.9-2-2-2S525,78.9,525,80 M525.4,80c0-0.9,0.7-1.6,1.6-1.6
		s1.6,0.7,1.6,1.6c0,0.9-0.7,1.6-1.6,1.6S525.4,80.9,525.4,80 M527.6,80.2L527.6,80.2c0.3-0.2,0.4-0.4,0.4-0.7
		c0-0.4-0.3-0.7-0.7-0.7h-1.1l-0.1,0.1v2.1l0.1,0.1h0.3l0.1-0.1v-0.8l0.1-0.1h0.3l0.1,0.1l0.6,0.8l0.1,0.1h0.2l0.1-0.1v-0.3
		L527.6,80.2z M527.6,79.6c0,0.2-0.1,0.3-0.3,0.3h-0.7l-0.1-0.1v-0.4l0.1-0.1h0.7C527.4,79.3,527.6,79.4,527.6,79.6"/>
	<path class="st14" d="M703.8,192.7c0,0.7-0.6,1-1.2,1c-0.5,0-0.8-0.3-0.8-0.8c0-1.1,1.2-1.1,2-1.2V192.7z M702.9,187.9
		c-0.9,0-2,0.3-2.7,1l0.8,1.2c0.4-0.5,1.1-0.8,1.8-0.8c0.4,0,1.1,0.1,1.1,0.7v0.6c-1.7,0.2-3.9,0.3-3.9,2.6c0,1.2,0.8,2.1,2,2.1
		c0.8,0,1.4-0.3,1.9-0.8l0.1,0.7h1.9v-5.2C705.7,188.2,704.1,187.9,702.9,187.9 M696.2,187.1v0.9h-0.8v1.4h0.8v5.5h1.9v-5.5h1.3
		v-1.4h-1.3v-0.6c0-0.7,0.3-1,0.9-1c0.2,0,0.4,0,0.6,0.1v-1.3c-0.3-0.1-0.7-0.1-1.1-0.1C697.3,185.2,696.2,185.7,696.2,187.1
		 M710.3,193.7c-0.9,0-1.4-0.8-1.4-2.2c0-1.4,0.3-2.2,1.4-2.2c0.6,0,1,0.5,1.1,0.9l1.3-0.7c-0.4-1.1-1.4-1.6-2.7-1.6
		c-1.7,0-3.2,1.3-3.2,3.6c0,2.3,1.1,3.7,3.2,3.7c1.1,0,2.3-0.4,2.7-1.5l-1.2-0.8C711.4,193.4,711,193.7,710.3,193.7 M715.3,190.9
		c0-0.8,0.3-1.7,1.3-1.7c0.9,0,1.1,0.9,1.1,1.7H715.3z M716.7,187.9c-2.2,0-3.4,1.5-3.4,3.6c0,2,1.2,3.7,3.3,3.7
		c1.2,0,2.1-0.3,2.9-1.1l-0.9-1.1c-0.5,0.6-1,0.8-1.7,0.8c-1,0-1.6-0.6-1.6-1.7h4.3c0-0.2,0-0.4,0-0.5
		C719.7,189.6,718.7,187.9,716.7,187.9 M675,187.9c-0.8,0-1.4,0.3-2.1,0.8l-0.1-0.7H671v7h1.9v-4.4c0-0.8,0.4-1.3,1.3-1.3
		c0.5,0,0.7,0.4,0.7,0.8v4.8h1.9v-5.2C676.8,188.6,676.2,187.9,675,187.9 M680.5,192.7v-3.3h1.5v-1.4h-1.5v-1.7h-1.1
		c-0.2,0.9-0.7,1.7-1.7,2v1.1h0.8v4c0,1.3,1.2,1.7,2.1,1.7c0.6,0,1.2-0.2,1.6-0.3v-1.3c-0.1,0.1-0.6,0.2-0.9,0.2
		C680.7,193.8,680.5,193.3,680.5,192.7 M667.1,195h2.2v-9.2h-2.2V195z M692.6,189.1l-0.1-1h-1.8v7h1.9v-3.9c0-0.8,0.6-1.5,1.4-1.5
		c0.2,0,0.3,0,0.6,0.1v-1.8c-0.1,0-0.1,0-0.2,0C693.7,187.9,693,188.4,692.6,189.1 M685,190.9c0-0.8,0.3-1.7,1.3-1.7
		c0.9,0,1.1,0.9,1.1,1.7H685z M686.4,187.9c-2.2,0-3.4,1.5-3.4,3.6c0,2,1.2,3.7,3.3,3.7c1.2,0,2.1-0.3,2.9-1.1l-0.9-1.1
		c-0.5,0.6-1,0.8-1.7,0.8c-1,0-1.6-0.6-1.6-1.7h4.3c0-0.2,0-0.4,0-0.5C689.4,189.6,688.4,187.9,686.4,187.9"/>
	<path class="st14" d="M721.5,190c-0.6,0-1.1-0.5-1.1-1.1c0-0.6,0.5-1.1,1.1-1.1c0.6,0,1.1,0.5,1.1,1.1
		C722.6,189.6,722.1,190,721.5,190 M721.5,187.8c-0.7,0-1.2,0.5-1.2,1.2c0,0.7,0.5,1.2,1.2,1.2c0.7,0,1.2-0.5,1.2-1.2
		C722.7,188.3,722.2,187.8,721.5,187.8 M721.3,188.9v-0.5h0.2c0.2,0,0.3,0.1,0.3,0.3c0,0.2-0.1,0.3-0.3,0.3H721.3z M722,188.6
		c0-0.3-0.1-0.4-0.5-0.4h-0.4v1.5h0.2V189h0.2l0.3,0.7h0.2l-0.3-0.7C721.9,189,722,188.8,722,188.6"/>
	<path class="st14" d="M674.4,203.3c0.5,0,1.4-1.2,1.4-1.7c0-0.2-0.1-0.4-0.2-0.6c-0.1-0.1-0.3-0.3-0.4-0.3c-0.8-0.6-2.1-0.8-3-0.8
		c-3.1,0-5.6,2.2-5.6,5.4c0,2.8,2.1,4.9,4.9,4.9c1,0,2-0.3,2.9-0.8c0.4-0.2,1.4-0.9,1.4-1.4c0-0.2-0.2-0.4-0.4-0.4
		c-0.3,0.1-0.6,0.4-1.2,0.7c-0.5,0.2-1.3,0.4-1.8,0.4c-2.3,0-4-1.8-4-4.1c0-2,1.3-3.6,3.4-3.6c0.7,0,2.4,0.3,2.4,1.3
		c0,0.2-0.1,0.4-0.1,0.6C674,203.1,674.2,203.3,674.4,203.3"/>
	<path class="st14" d="M680.1,209.3c-1.3,0-1.8-1.7-1.8-2.7c0-0.9,0.4-2.2,1.5-2.2c1.3,0,1.7,1.7,1.7,2.8
		C681.5,207.9,681.2,209.3,680.1,209.3 M679.8,203.4c-2,0-3.3,1.5-3.3,3.5s1.5,3.2,3.4,3.2c1.9,0,3.4-1.4,3.4-3.3
		C683.3,204.8,681.9,203.4,679.8,203.4"/>
	<path class="st14" d="M668.9,175.6c0.2-0.6,1.3-3.2,1.5-3.5c0.1,0.3,0.8,1.9,1,2.5c0.1,0.2,0.4,1,0.4,1.1c0,0.2-0.1,0.2-0.3,0.2
		h-2.4C668.9,176,668.8,175.9,668.9,175.6 M666.3,180.1c0.4,0,0.7-0.1,1.1-0.1c0.4,0,0.7,0.1,1.1,0.1c0.3,0,0.6,0,0.6-0.4
		c0-0.2-0.1-0.3-0.4-0.4c-0.6-0.2-0.7-0.3-0.7-0.6c0-0.3,0.2-1.1,0.4-1.4c0.1-0.2,0.3-0.3,0.5-0.3l3,0c0.4,0,0.5,0.3,0.6,0.6
		c0.1,0.3,0.2,0.7,0.2,1c0,0.1,0,0.4-0.3,0.6c-0.3,0.1-0.6,0.2-0.6,0.5c0,0.3,0.3,0.4,0.8,0.4c0.6,0,0.9-0.1,1.4-0.1
		c0.5,0,0.8,0.1,1.4,0.1c0.4,0,0.8-0.1,0.7-0.4c0-0.2,0-0.3-0.4-0.5c-0.4-0.2-0.5-0.4-0.7-0.8c-0.3-0.5-0.5-1.2-0.7-1.7
		c-0.4-1-0.8-1.9-1.2-2.8c-0.4-0.8-0.7-1.6-1.1-2.5c-0.4-0.9-0.5-1.2-0.8-1.3c-0.1-0.1-0.3-0.1-0.4-0.1c-0.3,0-0.6,0-0.9,0
		c-0.3,0-1,0-1,0.5c0,0.4,0.7,0.4,0.7,0.8c0,0.1-0.1,0.3-0.1,0.5c-0.1,0.2-0.2,0.4-0.3,0.7c-0.7,1.8-1.5,3.4-2.1,5.3
		c-0.1,0.4-0.2,0.9-0.5,1.2c-0.2,0.3-0.3,0.3-0.6,0.4c-0.2,0.1-0.5,0.2-0.5,0.5C665.7,180,666,180.1,666.3,180.1"/>
	<path class="st14" d="M718.4,208.8c-0.2,0-0.4,0.2-0.5,0.2c-0.3,0-0.3-0.5-0.3-0.7v-2.2c0-0.7,0-1.3-0.4-1.8
		c-0.4-0.5-1-0.8-1.6-0.8c-0.8,0-1.5,0.4-2.1,0.9c0-0.5,0-0.8-0.6-0.8h-1.6c-0.3,0-0.5,0.1-0.5,0.4c0,0.2,0.2,0.3,0.4,0.4
		c0.6,0.1,0.7,0.2,0.7,0.9v3.1c0,0.6-0.1,0.7-0.6,0.9c-0.2,0-0.4,0.2-0.4,0.4c0,0.3,0.3,0.4,0.6,0.4c0.4,0,0.9-0.1,1.3-0.1
		c0.4,0,0.9,0.1,1.3,0.1c0.3,0,0.6-0.1,0.6-0.4c0-0.2-0.2-0.3-0.4-0.4c-0.6-0.1-0.6-0.3-0.6-0.9v-3c0.4-0.4,0.8-0.7,1.4-0.7
		c0.9,0,1,0.9,1,1.6v2.4c0,0.7,0.4,1.4,1.2,1.4c0.5,0,1.6-0.4,1.6-1C718.7,209,718.6,208.8,718.4,208.8"/>
	<path class="st14" d="M700,209.1c-0.4,0-0.8-0.2-1-0.5c-0.3-0.4-0.3-0.9-0.3-1.3v-1.9c0.4-0.3,0.8-0.6,1.3-0.6
		c1.1,0,1.8,1.1,1.8,2.1C701.9,208.1,701.3,209.1,700,209.1 M700.9,203.5c-0.9,0-1.4,0.5-2.1,1c0-0.5,0-0.9-0.6-0.9h-1.6
		c-0.3,0-0.5,0.1-0.5,0.4c0,0.2,0.2,0.3,0.4,0.4c0.6,0.1,0.7,0.2,0.7,0.9v6c0,0.6-0.1,0.7-0.6,0.9c-0.2,0-0.4,0.1-0.4,0.4
		c0,0.3,0.3,0.4,0.6,0.4c0.4,0,0.9-0.1,1.3-0.1c0.4,0,0.9,0.1,1.3,0.1c0.3,0,0.6-0.1,0.6-0.4c0-0.2-0.2-0.3-0.4-0.4
		c-0.6-0.1-0.6-0.3-0.6-0.9V210c0.3,0.1,0.7,0.2,1.1,0.2c1.9,0,3.4-1.8,3.4-3.7C703.2,205,702.5,203.5,700.9,203.5"/>
	<path class="st14" d="M676.8,174.4c0.6,0.1,0.7,0.2,0.7,0.9v3.1c0,0.6-0.1,0.7-0.6,0.9c-0.2,0-0.4,0.2-0.4,0.4
		c0,0.3,0.3,0.4,0.6,0.4c0.4,0,0.9-0.1,1.3-0.1c0.4,0,0.9,0.1,1.3,0.1c0.3,0,0.6-0.1,0.6-0.4c0-0.2-0.2-0.3-0.4-0.4
		c-0.6-0.1-0.6-0.3-0.6-0.9v-3c0.4-0.4,0.8-0.7,1.4-0.7c0.9,0,1,0.9,1,1.6v2.4c0,0.7,0.4,1.4,1.2,1.4c0.5,0,1.6-0.4,1.6-1
		c0-0.2-0.1-0.3-0.3-0.3c-0.2,0-0.4,0.2-0.5,0.2c-0.3,0-0.3-0.5-0.3-0.7v-2.2c0-0.7,0-1.3-0.4-1.8c-0.4-0.5-1-0.8-1.6-0.8
		c-0.8,0-1.5,0.4-2.1,0.9c0-0.5,0-0.8-0.6-0.8h-1.6c-0.3,0-0.5,0.1-0.5,0.4C676.4,174.2,676.6,174.3,676.8,174.4"/>
	<path class="st14" d="M695.5,208.8c-0.2,0-0.4,0.2-0.5,0.2c-0.3,0-0.3-0.5-0.3-0.7v-2.2c0-0.7,0-1.3-0.4-1.8
		c-0.4-0.5-0.9-0.8-1.6-0.8c-0.8,0-1.4,0.4-2.2,1.2c-0.1-0.1-0.1-0.2-0.2-0.4c-0.4-0.5-0.9-0.8-1.6-0.8c-0.8,0-1.4,0.5-2,1
		c0-0.5,0-0.8-0.6-0.8h-1.6c-0.3,0-0.5,0.1-0.5,0.4c0,0.2,0.2,0.3,0.4,0.4c0.6,0.1,0.7,0.2,0.7,0.9v3.1c0,0.6-0.1,0.7-0.6,0.9
		c-0.2,0-0.4,0.2-0.4,0.4c0,0.3,0.3,0.4,0.6,0.4c0.4,0,0.9-0.1,1.3-0.1c0.4,0,0.9,0.1,1.3,0.1c0.3,0,0.6-0.1,0.6-0.4
		c0-0.2-0.2-0.3-0.4-0.4c-0.6-0.1-0.6-0.3-0.6-0.9v-3.1c0.4-0.4,0.9-0.7,1.3-0.7c0.9,0,1,0.9,1,1.6v2.4c0,0.7,0.4,1.4,1.2,1.4
		c0.5,0,1.6-0.4,1.6-1c0-0.2-0.1-0.3-0.3-0.3c-0.2,0-0.4,0.2-0.5,0.2c-0.3,0-0.3-0.5-0.3-0.7v-2.2c0-0.2,0-0.5,0-0.7
		c0.5-0.5,0.9-0.7,1.4-0.7c0.9,0,1,0.9,1,1.6v2.4c0,0.7,0.4,1.4,1.2,1.4c0.5,0,1.6-0.4,1.6-1C695.8,209,695.7,208.8,695.5,208.8"/>
	<path class="st14" d="M725.2,203.6h-1.8c-0.2,0-0.4,0.2-0.4,0.4c0,0.5,0.7,0.2,0.7,0.8c0,0.4-0.6,2.1-1.2,3.5
		c-0.4-0.8-0.7-1.5-1.1-2.3c-0.1-0.3-0.4-0.9-0.4-1.2c0-0.5,0.7-0.3,0.7-0.8c0-0.2-0.2-0.4-0.4-0.4h-1.2h-1.3
		c-0.2,0-0.4,0.1-0.4,0.4c0,0.2,0.1,0.3,0.3,0.4c0.3,0.2,0.4,0.3,0.6,0.6s0.3,0.7,0.5,1c0.6,1.5,1.3,3,2,4.4
		c-0.2,0.5-0.7,1.4-1.2,1.4c-0.7,0-0.3-0.9-0.8-0.9c-0.4,0-1,0.8-1,1.2c0,0.2,0.1,0.4,0.3,0.5c0.3,0.3,0.6,0.4,1,0.4
		c0.8,0,1.5-0.5,2-1.2c0.7-1.2,1.2-2.6,1.7-3.8l1.1-3.1c0.3-0.8,0.9-0.6,0.9-1.1C725.6,203.8,725.6,203.6,725.2,203.6"/>
	<path class="st14" d="M707.6,208.3c-0.2,0.3-0.7,0.7-1.2,0.7c-0.5,0-0.8-0.4-0.8-0.9c0-0.5,0.6-0.9,1-1.1l1-0.4V208.3z
		 M709.7,209.3c-0.3-0.1-0.4-0.2-0.4-0.9v-2.8c0-0.6-0.1-1.2-0.6-1.6c-0.5-0.4-1-0.5-1.6-0.5c-0.9,0-1.8,0.5-2.4,1.1
		c-0.3,0.3-0.3,0.4,0,0.6s0.5,0.2,0.8,0c0.3-0.2,0.9-0.5,1.3-0.5c0.6,0,1,0.4,0.9,1.2l-1.5,0.6c-0.9,0.4-2.2,1-2.2,2.2
		c0,1,0.9,1.6,1.8,1.6c0.9,0,1.5-0.4,2-1c0.2,1,1,1,1.5,1c0.3,0,1,0,1-0.4C710.2,209.4,710,209.4,709.7,209.3"/>
</g>
<rect x="660.4" y="6" class="st15" width="0.8" height="132"/>
<rect x="594.8" y="71.6" class="st15" width="132" height="0.8"/>
<g>
	<defs>
		<rect id="SVGID_17_" width="732" height="216"/>
	</defs>
	<clipPath id="SVGID_18_">
		<use xlink:href="#SVGID_17_"  style="overflow:visible;"/>
	</clipPath>
	<path class="st16" d="M624.8,134.8c-14.8,0-26.8-12-26.8-26.8c0-14.8,12-26.8,26.8-26.8c14.8,0,26.8,12,26.8,26.8
		C651.5,122.8,639.5,134.8,624.8,134.8 M624.8,77.3c-17,0-30.8,13.8-30.8,30.8s13.8,30.8,30.8,30.8c17,0,30.8-13.8,30.8-30.8
		S641.7,77.3,624.8,77.3"/>
</g>
<polygon class="st15" points="654.8,18 654.8,6 594.8,6 594.8,66 606.8,66 606.8,45 651.8,45 651.8,33 606.8,33 606.8,18 "/>
<polygon class="st15" points="678.8,54 678.8,6 666.8,6 666.8,66 726.8,66 726.8,54 "/>
<g>
	<defs>
		<rect id="SVGID_19_" width="732" height="216"/>
	</defs>
	<clipPath id="SVGID_20_">
		<use xlink:href="#SVGID_19_"  style="overflow:visible;"/>
	</clipPath>
	<path class="st17" d="M678.8,90h27.8c5,0,9,4,9,9c0,5-4,9-9,9h-27.8V90z M727.5,99c0-11.6-9.4-21-21-21h-39.8v60h12v-18h21.5l18,18
		h8.5v-8.5l-11.4-11.4C722.5,114.7,727.5,107.5,727.5,99"/>
	<path class="st17" d="M723.5,80c0,1.1,0.9,2,2,2s2-0.9,2-2c0-1.1-0.9-2-2-2S723.5,78.9,723.5,80 M723.9,80c0-0.9,0.7-1.6,1.6-1.6
		s1.6,0.7,1.6,1.6c0,0.9-0.7,1.6-1.6,1.6S723.9,80.9,723.9,80 M726.1,80.2L726.1,80.2c0.3-0.2,0.4-0.4,0.4-0.7
		c0-0.4-0.3-0.7-0.7-0.7h-1.1l-0.1,0.1v2.1l0.1,0.1h0.3l0.1-0.1v-0.8l0.1-0.1h0.3l0.1,0.1l0.6,0.8l0.1,0.1h0.2l0.1-0.1v-0.3
		L726.1,80.2z M726.1,79.6c0,0.2-0.1,0.3-0.3,0.3h-0.7l-0.1-0.1v-0.4l0.1-0.1h0.7C725.9,79.3,726.1,79.4,726.1,79.6"/>
</g>
<g>
</g>
<g>
</g>
<g>
</g>
<g>
</g>
<g>
</g>
<g>
</g>
</svg>
