<?xml version="1.0" encoding="utf-8"?>
<!-- Generator: Adobe Illustrator 19.1.0, SVG Export Plug-In . SVG Version: 6.00 Build 0)  -->
<svg version="1.1" id="Layer_1" xmlns="http://www.w3.org/2000/svg" xmlns:xlink="http://www.w3.org/1999/xlink" x="0px" y="0px"
	 viewBox="0 0 266.8 360" style="enable-background:new 0 0 266.8 360;" xml:space="preserve">
<style type="text/css">
	.st0{fill:#F2BE1A;}
	.st1{clip-path:url(#SVGID_2_);fill:#363D39;}
	.st2{fill:#363D39;}
	.st3{clip-path:url(#SVGID_4_);fill:#363D39;}
	.st4{clip-path:url(#SVGID_6_);fill:#363D39;}
	.st5{clip-path:url(#SVGID_6_);fill:#BCC0BC;}
	.st6{fill:#BCC0BC;}
	.st7{clip-path:url(#SVGID_8_);fill:#BCC0BC;}
	.st8{clip-path:url(#SVGID_10_);fill:#BCC0BC;}
	.st9{clip-path:url(#SVGID_10_);fill:#FFFFFF;}
	.st10{fill:#FFFFFF;}
	.st11{clip-path:url(#SVGID_12_);fill:#FFFFFF;}
	.st12{clip-path:url(#SVGID_14_);fill:#FFFFFF;}
</style>
<rect x="194.8" class="st0" width="72" height="360"/>
<g>
	<defs>
		<rect id="SVGID_1_" width="266.8" height="360"/>
	</defs>
	<clipPath id="SVGID_2_">
		<use xlink:href="#SVGID_1_"  style="overflow:visible;"/>
	</clipPath>
	<path class="st1" d="M38.1,336.7c0,0.7-0.6,1-1.2,1c-0.5,0-0.8-0.3-0.8-0.8c0-1.1,1.2-1.1,2-1.2V336.7z M37.2,331.9
		c-0.9,0-2,0.3-2.7,1l0.8,1.2c0.4-0.5,1.1-0.8,1.8-0.8c0.4,0,1.1,0.1,1.1,0.7v0.6c-1.7,0.2-3.9,0.3-3.9,2.6c0,1.2,0.8,2.1,2,2.1
		c0.8,0,1.4-0.3,1.9-0.8l0.1,0.7H40v-5.2C40,332.2,38.5,331.9,37.2,331.9 M30.5,331.1v0.9h-0.8v1.4h0.8v5.5h1.9v-5.5h1.3v-1.4h-1.3
		v-0.6c0-0.7,0.3-1,0.9-1c0.2,0,0.4,0,0.6,0.1v-1.3c-0.3-0.1-0.7-0.1-1.1-0.1C31.6,329.2,30.5,329.7,30.5,331.1 M44.7,337.7
		c-0.9,0-1.4-0.8-1.4-2.2c0-1.4,0.3-2.2,1.4-2.2c0.6,0,1,0.5,1.1,0.9l1.3-0.7c-0.4-1.1-1.4-1.6-2.7-1.6c-1.7,0-3.2,1.3-3.2,3.6
		c0,2.3,1.1,3.7,3.2,3.7c1.1,0,2.3-0.4,2.7-1.5l-1.2-0.8C45.7,337.4,45.3,337.7,44.7,337.7 M49.6,334.9c0-0.8,0.3-1.7,1.3-1.7
		c0.9,0,1.1,0.9,1.1,1.7H49.6z M51,331.9c-2.2,0-3.4,1.5-3.4,3.6c0,2,1.2,3.7,3.3,3.7c1.2,0,2.1-0.3,2.9-1.1l-0.9-1.1
		c-0.5,0.6-1,0.8-1.7,0.8c-1,0-1.6-0.6-1.6-1.7h4.3c0-0.2,0-0.4,0-0.5C54,333.6,53,331.9,51,331.9 M9.3,331.9
		c-0.8,0-1.4,0.3-2.1,0.8l-0.1-0.7H5.3v7h1.9v-4.4c0-0.8,0.4-1.3,1.3-1.3c0.5,0,0.7,0.4,0.7,0.8v4.8h1.9v-5.2
		C11.1,332.6,10.5,331.9,9.3,331.9 M14.9,336.7v-3.3h1.5v-1.4h-1.5v-1.7h-1.1c-0.2,0.9-0.7,1.7-1.7,2v1.1h0.8v4
		c0,1.3,1.2,1.7,2.1,1.7c0.6,0,1.2-0.2,1.6-0.3v-1.3c-0.1,0.1-0.6,0.2-0.9,0.2C15,337.8,14.9,337.3,14.9,336.7 M1.4,339h2.2v-9.2
		H1.4V339z M27,333.1l-0.1-1h-1.8v7H27v-3.9c0-0.8,0.6-1.5,1.4-1.5c0.2,0,0.3,0,0.6,0.1v-1.8c-0.1,0-0.1,0-0.2,0
		C28,331.9,27.3,332.4,27,333.1 M19.3,334.9c0-0.8,0.3-1.7,1.3-1.7c0.9,0,1.1,0.9,1.1,1.7H19.3z M20.7,331.9c-2.2,0-3.4,1.5-3.4,3.6
		c0,2,1.2,3.7,3.3,3.7c1.2,0,2.1-0.3,2.9-1.1l-0.9-1.1c-0.5,0.6-1,0.8-1.7,0.8c-1,0-1.6-0.6-1.6-1.7h4.3c0-0.2,0-0.4,0-0.5
		C23.7,333.6,22.7,331.9,20.7,331.9"/>
	<path class="st1" d="M55.9,334c-0.6,0-1.1-0.5-1.1-1.1c0-0.6,0.5-1.1,1.1-1.1c0.6,0,1.1,0.5,1.1,1.1C56.9,333.6,56.4,334,55.9,334
		 M55.9,331.8c-0.7,0-1.2,0.5-1.2,1.2c0,0.7,0.5,1.2,1.2,1.2c0.7,0,1.2-0.5,1.2-1.2C57,332.3,56.5,331.8,55.9,331.8 M55.6,332.9
		v-0.5h0.2c0.2,0,0.3,0.1,0.3,0.3c0,0.2-0.1,0.3-0.3,0.3H55.6z M56.3,332.6c0-0.3-0.1-0.4-0.5-0.4h-0.4v1.5h0.2V333h0.2l0.3,0.7h0.2
		L56,333C56.2,333,56.3,332.8,56.3,332.6"/>
	<path class="st1" d="M8.7,347.3c0.5,0,1.4-1.2,1.4-1.7c0-0.2-0.1-0.4-0.2-0.6c-0.1-0.1-0.3-0.3-0.4-0.3c-0.8-0.6-2.1-0.8-3-0.8
		c-3.1,0-5.6,2.2-5.6,5.4c0,2.8,2.1,4.9,4.9,4.9c1,0,2-0.3,2.9-0.8c0.4-0.2,1.4-0.9,1.4-1.4c0-0.2-0.2-0.4-0.4-0.4
		c-0.3,0.1-0.6,0.4-1.2,0.7c-0.5,0.2-1.3,0.4-1.8,0.4c-2.3,0-4-1.8-4-4.1c0-2,1.3-3.6,3.4-3.6c0.7,0,2.4,0.3,2.4,1.3
		c0,0.2-0.1,0.4-0.1,0.6C8.3,347.1,8.5,347.3,8.7,347.3"/>
	<path class="st1" d="M14.4,353.3c-1.3,0-1.8-1.7-1.8-2.7c0-0.9,0.4-2.2,1.5-2.2c1.3,0,1.7,1.7,1.7,2.8
		C15.8,351.9,15.5,353.3,14.4,353.3 M14.2,347.4c-2,0-3.3,1.5-3.3,3.5s1.5,3.2,3.4,3.2c1.9,0,3.4-1.4,3.4-3.3
		C17.6,348.8,16.2,347.4,14.2,347.4"/>
	<path class="st1" d="M3.2,319.6c0.2-0.6,1.3-3.2,1.5-3.5c0.1,0.3,0.8,1.9,1,2.5c0.1,0.2,0.4,1,0.4,1.1c0,0.2-0.1,0.2-0.3,0.2H3.4
		C3.2,320,3.1,319.9,3.2,319.6 M0.6,324.1c0.4,0,0.7-0.1,1.1-0.1c0.4,0,0.7,0.1,1.1,0.1c0.3,0,0.6,0,0.6-0.4c0-0.2-0.1-0.3-0.4-0.4
		c-0.6-0.2-0.7-0.3-0.7-0.6c0-0.3,0.2-1.1,0.4-1.4c0.1-0.2,0.3-0.3,0.5-0.3l3,0c0.4,0,0.5,0.3,0.6,0.6c0.1,0.3,0.2,0.7,0.2,1
		c0,0.1,0,0.4-0.3,0.6c-0.3,0.1-0.6,0.2-0.6,0.5c0,0.3,0.3,0.4,0.8,0.4c0.6,0,0.9-0.1,1.4-0.1c0.5,0,0.8,0.1,1.4,0.1
		c0.4,0,0.8-0.1,0.7-0.4c0-0.2,0-0.3-0.4-0.5c-0.4-0.2-0.5-0.4-0.7-0.8c-0.3-0.5-0.5-1.2-0.7-1.7c-0.4-1-0.8-1.9-1.2-2.8
		c-0.4-0.8-0.7-1.6-1.1-2.5c-0.4-0.9-0.5-1.2-0.8-1.3c-0.1-0.1-0.3-0.1-0.4-0.1c-0.3,0-0.6,0-0.9,0c-0.3,0-1,0-1,0.5
		c0,0.4,0.7,0.4,0.7,0.8c0,0.1-0.1,0.3-0.1,0.5c-0.1,0.2-0.2,0.4-0.3,0.7c-0.7,1.8-1.5,3.4-2.1,5.3c-0.1,0.4-0.2,0.9-0.5,1.2
		c-0.2,0.3-0.3,0.3-0.6,0.4c-0.2,0.1-0.5,0.2-0.5,0.5C0,324,0.3,324.1,0.6,324.1"/>
	<path class="st1" d="M52.7,352.8c-0.2,0-0.4,0.1-0.5,0.1c-0.3,0-0.3-0.4-0.3-0.7v-2.2c0-0.7,0-1.3-0.4-1.8c-0.4-0.5-1-0.8-1.6-0.8
		c-0.8,0-1.5,0.4-2.1,0.9c0-0.5,0-0.8-0.6-0.8h-1.6c-0.3,0-0.5,0.1-0.5,0.4c0,0.2,0.2,0.3,0.4,0.4c0.6,0.1,0.7,0.2,0.7,0.9v3.1
		c0,0.6-0.1,0.7-0.6,0.9c-0.2,0-0.4,0.1-0.4,0.4c0,0.3,0.3,0.4,0.6,0.4c0.4,0,0.9-0.1,1.3-0.1c0.4,0,0.9,0.1,1.3,0.1
		c0.3,0,0.6-0.1,0.6-0.4c0-0.2-0.2-0.3-0.4-0.4c-0.6-0.1-0.6-0.3-0.6-0.9v-3c0.4-0.4,0.8-0.7,1.4-0.7c0.9,0,1,0.9,1,1.6v2.4
		c0,0.7,0.4,1.4,1.2,1.4c0.6,0,1.6-0.4,1.6-1C53,353,52.9,352.8,52.7,352.8"/>
	<path class="st1" d="M34.4,353.1c-0.4,0-0.8-0.1-1-0.5c-0.3-0.4-0.3-0.9-0.3-1.3v-1.9c0.4-0.3,0.8-0.6,1.3-0.6
		c1.1,0,1.8,1.1,1.8,2.1C36.2,352.1,35.6,353.1,34.4,353.1 M35.2,347.5c-0.9,0-1.4,0.5-2.1,1c0-0.5,0-0.9-0.6-0.9h-1.6
		c-0.3,0-0.5,0.1-0.5,0.4c0,0.2,0.2,0.3,0.4,0.4c0.6,0.1,0.7,0.2,0.7,0.9v6c0,0.6-0.1,0.7-0.6,0.9c-0.2,0-0.4,0.1-0.4,0.4
		c0,0.3,0.3,0.4,0.6,0.4c0.4,0,0.9-0.1,1.3-0.1s0.9,0.1,1.3,0.1c0.3,0,0.6-0.1,0.6-0.4c0-0.2-0.2-0.3-0.4-0.4
		c-0.6-0.1-0.6-0.3-0.6-0.9V354c0.3,0.1,0.7,0.2,1,0.2c1.9,0,3.5-1.8,3.5-3.7C37.6,349,36.8,347.5,35.2,347.5"/>
	<path class="st1" d="M11.1,318.4c0.6,0.1,0.7,0.2,0.7,0.9v3.1c0,0.6-0.1,0.7-0.6,0.9c-0.2,0-0.4,0.2-0.4,0.4c0,0.3,0.3,0.4,0.6,0.4
		c0.4,0,0.9-0.1,1.3-0.1s0.9,0.1,1.3,0.1c0.3,0,0.6-0.1,0.6-0.4c0-0.2-0.2-0.3-0.4-0.4c-0.6-0.1-0.6-0.3-0.6-0.9v-3
		c0.4-0.4,0.8-0.7,1.4-0.7c0.9,0,1,0.9,1,1.6v2.4c0,0.7,0.4,1.4,1.2,1.4c0.5,0,1.6-0.4,1.6-1c0-0.2-0.1-0.3-0.3-0.3
		c-0.2,0-0.4,0.2-0.5,0.2c-0.3,0-0.3-0.5-0.3-0.7v-2.2c0-0.7,0-1.3-0.4-1.8c-0.4-0.5-1-0.8-1.6-0.8c-0.8,0-1.5,0.4-2.1,0.9
		c0-0.5,0-0.8-0.6-0.8h-1.6c-0.3,0-0.5,0.1-0.5,0.4C10.8,318.2,10.9,318.3,11.1,318.4"/>
	<path class="st1" d="M29.9,352.8c-0.2,0-0.4,0.1-0.5,0.1c-0.3,0-0.3-0.4-0.3-0.7v-2.2c0-0.7,0-1.3-0.4-1.8
		c-0.4-0.5-0.9-0.8-1.6-0.8c-0.8,0-1.4,0.4-2.2,1.2c-0.1-0.1-0.1-0.2-0.2-0.4c-0.4-0.5-0.9-0.8-1.6-0.8c-0.8,0-1.4,0.5-2,1
		c0-0.5,0-0.8-0.6-0.8h-1.6c-0.3,0-0.5,0.1-0.5,0.4c0,0.2,0.2,0.3,0.4,0.4c0.6,0.1,0.7,0.2,0.7,0.9v3.1c0,0.6-0.1,0.7-0.6,0.9
		c-0.2,0-0.4,0.1-0.4,0.4c0,0.3,0.3,0.4,0.6,0.4c0.4,0,0.9-0.1,1.3-0.1c0.4,0,0.9,0.1,1.3,0.1c0.3,0,0.6-0.1,0.6-0.4
		c0-0.2-0.2-0.3-0.4-0.4c-0.6-0.1-0.6-0.3-0.6-0.9v-3.1c0.4-0.4,0.9-0.7,1.4-0.7c0.9,0,1,0.9,1,1.6v2.4c0,0.7,0.4,1.4,1.2,1.4
		c0.6,0,1.6-0.4,1.6-1c0-0.2-0.1-0.3-0.3-0.3c-0.2,0-0.4,0.1-0.5,0.1c-0.3,0-0.3-0.4-0.3-0.7v-2.2c0-0.2,0-0.5,0-0.7
		c0.5-0.5,0.9-0.7,1.4-0.7c0.9,0,1,0.9,1,1.6v2.4c0,0.7,0.4,1.4,1.2,1.4c0.6,0,1.6-0.4,1.6-1C30.2,353,30,352.8,29.9,352.8"/>
	<path class="st1" d="M59.6,347.6h-1.8c-0.2,0-0.4,0.2-0.4,0.4c0,0.5,0.7,0.2,0.7,0.8c0,0.4-0.6,2.1-1.2,3.5
		c-0.4-0.8-0.7-1.5-1.1-2.3c-0.1-0.3-0.4-0.9-0.4-1.2c0-0.5,0.7-0.3,0.7-0.8c0-0.2-0.2-0.4-0.5-0.4h-1.2h-1.3
		c-0.2,0-0.4,0.1-0.4,0.4c0,0.2,0.1,0.3,0.3,0.4c0.3,0.2,0.4,0.3,0.6,0.6c0.2,0.3,0.3,0.7,0.4,1c0.6,1.5,1.3,3,2,4.4
		c-0.2,0.5-0.7,1.4-1.2,1.4c-0.7,0-0.3-0.9-0.8-0.9c-0.4,0-1,0.8-1,1.2c0,0.2,0.1,0.4,0.3,0.5c0.3,0.3,0.6,0.5,1,0.5
		c0.8,0,1.5-0.5,2-1.2c0.7-1.2,1.2-2.6,1.7-3.8l1.1-3.1c0.3-0.8,0.9-0.6,0.9-1C60,347.8,59.9,347.6,59.6,347.6"/>
	<path class="st1" d="M41.9,352.3c-0.2,0.3-0.7,0.7-1.2,0.7c-0.5,0-0.8-0.4-0.8-0.9c0-0.5,0.6-0.9,1-1.1l1-0.4V352.3z M44.1,353.3
		c-0.3-0.1-0.4-0.2-0.4-0.9v-2.8c0-0.6-0.1-1.2-0.6-1.6c-0.4-0.4-1-0.5-1.6-0.5c-0.9,0-1.8,0.5-2.4,1.1c-0.3,0.3-0.3,0.4,0,0.6
		c0.2,0.2,0.5,0.2,0.8,0c0.3-0.2,0.9-0.5,1.3-0.5c0.6,0,1,0.4,0.9,1.2l-1.5,0.6c-0.9,0.4-2.2,1.1-2.2,2.2c0,1,0.9,1.6,1.8,1.6
		c0.9,0,1.5-0.4,2-1c0.2,1,1,1,1.5,1c0.3,0,1,0,1-0.4C44.6,353.4,44.3,353.4,44.1,353.3"/>
</g>
<rect x="1.1" y="71.6" class="st2" width="60" height="0.8"/>
<rect x="1.1" y="143.6" class="st2" width="60" height="0.8"/>
<rect x="1.1" y="215.6" class="st2" width="60" height="0.8"/>
<g>
	<defs>
		<rect id="SVGID_3_" width="266.8" height="360"/>
	</defs>
	<clipPath id="SVGID_4_">
		<use xlink:href="#SVGID_3_"  style="overflow:visible;"/>
	</clipPath>
	<path class="st3" d="M31.1,206.8c-14.8,0-26.8-12-26.8-26.8c0-14.8,12-26.8,26.8-26.8s26.7,12,26.7,26.8
		C57.8,194.8,45.8,206.8,31.1,206.8 M31.1,149.3c-17,0-30.8,13.8-30.8,30.8s13.8,30.8,30.8,30.8S61.8,197,61.8,180
		S48.1,149.3,31.1,149.3"/>
</g>
<polygon class="st2" points="61.1,18 61.1,6 1.1,6 1.1,66 13.1,66 13.1,45 58.1,45 58.1,33 13.1,33 13.1,18 "/>
<polygon class="st2" points="13.1,126 13.1,78 1.1,78 1.1,138 61.1,138 61.1,126 "/>
<g>
	<defs>
		<rect id="SVGID_5_" width="266.8" height="360"/>
	</defs>
	<clipPath id="SVGID_6_">
		<use xlink:href="#SVGID_5_"  style="overflow:visible;"/>
	</clipPath>
	<path class="st4" d="M13.1,234h27.8c5,0,9,4,9,9c0,5-4,9-9,9H13.1V234z M61.8,243c0-11.6-9.4-21-21-21H1.1v60h12v-18h21.5l18,18
		h8.5v-8.5l-11.4-11.4C56.8,258.7,61.8,251.5,61.8,243"/>
	<path class="st4" d="M57.8,224c0,1.1,0.9,2,2,2s2-0.9,2-2c0-1.1-0.9-2-2-2S57.8,222.9,57.8,224 M58.3,224c0-0.9,0.7-1.6,1.6-1.6
		s1.6,0.7,1.6,1.6c0,0.9-0.7,1.6-1.6,1.6S58.3,224.9,58.3,224 M60.4,224.2L60.4,224.2c0.3-0.2,0.4-0.4,0.4-0.7
		c0-0.4-0.3-0.7-0.7-0.7H59l-0.1,0.1v2.1l0.1,0.1h0.3l0.1-0.1v-0.8l0.1-0.1h0.3l0.1,0.1l0.6,0.8l0.1,0.1h0.2l0.1-0.1v-0.3
		L60.4,224.2z M60.4,223.6c0,0.2-0.1,0.3-0.3,0.3h-0.7l-0.1-0.1v-0.4l0.1-0.1h0.7C60.3,223.3,60.4,223.4,60.4,223.6"/>
	<path class="st5" d="M138.1,336.7c0,0.7-0.6,1-1.2,1c-0.5,0-0.8-0.3-0.8-0.8c0-1.1,1.2-1.1,2-1.2V336.7z M137.2,331.9
		c-0.9,0-2,0.3-2.7,1l0.8,1.2c0.4-0.5,1.1-0.8,1.8-0.8c0.4,0,1.1,0.1,1.1,0.7v0.6c-1.7,0.2-3.9,0.3-3.9,2.6c0,1.2,0.8,2.1,2,2.1
		c0.8,0,1.4-0.3,1.9-0.8l0.1,0.7h1.9v-5.2C140,332.2,138.5,331.9,137.2,331.9 M130.5,331.1v0.9h-0.8v1.4h0.8v5.5h1.9v-5.5h1.3v-1.4
		h-1.3v-0.6c0-0.7,0.3-1,0.9-1c0.2,0,0.4,0,0.6,0.1v-1.3c-0.3-0.1-0.7-0.1-1.1-0.1C131.6,329.2,130.5,329.7,130.5,331.1
		 M144.7,337.7c-0.9,0-1.4-0.8-1.4-2.2c0-1.4,0.3-2.2,1.4-2.2c0.6,0,1,0.5,1.1,0.9l1.3-0.7c-0.4-1.1-1.4-1.6-2.7-1.6
		c-1.7,0-3.2,1.3-3.2,3.6c0,2.3,1.1,3.7,3.2,3.7c1.1,0,2.3-0.4,2.7-1.5l-1.2-0.8C145.7,337.4,145.3,337.7,144.7,337.7 M149.6,334.9
		c0-0.8,0.3-1.7,1.3-1.7c0.9,0,1.1,0.9,1.1,1.7H149.6z M151,331.9c-2.2,0-3.4,1.5-3.4,3.6c0,2,1.2,3.7,3.3,3.7
		c1.2,0,2.1-0.3,2.9-1.1l-0.9-1.1c-0.5,0.6-1,0.8-1.7,0.8c-1,0-1.6-0.6-1.6-1.7h4.3c0-0.2,0-0.4,0-0.5
		C154,333.6,153,331.9,151,331.9 M109.3,331.9c-0.8,0-1.4,0.3-2.1,0.8l-0.1-0.7h-1.8v7h1.9v-4.4c0-0.8,0.4-1.3,1.3-1.3
		c0.5,0,0.7,0.4,0.7,0.8v4.8h1.9v-5.2C111.1,332.6,110.5,331.9,109.3,331.9 M114.9,336.7v-3.3h1.5v-1.4h-1.5v-1.7h-1.1
		c-0.2,0.9-0.7,1.7-1.7,2v1.1h0.8v4c0,1.3,1.2,1.7,2.1,1.7c0.6,0,1.2-0.2,1.6-0.3v-1.3c-0.1,0.1-0.6,0.2-0.9,0.2
		C115,337.8,114.9,337.3,114.9,336.7 M101.4,339h2.2v-9.2h-2.2V339z M127,333.1l-0.1-1h-1.8v7h1.9v-3.9c0-0.8,0.6-1.5,1.4-1.5
		c0.2,0,0.3,0,0.6,0.1v-1.8c-0.1,0-0.1,0-0.2,0C128,331.9,127.3,332.4,127,333.1 M119.3,334.9c0-0.8,0.3-1.7,1.3-1.7
		c0.9,0,1.1,0.9,1.1,1.7H119.3z M120.7,331.9c-2.2,0-3.4,1.5-3.4,3.6c0,2,1.2,3.7,3.3,3.7c1.2,0,2.1-0.3,2.9-1.1l-0.9-1.1
		c-0.5,0.6-1,0.8-1.7,0.8c-1,0-1.6-0.6-1.6-1.7h4.3c0-0.2,0-0.4,0-0.5C123.7,333.6,122.7,331.9,120.7,331.9"/>
	<path class="st5" d="M155.9,334c-0.6,0-1.1-0.5-1.1-1.1c0-0.6,0.5-1.1,1.1-1.1c0.6,0,1.1,0.5,1.1,1.1
		C156.9,333.6,156.4,334,155.9,334 M155.9,331.8c-0.7,0-1.2,0.5-1.2,1.2c0,0.7,0.5,1.2,1.2,1.2c0.7,0,1.2-0.5,1.2-1.2
		C157,332.3,156.5,331.8,155.9,331.8 M155.6,332.9v-0.5h0.2c0.2,0,0.3,0.1,0.3,0.3c0,0.2-0.1,0.3-0.3,0.3H155.6z M156.3,332.6
		c0-0.3-0.1-0.4-0.5-0.4h-0.4v1.5h0.2V333h0.2l0.3,0.7h0.2L156,333C156.2,333,156.3,332.8,156.3,332.6"/>
	<path class="st5" d="M108.7,347.3c0.5,0,1.4-1.2,1.4-1.7c0-0.2-0.1-0.4-0.2-0.6c-0.1-0.1-0.3-0.3-0.4-0.3c-0.8-0.6-2.1-0.8-3-0.8
		c-3.1,0-5.6,2.2-5.6,5.4c0,2.8,2.1,4.9,4.9,4.9c1,0,2-0.3,2.9-0.8c0.4-0.2,1.4-0.9,1.4-1.4c0-0.2-0.2-0.4-0.4-0.4
		c-0.3,0.1-0.6,0.4-1.2,0.7c-0.5,0.2-1.3,0.4-1.8,0.4c-2.3,0-4-1.8-4-4.1c0-2,1.3-3.6,3.4-3.6c0.7,0,2.4,0.3,2.4,1.3
		c0,0.2-0.1,0.4-0.1,0.6C108.3,347.1,108.5,347.3,108.7,347.3"/>
	<path class="st5" d="M114.4,353.3c-1.3,0-1.8-1.7-1.8-2.7c0-0.9,0.4-2.2,1.5-2.2c1.3,0,1.7,1.7,1.7,2.8
		C115.8,351.9,115.5,353.3,114.4,353.3 M114.2,347.4c-2,0-3.3,1.5-3.3,3.5s1.5,3.2,3.4,3.2c1.9,0,3.4-1.4,3.4-3.3
		C117.6,348.8,116.2,347.4,114.2,347.4"/>
	<path class="st5" d="M103.2,319.6c0.2-0.6,1.3-3.2,1.5-3.5c0.1,0.3,0.8,1.9,1,2.5c0.1,0.2,0.4,1,0.4,1.1c0,0.2-0.1,0.2-0.3,0.2
		h-2.4C103.2,320,103.1,319.9,103.2,319.6 M100.6,324.1c0.4,0,0.7-0.1,1.1-0.1c0.4,0,0.7,0.1,1.1,0.1c0.3,0,0.6,0,0.6-0.4
		c0-0.2-0.1-0.3-0.4-0.4c-0.6-0.2-0.7-0.3-0.7-0.6c0-0.3,0.2-1.1,0.4-1.4c0.1-0.2,0.3-0.3,0.5-0.3l3,0c0.4,0,0.5,0.3,0.6,0.6
		c0.1,0.3,0.2,0.7,0.2,1c0,0.1,0,0.4-0.3,0.6c-0.3,0.1-0.6,0.2-0.6,0.5c0,0.3,0.3,0.4,0.8,0.4c0.6,0,0.9-0.1,1.4-0.1
		c0.5,0,0.8,0.1,1.4,0.1c0.4,0,0.8-0.1,0.7-0.4c0-0.2,0-0.3-0.4-0.5c-0.4-0.2-0.5-0.4-0.7-0.8c-0.3-0.5-0.5-1.2-0.7-1.7
		c-0.4-1-0.8-1.9-1.2-2.8c-0.4-0.8-0.7-1.6-1.1-2.5c-0.4-0.9-0.5-1.2-0.8-1.3c-0.1-0.1-0.3-0.1-0.4-0.1c-0.3,0-0.6,0-0.9,0
		c-0.3,0-1,0-1,0.5c0,0.4,0.7,0.4,0.7,0.8c0,0.1-0.1,0.3-0.1,0.5c-0.1,0.2-0.2,0.4-0.3,0.7c-0.7,1.8-1.5,3.4-2.1,5.3
		c-0.1,0.4-0.2,0.9-0.4,1.2c-0.2,0.3-0.3,0.3-0.6,0.4c-0.2,0.1-0.5,0.2-0.5,0.5C100,324,100.3,324.1,100.6,324.1"/>
	<path class="st5" d="M152.7,352.8c-0.2,0-0.4,0.1-0.5,0.1c-0.3,0-0.3-0.4-0.3-0.7v-2.2c0-0.7,0-1.3-0.4-1.8c-0.4-0.5-1-0.8-1.6-0.8
		c-0.8,0-1.5,0.4-2.1,0.9c0-0.5,0-0.8-0.6-0.8h-1.6c-0.3,0-0.5,0.1-0.5,0.4c0,0.2,0.2,0.3,0.4,0.4c0.6,0.1,0.7,0.2,0.7,0.9v3.1
		c0,0.6-0.1,0.7-0.6,0.9c-0.2,0-0.4,0.1-0.4,0.4c0,0.3,0.3,0.4,0.6,0.4c0.4,0,0.9-0.1,1.3-0.1s0.9,0.1,1.3,0.1
		c0.3,0,0.6-0.1,0.6-0.4c0-0.2-0.2-0.3-0.4-0.4c-0.6-0.1-0.6-0.3-0.6-0.9v-3c0.4-0.4,0.8-0.7,1.4-0.7c0.9,0,1,0.9,1,1.6v2.4
		c0,0.7,0.4,1.4,1.2,1.4c0.6,0,1.6-0.4,1.6-1C153,353,152.9,352.8,152.7,352.8"/>
	<path class="st5" d="M134.4,353.1c-0.4,0-0.8-0.1-1-0.5c-0.3-0.4-0.3-0.9-0.3-1.3v-1.9c0.4-0.3,0.8-0.6,1.3-0.6
		c1.1,0,1.8,1.1,1.8,2.1C136.2,352.1,135.6,353.1,134.4,353.1 M135.2,347.5c-0.9,0-1.4,0.5-2.1,1c0-0.5,0-0.9-0.6-0.9h-1.6
		c-0.3,0-0.5,0.1-0.5,0.4c0,0.2,0.2,0.3,0.4,0.4c0.6,0.1,0.7,0.2,0.7,0.9v6c0,0.6-0.1,0.7-0.6,0.9c-0.2,0-0.4,0.1-0.4,0.4
		c0,0.3,0.3,0.4,0.6,0.4c0.4,0,0.9-0.1,1.3-0.1s0.9,0.1,1.3,0.1c0.3,0,0.6-0.1,0.6-0.4c0-0.2-0.2-0.3-0.4-0.4
		c-0.6-0.1-0.6-0.3-0.6-0.9V354c0.3,0.1,0.7,0.2,1.1,0.2c1.9,0,3.4-1.8,3.4-3.7C137.6,349,136.8,347.5,135.2,347.5"/>
	<path class="st5" d="M111.1,318.4c0.6,0.1,0.7,0.2,0.7,0.9v3.1c0,0.6-0.1,0.7-0.6,0.9c-0.2,0-0.4,0.2-0.4,0.4
		c0,0.3,0.3,0.4,0.6,0.4c0.4,0,0.9-0.1,1.3-0.1s0.9,0.1,1.3,0.1c0.3,0,0.6-0.1,0.6-0.4c0-0.2-0.2-0.3-0.4-0.4
		c-0.6-0.1-0.6-0.3-0.6-0.9v-3c0.4-0.4,0.8-0.7,1.4-0.7c0.9,0,1,0.9,1,1.6v2.4c0,0.7,0.4,1.4,1.2,1.4c0.5,0,1.6-0.4,1.6-1
		c0-0.2-0.1-0.3-0.3-0.3c-0.2,0-0.4,0.2-0.5,0.2c-0.3,0-0.3-0.5-0.3-0.7v-2.2c0-0.7,0-1.3-0.4-1.8c-0.4-0.5-1-0.8-1.6-0.8
		c-0.8,0-1.5,0.4-2.1,0.9c0-0.5,0-0.8-0.6-0.8h-1.6c-0.3,0-0.5,0.1-0.5,0.4C110.8,318.2,110.9,318.3,111.1,318.4"/>
	<path class="st5" d="M129.9,352.8c-0.2,0-0.4,0.1-0.5,0.1c-0.3,0-0.3-0.4-0.3-0.7v-2.2c0-0.7,0-1.3-0.4-1.8
		c-0.4-0.5-0.9-0.8-1.6-0.8c-0.8,0-1.4,0.4-2.2,1.2c-0.1-0.1-0.1-0.2-0.2-0.4c-0.4-0.5-0.9-0.8-1.6-0.8c-0.8,0-1.4,0.5-2,1
		c0-0.5,0-0.8-0.6-0.8h-1.6c-0.3,0-0.5,0.1-0.5,0.4c0,0.2,0.2,0.3,0.4,0.4c0.6,0.1,0.7,0.2,0.7,0.9v3.1c0,0.6-0.1,0.7-0.6,0.9
		c-0.2,0-0.4,0.1-0.4,0.4c0,0.3,0.3,0.4,0.6,0.4c0.4,0,0.9-0.1,1.3-0.1c0.4,0,0.9,0.1,1.3,0.1c0.3,0,0.6-0.1,0.6-0.4
		c0-0.2-0.2-0.3-0.4-0.4c-0.6-0.1-0.6-0.3-0.6-0.9v-3.1c0.4-0.4,0.9-0.7,1.3-0.7c0.9,0,1,0.9,1,1.6v2.4c0,0.7,0.4,1.4,1.2,1.4
		c0.6,0,1.6-0.4,1.6-1c0-0.2-0.1-0.3-0.3-0.3c-0.2,0-0.4,0.1-0.5,0.1c-0.3,0-0.3-0.4-0.3-0.7v-2.2c0-0.2,0-0.5,0-0.7
		c0.5-0.5,0.9-0.7,1.4-0.7c0.9,0,1,0.9,1,1.6v2.4c0,0.7,0.4,1.4,1.2,1.4c0.6,0,1.6-0.4,1.6-1C130.2,353,130,352.8,129.9,352.8"/>
	<path class="st5" d="M159.6,347.6h-1.8c-0.2,0-0.4,0.2-0.4,0.4c0,0.5,0.7,0.2,0.7,0.8c0,0.4-0.6,2.1-1.2,3.5
		c-0.4-0.8-0.7-1.5-1.1-2.3c-0.1-0.3-0.4-0.9-0.4-1.2c0-0.5,0.7-0.3,0.7-0.8c0-0.2-0.2-0.4-0.4-0.4h-1.2h-1.3
		c-0.2,0-0.4,0.1-0.4,0.4c0,0.2,0.1,0.3,0.3,0.4c0.3,0.2,0.4,0.3,0.6,0.6c0.2,0.3,0.3,0.7,0.4,1c0.6,1.5,1.3,3,2,4.4
		c-0.2,0.5-0.7,1.4-1.2,1.4c-0.7,0-0.3-0.9-0.8-0.9c-0.4,0-1,0.8-1,1.2c0,0.2,0.1,0.4,0.3,0.5c0.3,0.3,0.6,0.5,1,0.5
		c0.8,0,1.5-0.5,1.9-1.2c0.7-1.2,1.2-2.6,1.7-3.8l1.1-3.1c0.3-0.8,0.9-0.6,0.9-1C160,347.8,159.9,347.6,159.6,347.6"/>
	<path class="st5" d="M141.9,352.3c-0.2,0.3-0.7,0.7-1.2,0.7c-0.5,0-0.8-0.4-0.8-0.9c0-0.5,0.6-0.9,1-1.1l1-0.4V352.3z M144.1,353.3
		c-0.3-0.1-0.4-0.2-0.4-0.9v-2.8c0-0.6-0.1-1.2-0.6-1.6c-0.4-0.4-1-0.5-1.6-0.5c-0.9,0-1.8,0.5-2.4,1.1c-0.3,0.3-0.3,0.4,0,0.6
		s0.5,0.2,0.8,0c0.3-0.2,0.9-0.5,1.3-0.5c0.6,0,1,0.4,0.9,1.2l-1.5,0.6c-0.9,0.4-2.2,1.1-2.2,2.2c0,1,0.9,1.6,1.8,1.6
		c0.9,0,1.5-0.4,2-1c0.2,1,1,1,1.5,1c0.3,0,1,0,1-0.4C144.6,353.4,144.3,353.4,144.1,353.3"/>
</g>
<rect x="101.1" y="71.6" class="st6" width="60" height="0.8"/>
<rect x="101.1" y="143.6" class="st6" width="60" height="0.8"/>
<rect x="101.1" y="215.6" class="st6" width="60" height="0.8"/>
<g>
	<defs>
		<rect id="SVGID_7_" width="266.8" height="360"/>
	</defs>
	<clipPath id="SVGID_8_">
		<use xlink:href="#SVGID_7_"  style="overflow:visible;"/>
	</clipPath>
	<path class="st7" d="M131.1,206.8c-14.8,0-26.8-12-26.8-26.8c0-14.8,12-26.8,26.8-26.8c14.8,0,26.8,12,26.8,26.8
		C157.8,194.8,145.8,206.8,131.1,206.8 M131.1,149.3c-17,0-30.8,13.8-30.8,30.8s13.8,30.8,30.8,30.8s30.8-13.8,30.8-30.8
		S148.1,149.3,131.1,149.3"/>
</g>
<polygon class="st6" points="161.1,18 161.1,6 101.1,6 101.1,66 113.1,66 113.1,45 158.1,45 158.1,33 113.1,33 113.1,18 "/>
<polygon class="st6" points="113.1,126 113.1,78 101.1,78 101.1,138 161.1,138 161.1,126 "/>
<g>
	<defs>
		<rect id="SVGID_9_" width="266.8" height="360"/>
	</defs>
	<clipPath id="SVGID_10_">
		<use xlink:href="#SVGID_9_"  style="overflow:visible;"/>
	</clipPath>
	<path class="st8" d="M113.1,234h27.8c5,0,9,4,9,9c0,5-4,9-9,9h-27.8V234z M161.8,243c0-11.6-9.4-21-21-21h-39.8v60h12v-18h21.5
		l18,18h8.5v-8.5l-11.4-11.4C156.8,258.7,161.8,251.5,161.8,243"/>
	<path class="st8" d="M157.8,224c0,1.1,0.9,2,2,2c1.1,0,2-0.9,2-2c0-1.1-0.9-2-2-2C158.7,222,157.8,222.9,157.8,224 M158.3,224
		c0-0.9,0.7-1.6,1.6-1.6c0.9,0,1.6,0.7,1.6,1.6c0,0.9-0.7,1.6-1.6,1.6C158.9,225.6,158.3,224.9,158.3,224 M160.4,224.2L160.4,224.2
		c0.3-0.2,0.4-0.4,0.4-0.7c0-0.4-0.3-0.7-0.7-0.7H159l-0.1,0.1v2.1l0.1,0.1h0.3l0.1-0.1v-0.8l0.1-0.1h0.3l0.1,0.1l0.6,0.8l0.1,0.1
		h0.2l0.1-0.1v-0.3L160.4,224.2z M160.4,223.6c0,0.2-0.1,0.3-0.3,0.3h-0.7l-0.1-0.1v-0.4l0.1-0.1h0.7
		C160.3,223.3,160.4,223.4,160.4,223.6"/>
	<path class="st9" d="M238.1,336.7c0,0.7-0.6,1-1.2,1c-0.5,0-0.8-0.3-0.8-0.8c0-1.1,1.2-1.1,2-1.2V336.7z M237.2,331.9
		c-0.9,0-2,0.3-2.7,1l0.8,1.2c0.4-0.5,1.1-0.8,1.8-0.8c0.4,0,1.1,0.1,1.1,0.7v0.6c-1.7,0.2-3.9,0.3-3.9,2.6c0,1.2,0.8,2.1,2,2.1
		c0.8,0,1.4-0.3,1.9-0.8l0.1,0.7h1.9v-5.2C240,332.2,238.5,331.9,237.2,331.9 M230.5,331.1v0.9h-0.8v1.4h0.8v5.5h1.9v-5.5h1.3v-1.4
		h-1.3v-0.6c0-0.7,0.3-1,0.9-1c0.2,0,0.4,0,0.6,0.1v-1.3c-0.3-0.1-0.7-0.1-1.1-0.1C231.6,329.2,230.5,329.7,230.5,331.1
		 M244.7,337.7c-0.9,0-1.4-0.8-1.4-2.2c0-1.4,0.3-2.2,1.4-2.2c0.6,0,1,0.5,1.1,0.9l1.3-0.7c-0.4-1.1-1.4-1.6-2.7-1.6
		c-1.7,0-3.2,1.3-3.2,3.6c0,2.3,1.1,3.7,3.2,3.7c1.1,0,2.3-0.4,2.7-1.5l-1.2-0.8C245.7,337.4,245.3,337.7,244.7,337.7 M249.6,334.9
		c0-0.8,0.3-1.7,1.3-1.7c0.9,0,1.1,0.9,1.1,1.7H249.6z M251,331.9c-2.2,0-3.4,1.5-3.4,3.6c0,2,1.2,3.7,3.3,3.7
		c1.2,0,2.1-0.3,2.9-1.1l-0.9-1.1c-0.5,0.6-1,0.8-1.7,0.8c-1,0-1.6-0.6-1.6-1.7h4.3c0-0.2,0-0.4,0-0.5
		C254,333.6,253,331.9,251,331.9 M209.3,331.9c-0.8,0-1.4,0.3-2.1,0.8l-0.1-0.7h-1.8v7h1.9v-4.4c0-0.8,0.4-1.3,1.3-1.3
		c0.5,0,0.7,0.4,0.7,0.8v4.8h1.9v-5.2C211.1,332.6,210.5,331.9,209.3,331.9 M214.9,336.7v-3.3h1.5v-1.4h-1.5v-1.7h-1.1
		c-0.2,0.9-0.7,1.7-1.7,2v1.1h0.8v4c0,1.3,1.2,1.7,2.1,1.7c0.6,0,1.2-0.2,1.6-0.3v-1.3c-0.1,0.1-0.6,0.2-0.9,0.2
		C215,337.8,214.9,337.3,214.9,336.7 M201.4,339h2.2v-9.2h-2.2V339z M227,333.1l-0.1-1h-1.8v7h1.9v-3.9c0-0.8,0.6-1.5,1.4-1.5
		c0.2,0,0.3,0,0.6,0.1v-1.8c-0.1,0-0.1,0-0.2,0C228,331.9,227.3,332.4,227,333.1 M219.3,334.9c0-0.8,0.3-1.7,1.3-1.7
		c0.9,0,1.1,0.9,1.1,1.7H219.3z M220.7,331.9c-2.2,0-3.4,1.5-3.4,3.6c0,2,1.2,3.7,3.3,3.7c1.2,0,2.1-0.3,2.9-1.1l-0.9-1.1
		c-0.5,0.6-1,0.8-1.7,0.8c-1,0-1.6-0.6-1.6-1.7h4.3c0-0.2,0-0.4,0-0.5C223.7,333.6,222.7,331.9,220.7,331.9"/>
	<path class="st9" d="M255.9,334c-0.6,0-1.1-0.5-1.1-1.1c0-0.6,0.5-1.1,1.1-1.1c0.6,0,1.1,0.5,1.1,1.1
		C256.9,333.6,256.4,334,255.9,334 M255.9,331.8c-0.7,0-1.2,0.5-1.2,1.2c0,0.7,0.5,1.2,1.2,1.2c0.7,0,1.2-0.5,1.2-1.2
		C257,332.3,256.5,331.8,255.9,331.8 M255.6,332.9v-0.5h0.2c0.2,0,0.3,0.1,0.3,0.3c0,0.2-0.1,0.3-0.3,0.3H255.6z M256.3,332.6
		c0-0.3-0.1-0.4-0.5-0.4h-0.4v1.5h0.2V333h0.2l0.3,0.7h0.2L256,333C256.2,333,256.3,332.8,256.3,332.6"/>
	<path class="st9" d="M208.7,347.3c0.5,0,1.4-1.2,1.4-1.7c0-0.2-0.1-0.4-0.2-0.6c-0.1-0.1-0.3-0.3-0.4-0.3c-0.8-0.6-2.1-0.8-3-0.8
		c-3.1,0-5.6,2.2-5.6,5.4c0,2.8,2.1,4.9,4.9,4.9c1,0,2-0.3,2.9-0.8c0.4-0.2,1.4-0.9,1.4-1.4c0-0.2-0.2-0.4-0.4-0.4
		c-0.3,0.1-0.6,0.4-1.2,0.7c-0.5,0.2-1.3,0.4-1.8,0.4c-2.3,0-4-1.8-4-4.1c0-2,1.3-3.6,3.4-3.6c0.7,0,2.4,0.3,2.4,1.3
		c0,0.2-0.1,0.4-0.1,0.6C208.3,347.1,208.5,347.3,208.7,347.3"/>
	<path class="st9" d="M214.4,353.3c-1.3,0-1.8-1.7-1.8-2.7c0-0.9,0.4-2.2,1.5-2.2c1.3,0,1.7,1.7,1.7,2.8
		C215.8,351.9,215.5,353.3,214.4,353.3 M214.2,347.4c-2,0-3.3,1.5-3.3,3.5s1.5,3.2,3.4,3.2c1.9,0,3.4-1.4,3.4-3.3
		C217.6,348.8,216.2,347.4,214.2,347.4"/>
	<path class="st9" d="M203.2,319.6c0.2-0.6,1.3-3.2,1.5-3.5c0.1,0.3,0.8,1.9,1,2.5c0.1,0.2,0.4,1,0.4,1.1c0,0.2-0.1,0.2-0.3,0.2
		h-2.4C203.2,320,203.1,319.9,203.2,319.6 M200.6,324.1c0.4,0,0.7-0.1,1.1-0.1c0.4,0,0.7,0.1,1.1,0.1c0.3,0,0.6,0,0.6-0.4
		c0-0.2-0.1-0.3-0.4-0.4c-0.6-0.2-0.7-0.3-0.7-0.6c0-0.3,0.2-1.1,0.4-1.4c0.1-0.2,0.3-0.3,0.5-0.3l3,0c0.4,0,0.5,0.3,0.6,0.6
		c0.1,0.3,0.2,0.7,0.2,1c0,0.1,0,0.4-0.3,0.6c-0.3,0.1-0.6,0.2-0.6,0.5c0,0.3,0.3,0.4,0.8,0.4c0.6,0,0.9-0.1,1.4-0.1
		c0.5,0,0.8,0.1,1.4,0.1c0.4,0,0.8-0.1,0.7-0.4c0-0.2,0-0.3-0.4-0.5c-0.4-0.2-0.5-0.4-0.7-0.8c-0.3-0.5-0.5-1.2-0.7-1.7
		c-0.4-1-0.8-1.9-1.2-2.8c-0.4-0.8-0.7-1.6-1.1-2.5c-0.4-0.9-0.5-1.2-0.8-1.3c-0.1-0.1-0.3-0.1-0.4-0.1c-0.3,0-0.6,0-0.9,0
		c-0.3,0-1,0-1,0.5c0,0.4,0.7,0.4,0.7,0.8c0,0.1-0.1,0.3-0.1,0.5c-0.1,0.2-0.2,0.4-0.3,0.7c-0.7,1.8-1.5,3.4-2.1,5.3
		c-0.1,0.4-0.2,0.9-0.4,1.2c-0.2,0.3-0.3,0.3-0.6,0.4c-0.2,0.1-0.5,0.2-0.5,0.5C200,324,200.3,324.1,200.6,324.1"/>
	<path class="st9" d="M252.7,352.8c-0.2,0-0.4,0.1-0.5,0.1c-0.3,0-0.3-0.4-0.3-0.7v-2.2c0-0.7,0-1.3-0.4-1.8c-0.4-0.5-1-0.8-1.6-0.8
		c-0.8,0-1.5,0.4-2.1,0.9c0-0.5,0-0.8-0.6-0.8h-1.6c-0.3,0-0.5,0.1-0.5,0.4c0,0.2,0.2,0.3,0.4,0.4c0.6,0.1,0.7,0.2,0.7,0.9v3.1
		c0,0.6-0.1,0.7-0.6,0.9c-0.2,0-0.4,0.1-0.4,0.4c0,0.3,0.3,0.4,0.6,0.4c0.4,0,0.9-0.1,1.3-0.1s0.9,0.1,1.3,0.1
		c0.3,0,0.6-0.1,0.6-0.4c0-0.2-0.2-0.3-0.4-0.4c-0.6-0.1-0.6-0.3-0.6-0.9v-3c0.4-0.4,0.8-0.7,1.4-0.7c0.9,0,1,0.9,1,1.6v2.4
		c0,0.7,0.4,1.4,1.2,1.4c0.6,0,1.6-0.4,1.6-1C253,353,252.9,352.8,252.7,352.8"/>
	<path class="st9" d="M234.4,353.1c-0.4,0-0.8-0.1-1-0.5c-0.3-0.4-0.3-0.9-0.3-1.3v-1.9c0.4-0.3,0.8-0.6,1.3-0.6
		c1.1,0,1.8,1.1,1.8,2.1C236.2,352.1,235.6,353.1,234.4,353.1 M235.2,347.5c-0.9,0-1.4,0.5-2.1,1c0-0.5,0-0.9-0.6-0.9h-1.6
		c-0.3,0-0.5,0.1-0.5,0.4c0,0.2,0.2,0.3,0.4,0.4c0.6,0.1,0.7,0.2,0.7,0.9v6c0,0.6-0.1,0.7-0.6,0.9c-0.2,0-0.4,0.1-0.4,0.4
		c0,0.3,0.3,0.4,0.6,0.4c0.4,0,0.9-0.1,1.3-0.1s0.9,0.1,1.3,0.1c0.3,0,0.6-0.1,0.6-0.4c0-0.2-0.2-0.3-0.4-0.4
		c-0.6-0.1-0.6-0.3-0.6-0.9V354c0.3,0.1,0.7,0.2,1.1,0.2c1.9,0,3.4-1.8,3.4-3.7C237.6,349,236.8,347.5,235.2,347.5"/>
	<path class="st9" d="M211.1,318.4c0.6,0.1,0.7,0.2,0.7,0.9v3.1c0,0.6-0.1,0.7-0.6,0.9c-0.2,0-0.4,0.2-0.4,0.4
		c0,0.3,0.3,0.4,0.6,0.4c0.4,0,0.9-0.1,1.3-0.1s0.9,0.1,1.3,0.1c0.3,0,0.6-0.1,0.6-0.4c0-0.2-0.2-0.3-0.4-0.4
		c-0.6-0.1-0.6-0.3-0.6-0.9v-3c0.4-0.4,0.8-0.7,1.4-0.7c0.9,0,1,0.9,1,1.6v2.4c0,0.7,0.4,1.4,1.2,1.4c0.5,0,1.6-0.4,1.6-1
		c0-0.2-0.1-0.3-0.3-0.3c-0.2,0-0.4,0.2-0.5,0.2c-0.3,0-0.3-0.5-0.3-0.7v-2.2c0-0.7,0-1.3-0.4-1.8c-0.4-0.5-1-0.8-1.6-0.8
		c-0.8,0-1.5,0.4-2.1,0.9c0-0.5,0-0.8-0.6-0.8h-1.6c-0.3,0-0.5,0.1-0.5,0.4C210.8,318.2,210.9,318.3,211.1,318.4"/>
	<path class="st9" d="M229.9,352.8c-0.2,0-0.4,0.1-0.5,0.1c-0.3,0-0.3-0.4-0.3-0.7v-2.2c0-0.7,0-1.3-0.4-1.8
		c-0.4-0.5-0.9-0.8-1.6-0.8c-0.8,0-1.4,0.4-2.2,1.2c-0.1-0.1-0.1-0.2-0.2-0.4c-0.4-0.5-0.9-0.8-1.6-0.8c-0.8,0-1.4,0.5-2,1
		c0-0.5,0-0.8-0.6-0.8h-1.6c-0.3,0-0.5,0.1-0.5,0.4c0,0.2,0.2,0.3,0.4,0.4c0.6,0.1,0.7,0.2,0.7,0.9v3.1c0,0.6-0.1,0.7-0.6,0.9
		c-0.2,0-0.4,0.1-0.4,0.4c0,0.3,0.3,0.4,0.6,0.4c0.4,0,0.9-0.1,1.3-0.1c0.4,0,0.9,0.1,1.3,0.1c0.3,0,0.6-0.1,0.6-0.4
		c0-0.2-0.2-0.3-0.4-0.4c-0.6-0.1-0.6-0.3-0.6-0.9v-3.1c0.4-0.4,0.9-0.7,1.3-0.7c0.9,0,1,0.9,1,1.6v2.4c0,0.7,0.4,1.4,1.2,1.4
		c0.6,0,1.6-0.4,1.6-1c0-0.2-0.1-0.3-0.3-0.3c-0.2,0-0.4,0.1-0.5,0.1c-0.3,0-0.3-0.4-0.3-0.7v-2.2c0-0.2,0-0.5,0-0.7
		c0.5-0.5,0.9-0.7,1.4-0.7c0.9,0,1,0.9,1,1.6v2.4c0,0.7,0.4,1.4,1.2,1.4c0.6,0,1.6-0.4,1.6-1C230.2,353,230,352.8,229.9,352.8"/>
	<path class="st9" d="M259.6,347.6h-1.8c-0.2,0-0.4,0.2-0.4,0.4c0,0.5,0.7,0.2,0.7,0.8c0,0.4-0.6,2.1-1.2,3.5
		c-0.4-0.8-0.7-1.5-1.1-2.3c-0.1-0.3-0.4-0.9-0.4-1.2c0-0.5,0.7-0.3,0.7-0.8c0-0.2-0.2-0.4-0.4-0.4h-1.2h-1.3
		c-0.2,0-0.4,0.1-0.4,0.4c0,0.2,0.1,0.3,0.3,0.4c0.3,0.2,0.4,0.3,0.6,0.6c0.2,0.3,0.3,0.7,0.4,1c0.6,1.5,1.3,3,2,4.4
		c-0.2,0.5-0.7,1.4-1.2,1.4c-0.7,0-0.3-0.9-0.8-0.9c-0.4,0-1,0.8-1,1.2c0,0.2,0.1,0.4,0.3,0.5c0.3,0.3,0.6,0.5,1,0.5
		c0.8,0,1.5-0.5,1.9-1.2c0.7-1.2,1.2-2.6,1.7-3.8l1.1-3.1c0.3-0.8,0.9-0.6,0.9-1C260,347.8,259.9,347.6,259.6,347.6"/>
	<path class="st9" d="M241.9,352.3c-0.2,0.3-0.7,0.7-1.2,0.7c-0.5,0-0.8-0.4-0.8-0.9c0-0.5,0.6-0.9,1-1.1l1-0.4V352.3z M244.1,353.3
		c-0.3-0.1-0.4-0.2-0.4-0.9v-2.8c0-0.6-0.1-1.2-0.6-1.6c-0.4-0.4-1-0.5-1.6-0.5c-0.9,0-1.8,0.5-2.4,1.1c-0.3,0.3-0.3,0.4,0,0.6
		s0.5,0.2,0.8,0c0.3-0.2,0.9-0.5,1.3-0.5c0.6,0,1,0.4,0.9,1.2l-1.5,0.6c-0.9,0.4-2.2,1.1-2.2,2.2c0,1,0.9,1.6,1.8,1.6
		c0.9,0,1.5-0.4,2-1c0.2,1,1,1,1.5,1c0.3,0,1,0,1-0.4C244.6,353.4,244.3,353.4,244.1,353.3"/>
</g>
<rect x="201.1" y="71.6" class="st10" width="60" height="0.8"/>
<rect x="201.1" y="143.6" class="st10" width="60" height="0.8"/>
<rect x="201.1" y="215.6" class="st10" width="60" height="0.8"/>
<g>
	<defs>
		<rect id="SVGID_11_" width="266.8" height="360"/>
	</defs>
	<clipPath id="SVGID_12_">
		<use xlink:href="#SVGID_11_"  style="overflow:visible;"/>
	</clipPath>
	<path class="st11" d="M231.1,206.8c-14.8,0-26.8-12-26.8-26.8c0-14.8,12-26.8,26.8-26.8c14.8,0,26.8,12,26.8,26.8
		C257.8,194.8,245.8,206.8,231.1,206.8 M231.1,149.3c-17,0-30.8,13.8-30.8,30.8s13.8,30.8,30.8,30.8s30.8-13.8,30.8-30.8
		S248.1,149.3,231.1,149.3"/>
</g>
<polygon class="st10" points="261.1,18 261.1,6 201.1,6 201.1,66 213.1,66 213.1,45 258.1,45 258.1,33 213.1,33 213.1,18 "/>
<polygon class="st10" points="213.1,126 213.1,78 201.1,78 201.1,138 261.1,138 261.1,126 "/>
<g>
	<defs>
		<rect id="SVGID_13_" width="266.8" height="360"/>
	</defs>
	<clipPath id="SVGID_14_">
		<use xlink:href="#SVGID_13_"  style="overflow:visible;"/>
	</clipPath>
	<path class="st12" d="M213.1,234h27.8c5,0,9,4,9,9c0,5-4,9-9,9h-27.8V234z M261.8,243c0-11.6-9.4-21-21-21h-39.8v60h12v-18h21.5
		l18,18h8.5v-8.5l-11.4-11.4C256.8,258.7,261.8,251.5,261.8,243"/>
	<path class="st12" d="M257.8,224c0,1.1,0.9,2,2,2c1.1,0,2-0.9,2-2c0-1.1-0.9-2-2-2C258.7,222,257.8,222.9,257.8,224 M258.3,224
		c0-0.9,0.7-1.6,1.6-1.6c0.9,0,1.6,0.7,1.6,1.6c0,0.9-0.7,1.6-1.6,1.6C258.9,225.6,258.3,224.9,258.3,224 M260.4,224.2L260.4,224.2
		c0.3-0.2,0.4-0.4,0.4-0.7c0-0.4-0.3-0.7-0.7-0.7H259l-0.1,0.1v2.1l0.1,0.1h0.3l0.1-0.1v-0.8l0.1-0.1h0.3l0.1,0.1l0.6,0.8l0.1,0.1
		h0.2l0.1-0.1v-0.3L260.4,224.2z M260.4,223.6c0,0.2-0.1,0.3-0.3,0.3h-0.7l-0.1-0.1v-0.4l0.1-0.1h0.7
		C260.3,223.3,260.4,223.4,260.4,223.6"/>
</g>
<g>
</g>
<g>
</g>
<g>
</g>
<g>
</g>
<g>
</g>
<g>
</g>
</svg>
