<?xml version="1.0" encoding="utf-8"?>
<!-- Generator: Adobe Illustrator 19.1.0, SVG Export Plug-In . SVG Version: 6.00 Build 0)  -->
<svg version="1.1" id="Layer_1" xmlns="http://www.w3.org/2000/svg" xmlns:xlink="http://www.w3.org/1999/xlink" x="0px" y="0px"
	 viewBox="0 0 276.8 295.7" style="enable-background:new 0 0 276.8 295.7;" xml:space="preserve">
<style type="text/css">
	.st0{clip-path:url(#SVGID_2_);fill:#363D39;}
	.st1{fill:#363D39;}
	.st2{clip-path:url(#SVGID_4_);fill:#363D39;}
	.st3{clip-path:url(#SVGID_6_);fill:#363D39;}
	.st4{clip-path:url(#SVGID_6_);fill:#F2BE1A;}
	.st5{fill:#F2BE1A;}
	.st6{clip-path:url(#SVGID_8_);fill:#F2BE1A;}
	.st7{clip-path:url(#SVGID_10_);fill:#F2BE1A;}
</style>
<g>
	<defs>
		<rect id="SVGID_1_" width="276.8" height="295.7"/>
	</defs>
	<clipPath id="SVGID_2_">
		<use xlink:href="#SVGID_1_"  style="overflow:visible;"/>
	</clipPath>
	<path class="st0" d="M236.8,115.2c-0.8,0-1-1.1-1-1.7c0-0.6,0.2-1.5,1-1.5c0.8,0,1.1,1,1.1,1.6
		C237.8,114.4,237.6,115.2,236.8,115.2 M240,111.1c-0.6,0-0.9,0.4-1.2,0.9c-0.6-0.6-1.2-0.8-2.1-0.8c-1.5,0-2.7,0.9-2.7,2.5
		c0,1,0.3,1.5,1.2,2c-0.5,0.4-1.3,1.1-1.3,1.8c0,0.3,0.1,0.5,0.4,0.6c0.5,0.2,1.5,0.2,2.1,0.2c0.4,0,1.3,0,1.8,0.1
		c0.2,0.1,0.5,0.3,0.5,0.5c0,0.7-1,0.8-1.5,0.8c-0.7,0-1.3-0.1-1.8-0.6c-0.2-0.2-0.3-0.4-0.6-0.4c-0.4,0-0.7,0.5-0.7,0.9
		c0,0.9,1.6,1.1,2.2,1.1c1.5,0,3.5-0.4,3.5-2.3c0-1.5-1.5-1.4-2.6-1.5c-0.3,0-0.7,0-1,0c-0.1,0-0.6,0-0.6-0.2c0-0.3,0.2-0.5,0.4-0.7
		c0.3,0,0.6,0.1,0.8,0.1c1.5,0,2.6-0.9,2.6-2.4c0-0.2,0-0.4,0-0.6c0-0.2-0.1-0.3-0.1-0.5c0-0.2,0.1-0.3,0.2-0.3
		c0.3,0,0.3,0.4,0.6,0.4c0.4,0,0.6-0.4,0.6-0.7C240.8,111.6,240.5,111.1,240,111.1"/>
	<path class="st0" d="M228.4,128.9c0-0.8,0.4-1.8,1.4-1.8c0.5,0,1.1,0.3,1.1,0.9c0,0.1,0,0.1-0.1,0.2c-0.2,0.2-0.9,0.5-1.2,0.6
		c-0.4,0.1-0.8,0.3-1.1,0.5C228.4,129.2,228.4,129.1,228.4,128.9 M232.2,131c-0.4,0-0.6,0.6-1.6,0.6c-0.3,0-0.7-0.1-1-0.2
		c-0.6-0.3-0.8-0.6-1.1-1.2l3.2-1.4c0.3-0.1,0.6-0.4,0.6-0.7c0-0.3-0.2-0.7-0.4-1c-0.5-0.6-1-0.9-1.8-0.9c-1.9,0-3.2,1.7-3.2,3.5
		s1.3,3.2,3.1,3.2c0.7,0,1.4-0.2,1.9-0.7c0.2-0.2,0.6-0.6,0.6-0.9C232.5,131.1,232.4,131,232.2,131"/>
	<path class="st0" d="M246.4,130.2c-0.8,0-1-1.1-1-1.7c0-0.6,0.2-1.5,1-1.5c0.8,0,1.1,1,1.1,1.6
		C247.5,129.4,247.2,130.2,246.4,130.2 M249.7,126.1c-0.6,0-0.9,0.4-1.2,0.9c-0.6-0.6-1.2-0.8-2.1-0.8c-1.5,0-2.7,0.9-2.7,2.5
		c0,1,0.3,1.5,1.2,2c-0.5,0.4-1.3,1.1-1.3,1.8c0,0.3,0.1,0.5,0.4,0.6c0.5,0.2,1.5,0.2,2.1,0.2c0.4,0,1.3,0,1.8,0.1
		c0.2,0.1,0.5,0.3,0.5,0.5c0,0.7-1,0.8-1.5,0.8c-0.7,0-1.3-0.1-1.8-0.6c-0.2-0.2-0.3-0.4-0.6-0.4c-0.4,0-0.7,0.5-0.7,0.9
		c0,0.9,1.6,1.1,2.2,1.1c1.5,0,3.5-0.4,3.5-2.3c0-1.5-1.5-1.4-2.6-1.5c-0.3,0-0.7,0-1,0c-0.1,0-0.6,0-0.6-0.2c0-0.3,0.2-0.5,0.4-0.7
		c0.3,0,0.6,0.1,0.8,0.1c1.5,0,2.6-0.9,2.6-2.4c0-0.2,0-0.4,0-0.6c0-0.2-0.1-0.3-0.1-0.5c0-0.2,0.1-0.3,0.2-0.3
		c0.3,0,0.3,0.4,0.6,0.4c0.4,0,0.6-0.4,0.6-0.7C250.5,126.6,250.2,126.1,249.7,126.1"/>
	<path class="st0" d="M258.5,131.6c-0.2,0-0.4,0.2-0.5,0.2c-0.3,0-0.3-0.4-0.3-0.7v-2.2c0-0.7,0-1.3-0.4-1.8c-0.4-0.5-1-0.8-1.6-0.8
		c-0.8,0-1.5,0.4-2.1,0.9c0-0.5,0-0.8-0.6-0.8h-1.6c-0.3,0-0.5,0.1-0.5,0.4c0,0.2,0.2,0.3,0.4,0.4c0.6,0.1,0.7,0.2,0.7,0.9v3.1
		c0,0.6-0.1,0.7-0.6,0.9c-0.2,0-0.4,0.1-0.4,0.4c0,0.3,0.3,0.4,0.6,0.4c0.4,0,0.9-0.1,1.3-0.1s0.9,0.1,1.3,0.1
		c0.3,0,0.6-0.1,0.6-0.4c0-0.2-0.2-0.3-0.4-0.4c-0.6-0.1-0.6-0.3-0.6-0.9v-3c0.4-0.4,0.8-0.7,1.4-0.7c0.9,0,1,0.9,1,1.6v2.4
		c0,0.7,0.4,1.4,1.2,1.4c0.5,0,1.6-0.4,1.6-1C258.8,131.7,258.7,131.6,258.5,131.6"/>
	<path class="st0" d="M235.2,128c-0.1-0.1-0.4-0.3-0.3-0.7c0.2-0.3,0.7-0.3,1.4,0.1c0.4,0.2,0.7,0.6,0.9,0.6c0.2,0,0.4-0.3,0.5-0.8
		c0.1-0.3-0.2-0.5-0.6-0.7c-0.4-0.2-0.9-0.3-1.3-0.3c-0.5,0-1.1,0.2-1.6,0.5c-0.3,0.3-0.7,0.7-0.7,1.3c0,1,1.3,1.8,1.9,2.3
		c0.3,0.2,1.1,0.7,1.1,1.2c0,0.4-0.3,0.5-0.6,0.5c-0.5,0-1.1-0.3-1.4-0.7c0,0-0.2-0.3-0.3-0.4c-0.1-0.1-0.2-0.1-0.2-0.1
		c-0.3,0-0.7,0.7-0.7,1c0,0.6,1.1,0.9,1.5,1c0.3,0.1,0.6,0.1,0.9,0.1c1.1,0,2.3-0.8,2.3-1.8c0-0.5-0.4-1-0.6-1.3
		C236.7,129,236,128.6,235.2,128"/>
	<path class="st0" d="M232.7,117c-0.5-0.1-0.6-0.4-0.6-1l0-4c0-0.4,0-0.7-0.5-0.7h-1.9c-0.3,0-0.4,0.1-0.4,0.4
		c0,0.2,0.2,0.3,0.4,0.4c0.6,0.1,0.7,0.2,0.7,0.9v3c-0.4,0.3-0.8,0.6-1.4,0.6c-0.9,0-1.1-0.7-1.1-1.5l0-3.1c0-0.4,0-0.7-0.5-0.7
		h-1.9c-0.3,0-0.4,0.1-0.4,0.4c0,0.2,0.2,0.3,0.4,0.4c0.6,0.1,0.7,0.2,0.7,0.9l0,2.5c0,1.3,0.8,2.3,2.2,2.3c0.8,0,1.4-0.4,2-1
		c0.1,0.4,0.1,0.9,0.6,0.9c0.3,0,0.5-0.1,0.8-0.1h0.9c0.2,0,0.4-0.1,0.4-0.4C233.1,117.2,233,117.1,232.7,117"/>
	<path class="st0" d="M242.3,132.1c-0.6-0.1-0.6-0.3-0.6-0.9V127c0-0.5,0-0.6-0.5-0.6h-1.8c-0.3,0-0.5,0.1-0.5,0.4
		c0,0.2,0.2,0.3,0.4,0.4c0.6,0.1,0.7,0.2,0.7,0.9v3.1c0,0.6-0.1,0.7-0.6,0.9c-0.2,0-0.4,0.2-0.4,0.4c0,0.3,0.3,0.4,0.6,0.4
		c0.4,0,0.9-0.1,1.3-0.1c0.4,0,0.9,0.1,1.3,0.1c0.3,0,0.6-0.1,0.6-0.4C242.7,132.2,242.5,132.1,242.3,132.1"/>
	<path class="st0" d="M239.7,123.9c0,0.5,0.6,1.1,1,1.1c0.4,0,1.1-0.7,1.1-1.1s-0.6-1.1-1-1.1C240.4,122.8,239.7,123.4,239.7,123.9"
		/>
	<path class="st0" d="M218.9,110.4c0-1,0.2-1.8,1.3-1.8c1,0,1.8,0.7,1.8,1.8c0,0.7-0.4,1.4-1.1,1.7c-0.4,0.1-0.7,0.1-1.1,0.1
		c-0.3,0-0.6,0-0.9,0V110.4z M216.9,109.2c0,0.2,0,0.4,0,0.6v5.7c0,1.2-0.3,1.3-0.9,1.4c-0.3,0.1-0.5,0.2-0.5,0.4
		c0,0.3,0.3,0.4,0.6,0.4c0.5,0,1.3-0.1,1.7-0.1s1.3,0.1,1.7,0.1c0.3,0,0.6-0.1,0.6-0.4c0-0.3-0.2-0.3-0.5-0.4
		c-0.6-0.2-0.9-0.3-0.9-1.4v-2.4c0.1,0,0.3,0,0.4,0c0.5,0,0.7,0.2,1,0.6c0.1,0.2,0.3,0.3,0.4,0.5l1.2,2.1c0.3,0.5,0.7,1.1,1.3,1.3
		c0.4,0.2,0.9,0.2,1.4,0.2c0.3,0,0.9,0,0.9-0.5c0-0.2-0.1-0.3-0.3-0.4l-0.6-0.3c-0.2-0.1-0.4-0.4-0.5-0.6c-0.3-0.4-0.6-0.9-0.9-1.3
		c-0.2-0.3-0.4-0.7-0.7-1c-0.4-0.6-0.5-0.7-1.1-0.9c0.7-0.1,1.2-0.3,1.8-0.7c0.6-0.5,0.9-1.1,0.9-1.8c0-1.8-1.6-2.7-3.2-2.7
		c-0.9,0-1.8,0.1-2.7,0.1c-0.6,0-1.3-0.1-1.9-0.1c-0.3,0-0.7,0-0.7,0.4C215.5,108.7,216.7,108.4,216.9,109.2"/>
	<path class="st0" d="M220.8,132c-0.5,0-1.1-0.1-1.5-0.5c-0.4-0.4-0.4-1.4-0.4-2v-4c0-0.4-0.1-1.4,0.3-1.7c0.3-0.3,0.7-0.4,1.1-0.4
		c2.5,0,4.1,2.5,4.1,4.7C224.3,130.2,223,132,220.8,132 M221,122.6c-1,0-1.9,0.1-2.9,0.1c-0.7,0-1.4-0.1-2.1-0.1
		c-0.3,0-0.7,0.1-0.7,0.5c0,0.4,0.6,0.4,0.9,0.5c0.7,0.2,0.6,1.2,0.6,1.8v4.9c0,0.4,0,1-0.3,1.3c-0.3,0.3-1.1,0.3-1.1,0.7
		c0,0.4,0.5,0.5,0.8,0.5c0.5,0,1-0.1,1.5-0.1c0.7,0,1.6,0.2,2.3,0.2c1.1,0,2.6-0.3,3.6-0.9c0.5-0.3,0.9-0.7,1.2-1.1
		c0.7-1,1.2-2.2,1.2-3.4C226.2,124.5,223.8,122.6,221,122.6"/>
	<path class="st0" d="M259.5,96.3H258c-0.2,0-0.4,0.2-0.4,0.4c0,0.5,0.7,0.3,0.7,0.8c0,0.3-0.1,0.6-0.2,0.9
		c-0.3,0.9-0.7,1.8-1.1,2.6l-1.1-2.6c-0.1-0.3-0.3-0.6-0.3-0.8c0-0.5,0.7-0.3,0.7-0.8c0-0.2-0.1-0.4-0.4-0.4h-2.5
		c-0.3,0-0.5,0.1-0.5,0.4c0,0.3,0.3,0.4,0.5,0.6c0.2,0.2,0.3,0.5,0.4,0.8l1.9,4.4c0.2,0.3,0.4,0.6,0.8,0.6c0.3,0,0.6-0.2,0.7-0.5
		c0.6-1.2,1.2-2.6,1.7-3.8c0.1-0.2,0.4-1.3,0.6-1.5c0.2-0.1,0.5-0.2,0.5-0.5C259.9,96.6,259.9,96.3,259.5,96.3"/>
	<path class="st0" d="M233.9,97.2c0.5,0,1,0.3,1,0.9c0,0.1,0,0.2-0.1,0.2c-0.2,0.2-0.9,0.5-1.2,0.6c-0.4,0.1-0.8,0.3-1.1,0.5
		c0-0.1,0-0.3,0-0.4C232.5,98.1,232.9,97.2,233.9,97.2 M234.2,102.9c0.7,0,1.4-0.2,1.9-0.7c0.2-0.2,0.6-0.6,0.6-0.9
		c0-0.2-0.1-0.3-0.3-0.3c-0.4,0-0.6,0.6-1.6,0.6c-0.3,0-0.7-0.1-1-0.2c-0.6-0.3-0.8-0.6-1.1-1.2l3.2-1.4c0.3-0.1,0.6-0.4,0.6-0.7
		c0-0.3-0.2-0.7-0.4-1c-0.5-0.6-1-0.9-1.8-0.9c-1.9,0-3.2,1.7-3.2,3.5S232.4,102.9,234.2,102.9"/>
	<path class="st0" d="M261.4,98.9c0-0.8,0.4-1.8,1.4-1.8c0.5,0,1,0.3,1,0.9c0,0.1,0,0.1-0.1,0.2c-0.2,0.2-0.9,0.5-1.2,0.6
		c-0.4,0.1-0.8,0.3-1.1,0.5C261.4,99.2,261.4,99.1,261.4,98.9 M265.3,101c-0.4,0-0.6,0.6-1.6,0.6c-0.3,0-0.7-0.1-1-0.2
		c-0.6-0.3-0.8-0.6-1.1-1.2l3.2-1.4c0.3-0.1,0.6-0.4,0.6-0.7c0-0.3-0.2-0.7-0.4-1c-0.5-0.6-1-0.9-1.8-0.9c-1.9,0-3.2,1.7-3.2,3.5
		s1.3,3.2,3.1,3.2c0.7,0,1.4-0.2,1.9-0.7c0.2-0.2,0.6-0.6,0.6-0.9C265.6,101.1,265.5,101,265.3,101"/>
	<path class="st0" d="M244.9,97.3v3.2c0,0.6,0,1.4,0.4,1.8c0.4,0.5,1,0.6,1.6,0.6c0.4,0,1.7-0.2,1.7-0.8c0-0.2-0.2-0.3-0.4-0.3
		c-0.2,0-0.4,0.1-0.6,0.1c-0.9,0-1-0.9-1-1.7v-2.9h1.2c0.3,0,0.5-0.1,0.5-0.5s-0.2-0.5-0.5-0.5h-1.2l0-1.3c0-0.3-0.1-0.6-0.4-0.6
		c-0.4,0-0.5,0.4-0.6,0.7c-0.2,0.5-0.6,0.9-1.1,1.2c-0.2,0.1-0.6,0.2-0.6,0.6C243.9,97.4,244.6,97.3,244.9,97.3"/>
	<path class="st0" d="M220.7,102.9c1,0,2-0.3,2.9-0.8c0.4-0.2,1.4-0.9,1.4-1.4c0-0.2-0.2-0.4-0.4-0.4c-0.3,0.1-0.6,0.4-1.2,0.7
		c-0.5,0.2-1.3,0.4-1.8,0.4c-2.3,0-4-1.8-4-4.1c0-2,1.3-3.6,3.4-3.6c0.7,0,2.4,0.3,2.4,1.3c0,0.2-0.2,0.4-0.2,0.6
		c0,0.2,0.2,0.4,0.4,0.4c0.5,0,1.4-1.2,1.4-1.7c0-0.2-0.1-0.4-0.2-0.6c-0.1-0.1-0.3-0.3-0.4-0.3c-0.8-0.6-2.1-0.8-3-0.8
		c-3.1,0-5.6,2.2-5.6,5.4C215.7,100.8,217.8,102.9,220.7,102.9"/>
	<path class="st0" d="M225.7,97.1c0.6,0.1,0.7,0.2,0.7,0.9v3.1c0,0.6-0.1,0.7-0.6,0.9c-0.2,0-0.4,0.2-0.4,0.4c0,0.3,0.3,0.4,0.6,0.4
		c0.4,0,0.9-0.1,1.3-0.1s0.9,0.1,1.3,0.1c0.3,0,0.6-0.1,0.6-0.4c0-0.2-0.2-0.3-0.4-0.4c-0.6-0.1-0.6-0.3-0.6-0.9v-2.8
		c0.2-0.4,0.5-0.8,1-0.8c0.5,0,0.7,0.5,0.9,0.5c0.6,0,0.7-0.8,0.7-1.2c0-0.6-0.3-0.8-0.8-0.8c-0.8,0-1.4,0.6-1.9,1.1
		c0-0.5,0-0.9-0.7-0.9h-1.6c-0.3,0-0.5,0.1-0.5,0.4C225.4,97,225.5,97.1,225.7,97.1"/>
	<path class="st0" d="M241.1,101c-0.2,0.3-0.7,0.7-1.2,0.7c-0.5,0-0.8-0.4-0.8-0.9c0-0.5,0.6-0.9,1-1.1l1-0.4V101z M243.8,102.4
		c0-0.3-0.3-0.3-0.5-0.4c-0.3-0.1-0.4-0.2-0.4-0.9v-2.8c0-0.6-0.1-1.2-0.6-1.6c-0.4-0.4-1-0.5-1.6-0.5c-0.9,0-1.8,0.5-2.4,1.1
		c-0.3,0.3-0.3,0.4,0,0.6c0.2,0.2,0.5,0.2,0.8,0c0.3-0.2,0.9-0.5,1.3-0.5c0.6,0,1,0.4,0.9,1.2l-1.5,0.6c-0.9,0.4-2.2,1-2.2,2.2
		c0,1,0.9,1.6,1.8,1.6c0.9,0,1.5-0.4,2-1c0.2,1,1,1,1.5,1C243,102.9,243.8,102.9,243.8,102.4"/>
	<path class="st0" d="M249.4,97.1c0.6,0.1,0.7,0.2,0.7,0.9v3.1c0,0.6-0.1,0.7-0.6,0.9c-0.2,0-0.4,0.2-0.4,0.4c0,0.3,0.3,0.4,0.6,0.4
		c0.4,0,0.9-0.1,1.3-0.1s0.9,0.1,1.3,0.1c0.3,0,0.6-0.1,0.6-0.4c0-0.2-0.2-0.3-0.4-0.4c-0.6-0.1-0.6-0.3-0.6-0.9V97
		c0-0.5,0-0.6-0.5-0.6h-1.8c-0.3,0-0.5,0.1-0.5,0.4C249,97,249.2,97.1,249.4,97.1"/>
	<path class="st0" d="M250.9,95c0.4,0,1-0.7,1-1.1s-0.6-1.1-1-1.1c-0.3,0-1.1,0.6-1.1,1.1C249.9,94.3,250.5,95,250.9,95"/>
</g>
<rect x="65.6" y="0.8" class="st1" width="0.8" height="60"/>
<rect x="137.6" y="0.8" class="st1" width="0.8" height="60"/>
<rect x="209.6" y="0.8" class="st1" width="0.8" height="60"/>
<g>
	<defs>
		<rect id="SVGID_3_" width="276.8" height="295.7"/>
	</defs>
	<clipPath id="SVGID_4_">
		<use xlink:href="#SVGID_3_"  style="overflow:visible;"/>
	</clipPath>
	<path class="st2" d="M174,57.5c-14.8,0-26.8-12-26.8-26.8C147.2,16,159.2,4,174,4c14.8,0,26.8,12,26.8,26.8
		C200.8,45.5,188.8,57.5,174,57.5 M174,0c-17,0-30.8,13.8-30.8,30.8c0,17,13.8,30.8,30.8,30.8s30.8-13.8,30.8-30.8
		C204.8,13.8,191,0,174,0"/>
</g>
<polygon class="st1" points="0,0.7 0,60.7 12,60.7 12,39.7 57,39.7 57,27.7 12,27.7 12,12.7 60,12.7 60,0.7 "/>
<polygon class="st1" points="84,48.7 84,0.7 72,0.7 72,60.7 132,60.7 132,48.7 "/>
<g>
	<defs>
		<rect id="SVGID_5_" width="276.8" height="295.7"/>
	</defs>
	<clipPath id="SVGID_6_">
		<use xlink:href="#SVGID_5_"  style="overflow:visible;"/>
	</clipPath>
	<path class="st3" d="M228,12.7h27.8c5,0,9,4,9,9c0,5-4,9-9,9H228V12.7z M276.8,21.7c0-11.6-9.4-21-21-21H216v60h12v-18h21.5l18,18
		h8.5v-8.5l-11.4-11.4C271.8,37.5,276.8,30.2,276.8,21.7"/>
	<path class="st3" d="M272.7,2.7c0,1.1,0.9,2,2,2c1.1,0,2-0.9,2-2c0-1.1-0.9-2-2-2C273.6,0.7,272.7,1.6,272.7,2.7 M273.2,2.7
		c0-0.9,0.7-1.6,1.6-1.6c0.9,0,1.6,0.7,1.6,1.6c0,0.9-0.7,1.6-1.6,1.6C273.9,4.3,273.2,3.6,273.2,2.7 M275.3,3L275.3,3
		c0.3-0.2,0.4-0.4,0.4-0.7c0-0.4-0.3-0.7-0.7-0.7h-1.1l-0.1,0.1v2.1l0.1,0.1h0.3l0.1-0.1V3l0.1-0.1h0.3l0.1,0.1l0.6,0.8l0.1,0.1h0.2
		l0.1-0.1V3.5L275.3,3z M275.3,2.3c0,0.2-0.1,0.3-0.3,0.3h-0.7l-0.1-0.1V2.1l0.1-0.1h0.7C275.2,2,275.3,2.1,275.3,2.3"/>
	<path class="st4" d="M236.8,275.2c-0.8,0-1-1.1-1-1.7c0-0.6,0.2-1.5,1-1.5c0.8,0,1.1,1,1.1,1.6
		C237.8,274.4,237.6,275.2,236.8,275.2 M240,271.1c-0.6,0-0.9,0.4-1.2,0.9c-0.6-0.6-1.2-0.8-2.1-0.8c-1.5,0-2.7,0.9-2.7,2.5
		c0,1,0.3,1.5,1.2,2c-0.5,0.4-1.3,1.1-1.3,1.8c0,0.3,0.1,0.5,0.4,0.6c0.5,0.2,1.5,0.2,2.1,0.2c0.4,0,1.3,0,1.8,0.2
		c0.2,0.1,0.5,0.3,0.5,0.5c0,0.7-1,0.8-1.5,0.8c-0.7,0-1.3-0.1-1.8-0.6c-0.2-0.2-0.3-0.4-0.6-0.4c-0.4,0-0.7,0.5-0.7,0.9
		c0,0.9,1.6,1.1,2.2,1.1c1.5,0,3.5-0.4,3.5-2.3c0-1.5-1.5-1.4-2.6-1.5c-0.3,0-0.7,0-1,0c-0.1,0-0.6,0-0.6-0.2c0-0.3,0.2-0.5,0.4-0.7
		c0.3,0,0.6,0.1,0.8,0.1c1.5,0,2.6-0.9,2.6-2.4c0-0.2,0-0.4,0-0.6c0-0.1-0.1-0.3-0.1-0.5s0.1-0.3,0.2-0.3c0.3,0,0.3,0.4,0.6,0.4
		c0.4,0,0.6-0.4,0.6-0.7C240.8,271.6,240.5,271.1,240,271.1"/>
	<path class="st4" d="M228.4,288.9c0-0.8,0.4-1.8,1.4-1.8c0.5,0,1.1,0.3,1.1,0.9c0,0.1,0,0.1-0.1,0.2c-0.2,0.2-0.9,0.5-1.2,0.6
		c-0.4,0.1-0.8,0.3-1.1,0.5C228.4,289.2,228.4,289.1,228.4,288.9 M232.2,291c-0.4,0-0.6,0.6-1.6,0.6c-0.3,0-0.7-0.1-1-0.2
		c-0.6-0.3-0.8-0.6-1.1-1.2l3.2-1.4c0.3-0.1,0.6-0.4,0.6-0.7c0-0.3-0.2-0.7-0.4-1c-0.5-0.6-1-0.9-1.8-0.9c-1.9,0-3.2,1.7-3.2,3.5
		s1.3,3.2,3.1,3.2c0.7,0,1.4-0.2,1.9-0.7c0.2-0.2,0.6-0.6,0.6-0.9C232.5,291.1,232.4,291,232.2,291"/>
	<path class="st4" d="M246.4,290.2c-0.8,0-1-1-1-1.7c0-0.6,0.2-1.5,1-1.5c0.8,0,1.1,1,1.1,1.6C247.5,289.4,247.2,290.2,246.4,290.2
		 M249.7,286.1c-0.6,0-0.9,0.4-1.2,0.9c-0.6-0.6-1.2-0.8-2.1-0.8c-1.5,0-2.7,0.9-2.7,2.5c0,1,0.3,1.5,1.2,2
		c-0.5,0.4-1.3,1.1-1.3,1.8c0,0.3,0.1,0.5,0.4,0.6c0.5,0.2,1.5,0.2,2.1,0.2c0.4,0,1.3,0,1.8,0.2c0.2,0.1,0.5,0.3,0.5,0.5
		c0,0.7-1,0.8-1.5,0.8c-0.7,0-1.3-0.1-1.8-0.6c-0.2-0.2-0.3-0.4-0.6-0.4c-0.4,0-0.7,0.5-0.7,0.9c0,0.9,1.6,1.1,2.2,1.1
		c1.5,0,3.5-0.4,3.5-2.3c0-1.5-1.5-1.4-2.6-1.5c-0.3,0-0.7,0-1,0c-0.1,0-0.6,0-0.6-0.2c0-0.3,0.2-0.5,0.4-0.7c0.3,0,0.6,0.1,0.8,0.1
		c1.5,0,2.6-0.9,2.6-2.4c0-0.2,0-0.4,0-0.6c0-0.1-0.1-0.3-0.1-0.5s0.1-0.3,0.2-0.3c0.3,0,0.3,0.4,0.6,0.4c0.4,0,0.6-0.4,0.6-0.7
		C250.5,286.6,250.2,286.1,249.7,286.1"/>
	<path class="st4" d="M258.5,291.6c-0.2,0-0.4,0.1-0.5,0.1c-0.3,0-0.3-0.5-0.3-0.7v-2.2c0-0.7,0-1.3-0.4-1.8c-0.4-0.5-1-0.8-1.6-0.8
		c-0.8,0-1.5,0.4-2.1,0.9c0-0.5,0-0.8-0.6-0.8h-1.6c-0.3,0-0.5,0.1-0.5,0.4c0,0.2,0.2,0.3,0.4,0.4c0.6,0.1,0.7,0.2,0.7,0.9v3.1
		c0,0.6-0.1,0.7-0.6,0.9c-0.2,0-0.4,0.2-0.4,0.4c0,0.3,0.3,0.4,0.6,0.4c0.4,0,0.9-0.1,1.3-0.1s0.9,0.1,1.3,0.1
		c0.3,0,0.6-0.1,0.6-0.4c0-0.2-0.2-0.3-0.4-0.4c-0.6-0.1-0.6-0.3-0.6-0.9v-3c0.4-0.4,0.8-0.7,1.4-0.7c0.9,0,1,0.9,1,1.6v2.4
		c0,0.7,0.4,1.4,1.2,1.4c0.5,0,1.6-0.4,1.6-1C258.8,291.7,258.7,291.6,258.5,291.6"/>
	<path class="st4" d="M235.2,288c-0.1-0.1-0.4-0.3-0.3-0.7c0.2-0.3,0.7-0.3,1.4,0.1c0.4,0.2,0.7,0.6,0.9,0.6c0.2,0,0.4-0.3,0.5-0.8
		c0.1-0.3-0.2-0.5-0.6-0.7c-0.4-0.2-0.9-0.3-1.3-0.3c-0.5,0-1.1,0.2-1.6,0.5c-0.3,0.3-0.7,0.7-0.7,1.3c0,1,1.3,1.8,1.9,2.3
		c0.3,0.2,1.1,0.7,1.1,1.2c0,0.4-0.3,0.5-0.6,0.5c-0.5,0-1.1-0.3-1.4-0.7c0,0-0.2-0.3-0.3-0.4c-0.1-0.1-0.2-0.1-0.2-0.1
		c-0.3,0-0.7,0.7-0.7,1c0,0.6,1.1,0.9,1.5,1c0.3,0.1,0.6,0.1,0.9,0.1c1.1,0,2.3-0.8,2.3-1.8c0-0.5-0.4-1-0.6-1.3
		C236.7,289,236,288.6,235.2,288"/>
	<path class="st4" d="M232.7,277c-0.5-0.1-0.6-0.4-0.6-1l0-4c0-0.4,0-0.7-0.5-0.7h-1.9c-0.3,0-0.4,0.1-0.4,0.4
		c0,0.2,0.2,0.3,0.4,0.4c0.6,0.1,0.7,0.2,0.7,0.9v3c-0.4,0.3-0.8,0.6-1.4,0.6c-0.9,0-1.1-0.7-1.1-1.5l0-3.1c0-0.4,0-0.7-0.5-0.7
		h-1.9c-0.3,0-0.4,0.1-0.4,0.4c0,0.2,0.2,0.3,0.4,0.4c0.6,0.1,0.7,0.2,0.7,0.9l0,2.5c0,1.4,0.8,2.3,2.2,2.3c0.8,0,1.4-0.4,2-1
		c0.1,0.4,0.1,0.9,0.6,0.9c0.3,0,0.5-0.1,0.8-0.1h0.9c0.2,0,0.4-0.1,0.4-0.4C233.1,277.2,233,277.1,232.7,277"/>
	<path class="st4" d="M242.3,292.1c-0.6-0.1-0.6-0.3-0.6-0.9V287c0-0.5,0-0.6-0.5-0.6h-1.8c-0.3,0-0.5,0.1-0.5,0.4
		c0,0.2,0.2,0.3,0.4,0.4c0.6,0.1,0.7,0.2,0.7,0.9v3.1c0,0.6-0.1,0.7-0.6,0.9c-0.2,0-0.4,0.2-0.4,0.4c0,0.3,0.3,0.4,0.6,0.4
		c0.4,0,0.9-0.1,1.3-0.1c0.4,0,0.9,0.1,1.3,0.1c0.3,0,0.6-0.1,0.6-0.4C242.7,292.2,242.5,292.1,242.3,292.1"/>
	<path class="st4" d="M239.7,283.9c0,0.5,0.6,1.1,1,1.1c0.4,0,1.1-0.7,1.1-1.1s-0.6-1.1-1-1.1C240.4,282.8,239.7,283.4,239.7,283.9"
		/>
	<path class="st4" d="M218.9,270.4c0-1,0.2-1.8,1.3-1.8c1,0,1.8,0.7,1.8,1.8c0,0.7-0.4,1.4-1.1,1.7c-0.4,0.1-0.7,0.1-1.1,0.1
		c-0.3,0-0.6,0-0.9,0V270.4z M216.9,269.2c0,0.2,0,0.4,0,0.6v5.7c0,1.2-0.3,1.3-0.9,1.4c-0.3,0.1-0.5,0.2-0.5,0.4
		c0,0.3,0.3,0.4,0.6,0.4c0.5,0,1.3-0.1,1.7-0.1s1.3,0.1,1.7,0.1c0.3,0,0.6-0.1,0.6-0.4c0-0.3-0.2-0.3-0.5-0.4
		c-0.6-0.2-0.9-0.3-0.9-1.4v-2.4c0.1,0,0.3,0,0.4,0c0.5,0,0.7,0.2,1,0.6c0.1,0.1,0.3,0.3,0.4,0.5l1.2,2.1c0.3,0.5,0.7,1.1,1.3,1.3
		c0.4,0.2,0.9,0.2,1.4,0.2c0.3,0,0.9,0,0.9-0.4c0-0.2-0.1-0.3-0.3-0.4l-0.6-0.3c-0.2-0.1-0.4-0.4-0.5-0.6c-0.3-0.4-0.6-0.9-0.9-1.3
		c-0.2-0.3-0.4-0.7-0.7-1c-0.4-0.6-0.5-0.7-1.1-0.9c0.7-0.1,1.2-0.3,1.8-0.7c0.6-0.5,0.9-1.1,0.9-1.8c0-1.8-1.6-2.7-3.2-2.7
		c-0.9,0-1.8,0.1-2.7,0.1c-0.6,0-1.3-0.1-1.9-0.1c-0.3,0-0.7,0-0.7,0.4C215.5,268.7,216.7,268.4,216.9,269.2"/>
	<path class="st4" d="M220.8,292c-0.5,0-1.1-0.1-1.5-0.5c-0.4-0.5-0.4-1.4-0.4-2v-4c0-0.5-0.1-1.4,0.3-1.7c0.3-0.3,0.7-0.4,1.1-0.4
		c2.5,0,4.1,2.5,4.1,4.7C224.3,290.2,223,292,220.8,292 M221,282.6c-1,0-1.9,0.1-2.9,0.1c-0.7,0-1.4-0.1-2.1-0.1
		c-0.3,0-0.7,0.1-0.7,0.5c0,0.4,0.6,0.4,0.9,0.5c0.7,0.2,0.6,1.2,0.6,1.8v4.9c0,0.4,0,1-0.3,1.3c-0.3,0.3-1.1,0.3-1.1,0.7
		c0,0.4,0.5,0.5,0.8,0.5c0.5,0,1-0.1,1.5-0.1c0.7,0,1.6,0.1,2.3,0.1c1.1,0,2.6-0.3,3.6-0.9c0.5-0.3,0.9-0.7,1.2-1.1
		c0.7-1,1.2-2.2,1.2-3.4C226.2,284.5,223.8,282.6,221,282.6"/>
	<path class="st4" d="M259.5,256.3H258c-0.2,0-0.4,0.2-0.4,0.4c0,0.5,0.7,0.3,0.7,0.8c0,0.3-0.1,0.6-0.2,0.9
		c-0.3,0.9-0.7,1.8-1.1,2.6l-1.1-2.6c-0.1-0.3-0.3-0.6-0.3-0.8c0-0.5,0.7-0.3,0.7-0.8c0-0.2-0.1-0.4-0.4-0.4h-2.5
		c-0.3,0-0.5,0.1-0.5,0.4c0,0.3,0.3,0.4,0.5,0.6c0.2,0.2,0.3,0.5,0.4,0.8l1.9,4.4c0.2,0.3,0.4,0.6,0.8,0.6c0.3,0,0.6-0.2,0.7-0.5
		c0.6-1.2,1.2-2.6,1.7-3.8c0.1-0.2,0.4-1.3,0.6-1.5c0.2-0.1,0.5-0.2,0.5-0.5C259.9,256.6,259.9,256.3,259.5,256.3"/>
	<path class="st4" d="M233.9,257.2c0.5,0,1,0.3,1,0.9c0,0.1,0,0.2-0.1,0.2c-0.2,0.2-0.9,0.5-1.2,0.6c-0.4,0.1-0.8,0.3-1.1,0.5
		c0-0.1,0-0.3,0-0.4C232.5,258.1,232.9,257.2,233.9,257.2 M234.2,262.9c0.7,0,1.4-0.2,1.9-0.7c0.2-0.2,0.6-0.6,0.6-0.9
		c0-0.2-0.1-0.3-0.3-0.3c-0.4,0-0.6,0.6-1.6,0.6c-0.3,0-0.7-0.1-1-0.2c-0.6-0.3-0.8-0.6-1.1-1.2l3.2-1.4c0.3-0.1,0.6-0.4,0.6-0.7
		c0-0.3-0.2-0.7-0.4-1c-0.5-0.6-1-0.9-1.8-0.9c-1.9,0-3.2,1.7-3.2,3.5S232.4,262.9,234.2,262.9"/>
	<path class="st4" d="M261.4,258.9c0-0.8,0.4-1.8,1.4-1.8c0.5,0,1,0.3,1,0.9c0,0.1,0,0.1-0.1,0.2c-0.2,0.2-0.9,0.5-1.2,0.6
		c-0.4,0.1-0.8,0.3-1.1,0.5C261.4,259.2,261.4,259.1,261.4,258.9 M265.3,261c-0.4,0-0.6,0.6-1.6,0.6c-0.3,0-0.7-0.1-1-0.2
		c-0.6-0.3-0.8-0.6-1.1-1.2l3.2-1.4c0.3-0.1,0.6-0.4,0.6-0.7c0-0.3-0.2-0.7-0.4-1c-0.5-0.6-1-0.9-1.8-0.9c-1.9,0-3.2,1.7-3.2,3.5
		s1.3,3.2,3.1,3.2c0.7,0,1.4-0.2,1.9-0.7c0.2-0.2,0.6-0.6,0.6-0.9C265.6,261.1,265.5,261,265.3,261"/>
	<path class="st4" d="M244.9,257.3v3.2c0,0.6,0,1.4,0.4,1.8c0.4,0.5,1,0.6,1.6,0.6c0.4,0,1.7-0.2,1.7-0.8c0-0.2-0.2-0.3-0.4-0.3
		c-0.2,0-0.4,0.1-0.6,0.1c-0.9,0-1-0.9-1-1.7v-2.9h1.2c0.3,0,0.5-0.1,0.5-0.5s-0.2-0.5-0.5-0.5h-1.2l0-1.3c0-0.3-0.1-0.6-0.4-0.6
		c-0.4,0-0.5,0.4-0.6,0.7c-0.2,0.5-0.6,0.9-1.1,1.2c-0.2,0.1-0.6,0.2-0.6,0.6C243.9,257.4,244.6,257.3,244.9,257.3"/>
	<path class="st4" d="M220.7,262.9c1,0,2-0.3,2.9-0.8c0.4-0.2,1.4-0.9,1.4-1.4c0-0.2-0.2-0.4-0.4-0.4c-0.3,0.1-0.6,0.4-1.2,0.7
		c-0.5,0.2-1.3,0.4-1.8,0.4c-2.3,0-4-1.8-4-4.1c0-2,1.3-3.6,3.4-3.6c0.7,0,2.4,0.3,2.4,1.3c0,0.2-0.2,0.4-0.2,0.6
		c0,0.2,0.2,0.4,0.4,0.4c0.5,0,1.4-1.2,1.4-1.7c0-0.2-0.1-0.4-0.2-0.6c-0.1-0.1-0.3-0.3-0.4-0.3c-0.8-0.6-2.1-0.8-3-0.8
		c-3.1,0-5.6,2.2-5.6,5.4C215.7,260.8,217.8,262.9,220.7,262.9"/>
	<path class="st4" d="M225.7,257.1c0.6,0.1,0.7,0.2,0.7,0.9v3.1c0,0.6-0.1,0.7-0.6,0.9c-0.2,0-0.4,0.2-0.4,0.4
		c0,0.3,0.3,0.4,0.6,0.4c0.4,0,0.9-0.1,1.3-0.1s0.9,0.1,1.3,0.1c0.3,0,0.6-0.1,0.6-0.4c0-0.2-0.2-0.3-0.4-0.4
		c-0.6-0.1-0.6-0.3-0.6-0.9v-2.8c0.2-0.4,0.5-0.8,1-0.8c0.5,0,0.7,0.5,0.9,0.5c0.6,0,0.7-0.8,0.7-1.2c0-0.6-0.3-0.8-0.8-0.8
		c-0.8,0-1.4,0.6-1.9,1.1c0-0.5,0-0.9-0.7-0.9h-1.6c-0.3,0-0.5,0.1-0.5,0.4C225.4,257,225.5,257.1,225.7,257.1"/>
	<path class="st4" d="M241.1,261c-0.2,0.3-0.7,0.7-1.2,0.7c-0.5,0-0.8-0.4-0.8-0.9c0-0.5,0.6-0.9,1-1l1-0.5V261z M243.8,262.4
		c0-0.3-0.3-0.3-0.5-0.4c-0.3-0.1-0.4-0.2-0.4-0.9v-2.8c0-0.6-0.1-1.2-0.6-1.6c-0.4-0.4-1-0.5-1.6-0.5c-0.9,0-1.8,0.5-2.4,1
		c-0.3,0.3-0.3,0.4,0,0.6c0.2,0.2,0.5,0.2,0.8,0c0.3-0.2,0.9-0.5,1.3-0.5c0.6,0,1,0.4,0.9,1.2l-1.5,0.6c-0.9,0.4-2.2,1-2.2,2.2
		c0,1,0.9,1.6,1.8,1.6c0.9,0,1.5-0.4,2-1c0.2,1,1,1,1.5,1C243,262.9,243.8,262.9,243.8,262.4"/>
	<path class="st4" d="M249.4,257.1c0.6,0.1,0.7,0.2,0.7,0.9v3.1c0,0.6-0.1,0.7-0.6,0.9c-0.2,0-0.4,0.2-0.4,0.4
		c0,0.3,0.3,0.4,0.6,0.4c0.4,0,0.9-0.1,1.3-0.1s0.9,0.1,1.3,0.1c0.3,0,0.6-0.1,0.6-0.4c0-0.2-0.2-0.3-0.4-0.4
		c-0.6-0.1-0.6-0.3-0.6-0.9V257c0-0.5,0-0.6-0.5-0.6h-1.8c-0.3,0-0.5,0.1-0.5,0.4C249,257,249.2,257.1,249.4,257.1"/>
	<path class="st4" d="M250.9,255c0.4,0,1-0.7,1-1.1s-0.6-1.1-1-1.1c-0.3,0-1.1,0.6-1.1,1.1C249.9,254.3,250.5,255,250.9,255"/>
</g>
<rect x="65.6" y="160.8" class="st5" width="0.8" height="60"/>
<rect x="137.6" y="160.8" class="st5" width="0.8" height="60"/>
<rect x="209.6" y="160.8" class="st5" width="0.8" height="60"/>
<g>
	<defs>
		<rect id="SVGID_7_" width="276.8" height="295.7"/>
	</defs>
	<clipPath id="SVGID_8_">
		<use xlink:href="#SVGID_7_"  style="overflow:visible;"/>
	</clipPath>
	<path class="st6" d="M174,217.5c-14.8,0-26.8-12-26.8-26.8c0-14.8,12-26.8,26.8-26.8c14.8,0,26.8,12,26.8,26.8
		C200.8,205.5,188.8,217.5,174,217.5 M174,160c-17,0-30.8,13.8-30.8,30.8s13.8,30.8,30.8,30.8s30.8-13.8,30.8-30.8S191,160,174,160"
		/>
</g>
<polygon class="st5" points="0,160.7 0,220.7 12,220.7 12,199.8 57,199.8 57,187.7 12,187.7 12,172.8 60,172.8 60,160.7 "/>
<polygon class="st5" points="84,208.7 84,160.7 72,160.7 72,220.7 132,220.7 132,208.7 "/>
<g>
	<defs>
		<rect id="SVGID_9_" width="276.8" height="295.7"/>
	</defs>
	<clipPath id="SVGID_10_">
		<use xlink:href="#SVGID_9_"  style="overflow:visible;"/>
	</clipPath>
	<path class="st7" d="M228,172.7h27.8c5,0,9,4,9,9c0,5-4,9-9,9H228V172.7z M276.8,181.7c0-11.6-9.4-21-21-21H216v60h12v-18h21.5
		l18,18h8.5v-8.5l-11.4-11.4C271.8,197.5,276.8,190.2,276.8,181.7"/>
	<path class="st7" d="M272.7,162.7c0,1.1,0.9,2,2,2c1.1,0,2-0.9,2-2c0-1.1-0.9-2-2-2C273.6,160.7,272.7,161.6,272.7,162.7
		 M273.2,162.7c0-0.9,0.7-1.6,1.6-1.6c0.9,0,1.6,0.7,1.6,1.6c0,0.9-0.7,1.6-1.6,1.6C273.9,164.3,273.2,163.6,273.2,162.7 M275.3,163
		L275.3,163c0.3-0.2,0.4-0.4,0.4-0.7c0-0.4-0.3-0.7-0.7-0.7h-1.1l-0.1,0.1v2.1l0.1,0.1h0.3l0.1-0.1V163l0.1-0.1h0.3l0.1,0.1l0.6,0.8
		l0.1,0.1h0.2l0.1-0.1v-0.3L275.3,163z M275.3,162.3c0,0.2-0.1,0.3-0.3,0.3h-0.7l-0.1-0.1v-0.4l0.1-0.1h0.7
		C275.2,162,275.3,162.1,275.3,162.3"/>
</g>
<g>
</g>
<g>
</g>
<g>
</g>
<g>
</g>
<g>
</g>
<g>
</g>
</svg>
