<?xml version="1.0" encoding="utf-8"?>
<!-- Generator: Adobe Illustrator 19.1.0, SVG Export Plug-In . SVG Version: 6.00 Build 0)  -->
<svg version="1.1" id="Layer_1" xmlns="http://www.w3.org/2000/svg" xmlns:xlink="http://www.w3.org/1999/xlink" x="0px" y="0px"
	 viewBox="0 0 372 185.1" style="enable-background:new 0 0 372 185.1;" xml:space="preserve">
<style type="text/css">
	.st0{fill:#363D39;}
	.st1{fill:none;stroke:#F2BE1A;stroke-width:1.5;}
	.st2{clip-path:url(#SVGID_2_);fill:none;stroke:#F2BE1A;stroke-width:1.5;}
</style>
<polygon class="st0" points="250,28.5 307.5,28.5 247.7,147.1 263.2,154.1 325.4,31.4 325.4,12.3 227.5,12.3 227.5,56.8 243.5,56.8 
	243.5,35 "/>
<line class="st1" x1="180.9" y1="72" x2="134" y2="72"/>
<polyline class="st1" points="176.4,67.8 180.9,72 176.4,76.2 "/>
<g>
	<defs>
		<rect id="SVGID_1_" width="372" height="185.1"/>
	</defs>
	<clipPath id="SVGID_2_">
		<use xlink:href="#SVGID_1_"  style="overflow:visible;"/>
	</clipPath>
	<circle class="st2" cx="33" cy="120" r="23.2"/>
	<circle class="st2" cx="241" cy="24" r="23.2"/>
</g>
<polygon class="st0" points="88.5,32.8 88.5,14 86.8,12.3 11.6,12.3 9.8,14 9.8,31.1 11.6,32.8 62.8,32.8 62.8,34.5 23.5,113.2 
	23.5,130.3 25.2,132 38.9,132 40.6,130.3 "/>
<g>
	<path class="st0" d="M12.9,163.8L12.9,163.8l1.1,1.8v0.6l-0.1,0.1h-0.3l-0.2-0.1l-1.4-2.2l-0.2-0.1h-1.3l-0.1,0.1v2.2l-0.1,0.1H9.8
		l-0.1-0.1v-5.4l0.1-0.1h2.5c1.1,0,1.8,0.5,1.8,1.6C14.1,163.2,13.7,163.7,12.9,163.8z M12.3,161.4h-1.7l-0.1,0.1v1.6l0.1,0.1h1.7
		c0.7,0,1-0.2,1-0.9S13,161.4,12.3,161.4z"/>
	<path class="st0" d="M14.8,164.3c0-1.1,0.6-2.1,1.8-2.1s1.8,1,1.8,2.1v0.2l-0.1,0.1h-2.6l-0.1,0.1c0,0.2,0.1,1,1,1
		c0.3,0,0.6-0.1,0.8-0.5l0.1-0.1h0.6l0.1,0.1c-0.1,0.6-0.6,1.2-1.6,1.2C15.4,166.4,14.8,165.5,14.8,164.3z M17.6,163.9
		c0-0.2-0.1-1-1-1c-0.9,0-1,0.7-1,1l0.1,0.1L17.6,163.9L17.6,163.9z"/>
	<path class="st0" d="M21.3,166.4c-0.7,0-1-0.5-1-0.5h-0.1v1.9l-0.1,0.1h-0.6l-0.1-0.1v-5.4l0.1-0.1H20l0.1,0.1l0.1,0.3h0.1
		c0,0,0.3-0.5,1-0.5c1.1,0,1.8,0.9,1.8,2.1S22.4,166.4,21.3,166.4z M21.2,162.9c-0.6,0-1,0.4-1,1.4c0,1,0.4,1.4,1,1.4s1-0.5,1-1.4
		S21.9,162.9,21.2,162.9z"/>
	<path class="st0" d="M24.7,166.3h-0.6l-0.1-0.1v-5.4l0.1-0.1h0.6l0.1,0.1L24.7,166.3L24.7,166.3z"/>
	<path class="st0" d="M26.7,161.7H26l-0.1-0.1v-0.6l0.1-0.1h0.6l0.1,0.1L26.7,161.7L26.7,161.7z M26.7,166.3H26l-0.1-0.1v-3.8
		l0.1-0.1h0.6l0.1,0.1L26.7,166.3L26.7,166.3z"/>
	<path class="st0" d="M29.6,165.7c0.6,0,0.9-0.3,1-0.6l0.1-0.1h0.6l0.1,0.1c-0.1,0.7-0.6,1.4-1.8,1.4c-1.2,0-1.9-0.8-1.9-2.1
		s0.7-2.1,1.9-2.1c1.1,0,1.7,0.6,1.8,1.4l-0.1,0.1h-0.6l-0.1-0.1c-0.1-0.3-0.3-0.6-1-0.6c-0.7,0-1.1,0.5-1.1,1.4
		S28.9,165.7,29.6,165.7z"/>
	<path class="st0" d="M35.3,166.3h-0.6l-0.1-0.1l-0.1-0.3h-0.1c0,0-0.3,0.5-1.1,0.5c-0.9,0-1.4-0.5-1.4-1.3c0-0.9,0.7-1.3,1.8-1.3
		c0.4,0,0.7,0.1,0.7,0.1l0.1-0.1v-0.2c0-0.6-0.2-0.7-0.8-0.7s-0.8,0.2-0.8,0.5l-0.1,0.1h-0.6l-0.1-0.1c0-0.6,0.4-1.2,1.6-1.2
		s1.6,0.6,1.6,1.8L35.3,166.3L35.3,166.3z M34.6,164.6L34.6,164.6c-0.1-0.1-0.3-0.2-0.7-0.2c-0.7,0-1,0.2-1,0.6
		c0,0.4,0.2,0.6,0.7,0.6c0.6,0,1-0.3,1-0.8V164.6z"/>
	<path class="st0" d="M41.5,163.9h-1.7l-0.1,0.1v2.2l-0.1,0.1H39l-0.1-0.1v-5.4l0.1-0.1h2.5c1.1,0,1.8,0.5,1.8,1.6
		S42.5,163.9,41.5,163.9z M41.5,161.4h-1.7l-0.1,0.1v1.6l0.1,0.1h1.7c0.7,0,1-0.2,1-0.9S42.2,161.4,41.5,161.4z"/>
	<path class="st0" d="M46.4,163H46c-0.6,0-1,0.2-1,1.2v2l-0.1,0.1h-0.6l-0.1-0.1v-3.8l0.1-0.1h0.6l0.1,0.1l0.1,0.3H45
		c0.2-0.2,0.5-0.4,1-0.4h0.3l0.1,0.1L46.4,163L46.4,163z"/>
	<path class="st0" d="M48.8,162.2c1.2,0,1.9,0.8,1.9,2.1s-0.7,2.1-1.9,2.1c-1.2,0-1.9-0.8-1.9-2.1S47.6,162.2,48.8,162.2z
		 M48.8,165.7c0.7,0,1.1-0.5,1.1-1.4s-0.4-1.4-1.1-1.4c-0.7,0-1.1,0.5-1.1,1.4S48,165.7,48.8,165.7z"/>
</g>
<g>
	<path class="st0" d="M234.3,163.9h-1.7l-0.1,0.1v2.2l-0.1,0.1h-0.6l-0.1-0.1v-5.4l0.1-0.1h2.5c1.1,0,1.8,0.5,1.8,1.6
		S235.3,163.9,234.3,163.9z M234.3,161.4h-1.7l-0.1,0.1v1.6l0.1,0.1h1.7c0.7,0,1-0.2,1-0.9S235,161.4,234.3,161.4z"/>
	<path class="st0" d="M237.7,161.7H237l-0.1-0.1v-0.6l0.1-0.1h0.6l0.1,0.1L237.7,161.7L237.7,161.7z M237.7,166.3H237l-0.1-0.1v-3.8
		l0.1-0.1h0.6l0.1,0.1L237.7,166.3L237.7,166.3z"/>
	<path class="st0" d="M241.1,166.3h-0.6c-0.6,0-1.1-0.3-1.1-1v-2.2l-0.1-0.1h-0.6l-0.1-0.1v-0.6l0.1-0.1h0.6l0.1-0.1v-0.7l0.1-0.1
		h0.6l0.1,0.1v0.7l0.1,0.1h0.9l0.1,0.1v0.6l-0.1,0.1h-0.9l-0.1,0.1v2.2c0,0.2,0.2,0.3,0.3,0.3h0.6l0.1,0.1L241.1,166.3L241.1,166.3z
		"/>
	<path class="st0" d="M243.7,165.7c0.6,0,0.9-0.3,1-0.6l0.1-0.1h0.6l0.1,0.1c-0.1,0.7-0.6,1.4-1.8,1.4c-1.2,0-1.9-0.8-1.9-2.1
		s0.7-2.1,1.9-2.1c1.1,0,1.7,0.6,1.8,1.4l-0.1,0.1h-0.6l-0.1-0.1c-0.1-0.3-0.3-0.6-1-0.6c-0.7,0-1.1,0.5-1.1,1.4
		S243,165.7,243.7,165.7z"/>
	<path class="st0" d="M249.7,166.3h-0.6l-0.1-0.1v-2.3c0-0.5-0.2-1-0.8-1c-0.6,0-1,0.3-1,1.3v2l-0.1,0.1h-0.6l-0.1-0.1v-5.4l0.1-0.1
		h0.6l0.1,0.1v1.9h0.1c0,0,0.3-0.5,1-0.5c1.2,0,1.5,0.8,1.5,1.7L249.7,166.3L249.7,166.3z"/>
</g>
<g>
</g>
<g>
</g>
<g>
</g>
<g>
</g>
<g>
</g>
<g>
</g>
</svg>
