<?xml version="1.0" encoding="utf-8"?>
<!-- Generator: Adobe Illustrator 19.1.0, SVG Export Plug-In . SVG Version: 6.00 Build 0)  -->
<svg version="1.1" id="Layer_1" xmlns="http://www.w3.org/2000/svg" xmlns:xlink="http://www.w3.org/1999/xlink" x="0px" y="0px"
	 viewBox="0 0 133.5 132.8" style="enable-background:new 0 0 133.5 132.8;" xml:space="preserve">
<style type="text/css">
	.st0{fill:#363D39;}
	.st1{clip-path:url(#SVGID_2_);fill:#363D39;}
	.st2{clip-path:url(#SVGID_4_);fill:#363D39;}
</style>
<rect x="66.4" y="0" class="st0" width="0.8" height="132"/>
<rect x="0.8" y="65.6" class="st0" width="132" height="0.8"/>
<g>
	<defs>
		<rect id="SVGID_1_" y="0" width="133.5" height="132.8"/>
	</defs>
	<clipPath id="SVGID_2_">
		<use xlink:href="#SVGID_1_"  style="overflow:visible;"/>
	</clipPath>
	<path class="st1" d="M30.8,128.8C16,128.8,4,116.8,4,102c0-14.8,12-26.8,26.8-26.8s26.8,12,26.8,26.8
		C57.5,116.8,45.5,128.8,30.8,128.8 M30.8,71.3C13.8,71.3,0,85,0,102s13.8,30.8,30.8,30.8S61.5,119,61.5,102S47.7,71.3,30.8,71.3"/>
</g>
<polygon class="st0" points="0.7,0 0.7,60 12.8,60 12.8,39 57.8,39 57.8,27 12.8,27 12.8,12 60.7,12 60.7,0 "/>
<polygon class="st0" points="72.7,0 72.7,60 132.7,60 132.7,48 84.8,48 84.8,0 "/>
<g>
	<defs>
		<rect id="SVGID_3_" y="0" width="133.5" height="132.8"/>
	</defs>
	<clipPath id="SVGID_4_">
		<use xlink:href="#SVGID_3_"  style="overflow:visible;"/>
	</clipPath>
	<path class="st2" d="M84.8,84h27.8c5,0,9,4,9,9c0,5-4,9-9,9H84.8V84z M133.5,93c0-11.6-9.4-21-21-21H72.8v60h12v-18h21.5l18,18h8.5
		v-8.5l-11.4-11.4C128.5,108.7,133.5,101.5,133.5,93"/>
	<path class="st2" d="M129.5,74c0,1.1,0.9,2,2,2c1.1,0,2-0.9,2-2c0-1.1-0.9-2-2-2C130.4,72,129.5,72.9,129.5,74 M129.9,74
		c0-0.9,0.7-1.6,1.6-1.6c0.9,0,1.6,0.7,1.6,1.6c0,0.9-0.7,1.6-1.6,1.6C130.6,75.6,129.9,74.9,129.9,74 M132.1,74.2L132.1,74.2
		c0.3-0.2,0.4-0.4,0.4-0.7c0-0.4-0.3-0.7-0.7-0.7h-1.1l-0.1,0.1v2.1l0.1,0.1h0.3l0.1-0.1v-0.8l0.1-0.1h0.3l0.1,0.1l0.6,0.8l0.1,0.1
		h0.2l0.1-0.1v-0.3L132.1,74.2z M132.1,73.6c0,0.2-0.1,0.3-0.3,0.3h-0.7l-0.1-0.1v-0.4l0.1-0.1h0.7
		C131.9,73.3,132.1,73.4,132.1,73.6"/>
</g>
<g>
</g>
<g>
</g>
<g>
</g>
<g>
</g>
<g>
</g>
<g>
</g>
</svg>
