<?xml version="1.0" encoding="utf-8"?>
<!-- Generator: Adobe Illustrator 19.1.0, SVG Export Plug-In . SVG Version: 6.00 Build 0)  -->
<svg version="1.1" id="Layer_1" xmlns="http://www.w3.org/2000/svg" xmlns:xlink="http://www.w3.org/1999/xlink" x="0px" y="0px"
	 viewBox="0 0 266.8 360" style="enable-background:new 0 0 266.8 360;" xml:space="preserve">
<style type="text/css">
	.st0{fill:#BCC0BC;}
	.st1{clip-path:url(#SVGID_2_);fill:#BCC0BC;}
	.st2{clip-path:url(#SVGID_4_);fill:#BCC0BC;}
	.st3{fill:#363D39;}
	.st4{clip-path:url(#SVGID_6_);fill:#363D39;}
	.st5{clip-path:url(#SVGID_8_);fill:#363D39;}
	.st6{clip-path:url(#SVGID_10_);fill:#363D39;}
	.st7{clip-path:url(#SVGID_12_);fill:#363D39;}
	.st8{clip-path:url(#SVGID_14_);fill:#BCC0BC;}
	.st9{clip-path:url(#SVGID_16_);fill:#BCC0BC;}
	.st10{clip-path:url(#SVGID_18_);fill:#BCC0BC;}
	.st11{clip-path:url(#SVGID_20_);fill:#BCC0BC;}
	.st12{fill:#F2BE1A;}
	.st13{fill:#FFFFFF;}
	.st14{clip-path:url(#SVGID_22_);fill:#FFFFFF;}
	.st15{clip-path:url(#SVGID_24_);fill:#FFFFFF;}
	.st16{clip-path:url(#SVGID_26_);fill:#FFFFFF;}
	.st17{clip-path:url(#SVGID_28_);fill:#FFFFFF;}
</style>
<rect x="100.8" y="71.6" class="st0" width="60" height="0.8"/>
<rect x="100.8" y="143.6" class="st0" width="60" height="0.8"/>
<rect x="100.8" y="215.6" class="st0" width="60" height="0.8"/>
<g>
	<defs>
		<rect id="SVGID_1_" width="266.8" height="360"/>
	</defs>
	<clipPath id="SVGID_2_">
		<use xlink:href="#SVGID_1_"  style="overflow:visible;"/>
	</clipPath>
	<path class="st1" d="M130.8,206.8c-14.8,0-26.8-12-26.8-26.8c0-14.8,12-26.8,26.8-26.8c14.8,0,26.8,12,26.8,26.8
		C157.5,194.8,145.5,206.8,130.8,206.8 M130.8,149.3c-17,0-30.8,13.8-30.8,30.8s13.8,30.8,30.8,30.8s30.8-13.8,30.8-30.8
		S147.7,149.3,130.8,149.3"/>
</g>
<polygon class="st0" points="160.8,18 160.8,6 100.8,6 100.8,66 112.8,66 112.8,45 157.8,45 157.8,33 112.8,33 112.8,18 "/>
<polygon class="st0" points="112.8,126 112.8,78 100.8,78 100.8,138 160.8,138 160.8,126 "/>
<g>
	<defs>
		<rect id="SVGID_3_" width="266.8" height="360"/>
	</defs>
	<clipPath id="SVGID_4_">
		<use xlink:href="#SVGID_3_"  style="overflow:visible;"/>
	</clipPath>
	<path class="st2" d="M112.8,234h27.8c5,0,9,4,9,9c0,5-4,9-9,9h-27.8V234z M161.5,243c0-11.6-9.4-21-21-21h-39.8v60h12v-18h21.5
		l18,18h8.5v-8.5l-11.4-11.4C156.5,258.7,161.5,251.5,161.5,243"/>
</g>
<rect x="0.8" y="71.6" class="st3" width="60" height="0.8"/>
<rect x="0.8" y="143.6" class="st3" width="60" height="0.8"/>
<rect x="0.8" y="215.6" class="st3" width="60" height="0.8"/>
<g>
	<defs>
		<rect id="SVGID_5_" width="266.8" height="360"/>
	</defs>
	<clipPath id="SVGID_6_">
		<use xlink:href="#SVGID_5_"  style="overflow:visible;"/>
	</clipPath>
	<path class="st4" d="M30.8,206.8C16,206.8,4,194.8,4,180c0-14.8,12-26.8,26.8-26.8s26.8,12,26.8,26.8
		C57.5,194.8,45.5,206.8,30.8,206.8 M30.8,149.3C13.8,149.3,0,163,0,180s13.8,30.8,30.8,30.8S61.5,197,61.5,180
		S47.7,149.3,30.8,149.3"/>
</g>
<polygon class="st3" points="0.7,6 0.7,66 12.8,66 12.8,45 57.8,45 57.8,33 12.8,33 12.8,18 60.7,18 60.7,6 "/>
<polygon class="st3" points="0.7,78 0.7,138 60.7,138 60.7,126 12.8,126 12.8,78 "/>
<g>
	<defs>
		<rect id="SVGID_7_" width="266.8" height="360"/>
	</defs>
	<clipPath id="SVGID_8_">
		<use xlink:href="#SVGID_7_"  style="overflow:visible;"/>
	</clipPath>
	<path class="st5" d="M12.8,234h27.8c5,0,9,4,9,9c0,5-4,9-9,9H12.8V234z M61.5,243c0-11.6-9.4-21-21-21H0.8v60h12v-18h21.5l18,18
		h8.5v-8.5l-11.4-11.4C56.5,258.7,61.5,251.5,61.5,243"/>
	<path class="st5" d="M57.5,224c0,1.1,0.9,2,2,2s2-0.9,2-2c0-1.1-0.9-2-2-2S57.5,222.9,57.5,224 M57.9,224c0-0.9,0.7-1.6,1.6-1.6
		s1.6,0.7,1.6,1.6c0,0.9-0.7,1.6-1.6,1.6S57.9,224.9,57.9,224 M60.1,224.2L60.1,224.2c0.3-0.2,0.4-0.4,0.4-0.7
		c0-0.4-0.3-0.7-0.7-0.7h-1.1l-0.1,0.1v2.1l0.1,0.1H59l0.1-0.1v-0.8l0.1-0.1h0.3l0.1,0.1l0.6,0.8l0.1,0.1h0.2l0.1-0.1v-0.3
		L60.1,224.2z M60.1,223.6c0,0.2-0.1,0.3-0.3,0.3h-0.7l-0.1-0.1v-0.4l0.1-0.1h0.7C59.9,223.3,60.1,223.4,60.1,223.6"/>
</g>
<rect x="0.8" y="71.6" class="st3" width="60" height="0.8"/>
<rect x="0.8" y="143.6" class="st3" width="60" height="0.8"/>
<rect x="0.8" y="215.6" class="st3" width="60" height="0.8"/>
<g>
	<defs>
		<rect id="SVGID_9_" width="266.8" height="360"/>
	</defs>
	<clipPath id="SVGID_10_">
		<use xlink:href="#SVGID_9_"  style="overflow:visible;"/>
	</clipPath>
	<path class="st6" d="M30.8,206.8C16,206.8,4,194.8,4,180c0-14.8,12-26.8,26.8-26.8s26.8,12,26.8,26.8
		C57.5,194.8,45.5,206.8,30.8,206.8 M30.8,149.3C13.8,149.3,0,163,0,180s13.8,30.8,30.8,30.8S61.5,197,61.5,180
		S47.7,149.3,30.8,149.3"/>
</g>
<polygon class="st3" points="0.7,6 0.7,66 12.8,66 12.8,45 57.8,45 57.8,33 12.8,33 12.8,18 60.7,18 60.7,6 "/>
<polygon class="st3" points="0.7,78 0.7,138 60.7,138 60.7,126 12.8,126 12.8,78 "/>
<g>
	<defs>
		<rect id="SVGID_11_" width="266.8" height="360"/>
	</defs>
	<clipPath id="SVGID_12_">
		<use xlink:href="#SVGID_11_"  style="overflow:visible;"/>
	</clipPath>
	<path class="st7" d="M12.8,234h27.8c5,0,9,4,9,9c0,5-4,9-9,9H12.8V234z M61.5,243c0-11.6-9.4-21-21-21H0.8v60h12v-18h21.5l18,18
		h8.5v-8.5l-11.4-11.4C56.5,258.7,61.5,251.5,61.5,243"/>
	<path class="st7" d="M21.5,336.5c-0.8,0-1-1-1-1.7c0-0.6,0.2-1.5,1-1.5c0.8,0,1.1,1,1.1,1.6C22.6,335.6,22.3,336.5,21.5,336.5
		 M24.8,332.3c-0.6,0-0.9,0.4-1.2,0.9c-0.6-0.6-1.2-0.8-2.1-0.8c-1.5,0-2.7,0.9-2.7,2.5c0,1,0.3,1.5,1.2,2c-0.5,0.4-1.3,1.1-1.3,1.8
		c0,0.3,0.1,0.5,0.4,0.6c0.5,0.2,1.5,0.2,2.1,0.2c0.4,0,1.4,0,1.8,0.1c0.2,0.1,0.5,0.3,0.5,0.5c0,0.7-1,0.8-1.5,0.8
		c-0.7,0-1.3-0.1-1.8-0.6c-0.2-0.2-0.3-0.4-0.6-0.4c-0.4,0-0.7,0.5-0.7,0.9c0,0.9,1.6,1.1,2.2,1.1c1.5,0,3.5-0.4,3.5-2.3
		c0-1.5-1.5-1.4-2.6-1.5c-0.3,0-0.7,0-1,0c-0.1,0-0.6,0-0.6-0.2c0-0.3,0.2-0.5,0.4-0.7c0.3,0,0.6,0.1,0.8,0.1c1.5,0,2.6-0.9,2.6-2.4
		c0-0.2,0-0.4,0-0.6c0-0.2-0.1-0.3-0.1-0.5c0-0.1,0.1-0.3,0.2-0.3c0.3,0,0.3,0.4,0.6,0.4c0.4,0,0.6-0.4,0.6-0.7
		C25.6,332.8,25.3,332.3,24.8,332.3"/>
	<path class="st7" d="M13.1,350.2c0-0.8,0.4-1.8,1.3-1.8c0.5,0,1.1,0.3,1.1,0.9c0,0.1,0,0.1-0.1,0.2c-0.2,0.2-0.9,0.5-1.2,0.6
		c-0.4,0.2-0.8,0.3-1.1,0.5C13.1,350.5,13.1,350.3,13.1,350.2 M17,352.2c-0.4,0-0.6,0.6-1.6,0.6c-0.3,0-0.7-0.1-1-0.2
		c-0.6-0.3-0.8-0.6-1.1-1.2l3.2-1.4c0.3-0.1,0.6-0.4,0.6-0.7c0-0.3-0.2-0.7-0.4-1c-0.5-0.6-1-0.9-1.8-0.9c-1.9,0-3.2,1.7-3.2,3.5
		c0,1.8,1.3,3.2,3.1,3.2c0.7,0,1.4-0.2,1.9-0.7c0.2-0.2,0.6-0.6,0.6-0.9C17.3,352.4,17.2,352.2,17,352.2"/>
	<path class="st7" d="M31.2,351.5c-0.8,0-1-1-1-1.7c0-0.6,0.2-1.5,1-1.5c0.8,0,1.1,1,1.1,1.6C32.3,350.6,32,351.5,31.2,351.5
		 M34.5,347.3c-0.6,0-0.9,0.4-1.2,0.9c-0.6-0.6-1.2-0.8-2.1-0.8c-1.5,0-2.7,0.9-2.7,2.5c0,1,0.3,1.5,1.2,2c-0.5,0.4-1.3,1.1-1.3,1.8
		c0,0.3,0.1,0.5,0.4,0.6c0.5,0.2,1.5,0.2,2.1,0.2c0.4,0,1.3,0,1.8,0.1c0.2,0.1,0.5,0.3,0.5,0.5c0,0.7-1,0.8-1.5,0.8
		c-0.7,0-1.3-0.1-1.8-0.6c-0.2-0.2-0.3-0.4-0.6-0.4c-0.4,0-0.7,0.5-0.7,0.9c0,0.9,1.6,1.1,2.2,1.1c1.5,0,3.5-0.4,3.5-2.3
		c0-1.5-1.5-1.4-2.6-1.5c-0.3,0-0.7,0-1,0c-0.1,0-0.6,0-0.6-0.2c0-0.3,0.2-0.5,0.4-0.7c0.3,0,0.6,0.1,0.8,0.1c1.5,0,2.6-0.9,2.6-2.4
		c0-0.2,0-0.4,0-0.6c0-0.1-0.1-0.3-0.1-0.5s0.1-0.3,0.2-0.3c0.3,0,0.3,0.4,0.6,0.4c0.4,0,0.6-0.4,0.6-0.7
		C35.2,347.8,34.9,347.3,34.5,347.3"/>
	<path class="st7" d="M43.2,352.8c-0.2,0-0.4,0.1-0.5,0.1c-0.3,0-0.3-0.5-0.3-0.7v-2.2c0-0.7,0-1.3-0.4-1.8c-0.4-0.5-1-0.8-1.6-0.8
		c-0.8,0-1.5,0.4-2.1,0.9c0-0.5,0-0.8-0.6-0.8H36c-0.3,0-0.5,0.1-0.5,0.4c0,0.2,0.2,0.3,0.4,0.4c0.6,0.1,0.7,0.2,0.7,0.9v3.1
		c0,0.6-0.1,0.7-0.6,0.9c-0.2,0-0.4,0.1-0.4,0.4c0,0.3,0.3,0.4,0.6,0.4c0.4,0,0.9-0.1,1.3-0.1c0.4,0,0.9,0.1,1.3,0.1
		c0.3,0,0.6-0.1,0.6-0.4c0-0.2-0.2-0.3-0.4-0.4c-0.6-0.1-0.6-0.3-0.6-0.9v-3c0.4-0.4,0.8-0.7,1.4-0.7c0.9,0,1,0.9,1,1.6v2.4
		c0,0.7,0.4,1.4,1.2,1.4c0.6,0,1.6-0.4,1.6-1C43.5,353,43.4,352.8,43.2,352.8"/>
	<path class="st7" d="M20,349.3c-0.1-0.1-0.4-0.3-0.3-0.7c0.2-0.3,0.7-0.3,1.4,0.1c0.4,0.2,0.7,0.6,1,0.6c0.2,0,0.4-0.3,0.5-0.8
		c0.1-0.3-0.2-0.5-0.6-0.7c-0.4-0.2-0.9-0.3-1.3-0.3c-0.5,0-1.1,0.2-1.6,0.5c-0.3,0.3-0.7,0.7-0.7,1.3c0,1,1.3,1.8,1.9,2.3
		c0.3,0.2,1.1,0.7,1.1,1.2c0,0.4-0.3,0.5-0.6,0.5c-0.5,0-1.1-0.3-1.4-0.7c0,0-0.2-0.3-0.3-0.4c-0.1-0.1-0.2-0.1-0.2-0.1
		c-0.3,0-0.7,0.7-0.7,1c0,0.6,1.1,0.9,1.5,1c0.3,0.1,0.6,0.1,0.9,0.1c1.1,0,2.3-0.8,2.3-1.8c0-0.5-0.4-1-0.6-1.3
		C21.5,350.3,20.7,349.8,20,349.3"/>
	<path class="st7" d="M17.5,338.3c-0.5-0.1-0.6-0.4-0.6-1l0-4c0-0.4,0-0.7-0.5-0.7h-1.9c-0.3,0-0.4,0.1-0.4,0.4
		c0,0.2,0.2,0.3,0.4,0.4c0.6,0.1,0.7,0.2,0.7,0.9v3c-0.4,0.3-0.8,0.6-1.4,0.6c-0.9,0-1.1-0.7-1.1-1.5v-3.1c0-0.4,0-0.7-0.5-0.7h-1.9
		c-0.3,0-0.4,0.1-0.4,0.4c0,0.2,0.2,0.3,0.4,0.4c0.6,0.1,0.7,0.2,0.7,0.9v2.5c0,1.4,0.8,2.3,2.2,2.3c0.8,0,1.4-0.4,2-1
		c0.1,0.4,0.1,0.9,0.6,0.9c0.3,0,0.5-0.1,0.7-0.1h0.9c0.2,0,0.4-0.1,0.4-0.4C17.9,338.4,17.7,338.3,17.5,338.3"/>
	<path class="st7" d="M27,353.3c-0.6-0.1-0.6-0.3-0.6-0.9v-4.2c0-0.5,0-0.6-0.5-0.6h-1.8c-0.3,0-0.5,0.1-0.5,0.4
		c0,0.2,0.2,0.3,0.4,0.4c0.6,0.1,0.7,0.2,0.7,0.9v3.1c0,0.6-0.1,0.7-0.6,0.9c-0.2,0-0.4,0.1-0.4,0.4c0,0.3,0.3,0.4,0.6,0.4
		c0.4,0,0.9-0.1,1.3-0.1c0.4,0,0.9,0.1,1.3,0.1c0.3,0,0.6-0.1,0.6-0.4C27.4,353.5,27.2,353.4,27,353.3"/>
	<path class="st7" d="M24.4,345.1c0,0.5,0.6,1.1,1,1.1c0.4,0,1-0.7,1-1.1s-0.6-1.1-1-1.1C25.1,344.1,24.4,344.7,24.4,345.1"/>
	<path class="st7" d="M3.6,331.6c0-1,0.2-1.8,1.3-1.8c1,0,1.8,0.7,1.8,1.8c0,0.7-0.4,1.4-1.1,1.7c-0.4,0.1-0.7,0.1-1.1,0.1
		c-0.3,0-0.6,0-0.9,0V331.6z M1.6,330.5c0,0.2,0,0.4,0,0.6v5.7c0,1.2-0.3,1.3-0.9,1.4c-0.3,0.1-0.5,0.2-0.5,0.4
		c0,0.3,0.3,0.4,0.6,0.4c0.5,0,1.3-0.1,1.7-0.1s1.3,0.1,1.7,0.1c0.3,0,0.6-0.1,0.6-0.4c0-0.3-0.2-0.3-0.5-0.4
		c-0.6-0.2-0.9-0.3-0.9-1.4v-2.4c0.1,0,0.3,0,0.4,0c0.5,0,0.7,0.2,1,0.6c0.1,0.2,0.3,0.3,0.4,0.5l1.2,2.1c0.3,0.5,0.7,1.1,1.3,1.3
		c0.4,0.2,0.9,0.2,1.4,0.2c0.3,0,0.9,0,0.9-0.5c0-0.2-0.1-0.3-0.3-0.4L9.3,338c-0.2-0.1-0.4-0.4-0.5-0.6c-0.3-0.4-0.6-0.9-0.9-1.3
		c-0.2-0.3-0.4-0.7-0.7-1c-0.4-0.6-0.5-0.7-1.1-0.9c0.7-0.1,1.2-0.3,1.8-0.7c0.6-0.5,0.9-1.1,0.9-1.8c0-1.8-1.6-2.7-3.2-2.7
		c-0.9,0-1.8,0.1-2.7,0.1c-0.6,0-1.3-0.1-1.9-0.1c-0.3,0-0.7,0-0.7,0.4C0.2,330,1.5,329.7,1.6,330.5"/>
	<path class="st7" d="M5.5,353.3c-0.5,0-1.1-0.1-1.5-0.5c-0.4-0.5-0.4-1.4-0.4-2v-4c0-0.5-0.1-1.4,0.3-1.7c0.3-0.3,0.7-0.4,1.1-0.4
		c2.5,0,4.1,2.5,4.1,4.7C9,351.5,7.7,353.3,5.5,353.3 M5.8,343.9c-1,0-1.9,0.1-2.9,0.1c-0.7,0-1.4-0.1-2.1-0.1
		c-0.3,0-0.7,0.1-0.7,0.5c0,0.4,0.6,0.4,0.9,0.5c0.7,0.2,0.6,1.2,0.6,1.8v4.9c0,0.4,0,1-0.3,1.3c-0.3,0.3-1.1,0.3-1.1,0.7
		c0,0.4,0.5,0.5,0.8,0.5c0.5,0,1-0.1,1.5-0.1c0.7,0,1.6,0.2,2.3,0.2c1.1,0,2.6-0.3,3.6-0.9c0.5-0.3,0.9-0.7,1.2-1.1
		c0.7-1,1.2-2.2,1.2-3.4C10.9,345.8,8.6,343.9,5.8,343.9"/>
	<path class="st7" d="M44.3,317.6h-1.6c-0.2,0-0.4,0.1-0.4,0.4c0,0.5,0.7,0.3,0.7,0.8c0,0.3-0.1,0.6-0.2,0.9
		c-0.3,0.9-0.7,1.8-1.1,2.6l-1.1-2.6c-0.1-0.3-0.3-0.6-0.3-0.8c0-0.5,0.7-0.3,0.7-0.8c0-0.2-0.1-0.4-0.4-0.4H38
		c-0.3,0-0.5,0.1-0.5,0.4c0,0.3,0.3,0.4,0.5,0.6c0.2,0.2,0.3,0.5,0.4,0.8l1.9,4.4c0.2,0.3,0.4,0.6,0.8,0.6c0.3,0,0.6-0.2,0.7-0.5
		c0.6-1.2,1.2-2.6,1.7-3.8c0.1-0.2,0.4-1.3,0.6-1.5c0.2-0.1,0.5-0.2,0.5-0.5C44.7,317.8,44.6,317.6,44.3,317.6"/>
	<path class="st7" d="M18.6,318.4c0.5,0,1.1,0.3,1.1,0.9c0,0.1,0,0.1-0.1,0.2c-0.2,0.2-0.9,0.5-1.2,0.6c-0.4,0.1-0.8,0.3-1.1,0.5
		c0-0.1,0-0.3,0-0.4C17.3,319.3,17.7,318.4,18.6,318.4 M19,324.2c0.7,0,1.4-0.2,1.9-0.7c0.2-0.2,0.6-0.6,0.6-0.9
		c0-0.2-0.1-0.3-0.3-0.3c-0.4,0-0.6,0.6-1.6,0.6c-0.3,0-0.7-0.1-1-0.2c-0.6-0.3-0.8-0.6-1.1-1.2l3.2-1.4c0.3-0.1,0.6-0.4,0.6-0.7
		c0-0.3-0.2-0.7-0.4-1c-0.5-0.6-1-0.9-1.8-0.9c-1.9,0-3.2,1.7-3.2,3.5S17.1,324.2,19,324.2"/>
	<path class="st7" d="M46.2,320.2c0-0.8,0.4-1.8,1.3-1.8c0.5,0,1.1,0.3,1.1,0.9c0,0.1,0,0.2-0.1,0.2c-0.2,0.2-0.9,0.5-1.2,0.6
		c-0.4,0.1-0.8,0.3-1.1,0.5C46.2,320.5,46.2,320.3,46.2,320.2 M50.1,322.2c-0.4,0-0.6,0.6-1.6,0.6c-0.3,0-0.7-0.1-1-0.2
		c-0.6-0.3-0.8-0.6-1.1-1.2l3.2-1.4c0.3-0.1,0.6-0.4,0.6-0.7c0-0.3-0.2-0.7-0.4-1c-0.5-0.6-1-0.9-1.8-0.9c-1.9,0-3.2,1.7-3.2,3.5
		s1.3,3.2,3.1,3.2c0.7,0,1.4-0.2,1.9-0.7c0.2-0.2,0.6-0.6,0.6-0.9C50.4,322.4,50.3,322.2,50.1,322.2"/>
	<path class="st7" d="M29.7,318.5v3.2c0,0.6,0,1.4,0.4,1.8c0.4,0.5,1,0.6,1.6,0.6c0.4,0,1.7-0.2,1.7-0.8c0-0.2-0.2-0.3-0.4-0.3
		s-0.4,0.1-0.6,0.1c-0.9,0-1-0.9-1-1.7v-2.9h1.2c0.3,0,0.5-0.1,0.5-0.5s-0.2-0.5-0.5-0.5h-1.2l0-1.3c0-0.3-0.1-0.6-0.4-0.6
		c-0.4,0-0.5,0.4-0.6,0.7c-0.2,0.5-0.6,0.9-1.1,1.2c-0.2,0.1-0.6,0.2-0.6,0.6C28.6,318.6,29.4,318.5,29.7,318.5"/>
	<path class="st7" d="M5.4,324.2c1,0,2-0.3,2.9-0.8c0.4-0.2,1.4-0.9,1.4-1.4c0-0.2-0.2-0.4-0.4-0.4c-0.3,0.1-0.6,0.4-1.2,0.7
		c-0.5,0.2-1.3,0.4-1.8,0.4c-2.3,0-4-1.8-4-4.1c0-2,1.3-3.6,3.4-3.6c0.7,0,2.4,0.3,2.4,1.3c0,0.2-0.1,0.4-0.1,0.6s0.2,0.4,0.4,0.4
		c0.5,0,1.4-1.2,1.4-1.7c0-0.2-0.1-0.4-0.2-0.6c-0.1-0.1-0.3-0.3-0.4-0.3c-0.8-0.6-2.1-0.8-3-0.8c-3.1,0-5.6,2.2-5.6,5.4
		C0.5,322.1,2.6,324.2,5.4,324.2"/>
	<path class="st7" d="M10.5,318.4c0.6,0.1,0.7,0.2,0.7,0.9v3.1c0,0.6-0.1,0.7-0.6,0.9c-0.2,0-0.4,0.1-0.4,0.4c0,0.3,0.3,0.4,0.6,0.4
		c0.4,0,0.9-0.1,1.3-0.1s0.9,0.1,1.3,0.1c0.3,0,0.6-0.1,0.6-0.4c0-0.2-0.2-0.3-0.4-0.4c-0.6-0.1-0.6-0.3-0.6-0.9v-2.8
		c0.2-0.4,0.5-0.8,1-0.8c0.5,0,0.7,0.5,0.9,0.5c0.6,0,0.7-0.8,0.7-1.2c0-0.6-0.3-0.8-0.8-0.8c-0.8,0-1.4,0.6-1.9,1.1
		c0-0.5,0-0.9-0.7-0.9h-1.6c-0.3,0-0.5,0.1-0.5,0.4C10.1,318.2,10.3,318.3,10.5,318.4"/>
	<path class="st7" d="M25.9,322.3c-0.2,0.3-0.7,0.7-1.2,0.7c-0.5,0-0.8-0.4-0.8-0.9c0-0.5,0.6-0.9,1-1.1l1-0.4V322.3z M28.5,323.7
		c0-0.3-0.3-0.3-0.5-0.4c-0.3-0.1-0.4-0.2-0.4-0.9v-2.8c0-0.6-0.1-1.2-0.6-1.6c-0.5-0.4-1-0.5-1.6-0.5c-0.9,0-1.8,0.5-2.4,1
		c-0.3,0.3-0.3,0.4,0,0.6c0.2,0.2,0.5,0.2,0.8,0c0.3-0.2,0.9-0.5,1.3-0.5c0.6,0,1,0.4,0.9,1.2l-1.5,0.6c-0.9,0.4-2.2,1.1-2.2,2.2
		c0,1,0.9,1.6,1.8,1.6c0.9,0,1.5-0.4,2-1c0.2,1,1,1,1.5,1C27.8,324.1,28.5,324.1,28.5,323.7"/>
	<path class="st7" d="M34.2,318.4c0.6,0.1,0.7,0.2,0.7,0.9v3.1c0,0.6-0.1,0.7-0.6,0.9c-0.2,0-0.4,0.1-0.4,0.4c0,0.3,0.3,0.4,0.6,0.4
		c0.4,0,0.9-0.1,1.3-0.1s0.9,0.1,1.3,0.1c0.3,0,0.6-0.1,0.6-0.4c0-0.2-0.2-0.3-0.4-0.4c-0.6-0.1-0.6-0.3-0.6-0.9v-4.2
		c0-0.5,0-0.6-0.5-0.6h-1.8c-0.3,0-0.5,0.1-0.5,0.4C33.8,318.2,34,318.3,34.2,318.4"/>
	<path class="st7" d="M35.6,316.2c0.4,0,1-0.7,1-1.1s-0.6-1.1-1-1.1c-0.3,0-1,0.6-1,1C34.6,315.6,35.2,316.2,35.6,316.2"/>
</g>
<rect x="100.8" y="71.6" class="st0" width="60" height="0.8"/>
<rect x="100.8" y="143.6" class="st0" width="60" height="0.8"/>
<rect x="100.8" y="215.6" class="st0" width="60" height="0.8"/>
<g>
	<defs>
		<rect id="SVGID_13_" width="266.8" height="360"/>
	</defs>
	<clipPath id="SVGID_14_">
		<use xlink:href="#SVGID_13_"  style="overflow:visible;"/>
	</clipPath>
	<path class="st8" d="M130.8,206.8c-14.8,0-26.8-12-26.8-26.8c0-14.8,12-26.8,26.8-26.8c14.8,0,26.8,12,26.8,26.8
		C157.5,194.8,145.5,206.8,130.8,206.8 M130.8,149.3c-17,0-30.8,13.8-30.8,30.8s13.8,30.8,30.8,30.8s30.8-13.8,30.8-30.8
		S147.7,149.3,130.8,149.3"/>
</g>
<polygon class="st0" points="160.8,18 160.8,6 100.8,6 100.8,66 112.8,66 112.8,45 157.8,45 157.8,33 112.8,33 112.8,18 "/>
<polygon class="st0" points="112.8,126 112.8,78 100.8,78 100.8,138 160.8,138 160.8,126 "/>
<g>
	<defs>
		<rect id="SVGID_15_" width="266.8" height="360"/>
	</defs>
	<clipPath id="SVGID_16_">
		<use xlink:href="#SVGID_15_"  style="overflow:visible;"/>
	</clipPath>
	<path class="st9" d="M112.8,234h27.8c5,0,9,4,9,9c0,5-4,9-9,9h-27.8V234z M161.5,243c0-11.6-9.4-21-21-21h-39.8v60h12v-18h21.5
		l18,18h8.5v-8.5l-11.4-11.4C156.5,258.7,161.5,251.5,161.5,243"/>
	<path class="st9" d="M157.5,224c0,1.1,0.9,2,2,2c1.1,0,2-0.9,2-2c0-1.1-0.9-2-2-2C158.4,222,157.5,222.9,157.5,224 M157.9,224
		c0-0.9,0.7-1.6,1.6-1.6c0.9,0,1.6,0.7,1.6,1.6c0,0.9-0.7,1.6-1.6,1.6C158.6,225.6,157.9,224.9,157.9,224 M160.1,224.2L160.1,224.2
		c0.3-0.2,0.4-0.4,0.4-0.7c0-0.4-0.3-0.7-0.7-0.7h-1.1l-0.1,0.1v2.1l0.1,0.1h0.3l0.1-0.1v-0.8l0.1-0.1h0.3l0.1,0.1l0.6,0.8l0.1,0.1
		h0.2l0.1-0.1v-0.3L160.1,224.2z M160.1,223.6c0,0.2-0.1,0.3-0.3,0.3h-0.7l-0.1-0.1v-0.4l0.1-0.1h0.7
		C159.9,223.3,160.1,223.4,160.1,223.6"/>
</g>
<rect x="100.8" y="71.6" class="st0" width="60" height="0.8"/>
<rect x="100.8" y="143.6" class="st0" width="60" height="0.8"/>
<rect x="100.8" y="215.6" class="st0" width="60" height="0.8"/>
<g>
	<defs>
		<rect id="SVGID_17_" width="266.8" height="360"/>
	</defs>
	<clipPath id="SVGID_18_">
		<use xlink:href="#SVGID_17_"  style="overflow:visible;"/>
	</clipPath>
	<path class="st10" d="M130.8,206.8c-14.8,0-26.8-12-26.8-26.8c0-14.8,12-26.8,26.8-26.8c14.8,0,26.8,12,26.8,26.8
		C157.5,194.8,145.5,206.8,130.8,206.8 M130.8,149.3c-17,0-30.8,13.8-30.8,30.8s13.8,30.8,30.8,30.8s30.8-13.8,30.8-30.8
		S147.7,149.3,130.8,149.3"/>
</g>
<polygon class="st0" points="160.8,18 160.8,6 100.8,6 100.8,66 112.8,66 112.8,45 157.8,45 157.8,33 112.8,33 112.8,18 "/>
<polygon class="st0" points="112.8,126 112.8,78 100.8,78 100.8,138 160.8,138 160.8,126 "/>
<g>
	<defs>
		<rect id="SVGID_19_" width="266.8" height="360"/>
	</defs>
	<clipPath id="SVGID_20_">
		<use xlink:href="#SVGID_19_"  style="overflow:visible;"/>
	</clipPath>
	<path class="st11" d="M112.8,234h27.8c5,0,9,4,9,9c0,5-4,9-9,9h-27.8V234z M161.5,243c0-11.6-9.4-21-21-21h-39.8v60h12v-18h21.5
		l18,18h8.5v-8.5l-11.4-11.4C156.5,258.7,161.5,251.5,161.5,243"/>
	<path class="st11" d="M121.5,336.5c-0.8,0-1-1-1-1.7c0-0.6,0.2-1.5,1-1.5c0.8,0,1.1,1,1.1,1.6C122.6,335.6,122.3,336.5,121.5,336.5
		 M124.8,332.3c-0.6,0-0.9,0.4-1.2,0.9c-0.6-0.6-1.2-0.8-2.1-0.8c-1.5,0-2.7,0.9-2.7,2.5c0,1,0.3,1.5,1.2,2
		c-0.5,0.4-1.3,1.1-1.3,1.8c0,0.3,0.1,0.5,0.4,0.6c0.5,0.2,1.5,0.2,2.1,0.2c0.4,0,1.3,0,1.8,0.1c0.2,0.1,0.5,0.3,0.5,0.5
		c0,0.7-1,0.8-1.5,0.8c-0.7,0-1.3-0.1-1.8-0.6c-0.2-0.2-0.3-0.4-0.6-0.4c-0.4,0-0.7,0.5-0.7,0.9c0,0.9,1.6,1.1,2.2,1.1
		c1.5,0,3.5-0.4,3.5-2.3c0-1.5-1.5-1.4-2.6-1.5c-0.3,0-0.7,0-1,0c-0.1,0-0.6,0-0.6-0.2c0-0.3,0.2-0.5,0.4-0.7c0.3,0,0.6,0.1,0.8,0.1
		c1.5,0,2.6-0.9,2.6-2.4c0-0.2,0-0.4,0-0.6c0-0.2-0.1-0.3-0.1-0.5c0-0.1,0.1-0.3,0.2-0.3c0.3,0,0.3,0.4,0.6,0.4
		c0.4,0,0.6-0.4,0.6-0.7C125.6,332.8,125.3,332.3,124.8,332.3"/>
	<path class="st11" d="M113.1,350.2c0-0.8,0.4-1.8,1.3-1.8c0.5,0,1.1,0.3,1.1,0.9c0,0.1,0,0.1-0.1,0.2c-0.2,0.2-0.9,0.5-1.2,0.6
		c-0.4,0.2-0.8,0.3-1.1,0.5C113.1,350.5,113.1,350.3,113.1,350.2 M117,352.2c-0.4,0-0.6,0.6-1.6,0.6c-0.3,0-0.7-0.1-1-0.2
		c-0.6-0.3-0.8-0.6-1.1-1.2l3.2-1.4c0.3-0.1,0.6-0.4,0.6-0.7c0-0.3-0.2-0.7-0.4-1c-0.5-0.6-1-0.9-1.8-0.9c-1.9,0-3.2,1.7-3.2,3.5
		c0,1.8,1.3,3.2,3.1,3.2c0.7,0,1.4-0.2,1.9-0.7c0.2-0.2,0.6-0.6,0.6-0.9C117.3,352.4,117.2,352.2,117,352.2"/>
	<path class="st11" d="M131.2,351.5c-0.8,0-1-1-1-1.7c0-0.6,0.2-1.5,1-1.5c0.8,0,1.1,1,1.1,1.6C132.3,350.6,132,351.5,131.2,351.5
		 M134.5,347.3c-0.6,0-0.9,0.4-1.2,0.9c-0.6-0.6-1.2-0.8-2.1-0.8c-1.5,0-2.7,0.9-2.7,2.5c0,1,0.3,1.5,1.2,2
		c-0.5,0.4-1.3,1.1-1.3,1.8c0,0.3,0.1,0.5,0.4,0.6c0.5,0.2,1.5,0.2,2.1,0.2c0.4,0,1.3,0,1.8,0.1c0.2,0.1,0.5,0.3,0.5,0.5
		c0,0.7-1,0.8-1.5,0.8c-0.7,0-1.3-0.1-1.8-0.6c-0.2-0.2-0.3-0.4-0.6-0.4c-0.4,0-0.7,0.5-0.7,0.9c0,0.9,1.6,1.1,2.2,1.1
		c1.5,0,3.5-0.4,3.5-2.3c0-1.5-1.5-1.4-2.6-1.5c-0.3,0-0.7,0-1,0c-0.1,0-0.6,0-0.6-0.2c0-0.3,0.2-0.5,0.4-0.7c0.3,0,0.6,0.1,0.8,0.1
		c1.5,0,2.6-0.9,2.6-2.4c0-0.2,0-0.4,0-0.6c0-0.1-0.1-0.3-0.1-0.5s0.1-0.3,0.2-0.3c0.3,0,0.3,0.4,0.6,0.4c0.4,0,0.6-0.4,0.6-0.7
		C135.2,347.8,134.9,347.3,134.5,347.3"/>
	<path class="st11" d="M143.2,352.8c-0.2,0-0.4,0.1-0.5,0.1c-0.3,0-0.3-0.5-0.3-0.7v-2.2c0-0.7,0-1.3-0.4-1.8
		c-0.4-0.5-1-0.8-1.6-0.8c-0.8,0-1.5,0.4-2.1,0.9c0-0.5,0-0.8-0.6-0.8H136c-0.3,0-0.5,0.1-0.5,0.4c0,0.2,0.2,0.3,0.4,0.4
		c0.6,0.1,0.7,0.2,0.7,0.9v3.1c0,0.6-0.1,0.7-0.6,0.9c-0.2,0-0.4,0.1-0.4,0.4c0,0.3,0.3,0.4,0.6,0.4c0.4,0,0.9-0.1,1.3-0.1
		s0.9,0.1,1.3,0.1c0.3,0,0.6-0.1,0.6-0.4c0-0.2-0.2-0.3-0.4-0.4c-0.6-0.1-0.6-0.3-0.6-0.9v-3c0.4-0.4,0.8-0.7,1.4-0.7
		c0.9,0,1,0.9,1,1.6v2.4c0,0.7,0.4,1.4,1.2,1.4c0.6,0,1.6-0.4,1.6-1C143.5,353,143.4,352.8,143.2,352.8"/>
	<path class="st11" d="M120,349.3c-0.1-0.1-0.4-0.3-0.3-0.7c0.2-0.3,0.7-0.3,1.4,0.1c0.4,0.2,0.7,0.6,1,0.6c0.2,0,0.4-0.3,0.5-0.8
		c0.1-0.3-0.2-0.5-0.6-0.7c-0.4-0.2-0.9-0.3-1.3-0.3c-0.5,0-1.1,0.2-1.6,0.5c-0.3,0.3-0.7,0.7-0.7,1.3c0,1,1.3,1.8,1.9,2.3
		c0.3,0.2,1.1,0.7,1.1,1.2c0,0.4-0.3,0.5-0.6,0.5c-0.5,0-1.1-0.3-1.4-0.7c0,0-0.2-0.3-0.3-0.4c-0.1-0.1-0.2-0.1-0.2-0.1
		c-0.3,0-0.7,0.7-0.7,1c0,0.6,1.1,0.9,1.5,1c0.3,0.1,0.6,0.1,0.9,0.1c1.1,0,2.3-0.8,2.3-1.8c0-0.5-0.4-1-0.6-1.3
		C121.5,350.3,120.7,349.8,120,349.3"/>
	<path class="st11" d="M117.5,338.3c-0.5-0.1-0.6-0.4-0.6-1l0-4c0-0.4,0-0.7-0.5-0.7h-1.9c-0.3,0-0.4,0.1-0.4,0.4
		c0,0.2,0.2,0.3,0.4,0.4c0.6,0.1,0.7,0.2,0.7,0.9v3c-0.4,0.3-0.8,0.6-1.4,0.6c-0.9,0-1.1-0.7-1.1-1.5v-3.1c0-0.4,0-0.7-0.5-0.7h-1.9
		c-0.3,0-0.4,0.1-0.4,0.4c0,0.2,0.2,0.3,0.4,0.4c0.6,0.1,0.7,0.2,0.7,0.9v2.5c0,1.4,0.8,2.3,2.2,2.3c0.8,0,1.4-0.4,2-1
		c0.1,0.4,0.1,0.9,0.6,0.9c0.3,0,0.5-0.1,0.8-0.1h0.9c0.2,0,0.4-0.1,0.4-0.4C117.9,338.4,117.7,338.3,117.5,338.3"/>
	<path class="st11" d="M127,353.3c-0.6-0.1-0.6-0.3-0.6-0.9v-4.2c0-0.5,0-0.6-0.5-0.6h-1.8c-0.3,0-0.5,0.1-0.5,0.4
		c0,0.2,0.2,0.3,0.4,0.4c0.6,0.1,0.7,0.2,0.7,0.9v3.1c0,0.6-0.1,0.7-0.6,0.9c-0.2,0-0.4,0.1-0.4,0.4c0,0.3,0.3,0.4,0.6,0.4
		c0.4,0,0.9-0.1,1.3-0.1c0.4,0,0.9,0.1,1.3,0.1c0.3,0,0.6-0.1,0.6-0.4C127.4,353.5,127.2,353.4,127,353.3"/>
	<path class="st11" d="M124.4,345.1c0,0.5,0.6,1.1,1,1.1c0.4,0,1-0.7,1-1.1s-0.6-1.1-1-1.1C125.1,344.1,124.4,344.7,124.4,345.1"/>
	<path class="st11" d="M103.6,331.6c0-1,0.2-1.8,1.3-1.8c1,0,1.8,0.7,1.8,1.8c0,0.7-0.4,1.4-1.1,1.7c-0.4,0.1-0.7,0.1-1.1,0.1
		c-0.3,0-0.6,0-0.9,0V331.6z M101.6,330.5c0,0.2,0,0.4,0,0.6v5.7c0,1.2-0.3,1.3-0.9,1.4c-0.3,0.1-0.5,0.2-0.5,0.4
		c0,0.3,0.3,0.4,0.6,0.4c0.5,0,1.3-0.1,1.7-0.1c0.5,0,1.3,0.1,1.7,0.1c0.3,0,0.6-0.1,0.6-0.4c0-0.3-0.2-0.3-0.5-0.4
		c-0.6-0.2-0.9-0.3-0.9-1.4v-2.4c0.1,0,0.3,0,0.4,0c0.5,0,0.7,0.2,1,0.6c0.1,0.2,0.3,0.3,0.4,0.5l1.2,2.1c0.3,0.5,0.7,1.1,1.3,1.3
		c0.4,0.2,0.9,0.2,1.4,0.2c0.3,0,0.9,0,0.9-0.5c0-0.2-0.1-0.3-0.3-0.4l-0.6-0.3c-0.2-0.1-0.4-0.4-0.5-0.6c-0.3-0.4-0.6-0.9-0.9-1.3
		c-0.2-0.3-0.4-0.7-0.7-1c-0.4-0.6-0.5-0.7-1.1-0.9c0.7-0.1,1.2-0.3,1.8-0.7c0.6-0.5,0.9-1.1,0.9-1.8c0-1.8-1.6-2.7-3.2-2.7
		c-0.9,0-1.8,0.1-2.7,0.1c-0.6,0-1.3-0.1-1.9-0.1c-0.3,0-0.7,0-0.7,0.4C100.2,330,101.5,329.7,101.6,330.5"/>
	<path class="st11" d="M105.5,353.3c-0.5,0-1.1-0.1-1.5-0.5c-0.4-0.5-0.4-1.4-0.4-2v-4c0-0.5-0.1-1.4,0.3-1.7
		c0.3-0.3,0.7-0.4,1.1-0.4c2.5,0,4.1,2.5,4.1,4.7C109,351.5,107.7,353.3,105.5,353.3 M105.8,343.9c-1,0-1.9,0.1-2.9,0.1
		c-0.7,0-1.4-0.1-2.1-0.1c-0.3,0-0.7,0.1-0.7,0.5c0,0.4,0.6,0.4,0.9,0.5c0.7,0.2,0.6,1.2,0.6,1.8v4.9c0,0.4,0,1-0.3,1.3
		c-0.3,0.3-1.1,0.3-1.1,0.7c0,0.4,0.5,0.5,0.8,0.5c0.5,0,1-0.1,1.5-0.1c0.7,0,1.6,0.2,2.3,0.2c1.1,0,2.6-0.3,3.6-0.9
		c0.5-0.3,0.9-0.7,1.2-1.1c0.7-1,1.2-2.2,1.2-3.4C110.9,345.8,108.6,343.9,105.8,343.9"/>
	<path class="st11" d="M144.3,317.6h-1.6c-0.2,0-0.4,0.1-0.4,0.4c0,0.5,0.7,0.3,0.7,0.8c0,0.3-0.1,0.6-0.2,0.9
		c-0.3,0.9-0.7,1.8-1.1,2.6l-1.1-2.6c-0.1-0.3-0.3-0.6-0.3-0.8c0-0.5,0.7-0.3,0.7-0.8c0-0.2-0.1-0.4-0.4-0.4H138
		c-0.3,0-0.5,0.1-0.5,0.4c0,0.3,0.3,0.4,0.5,0.6c0.2,0.2,0.3,0.5,0.4,0.8l1.9,4.4c0.2,0.3,0.4,0.6,0.8,0.6c0.3,0,0.6-0.2,0.7-0.5
		c0.6-1.2,1.2-2.6,1.7-3.8c0.1-0.2,0.4-1.3,0.6-1.5c0.2-0.1,0.5-0.2,0.5-0.5C144.7,317.8,144.6,317.6,144.3,317.6"/>
	<path class="st11" d="M118.6,318.4c0.5,0,1,0.3,1,0.9c0,0.1,0,0.1-0.1,0.2c-0.2,0.2-0.9,0.5-1.2,0.6c-0.4,0.1-0.8,0.3-1.1,0.5
		c0-0.1,0-0.3,0-0.4C117.3,319.3,117.7,318.4,118.6,318.4 M119,324.2c0.7,0,1.4-0.2,1.9-0.7c0.2-0.2,0.6-0.6,0.6-0.9
		c0-0.2-0.1-0.3-0.3-0.3c-0.4,0-0.6,0.6-1.6,0.6c-0.3,0-0.7-0.1-1-0.2c-0.6-0.3-0.8-0.6-1.1-1.2l3.2-1.4c0.3-0.1,0.6-0.4,0.6-0.7
		c0-0.3-0.2-0.7-0.4-1c-0.5-0.6-1-0.9-1.8-0.9c-1.9,0-3.2,1.7-3.2,3.5S117.1,324.2,119,324.2"/>
	<path class="st11" d="M146.2,320.2c0-0.8,0.4-1.8,1.4-1.8c0.5,0,1.1,0.3,1.1,0.9c0,0.1,0,0.2-0.1,0.2c-0.2,0.2-0.9,0.5-1.2,0.6
		c-0.4,0.1-0.8,0.3-1.1,0.5C146.2,320.5,146.2,320.3,146.2,320.2 M150.1,322.2c-0.4,0-0.6,0.6-1.6,0.6c-0.3,0-0.7-0.1-1-0.2
		c-0.6-0.3-0.8-0.6-1.1-1.2l3.2-1.4c0.3-0.1,0.6-0.4,0.6-0.7c0-0.3-0.2-0.7-0.4-1c-0.5-0.6-1-0.9-1.8-0.9c-1.9,0-3.2,1.7-3.2,3.5
		s1.3,3.2,3.1,3.2c0.7,0,1.4-0.2,1.9-0.7c0.2-0.2,0.6-0.6,0.6-0.9C150.4,322.4,150.3,322.2,150.1,322.2"/>
	<path class="st11" d="M129.7,318.5v3.2c0,0.6,0,1.4,0.4,1.8c0.4,0.5,1,0.6,1.6,0.6c0.4,0,1.7-0.2,1.7-0.8c0-0.2-0.2-0.3-0.4-0.3
		c-0.2,0-0.4,0.1-0.6,0.1c-0.9,0-1-0.9-1-1.7v-2.9h1.2c0.3,0,0.5-0.1,0.5-0.5s-0.2-0.5-0.5-0.5h-1.2l0-1.3c0-0.3-0.1-0.6-0.4-0.6
		c-0.4,0-0.5,0.4-0.6,0.7c-0.2,0.5-0.6,0.9-1.1,1.2c-0.2,0.1-0.6,0.2-0.6,0.6C128.6,318.6,129.4,318.5,129.7,318.5"/>
	<path class="st11" d="M105.4,324.2c1,0,2-0.3,2.9-0.8c0.4-0.2,1.4-0.9,1.4-1.4c0-0.2-0.2-0.4-0.4-0.4c-0.3,0.1-0.6,0.4-1.2,0.7
		c-0.5,0.2-1.3,0.4-1.8,0.4c-2.3,0-4-1.8-4-4.1c0-2,1.3-3.6,3.4-3.6c0.7,0,2.4,0.3,2.4,1.3c0,0.2-0.2,0.4-0.2,0.6s0.2,0.4,0.4,0.4
		c0.5,0,1.4-1.2,1.4-1.7c0-0.2-0.1-0.4-0.2-0.6c-0.1-0.1-0.3-0.3-0.4-0.3c-0.8-0.6-2.1-0.8-3-0.8c-3.1,0-5.6,2.2-5.6,5.4
		C100.5,322.1,102.6,324.2,105.4,324.2"/>
	<path class="st11" d="M110.5,318.4c0.6,0.1,0.7,0.2,0.7,0.9v3.1c0,0.6-0.1,0.7-0.6,0.9c-0.2,0-0.4,0.1-0.4,0.4
		c0,0.3,0.3,0.4,0.6,0.4c0.4,0,0.9-0.1,1.3-0.1s0.9,0.1,1.3,0.1c0.3,0,0.6-0.1,0.6-0.4c0-0.2-0.2-0.3-0.4-0.4
		c-0.6-0.1-0.6-0.3-0.6-0.9v-2.8c0.2-0.4,0.5-0.8,1-0.8c0.5,0,0.7,0.5,0.9,0.5c0.6,0,0.7-0.8,0.7-1.2c0-0.6-0.3-0.8-0.8-0.8
		c-0.8,0-1.4,0.6-1.9,1.1c0-0.5,0-0.9-0.7-0.9h-1.6c-0.3,0-0.5,0.1-0.5,0.4C110.1,318.2,110.3,318.3,110.5,318.4"/>
	<path class="st11" d="M125.9,322.3c-0.2,0.3-0.7,0.7-1.2,0.7c-0.5,0-0.8-0.4-0.8-0.9c0-0.5,0.6-0.9,1-1.1l1-0.4V322.3z
		 M128.5,323.7c0-0.3-0.3-0.3-0.5-0.4c-0.3-0.1-0.4-0.2-0.4-0.9v-2.8c0-0.6-0.1-1.2-0.6-1.6c-0.4-0.4-1-0.5-1.6-0.5
		c-0.9,0-1.8,0.5-2.4,1c-0.3,0.3-0.3,0.4,0,0.6c0.2,0.2,0.5,0.2,0.8,0c0.3-0.2,0.9-0.5,1.3-0.5c0.6,0,1,0.4,0.9,1.2l-1.5,0.6
		c-0.9,0.4-2.2,1.1-2.2,2.2c0,1,0.9,1.6,1.8,1.6c0.9,0,1.5-0.4,2-1c0.2,1,1,1,1.5,1C127.8,324.1,128.5,324.1,128.5,323.7"/>
	<path class="st11" d="M134.2,318.4c0.6,0.1,0.7,0.2,0.7,0.9v3.1c0,0.6-0.1,0.7-0.6,0.9c-0.2,0-0.4,0.1-0.4,0.4
		c0,0.3,0.3,0.4,0.6,0.4c0.4,0,0.9-0.1,1.3-0.1s0.9,0.1,1.3,0.1c0.3,0,0.6-0.1,0.6-0.4c0-0.2-0.2-0.3-0.4-0.4
		c-0.6-0.1-0.6-0.3-0.6-0.9v-4.2c0-0.5,0-0.6-0.5-0.6h-1.8c-0.3,0-0.5,0.1-0.5,0.4C133.8,318.2,134,318.3,134.2,318.4"/>
	<path class="st11" d="M135.6,316.2c0.4,0,1-0.7,1-1.1s-0.6-1.1-1-1.1c-0.3,0-1.1,0.6-1.1,1C134.6,315.6,135.2,316.2,135.6,316.2"/>
</g>
<rect x="194.8" class="st12" width="72" height="360"/>
<rect x="200.8" y="71.6" class="st13" width="60" height="0.8"/>
<rect x="200.8" y="143.6" class="st13" width="60" height="0.8"/>
<rect x="200.8" y="215.6" class="st13" width="60" height="0.8"/>
<g>
	<defs>
		<rect id="SVGID_21_" width="266.8" height="360"/>
	</defs>
	<clipPath id="SVGID_22_">
		<use xlink:href="#SVGID_21_"  style="overflow:visible;"/>
	</clipPath>
	<path class="st14" d="M230.8,206.8c-14.8,0-26.8-12-26.8-26.8c0-14.8,12-26.8,26.8-26.8c14.8,0,26.8,12,26.8,26.8
		C257.5,194.8,245.5,206.8,230.8,206.8 M230.8,149.3c-17,0-30.8,13.8-30.8,30.8s13.8,30.8,30.8,30.8s30.8-13.8,30.8-30.8
		S247.7,149.3,230.8,149.3"/>
</g>
<polygon class="st13" points="260.8,18 260.8,6 200.8,6 200.8,66 212.8,66 212.8,45 257.8,45 257.8,33 212.8,33 212.8,18 "/>
<polygon class="st13" points="212.8,126 212.8,78 200.8,78 200.8,138 260.8,138 260.8,126 "/>
<g>
	<defs>
		<rect id="SVGID_23_" width="266.8" height="360"/>
	</defs>
	<clipPath id="SVGID_24_">
		<use xlink:href="#SVGID_23_"  style="overflow:visible;"/>
	</clipPath>
	<path class="st15" d="M212.8,234h27.8c5,0,9,4,9,9c0,5-4,9-9,9h-27.8V234z M261.5,243c0-11.6-9.4-21-21-21h-39.8v60h12v-18h21.5
		l18,18h8.5v-8.5l-11.4-11.4C256.5,258.7,261.5,251.5,261.5,243"/>
	<path class="st15" d="M257.5,224c0,1.1,0.9,2,2,2c1.1,0,2-0.9,2-2c0-1.1-0.9-2-2-2C258.4,222,257.5,222.9,257.5,224 M257.9,224
		c0-0.9,0.7-1.6,1.6-1.6c0.9,0,1.6,0.7,1.6,1.6c0,0.9-0.7,1.6-1.6,1.6C258.6,225.6,257.9,224.9,257.9,224 M260.1,224.2L260.1,224.2
		c0.3-0.2,0.4-0.4,0.4-0.7c0-0.4-0.3-0.7-0.7-0.7h-1.1l-0.1,0.1v2.1l0.1,0.1h0.3l0.1-0.1v-0.8l0.1-0.1h0.3l0.1,0.1l0.6,0.8l0.1,0.1
		h0.2l0.1-0.1v-0.3L260.1,224.2z M260.1,223.6c0,0.2-0.1,0.3-0.3,0.3h-0.7l-0.1-0.1v-0.4l0.1-0.1h0.7
		C259.9,223.3,260.1,223.4,260.1,223.6"/>
</g>
<rect x="200.8" y="71.6" class="st13" width="60" height="0.8"/>
<rect x="200.8" y="143.6" class="st13" width="60" height="0.8"/>
<rect x="200.8" y="215.6" class="st13" width="60" height="0.8"/>
<g>
	<defs>
		<rect id="SVGID_25_" width="266.8" height="360"/>
	</defs>
	<clipPath id="SVGID_26_">
		<use xlink:href="#SVGID_25_"  style="overflow:visible;"/>
	</clipPath>
	<path class="st16" d="M230.8,206.8c-14.8,0-26.8-12-26.8-26.8c0-14.8,12-26.8,26.8-26.8c14.8,0,26.8,12,26.8,26.8
		C257.5,194.8,245.5,206.8,230.8,206.8 M230.8,149.3c-17,0-30.8,13.8-30.8,30.8s13.8,30.8,30.8,30.8s30.8-13.8,30.8-30.8
		S247.7,149.3,230.8,149.3"/>
</g>
<polygon class="st13" points="260.8,18 260.8,6 200.8,6 200.8,66 212.8,66 212.8,45 257.8,45 257.8,33 212.8,33 212.8,18 "/>
<polygon class="st13" points="212.8,126 212.8,78 200.8,78 200.8,138 260.8,138 260.8,126 "/>
<g>
	<defs>
		<rect id="SVGID_27_" width="266.8" height="360"/>
	</defs>
	<clipPath id="SVGID_28_">
		<use xlink:href="#SVGID_27_"  style="overflow:visible;"/>
	</clipPath>
	<path class="st17" d="M212.8,234h27.8c5,0,9,4,9,9c0,5-4,9-9,9h-27.8V234z M261.5,243c0-11.6-9.4-21-21-21h-39.8v60h12v-18h21.5
		l18,18h8.5v-8.5l-11.4-11.4C256.5,258.7,261.5,251.5,261.5,243"/>
	<path class="st17" d="M221.5,336.5c-0.8,0-1-1-1-1.7c0-0.6,0.2-1.5,1-1.5c0.8,0,1.1,1,1.1,1.6C222.6,335.6,222.3,336.5,221.5,336.5
		 M224.8,332.3c-0.6,0-0.9,0.4-1.2,0.9c-0.6-0.6-1.2-0.8-2.1-0.8c-1.5,0-2.7,0.9-2.7,2.5c0,1,0.3,1.5,1.2,2
		c-0.5,0.4-1.3,1.1-1.3,1.8c0,0.3,0.1,0.5,0.4,0.6c0.5,0.2,1.5,0.2,2.1,0.2c0.4,0,1.3,0,1.8,0.1c0.2,0.1,0.5,0.3,0.5,0.5
		c0,0.7-1,0.8-1.5,0.8c-0.7,0-1.3-0.1-1.8-0.6c-0.2-0.2-0.3-0.4-0.6-0.4c-0.4,0-0.7,0.5-0.7,0.9c0,0.9,1.6,1.1,2.2,1.1
		c1.5,0,3.5-0.4,3.5-2.3c0-1.5-1.5-1.4-2.6-1.5c-0.3,0-0.7,0-1,0c-0.1,0-0.6,0-0.6-0.2c0-0.3,0.2-0.5,0.4-0.7c0.3,0,0.6,0.1,0.8,0.1
		c1.5,0,2.6-0.9,2.6-2.4c0-0.2,0-0.4,0-0.6c0-0.2-0.1-0.3-0.1-0.5c0-0.1,0.1-0.3,0.2-0.3c0.3,0,0.3,0.4,0.6,0.4
		c0.4,0,0.6-0.4,0.6-0.7C225.6,332.8,225.3,332.3,224.8,332.3"/>
	<path class="st17" d="M213.1,350.2c0-0.8,0.4-1.8,1.4-1.8c0.5,0,1.1,0.3,1.1,0.9c0,0.1,0,0.1-0.1,0.2c-0.2,0.2-0.9,0.5-1.2,0.6
		c-0.4,0.2-0.8,0.3-1.1,0.5C213.1,350.5,213.1,350.3,213.1,350.2 M217,352.2c-0.4,0-0.6,0.6-1.6,0.6c-0.3,0-0.7-0.1-1-0.2
		c-0.6-0.3-0.8-0.6-1.1-1.2l3.2-1.4c0.3-0.1,0.6-0.4,0.6-0.7c0-0.3-0.2-0.7-0.4-1c-0.5-0.6-1-0.9-1.8-0.9c-1.9,0-3.2,1.7-3.2,3.5
		c0,1.8,1.3,3.2,3.1,3.2c0.7,0,1.4-0.2,1.9-0.7c0.2-0.2,0.6-0.6,0.6-0.9C217.3,352.4,217.2,352.2,217,352.2"/>
	<path class="st17" d="M231.2,351.5c-0.8,0-1-1-1-1.7c0-0.6,0.2-1.5,1-1.5c0.8,0,1.1,1,1.1,1.6C232.3,350.6,232,351.5,231.2,351.5
		 M234.5,347.3c-0.6,0-0.9,0.4-1.2,0.9c-0.6-0.6-1.2-0.8-2.1-0.8c-1.5,0-2.7,0.9-2.7,2.5c0,1,0.3,1.5,1.2,2
		c-0.5,0.4-1.3,1.1-1.3,1.8c0,0.3,0.1,0.5,0.4,0.6c0.5,0.2,1.5,0.2,2.1,0.2c0.4,0,1.3,0,1.8,0.1c0.2,0.1,0.5,0.3,0.5,0.5
		c0,0.7-1,0.8-1.5,0.8c-0.7,0-1.3-0.1-1.8-0.6c-0.2-0.2-0.3-0.4-0.6-0.4c-0.4,0-0.7,0.5-0.7,0.9c0,0.9,1.6,1.1,2.2,1.1
		c1.5,0,3.5-0.4,3.5-2.3c0-1.5-1.5-1.4-2.6-1.5c-0.3,0-0.7,0-1,0c-0.1,0-0.6,0-0.6-0.2c0-0.3,0.2-0.5,0.4-0.7c0.3,0,0.6,0.1,0.8,0.1
		c1.5,0,2.6-0.9,2.6-2.4c0-0.2,0-0.4,0-0.6c0-0.1-0.1-0.3-0.1-0.5s0.1-0.3,0.2-0.3c0.3,0,0.3,0.4,0.6,0.4c0.4,0,0.6-0.4,0.6-0.7
		C235.2,347.8,234.9,347.3,234.5,347.3"/>
	<path class="st17" d="M243.2,352.8c-0.2,0-0.4,0.1-0.5,0.1c-0.3,0-0.3-0.5-0.3-0.7v-2.2c0-0.7,0-1.3-0.4-1.8
		c-0.4-0.5-1-0.8-1.6-0.8c-0.8,0-1.5,0.4-2.1,0.9c0-0.5,0-0.8-0.6-0.8H236c-0.3,0-0.5,0.1-0.5,0.4c0,0.2,0.2,0.3,0.4,0.4
		c0.6,0.1,0.7,0.2,0.7,0.9v3.1c0,0.6-0.1,0.7-0.6,0.9c-0.2,0-0.4,0.1-0.4,0.4c0,0.3,0.3,0.4,0.6,0.4c0.4,0,0.9-0.1,1.3-0.1
		s0.9,0.1,1.3,0.1c0.3,0,0.6-0.1,0.6-0.4c0-0.2-0.2-0.3-0.4-0.4c-0.6-0.1-0.6-0.3-0.6-0.9v-3c0.4-0.4,0.8-0.7,1.4-0.7
		c0.9,0,1,0.9,1,1.6v2.4c0,0.7,0.4,1.4,1.2,1.4c0.6,0,1.6-0.4,1.6-1C243.5,353,243.4,352.8,243.2,352.8"/>
	<path class="st17" d="M220,349.3c-0.1-0.1-0.4-0.3-0.3-0.7c0.2-0.3,0.7-0.3,1.4,0.1c0.4,0.2,0.7,0.6,0.9,0.6c0.2,0,0.4-0.3,0.5-0.8
		c0.1-0.3-0.2-0.5-0.6-0.7c-0.4-0.2-0.9-0.3-1.3-0.3c-0.5,0-1.1,0.2-1.6,0.5c-0.3,0.3-0.7,0.7-0.7,1.3c0,1,1.3,1.8,1.9,2.3
		c0.3,0.2,1.1,0.7,1.1,1.2c0,0.4-0.3,0.5-0.6,0.5c-0.5,0-1.1-0.3-1.4-0.7c0,0-0.2-0.3-0.3-0.4c-0.1-0.1-0.2-0.1-0.2-0.1
		c-0.3,0-0.7,0.7-0.7,1c0,0.6,1.1,0.9,1.5,1c0.3,0.1,0.6,0.1,0.9,0.1c1.1,0,2.3-0.8,2.3-1.8c0-0.5-0.4-1-0.6-1.3
		C221.5,350.3,220.7,349.8,220,349.3"/>
	<path class="st17" d="M217.5,338.3c-0.5-0.1-0.6-0.4-0.6-1l0-4c0-0.4,0-0.7-0.5-0.7h-1.9c-0.3,0-0.4,0.1-0.4,0.4
		c0,0.2,0.2,0.3,0.4,0.4c0.6,0.1,0.7,0.2,0.7,0.9v3c-0.4,0.3-0.8,0.6-1.4,0.6c-0.9,0-1.1-0.7-1.1-1.5v-3.1c0-0.4,0-0.7-0.5-0.7h-1.9
		c-0.3,0-0.4,0.1-0.4,0.4c0,0.2,0.2,0.3,0.4,0.4c0.6,0.1,0.7,0.2,0.7,0.9v2.5c0,1.4,0.8,2.3,2.2,2.3c0.8,0,1.4-0.4,2-1
		c0.1,0.4,0.1,0.9,0.6,0.9c0.3,0,0.5-0.1,0.8-0.1h0.9c0.2,0,0.4-0.1,0.4-0.4C217.9,338.4,217.7,338.3,217.5,338.3"/>
	<path class="st17" d="M227,353.3c-0.6-0.1-0.6-0.3-0.6-0.9v-4.2c0-0.5,0-0.6-0.5-0.6h-1.8c-0.3,0-0.5,0.1-0.5,0.4
		c0,0.2,0.2,0.3,0.4,0.4c0.6,0.1,0.7,0.2,0.7,0.9v3.1c0,0.6-0.1,0.7-0.6,0.9c-0.2,0-0.4,0.1-0.4,0.4c0,0.3,0.3,0.4,0.6,0.4
		c0.4,0,0.9-0.1,1.3-0.1c0.4,0,0.9,0.1,1.3,0.1c0.3,0,0.6-0.1,0.6-0.4C227.4,353.5,227.2,353.4,227,353.3"/>
	<path class="st17" d="M224.4,345.1c0,0.5,0.6,1.1,1,1.1c0.4,0,1.1-0.7,1.1-1.1s-0.6-1.1-1-1.1C225.1,344.1,224.4,344.7,224.4,345.1
		"/>
	<path class="st17" d="M203.6,331.6c0-1,0.2-1.8,1.3-1.8c1,0,1.8,0.7,1.8,1.8c0,0.7-0.4,1.4-1.1,1.7c-0.4,0.1-0.7,0.1-1.1,0.1
		c-0.3,0-0.6,0-0.9,0V331.6z M201.6,330.5c0,0.2,0,0.4,0,0.6v5.7c0,1.2-0.3,1.3-0.9,1.4c-0.3,0.1-0.5,0.2-0.5,0.4
		c0,0.3,0.3,0.4,0.6,0.4c0.5,0,1.3-0.1,1.7-0.1s1.3,0.1,1.7,0.1c0.3,0,0.6-0.1,0.6-0.4c0-0.3-0.2-0.3-0.5-0.4
		c-0.6-0.2-0.9-0.3-0.9-1.4v-2.4c0.1,0,0.3,0,0.4,0c0.5,0,0.7,0.2,1,0.6c0.1,0.2,0.3,0.3,0.4,0.5l1.2,2.1c0.3,0.5,0.7,1.1,1.3,1.3
		c0.4,0.2,0.9,0.2,1.4,0.2c0.3,0,0.9,0,0.9-0.5c0-0.2-0.1-0.3-0.3-0.4l-0.6-0.3c-0.2-0.1-0.4-0.4-0.5-0.6c-0.3-0.4-0.6-0.9-0.9-1.3
		c-0.2-0.3-0.4-0.7-0.7-1c-0.4-0.6-0.5-0.7-1.1-0.9c0.7-0.1,1.2-0.3,1.8-0.7c0.6-0.5,0.9-1.1,0.9-1.8c0-1.8-1.6-2.7-3.2-2.7
		c-0.9,0-1.8,0.1-2.7,0.1c-0.6,0-1.3-0.1-1.9-0.1c-0.3,0-0.7,0-0.7,0.4C200.2,330,201.5,329.7,201.6,330.5"/>
	<path class="st17" d="M205.5,353.3c-0.5,0-1.1-0.1-1.5-0.5c-0.4-0.5-0.4-1.4-0.4-2v-4c0-0.5-0.1-1.4,0.3-1.7
		c0.3-0.3,0.7-0.4,1.1-0.4c2.5,0,4.1,2.5,4.1,4.7C209,351.5,207.7,353.3,205.5,353.3 M205.8,343.9c-1,0-1.9,0.1-2.9,0.1
		c-0.7,0-1.4-0.1-2.1-0.1c-0.3,0-0.7,0.1-0.7,0.5c0,0.4,0.6,0.4,0.9,0.5c0.7,0.2,0.6,1.2,0.6,1.8v4.9c0,0.4,0,1-0.3,1.3
		c-0.3,0.3-1.1,0.3-1.1,0.7c0,0.4,0.5,0.5,0.8,0.5c0.5,0,1-0.1,1.5-0.1c0.7,0,1.6,0.2,2.3,0.2c1.1,0,2.6-0.3,3.6-0.9
		c0.5-0.3,0.9-0.7,1.2-1.1c0.7-1,1.2-2.2,1.2-3.4C210.9,345.8,208.6,343.9,205.8,343.9"/>
	<path class="st17" d="M244.3,317.6h-1.6c-0.2,0-0.4,0.1-0.4,0.4c0,0.5,0.7,0.3,0.7,0.8c0,0.3-0.1,0.6-0.2,0.9
		c-0.3,0.9-0.7,1.8-1.1,2.6l-1.1-2.6c-0.1-0.3-0.3-0.6-0.3-0.8c0-0.5,0.7-0.3,0.7-0.8c0-0.2-0.1-0.4-0.4-0.4H238
		c-0.3,0-0.5,0.1-0.5,0.4c0,0.3,0.3,0.4,0.5,0.6c0.2,0.2,0.3,0.5,0.4,0.8l1.9,4.4c0.2,0.3,0.4,0.6,0.8,0.6c0.3,0,0.6-0.2,0.7-0.5
		c0.6-1.2,1.2-2.6,1.7-3.8c0.1-0.2,0.4-1.3,0.6-1.5c0.2-0.1,0.5-0.2,0.5-0.5C244.7,317.8,244.6,317.6,244.3,317.6"/>
	<path class="st17" d="M218.6,318.4c0.5,0,1,0.3,1,0.9c0,0.1,0,0.1-0.1,0.2c-0.2,0.2-0.9,0.5-1.2,0.6c-0.4,0.1-0.8,0.3-1.1,0.5
		c0-0.1,0-0.3,0-0.4C217.3,319.3,217.7,318.4,218.6,318.4 M219,324.2c0.7,0,1.4-0.2,1.9-0.7c0.2-0.2,0.6-0.6,0.6-0.9
		c0-0.2-0.1-0.3-0.3-0.3c-0.4,0-0.6,0.6-1.6,0.6c-0.3,0-0.7-0.1-1-0.2c-0.6-0.3-0.8-0.6-1.1-1.2l3.2-1.4c0.3-0.1,0.6-0.4,0.6-0.7
		c0-0.3-0.2-0.7-0.4-1c-0.5-0.6-1-0.9-1.8-0.9c-1.9,0-3.2,1.7-3.2,3.5S217.1,324.2,219,324.2"/>
	<path class="st17" d="M246.2,320.2c0-0.8,0.4-1.8,1.4-1.8c0.5,0,1.1,0.3,1.1,0.9c0,0.1,0,0.2-0.1,0.2c-0.2,0.2-0.9,0.5-1.2,0.6
		c-0.4,0.1-0.8,0.3-1.1,0.5C246.2,320.5,246.2,320.3,246.2,320.2 M250.1,322.2c-0.4,0-0.6,0.6-1.6,0.6c-0.3,0-0.7-0.1-1-0.2
		c-0.6-0.3-0.8-0.6-1.1-1.2l3.2-1.4c0.3-0.1,0.6-0.4,0.6-0.7c0-0.3-0.2-0.7-0.4-1c-0.5-0.6-1-0.9-1.8-0.9c-1.9,0-3.2,1.7-3.2,3.5
		s1.3,3.2,3.1,3.2c0.7,0,1.4-0.2,1.9-0.7c0.2-0.2,0.6-0.6,0.6-0.9C250.4,322.4,250.3,322.2,250.1,322.2"/>
	<path class="st17" d="M229.7,318.5v3.2c0,0.6,0,1.4,0.4,1.8c0.4,0.5,1,0.6,1.6,0.6c0.4,0,1.7-0.2,1.7-0.8c0-0.2-0.2-0.3-0.4-0.3
		c-0.2,0-0.4,0.1-0.6,0.1c-0.9,0-1-0.9-1-1.7v-2.9h1.2c0.3,0,0.5-0.1,0.5-0.5s-0.2-0.5-0.5-0.5h-1.2l0-1.3c0-0.3-0.1-0.6-0.4-0.6
		c-0.4,0-0.5,0.4-0.6,0.7c-0.2,0.5-0.6,0.9-1.1,1.2c-0.2,0.1-0.6,0.2-0.6,0.6C228.6,318.6,229.4,318.5,229.7,318.5"/>
	<path class="st17" d="M205.4,324.2c1,0,2-0.3,2.9-0.8c0.4-0.2,1.4-0.9,1.4-1.4c0-0.2-0.2-0.4-0.4-0.4c-0.3,0.1-0.6,0.4-1.2,0.7
		c-0.5,0.2-1.3,0.4-1.8,0.4c-2.3,0-4-1.8-4-4.1c0-2,1.3-3.6,3.4-3.6c0.7,0,2.4,0.3,2.4,1.3c0,0.2-0.2,0.4-0.2,0.6s0.2,0.4,0.4,0.4
		c0.5,0,1.4-1.2,1.4-1.7c0-0.2-0.1-0.4-0.2-0.6c-0.1-0.1-0.3-0.3-0.4-0.3c-0.8-0.6-2.1-0.8-3-0.8c-3.1,0-5.6,2.2-5.6,5.4
		C200.5,322.1,202.6,324.2,205.4,324.2"/>
	<path class="st17" d="M210.5,318.4c0.6,0.1,0.7,0.2,0.7,0.9v3.1c0,0.6-0.1,0.7-0.6,0.9c-0.2,0-0.4,0.1-0.4,0.4
		c0,0.3,0.3,0.4,0.6,0.4c0.4,0,0.9-0.1,1.3-0.1s0.9,0.1,1.3,0.1c0.3,0,0.6-0.1,0.6-0.4c0-0.2-0.2-0.3-0.4-0.4
		c-0.6-0.1-0.6-0.3-0.6-0.9v-2.8c0.2-0.4,0.5-0.8,1-0.8c0.5,0,0.7,0.5,0.9,0.5c0.6,0,0.7-0.8,0.7-1.2c0-0.6-0.3-0.8-0.8-0.8
		c-0.8,0-1.4,0.6-1.9,1.1c0-0.5,0-0.9-0.7-0.9h-1.6c-0.3,0-0.5,0.1-0.5,0.4C210.1,318.2,210.3,318.3,210.5,318.4"/>
	<path class="st17" d="M225.9,322.3c-0.2,0.3-0.7,0.7-1.2,0.7c-0.5,0-0.8-0.4-0.8-0.9c0-0.5,0.6-0.9,1-1.1l1-0.4V322.3z
		 M228.5,323.7c0-0.3-0.3-0.3-0.5-0.4c-0.3-0.1-0.4-0.2-0.4-0.9v-2.8c0-0.6-0.1-1.2-0.6-1.6c-0.4-0.4-1-0.5-1.6-0.5
		c-0.9,0-1.8,0.5-2.4,1c-0.3,0.3-0.3,0.4,0,0.6c0.2,0.2,0.5,0.2,0.8,0c0.3-0.2,0.9-0.5,1.3-0.5c0.6,0,1,0.4,0.9,1.2l-1.5,0.6
		c-0.9,0.4-2.2,1.1-2.2,2.2c0,1,0.9,1.6,1.8,1.6c0.9,0,1.5-0.4,2-1c0.2,1,1,1,1.5,1C227.8,324.1,228.5,324.1,228.5,323.7"/>
	<path class="st17" d="M234.2,318.4c0.6,0.1,0.7,0.2,0.7,0.9v3.1c0,0.6-0.1,0.7-0.6,0.9c-0.2,0-0.4,0.1-0.4,0.4
		c0,0.3,0.3,0.4,0.6,0.4c0.4,0,0.9-0.1,1.3-0.1s0.9,0.1,1.3,0.1c0.3,0,0.6-0.1,0.6-0.4c0-0.2-0.2-0.3-0.4-0.4
		c-0.6-0.1-0.6-0.3-0.6-0.9v-4.2c0-0.5,0-0.6-0.5-0.6h-1.8c-0.3,0-0.5,0.1-0.5,0.4C233.8,318.2,234,318.3,234.2,318.4"/>
	<path class="st17" d="M235.6,316.2c0.4,0,1-0.7,1-1.1s-0.6-1.1-1-1.1c-0.3,0-1.1,0.6-1.1,1C234.6,315.6,235.2,316.2,235.6,316.2"/>
</g>
<g>
</g>
<g>
</g>
<g>
</g>
<g>
</g>
<g>
</g>
<g>
</g>
</svg>
