<?xml version="1.0" encoding="utf-8"?>
<!-- Generator: Adobe Illustrator 19.1.0, SVG Export Plug-In . SVG Version: 6.00 Build 0)  -->
<svg version="1.1" id="Layer_1" xmlns="http://www.w3.org/2000/svg" xmlns:xlink="http://www.w3.org/1999/xlink" x="0px" y="0px"
	 viewBox="0 0 204.8 207" style="enable-background:new 0 0 204.8 207;" xml:space="preserve">
<style type="text/css">
	.st0{clip-path:url(#SVGID_2_);fill:#363D39;}
	.st1{fill:#363D39;}
	.st2{clip-path:url(#SVGID_4_);fill:#363D39;}
	.st3{clip-path:url(#SVGID_6_);fill:#363D39;}
</style>
<g>
	<defs>
		<rect id="SVGID_1_" width="204.8" height="207"/>
	</defs>
	<clipPath id="SVGID_2_">
		<use xlink:href="#SVGID_1_"  style="overflow:visible;"/>
	</clipPath>
	<path class="st0" d="M181,186.7c0,0.7-0.6,1-1.2,1c-0.5,0-0.8-0.3-0.8-0.8c0-1.1,1.2-1.1,2-1.2V186.7z M180.1,181.9
		c-0.9,0-2,0.3-2.7,1l0.8,1.2c0.4-0.5,1.1-0.8,1.8-0.8c0.4,0,1.1,0.1,1.1,0.7v0.6c-1.7,0.2-3.9,0.3-3.9,2.6c0,1.2,0.8,2.1,2,2.1
		c0.8,0,1.4-0.3,1.9-0.8l0.1,0.7h1.9v-5.2C182.9,182.2,181.4,181.9,180.1,181.9 M173.4,181.1v0.9h-0.8v1.4h0.8v5.5h1.9v-5.5h1.3
		v-1.4h-1.3v-0.6c0-0.7,0.3-1,0.9-1c0.2,0,0.4,0,0.6,0.1v-1.3c-0.3-0.1-0.7-0.1-1.1-0.1C174.6,179.2,173.4,179.7,173.4,181.1
		 M187.6,187.7c-0.9,0-1.4-0.8-1.4-2.2c0-1.4,0.3-2.2,1.4-2.2c0.6,0,1,0.5,1.1,0.9l1.3-0.7c-0.4-1.1-1.4-1.6-2.7-1.6
		c-1.7,0-3.2,1.3-3.2,3.6c0,2.3,1.1,3.7,3.2,3.7c1.1,0,2.3-0.4,2.7-1.5l-1.2-0.8C188.7,187.4,188.2,187.7,187.6,187.7 M192.5,184.9
		c0-0.8,0.3-1.7,1.3-1.7c0.9,0,1.1,0.9,1.1,1.7H192.5z M193.9,181.9c-2.2,0-3.4,1.5-3.4,3.6c0,2,1.2,3.7,3.3,3.7
		c1.2,0,2.1-0.3,2.9-1.1l-0.9-1.1c-0.5,0.6-1,0.8-1.7,0.8c-1,0-1.6-0.6-1.6-1.7h4.3c0-0.2,0-0.4,0-0.5
		C196.9,183.6,196,181.9,193.9,181.9 M152.2,181.9c-0.8,0-1.4,0.3-2.1,0.8l-0.1-0.7h-1.8v7h1.9v-4.4c0-0.8,0.4-1.3,1.3-1.3
		c0.5,0,0.7,0.4,0.7,0.8v4.8h1.9v-5.2C154,182.6,153.5,181.9,152.2,181.9 M157.8,186.7v-3.3h1.5v-1.4h-1.5v-1.7h-1.1
		c-0.2,0.9-0.7,1.7-1.7,2v1.1h0.8v4c0,1.3,1.2,1.7,2.1,1.7c0.6,0,1.2-0.2,1.6-0.3v-1.3c-0.1,0.1-0.6,0.2-0.9,0.2
		C157.9,187.8,157.8,187.3,157.8,186.7 M144.3,189h2.2v-9.2h-2.2V189z M169.9,183.1l-0.1-1H168v7h1.9v-3.9c0-0.8,0.6-1.5,1.4-1.5
		c0.2,0,0.3,0,0.6,0.1v-1.8c-0.1,0-0.1,0-0.2,0C170.9,181.9,170.2,182.4,169.9,183.1 M162.2,184.9c0-0.8,0.3-1.7,1.3-1.7
		c0.9,0,1.1,0.9,1.1,1.7H162.2z M163.6,181.9c-2.2,0-3.4,1.5-3.4,3.6c0,2,1.2,3.7,3.3,3.7c1.2,0,2.1-0.3,2.9-1.1l-0.9-1.1
		c-0.5,0.6-1,0.8-1.7,0.8c-1,0-1.6-0.6-1.6-1.7h4.3c0-0.2,0-0.4,0-0.5C166.6,183.6,165.7,181.9,163.6,181.9"/>
	<path class="st0" d="M198.8,184c-0.6,0-1.1-0.5-1.1-1.1c0-0.6,0.5-1.1,1.1-1.1c0.6,0,1.1,0.5,1.1,1.1
		C199.9,183.6,199.4,184,198.8,184 M198.8,181.8c-0.7,0-1.2,0.5-1.2,1.2c0,0.7,0.5,1.2,1.2,1.2s1.2-0.5,1.2-1.2
		C200,182.3,199.4,181.8,198.8,181.8 M198.5,182.9v-0.5h0.2c0.2,0,0.3,0.1,0.3,0.3c0,0.2-0.1,0.3-0.3,0.3H198.5z M199.3,182.6
		c0-0.3-0.1-0.4-0.5-0.4h-0.4v1.5h0.2V183h0.2l0.3,0.7h0.2L199,183C199.1,183,199.3,182.8,199.3,182.6"/>
	<path class="st0" d="M151.6,197.3c0.5,0,1.4-1.2,1.4-1.7c0-0.2-0.1-0.4-0.2-0.6c-0.1-0.1-0.3-0.3-0.4-0.3c-0.8-0.6-2.1-0.8-3-0.8
		c-3.1,0-5.6,2.2-5.6,5.4c0,2.8,2.1,4.9,4.9,4.9c1,0,2-0.3,2.9-0.8c0.4-0.2,1.4-0.9,1.4-1.4c0-0.2-0.2-0.4-0.4-0.4
		c-0.3,0.1-0.6,0.4-1.2,0.7c-0.5,0.2-1.3,0.4-1.8,0.4c-2.3,0-4-1.8-4-4.1c0-2,1.3-3.6,3.4-3.6c0.7,0,2.4,0.3,2.4,1.3
		c0,0.2-0.1,0.4-0.1,0.6S151.4,197.3,151.6,197.3"/>
	<path class="st0" d="M157.3,203.3c-1.3,0-1.8-1.7-1.8-2.7c0-0.9,0.4-2.2,1.5-2.2c1.3,0,1.7,1.7,1.7,2.8
		C158.8,201.9,158.4,203.3,157.3,203.3 M157.1,197.4c-2,0-3.3,1.5-3.3,3.5s1.5,3.2,3.4,3.2c1.9,0,3.4-1.4,3.4-3.3
		C160.5,198.8,159.1,197.4,157.1,197.4"/>
	<path class="st0" d="M146.1,169.6c0.2-0.6,1.3-3.2,1.5-3.5c0.1,0.3,0.8,1.9,1,2.5c0.1,0.2,0.4,1,0.4,1.1c0,0.2-0.1,0.2-0.3,0.2
		h-2.4C146.2,170,146,169.9,146.1,169.6 M143.5,174.1c0.4,0,0.7-0.1,1.1-0.1c0.4,0,0.7,0.1,1.1,0.1c0.3,0,0.6,0,0.6-0.4
		c0-0.2-0.1-0.3-0.4-0.4c-0.6-0.2-0.7-0.3-0.7-0.6c0-0.3,0.2-1.1,0.4-1.4c0.1-0.2,0.3-0.3,0.5-0.3l3,0c0.4,0,0.5,0.3,0.6,0.6
		c0.1,0.3,0.2,0.7,0.2,1c0,0.1,0,0.4-0.3,0.6c-0.3,0.1-0.6,0.2-0.6,0.5c0,0.3,0.3,0.4,0.8,0.4c0.6,0,0.9-0.1,1.4-0.1
		c0.5,0,0.8,0.1,1.4,0.1c0.4,0,0.8-0.1,0.7-0.4c0-0.2,0-0.3-0.4-0.5c-0.4-0.2-0.5-0.4-0.7-0.8c-0.3-0.5-0.5-1.2-0.7-1.7
		c-0.4-1-0.8-1.9-1.2-2.8c-0.4-0.8-0.7-1.6-1.1-2.5c-0.4-0.9-0.5-1.2-0.8-1.3c-0.1-0.1-0.3-0.1-0.4-0.1c-0.3,0-0.6,0-0.9,0
		c-0.3,0-1,0-1,0.5c0,0.4,0.7,0.4,0.7,0.8c0,0.1-0.1,0.3-0.1,0.5c-0.1,0.2-0.2,0.4-0.3,0.7c-0.7,1.8-1.5,3.4-2.1,5.3
		c-0.1,0.4-0.2,0.9-0.4,1.2c-0.2,0.3-0.3,0.3-0.6,0.4c-0.2,0.1-0.5,0.2-0.5,0.5C142.9,174,143.3,174.1,143.5,174.1"/>
	<path class="st0" d="M195.7,202.8c-0.2,0-0.4,0.1-0.5,0.1c-0.3,0-0.3-0.4-0.3-0.7v-2.2c0-0.7,0-1.3-0.4-1.8c-0.4-0.5-1-0.8-1.6-0.8
		c-0.8,0-1.5,0.4-2.1,0.9c0-0.5,0-0.8-0.6-0.8h-1.6c-0.3,0-0.5,0.1-0.5,0.4c0,0.2,0.2,0.3,0.4,0.4c0.6,0.1,0.7,0.2,0.7,0.9v3.1
		c0,0.6-0.1,0.7-0.6,0.9c-0.2,0-0.4,0.1-0.4,0.4c0,0.3,0.3,0.4,0.6,0.4c0.4,0,0.9-0.1,1.3-0.1s0.9,0.1,1.3,0.1
		c0.3,0,0.6-0.1,0.6-0.4c0-0.2-0.2-0.3-0.4-0.4c-0.6-0.1-0.6-0.3-0.6-0.9v-3c0.4-0.4,0.8-0.7,1.4-0.7c0.9,0,1,0.9,1,1.6v2.4
		c0,0.7,0.4,1.4,1.2,1.4c0.6,0,1.6-0.4,1.6-1C196,203,195.8,202.8,195.7,202.8"/>
	<path class="st0" d="M177.3,203.1c-0.4,0-0.8-0.1-1-0.5c-0.3-0.4-0.3-0.9-0.3-1.3v-1.9c0.4-0.3,0.8-0.6,1.3-0.6
		c1.1,0,1.8,1.1,1.8,2.1C179.1,202.1,178.5,203.1,177.3,203.1 M178.1,197.5c-0.9,0-1.4,0.5-2.1,1c0-0.5,0-0.9-0.6-0.9h-1.6
		c-0.3,0-0.5,0.1-0.5,0.4c0,0.2,0.2,0.3,0.4,0.4c0.6,0.1,0.7,0.2,0.7,0.9v6c0,0.6-0.1,0.7-0.6,0.9c-0.2,0-0.4,0.1-0.4,0.4
		c0,0.3,0.3,0.4,0.6,0.4c0.4,0,0.9-0.1,1.3-0.1s0.9,0.1,1.3,0.1c0.3,0,0.6-0.1,0.6-0.4c0-0.2-0.2-0.3-0.4-0.4
		c-0.6-0.1-0.6-0.3-0.6-0.9V204c0.3,0.1,0.7,0.2,1.1,0.2c1.9,0,3.4-1.8,3.4-3.7C180.5,199,179.7,197.5,178.1,197.5"/>
	<path class="st0" d="M154.1,168.4c0.6,0.1,0.7,0.2,0.7,0.9v3.1c0,0.6-0.1,0.7-0.6,0.9c-0.2,0-0.4,0.2-0.4,0.4
		c0,0.3,0.3,0.4,0.6,0.4c0.4,0,0.9-0.1,1.3-0.1s0.9,0.1,1.3,0.1c0.3,0,0.6-0.1,0.6-0.4c0-0.2-0.2-0.3-0.4-0.4
		c-0.6-0.1-0.6-0.3-0.6-0.9v-3c0.4-0.4,0.8-0.7,1.4-0.7c0.9,0,1,0.9,1,1.6v2.4c0,0.7,0.4,1.4,1.2,1.4c0.5,0,1.6-0.4,1.6-1
		c0-0.2-0.1-0.3-0.3-0.3c-0.2,0-0.4,0.2-0.5,0.2c-0.3,0-0.3-0.5-0.3-0.7v-2.2c0-0.7,0-1.3-0.4-1.8c-0.4-0.5-1-0.8-1.6-0.8
		c-0.8,0-1.5,0.4-2.1,0.9c0-0.5,0-0.8-0.6-0.8h-1.6c-0.3,0-0.5,0.1-0.5,0.4C153.7,168.2,153.9,168.3,154.1,168.4"/>
	<path class="st0" d="M172.8,202.8c-0.2,0-0.4,0.1-0.5,0.1c-0.3,0-0.3-0.4-0.3-0.7v-2.2c0-0.7,0-1.3-0.4-1.8
		c-0.4-0.5-0.9-0.8-1.6-0.8c-0.8,0-1.4,0.4-2.2,1.2c-0.1-0.1-0.1-0.2-0.2-0.4c-0.4-0.5-0.9-0.8-1.6-0.8c-0.8,0-1.4,0.5-2,1
		c0-0.5,0-0.8-0.6-0.8h-1.6c-0.3,0-0.5,0.1-0.5,0.4c0,0.2,0.2,0.3,0.4,0.4c0.6,0.1,0.7,0.2,0.7,0.9v3.1c0,0.6-0.1,0.7-0.6,0.9
		c-0.2,0-0.4,0.1-0.4,0.4c0,0.3,0.3,0.4,0.6,0.4c0.4,0,0.9-0.1,1.3-0.1c0.4,0,0.9,0.1,1.3,0.1c0.3,0,0.6-0.1,0.6-0.4
		c0-0.2-0.2-0.3-0.4-0.4c-0.6-0.1-0.6-0.3-0.6-0.9v-3.1c0.4-0.4,0.9-0.7,1.3-0.7c0.9,0,1,0.9,1,1.6v2.4c0,0.7,0.4,1.4,1.2,1.4
		c0.6,0,1.6-0.4,1.6-1c0-0.2-0.1-0.3-0.3-0.3c-0.2,0-0.4,0.1-0.5,0.1c-0.3,0-0.3-0.4-0.3-0.7v-2.2c0-0.2,0-0.5,0-0.7
		c0.5-0.5,0.9-0.7,1.4-0.7c0.9,0,1,0.9,1,1.6v2.4c0,0.7,0.4,1.4,1.2,1.4c0.6,0,1.6-0.4,1.6-1C173.1,203,173,202.8,172.8,202.8"/>
	<path class="st0" d="M202.5,197.6h-1.8c-0.2,0-0.4,0.2-0.4,0.4c0,0.5,0.7,0.2,0.7,0.8c0,0.4-0.6,2.1-1.2,3.5
		c-0.4-0.8-0.7-1.5-1.1-2.3c-0.1-0.3-0.4-0.9-0.4-1.2c0-0.5,0.7-0.3,0.7-0.8c0-0.2-0.2-0.4-0.4-0.4h-1.2h-1.3
		c-0.2,0-0.4,0.1-0.4,0.4c0,0.2,0.1,0.3,0.3,0.4c0.3,0.2,0.4,0.3,0.6,0.6c0.2,0.3,0.3,0.7,0.4,1c0.6,1.5,1.3,3,2,4.4
		c-0.2,0.5-0.7,1.4-1.2,1.4c-0.7,0-0.3-0.9-0.8-0.9c-0.4,0-1,0.8-1,1.2c0,0.2,0.1,0.4,0.3,0.5c0.3,0.3,0.6,0.4,1,0.4
		c0.8,0,1.5-0.5,1.9-1.2c0.7-1.2,1.2-2.6,1.7-3.8l1.1-3.1c0.3-0.8,0.9-0.6,0.9-1C202.9,197.8,202.8,197.6,202.5,197.6"/>
	<path class="st0" d="M184.8,202.3c-0.2,0.3-0.7,0.7-1.2,0.7c-0.5,0-0.8-0.4-0.8-0.9c0-0.5,0.6-0.9,1-1.1l1-0.4V202.3z M187,203.3
		c-0.3-0.1-0.4-0.2-0.4-0.9v-2.8c0-0.6-0.1-1.2-0.6-1.6c-0.4-0.4-1-0.5-1.6-0.5c-0.9,0-1.8,0.5-2.4,1.1c-0.3,0.3-0.3,0.4,0,0.6
		s0.5,0.2,0.8,0c0.3-0.2,0.9-0.5,1.3-0.5c0.6,0,1,0.4,0.9,1.2l-1.5,0.6c-0.9,0.4-2.2,1.1-2.2,2.2c0,1,0.9,1.6,1.8,1.6
		c0.9,0,1.5-0.4,2-1c0.2,1,1,1,1.5,1c0.3,0,1,0,1-0.4C187.5,203.4,187.2,203.4,187,203.3"/>
</g>
<rect x="65.6" y="0" class="st1" width="0.8" height="132"/>
<rect x="137.6" y="0" class="st1" width="0.8" height="132"/>
<rect y="65.6" class="st1" width="204" height="0.8"/>
<g>
	<defs>
		<rect id="SVGID_3_" width="204.8" height="207"/>
	</defs>
	<clipPath id="SVGID_4_">
		<use xlink:href="#SVGID_3_"  style="overflow:visible;"/>
	</clipPath>
	<path class="st2" d="M102,128.8c-14.8,0-26.8-12-26.8-26.8c0-14.8,12-26.8,26.8-26.8s26.8,12,26.8,26.8
		C128.8,116.8,116.8,128.8,102,128.8 M102,71.3C85,71.3,71.3,85,71.3,102S85,132.8,102,132.8s30.8-13.8,30.8-30.8S119,71.3,102,71.3
		"/>
</g>
<polygon class="st1" points="0,0 0,60 12,60 12,39 57,39 57,27 12,27 12,12 60,12 60,0 "/>
<polygon class="st1" points="72,0 72,60 132,60 132,48 84,48 84,0 "/>
<g>
	<defs>
		<rect id="SVGID_5_" width="204.8" height="207"/>
	</defs>
	<clipPath id="SVGID_6_">
		<use xlink:href="#SVGID_5_"  style="overflow:visible;"/>
	</clipPath>
	<path class="st3" d="M156,84h27.8c5,0,9,4,9,9c0,5-4,9-9,9H156V84z M204.8,93c0-11.6-9.4-21-21-21H144v60h12v-18h21.5l18,18h8.5
		v-8.5l-11.4-11.4C199.8,108.7,204.8,101.5,204.8,93"/>
	<path class="st3" d="M200.8,74c0,1.1,0.9,2,2,2c1.1,0,2-0.9,2-2c0-1.1-0.9-2-2-2C201.6,72,200.8,72.9,200.8,74 M201.2,74
		c0-0.9,0.7-1.6,1.6-1.6c0.9,0,1.6,0.7,1.6,1.6c0,0.9-0.7,1.6-1.6,1.6C201.9,75.6,201.2,74.9,201.2,74 M203.3,74.2L203.3,74.2
		c0.3-0.2,0.4-0.4,0.4-0.7c0-0.4-0.3-0.7-0.7-0.7h-1.1l-0.1,0.1v2.1l0.1,0.1h0.3l0.1-0.1v-0.8l0.1-0.1h0.3l0.1,0.1l0.6,0.8l0.1,0.1
		h0.2l0.1-0.1v-0.3L203.3,74.2z M203.3,73.6c0,0.2-0.1,0.3-0.3,0.3h-0.7l-0.1-0.1v-0.4l0.1-0.1h0.7
		C203.2,73.3,203.3,73.4,203.3,73.6"/>
</g>
<g>
</g>
<g>
</g>
<g>
</g>
<g>
</g>
<g>
</g>
<g>
</g>
</svg>
