<?xml version="1.0" encoding="utf-8"?>
<!-- Generator: Adobe Illustrator 19.1.0, SVG Export Plug-In . SVG Version: 6.00 Build 0)  -->
<svg version="1.1" id="Layer_1" xmlns="http://www.w3.org/2000/svg" xmlns:xlink="http://www.w3.org/1999/xlink" x="0px" y="0px"
	 viewBox="0 0 204.8 207" style="enable-background:new 0 0 204.8 207;" xml:space="preserve">
<style type="text/css">
	.st0{clip-path:url(#SVGID_2_);fill:#363D39;}
	.st1{fill:#363D39;}
	.st2{clip-path:url(#SVGID_4_);fill:#363D39;}
	.st3{clip-path:url(#SVGID_6_);fill:#363D39;}
</style>
<g>
	<defs>
		<rect id="SVGID_1_" width="204.8" height="207"/>
	</defs>
	<clipPath id="SVGID_2_">
		<use xlink:href="#SVGID_1_"  style="overflow:visible;"/>
	</clipPath>
	<path class="st0" d="M164.8,186.5c-0.8,0-1-1.1-1-1.7c0-0.6,0.2-1.5,1-1.5c0.8,0,1.1,1,1.1,1.7
		C165.8,185.6,165.6,186.5,164.8,186.5 M168,182.3c-0.6,0-0.9,0.4-1.2,0.9c-0.6-0.6-1.2-0.8-2.1-0.8c-1.5,0-2.7,0.9-2.7,2.5
		c0,1,0.3,1.5,1.2,2c-0.5,0.4-1.3,1.1-1.3,1.8c0,0.3,0.1,0.5,0.4,0.6c0.5,0.2,1.5,0.2,2.1,0.2c0.4,0,1.3,0,1.8,0.1
		c0.2,0.1,0.5,0.3,0.5,0.5c0,0.7-1,0.8-1.5,0.8c-0.7,0-1.3-0.1-1.8-0.6c-0.2-0.2-0.3-0.4-0.6-0.4c-0.4,0-0.7,0.5-0.7,0.9
		c0,0.9,1.6,1.1,2.2,1.1c1.5,0,3.5-0.4,3.5-2.3c0-1.5-1.5-1.4-2.6-1.5c-0.3,0-0.7,0-1,0c-0.1,0-0.6,0-0.6-0.2c0-0.3,0.2-0.5,0.4-0.7
		c0.3,0,0.6,0.1,0.8,0.1c1.5,0,2.6-0.9,2.6-2.4c0-0.2,0-0.4,0-0.6c0-0.1-0.1-0.3-0.1-0.5c0-0.2,0.1-0.3,0.2-0.3
		c0.3,0,0.3,0.4,0.6,0.4c0.4,0,0.6-0.4,0.6-0.7C168.8,182.8,168.5,182.3,168,182.3"/>
	<path class="st0" d="M156.4,200.2c0-0.8,0.4-1.8,1.4-1.8c0.5,0,1.1,0.3,1.1,0.9c0,0.1,0,0.2-0.1,0.2c-0.2,0.2-0.9,0.5-1.2,0.6
		c-0.4,0.1-0.8,0.3-1.1,0.5C156.4,200.5,156.4,200.3,156.4,200.2 M160.2,202.2c-0.4,0-0.6,0.6-1.6,0.6c-0.3,0-0.7-0.1-1-0.2
		c-0.6-0.3-0.8-0.6-1.1-1.2l3.2-1.4c0.3-0.1,0.6-0.4,0.6-0.7c0-0.3-0.2-0.7-0.4-1c-0.5-0.6-1-0.9-1.8-0.9c-1.9,0-3.2,1.7-3.2,3.5
		s1.3,3.2,3.1,3.2c0.7,0,1.4-0.2,1.9-0.7c0.2-0.2,0.6-0.6,0.6-0.9C160.5,202.4,160.4,202.2,160.2,202.2"/>
	<path class="st0" d="M174.4,201.5c-0.8,0-1-1.1-1-1.7c0-0.6,0.2-1.5,1-1.5c0.8,0,1.1,1,1.1,1.6
		C175.5,200.6,175.2,201.5,174.4,201.5 M177.7,197.3c-0.6,0-0.9,0.4-1.2,0.9c-0.6-0.6-1.2-0.8-2.1-0.8c-1.5,0-2.7,0.9-2.7,2.5
		c0,1,0.3,1.5,1.2,2c-0.5,0.4-1.3,1.1-1.3,1.8c0,0.3,0.1,0.5,0.4,0.6c0.5,0.2,1.5,0.2,2.1,0.2c0.4,0,1.3,0,1.8,0.1
		c0.2,0.1,0.5,0.3,0.5,0.5c0,0.7-1,0.8-1.5,0.8c-0.7,0-1.3-0.1-1.8-0.6c-0.2-0.2-0.3-0.4-0.6-0.4c-0.4,0-0.7,0.5-0.7,0.9
		c0,0.9,1.6,1.1,2.2,1.1c1.5,0,3.5-0.4,3.5-2.3c0-1.5-1.5-1.4-2.6-1.5c-0.3,0-0.7,0-1,0c-0.1,0-0.6,0-0.6-0.2c0-0.3,0.2-0.5,0.4-0.7
		c0.3,0,0.6,0.1,0.8,0.1c1.5,0,2.6-0.9,2.6-2.4c0-0.2,0-0.4,0-0.6c0-0.1-0.1-0.3-0.1-0.5s0.1-0.3,0.2-0.3c0.3,0,0.3,0.4,0.6,0.4
		c0.4,0,0.6-0.4,0.6-0.7C178.5,197.8,178.2,197.3,177.7,197.3"/>
	<path class="st0" d="M186.5,202.8c-0.2,0-0.4,0.2-0.5,0.2c-0.3,0-0.3-0.4-0.3-0.7v-2.2c0-0.7,0-1.3-0.4-1.8c-0.4-0.5-1-0.8-1.6-0.8
		c-0.8,0-1.5,0.4-2.1,0.9c0-0.5,0-0.8-0.6-0.8h-1.6c-0.3,0-0.5,0.1-0.5,0.4c0,0.2,0.2,0.3,0.4,0.4c0.6,0.1,0.7,0.2,0.7,0.9v3.1
		c0,0.6-0.1,0.7-0.6,0.9c-0.2,0-0.4,0.1-0.4,0.4c0,0.3,0.3,0.4,0.6,0.4c0.4,0,0.9-0.1,1.3-0.1s0.9,0.1,1.3,0.1
		c0.3,0,0.6-0.1,0.6-0.4c0-0.2-0.2-0.3-0.4-0.4c-0.6-0.1-0.6-0.3-0.6-0.9v-3c0.4-0.4,0.8-0.7,1.4-0.7c0.9,0,1,0.9,1,1.6v2.4
		c0,0.7,0.4,1.4,1.2,1.4c0.6,0,1.6-0.4,1.6-1C186.8,203,186.7,202.8,186.5,202.8"/>
	<path class="st0" d="M163.2,199.3c-0.1-0.1-0.4-0.3-0.3-0.7c0.2-0.3,0.7-0.3,1.4,0.1c0.4,0.2,0.7,0.6,0.9,0.6
		c0.2,0,0.4-0.3,0.5-0.8c0.1-0.3-0.2-0.5-0.6-0.7c-0.4-0.2-0.9-0.3-1.3-0.3c-0.5,0-1.1,0.2-1.6,0.5c-0.3,0.3-0.7,0.7-0.7,1.3
		c0,1,1.3,1.8,1.9,2.3c0.3,0.2,1.1,0.7,1.1,1.2c0,0.4-0.3,0.5-0.6,0.5c-0.5,0-1.1-0.3-1.4-0.7c0,0-0.2-0.3-0.3-0.4
		c-0.1-0.1-0.2-0.1-0.2-0.1c-0.3,0-0.7,0.7-0.7,1c0,0.6,1.1,0.9,1.5,1c0.3,0.1,0.6,0.1,0.9,0.1c1.1,0,2.3-0.8,2.3-1.8
		c0-0.5-0.4-1-0.6-1.3C164.7,200.3,164,199.9,163.2,199.3"/>
	<path class="st0" d="M160.7,188.3c-0.5-0.1-0.6-0.4-0.6-1l0-4c0-0.4,0-0.7-0.5-0.7h-1.9c-0.3,0-0.4,0.1-0.4,0.4
		c0,0.2,0.2,0.3,0.4,0.4c0.6,0.1,0.7,0.2,0.7,0.9v3c-0.4,0.3-0.8,0.6-1.4,0.6c-0.9,0-1.1-0.7-1.1-1.5v-3.1c0-0.4,0-0.7-0.5-0.7h-1.9
		c-0.3,0-0.4,0.1-0.4,0.4c0,0.2,0.2,0.3,0.4,0.4c0.6,0.1,0.7,0.2,0.7,0.9v2.5c0,1.4,0.8,2.3,2.2,2.3c0.8,0,1.4-0.4,2-1
		c0.1,0.4,0.1,0.9,0.6,0.9c0.3,0,0.5-0.1,0.8-0.1h0.9c0.2,0,0.4-0.1,0.4-0.4C161.1,188.4,161,188.3,160.7,188.3"/>
	<path class="st0" d="M170.3,203.3c-0.6-0.1-0.6-0.3-0.6-0.9v-4.2c0-0.5,0-0.6-0.5-0.6h-1.8c-0.3,0-0.5,0.1-0.5,0.4
		c0,0.2,0.2,0.3,0.4,0.4c0.6,0.1,0.7,0.2,0.7,0.9v3.1c0,0.6-0.1,0.7-0.6,0.9c-0.2,0-0.4,0.1-0.4,0.4c0,0.3,0.3,0.4,0.6,0.4
		c0.4,0,0.9-0.1,1.3-0.1c0.4,0,0.9,0.1,1.3,0.1c0.3,0,0.6-0.1,0.6-0.4C170.7,203.5,170.5,203.4,170.3,203.3"/>
	<path class="st0" d="M167.7,195.1c0,0.5,0.6,1.1,1,1.1c0.4,0,1.1-0.7,1.1-1.1s-0.6-1.1-1-1.1C168.4,194.1,167.7,194.7,167.7,195.1"
		/>
	<path class="st0" d="M146.9,181.6c0-1,0.2-1.8,1.3-1.8c1,0,1.8,0.7,1.8,1.8c0,0.7-0.4,1.4-1.1,1.7c-0.4,0.2-0.7,0.2-1.1,0.2
		c-0.3,0-0.6,0-0.9,0V181.6z M144.9,180.5c0,0.2,0,0.4,0,0.6v5.7c0,1.2-0.3,1.3-0.9,1.4c-0.3,0.1-0.5,0.2-0.5,0.4
		c0,0.3,0.3,0.4,0.6,0.4c0.5,0,1.3-0.1,1.7-0.1s1.3,0.1,1.7,0.1c0.3,0,0.6-0.1,0.6-0.4c0-0.3-0.2-0.3-0.5-0.4
		c-0.6-0.2-0.9-0.3-0.9-1.4v-2.4c0.1,0,0.3,0,0.4,0c0.5,0,0.7,0.2,1,0.6c0.1,0.1,0.3,0.3,0.4,0.5l1.2,2.1c0.3,0.5,0.7,1.1,1.3,1.3
		c0.4,0.2,0.9,0.2,1.4,0.2c0.3,0,0.9,0,0.9-0.4c0-0.2-0.1-0.3-0.3-0.4l-0.6-0.3c-0.2-0.1-0.4-0.4-0.5-0.6c-0.3-0.4-0.6-0.9-0.9-1.3
		c-0.2-0.3-0.4-0.7-0.7-1c-0.4-0.6-0.5-0.7-1.1-0.9c0.7-0.1,1.2-0.3,1.8-0.7c0.6-0.5,0.9-1.1,0.9-1.8c0-1.8-1.6-2.7-3.2-2.7
		c-0.9,0-1.8,0.1-2.7,0.1c-0.6,0-1.3-0.1-1.9-0.1c-0.3,0-0.7,0-0.7,0.4C143.5,180,144.7,179.7,144.9,180.5"/>
	<path class="st0" d="M148.8,203.3c-0.5,0-1.1-0.1-1.5-0.5c-0.4-0.4-0.4-1.4-0.4-2v-4c0-0.4-0.1-1.4,0.3-1.7
		c0.3-0.3,0.7-0.4,1.1-0.4c2.5,0,4.1,2.5,4.1,4.7C152.3,201.5,151,203.3,148.8,203.3 M149,193.9c-1,0-1.9,0.1-2.9,0.1
		c-0.7,0-1.4-0.1-2.1-0.1c-0.3,0-0.7,0.1-0.7,0.5c0,0.4,0.6,0.4,0.9,0.5c0.7,0.2,0.6,1.2,0.6,1.8v4.9c0,0.4,0,1-0.3,1.3
		c-0.3,0.3-1.1,0.3-1.1,0.7c0,0.4,0.5,0.5,0.8,0.5c0.5,0,1-0.1,1.5-0.1c0.7,0,1.6,0.2,2.3,0.2c1.1,0,2.6-0.3,3.6-0.9
		c0.5-0.3,0.9-0.7,1.2-1.1c0.7-1,1.2-2.2,1.2-3.4C154.2,195.8,151.8,193.9,149,193.9"/>
	<path class="st0" d="M187.5,167.6H186c-0.2,0-0.4,0.2-0.4,0.4c0,0.5,0.7,0.3,0.7,0.8c0,0.3-0.1,0.6-0.2,0.9
		c-0.3,0.9-0.7,1.8-1.1,2.6l-1.1-2.6c-0.1-0.3-0.3-0.6-0.3-0.8c0-0.5,0.7-0.3,0.7-0.8c0-0.2-0.1-0.4-0.4-0.4h-2.5
		c-0.3,0-0.5,0.1-0.5,0.4c0,0.3,0.3,0.4,0.5,0.6c0.2,0.2,0.3,0.5,0.4,0.8l1.9,4.4c0.2,0.3,0.4,0.6,0.8,0.6c0.3,0,0.6-0.2,0.7-0.5
		c0.6-1.2,1.2-2.6,1.7-3.8c0.1-0.2,0.4-1.3,0.6-1.5c0.2-0.1,0.5-0.2,0.5-0.5C187.9,167.8,187.9,167.6,187.5,167.6"/>
	<path class="st0" d="M161.9,168.4c0.5,0,1,0.3,1,0.9c0,0.1,0,0.2-0.1,0.2c-0.2,0.2-0.9,0.5-1.2,0.6c-0.4,0.1-0.8,0.3-1.1,0.5
		c0-0.1,0-0.3,0-0.4C160.5,169.3,160.9,168.4,161.9,168.4 M162.2,174.2c0.7,0,1.4-0.2,1.9-0.7c0.2-0.2,0.6-0.6,0.6-0.9
		c0-0.2-0.1-0.3-0.3-0.3c-0.4,0-0.6,0.6-1.6,0.6c-0.3,0-0.7-0.1-1-0.2c-0.6-0.3-0.8-0.6-1.1-1.2l3.2-1.4c0.3-0.1,0.6-0.4,0.6-0.7
		c0-0.3-0.2-0.7-0.4-1c-0.5-0.6-1-0.9-1.8-0.9c-1.9,0-3.2,1.7-3.2,3.5S160.4,174.2,162.2,174.2"/>
	<path class="st0" d="M189.5,170.2c0-0.8,0.4-1.8,1.4-1.8c0.5,0,1.1,0.3,1.1,0.9c0,0.1,0,0.1-0.1,0.2c-0.2,0.2-0.9,0.5-1.2,0.6
		c-0.4,0.2-0.8,0.3-1.1,0.5C189.5,170.5,189.5,170.3,189.5,170.2 M193.3,172.2c-0.4,0-0.6,0.6-1.6,0.6c-0.3,0-0.7-0.1-1-0.2
		c-0.6-0.3-0.8-0.6-1.1-1.2l3.2-1.4c0.3-0.1,0.6-0.4,0.6-0.7c0-0.3-0.2-0.7-0.4-1c-0.5-0.6-1-0.9-1.8-0.9c-1.9,0-3.2,1.7-3.2,3.5
		c0,1.8,1.3,3.2,3.1,3.2c0.7,0,1.4-0.2,1.9-0.7c0.2-0.2,0.6-0.6,0.6-0.9C193.6,172.4,193.5,172.2,193.3,172.2"/>
	<path class="st0" d="M172.9,168.5v3.2c0,0.6,0,1.4,0.4,1.8c0.4,0.5,1,0.6,1.6,0.6c0.4,0,1.7-0.2,1.7-0.8c0-0.2-0.2-0.3-0.4-0.3
		c-0.2,0-0.4,0.1-0.6,0.1c-0.9,0-1-0.9-1-1.7v-2.9h1.2c0.3,0,0.5-0.1,0.5-0.5s-0.2-0.5-0.5-0.5h-1.2l0-1.3c0-0.3-0.1-0.6-0.4-0.6
		c-0.4,0-0.5,0.4-0.6,0.7c-0.2,0.5-0.6,0.9-1.1,1.2c-0.2,0.1-0.6,0.2-0.6,0.6C171.9,168.6,172.6,168.5,172.9,168.5"/>
	<path class="st0" d="M148.7,174.2c1,0,2-0.3,2.9-0.8c0.4-0.2,1.4-0.9,1.4-1.4c0-0.2-0.2-0.4-0.4-0.4c-0.3,0.1-0.6,0.4-1.2,0.7
		c-0.5,0.2-1.3,0.4-1.8,0.4c-2.3,0-4-1.8-4-4.1c0-2,1.3-3.6,3.4-3.6c0.7,0,2.4,0.3,2.4,1.3c0,0.2-0.2,0.4-0.2,0.6
		c0,0.2,0.2,0.4,0.4,0.4c0.5,0,1.4-1.2,1.4-1.7c0-0.2-0.1-0.4-0.2-0.6c-0.1-0.1-0.3-0.3-0.4-0.3c-0.8-0.6-2.1-0.8-3-0.8
		c-3.1,0-5.6,2.2-5.6,5.4C143.7,172.1,145.8,174.2,148.7,174.2"/>
	<path class="st0" d="M153.7,168.4c0.6,0.1,0.7,0.2,0.7,0.9v3.1c0,0.6-0.1,0.7-0.6,0.9c-0.2,0-0.4,0.2-0.4,0.4
		c0,0.3,0.3,0.4,0.6,0.4c0.4,0,0.9-0.1,1.3-0.1s0.9,0.1,1.3,0.1c0.3,0,0.6-0.1,0.6-0.4c0-0.2-0.2-0.3-0.4-0.4
		c-0.6-0.1-0.6-0.3-0.6-0.9v-2.8c0.2-0.4,0.5-0.8,1-0.8c0.5,0,0.7,0.5,0.9,0.5c0.6,0,0.7-0.8,0.7-1.2c0-0.6-0.3-0.8-0.8-0.8
		c-0.8,0-1.4,0.6-1.9,1.1c0-0.5,0-0.9-0.7-0.9h-1.6c-0.3,0-0.5,0.1-0.5,0.4C153.4,168.2,153.5,168.3,153.7,168.4"/>
	<path class="st0" d="M169.1,172.3c-0.2,0.3-0.7,0.7-1.2,0.7c-0.5,0-0.8-0.4-0.8-0.9c0-0.5,0.6-0.9,1-1.1l1-0.4V172.3z M171.8,173.7
		c0-0.3-0.3-0.3-0.5-0.4c-0.3-0.1-0.4-0.2-0.4-0.9v-2.8c0-0.6-0.1-1.2-0.6-1.6c-0.4-0.4-1-0.5-1.6-0.5c-0.9,0-1.8,0.5-2.4,1
		c-0.3,0.3-0.3,0.4,0,0.6c0.2,0.2,0.5,0.2,0.8,0c0.3-0.2,0.9-0.5,1.3-0.5c0.6,0,1,0.4,0.9,1.2l-1.5,0.6c-0.9,0.4-2.2,1-2.2,2.2
		c0,1,0.9,1.6,1.8,1.6c0.9,0,1.5-0.4,2-1c0.2,1,1,1,1.5,1C171,174.1,171.8,174.1,171.8,173.7"/>
	<path class="st0" d="M177.4,168.4c0.6,0.1,0.7,0.2,0.7,0.9v3.1c0,0.6-0.1,0.7-0.6,0.9c-0.2,0-0.4,0.2-0.4,0.4
		c0,0.3,0.3,0.4,0.6,0.4c0.4,0,0.9-0.1,1.3-0.1s0.9,0.1,1.3,0.1c0.3,0,0.6-0.1,0.6-0.4c0-0.2-0.2-0.3-0.4-0.4
		c-0.6-0.1-0.6-0.3-0.6-0.9v-4.2c0-0.5,0-0.6-0.5-0.6h-1.8c-0.3,0-0.5,0.1-0.5,0.4C177,168.2,177.2,168.3,177.4,168.4"/>
	<path class="st0" d="M178.9,166.2c0.4,0,1-0.7,1-1.1s-0.6-1.1-1-1.1c-0.3,0-1.1,0.6-1.1,1.1C177.9,165.6,178.5,166.2,178.9,166.2"
		/>
</g>
<rect x="65.6" y="0" class="st1" width="0.8" height="132"/>
<rect x="137.6" y="0" class="st1" width="0.8" height="132"/>
<rect y="65.6" class="st1" width="204" height="0.8"/>
<g>
	<defs>
		<rect id="SVGID_3_" width="204.8" height="207"/>
	</defs>
	<clipPath id="SVGID_4_">
		<use xlink:href="#SVGID_3_"  style="overflow:visible;"/>
	</clipPath>
	<path class="st2" d="M102,128.8c-14.8,0-26.8-12-26.8-26.8c0-14.8,12-26.8,26.8-26.8s26.8,12,26.8,26.8
		C128.8,116.8,116.8,128.8,102,128.8 M102,71.3C85,71.3,71.3,85,71.3,102S85,132.8,102,132.8s30.8-13.8,30.8-30.8S119,71.3,102,71.3
		"/>
</g>
<polygon class="st1" points="0,0 0,60 12,60 12,39 57,39 57,27 12,27 12,12 60,12 60,0 "/>
<polygon class="st1" points="72,0 72,60 132,60 132,48 84,48 84,0 "/>
<g>
	<defs>
		<rect id="SVGID_5_" width="204.8" height="207"/>
	</defs>
	<clipPath id="SVGID_6_">
		<use xlink:href="#SVGID_5_"  style="overflow:visible;"/>
	</clipPath>
	<path class="st3" d="M156,84h27.8c5,0,9,4,9,9c0,5-4,9-9,9H156V84z M204.8,93c0-11.6-9.4-21-21-21H144v60h12v-18h21.5l18,18h8.5
		v-8.5l-11.4-11.4C199.8,108.7,204.8,101.5,204.8,93"/>
	<path class="st3" d="M200.8,74c0,1.1,0.9,2,2,2c1.1,0,2-0.9,2-2c0-1.1-0.9-2-2-2C201.6,72,200.8,72.9,200.8,74 M201.2,74
		c0-0.9,0.7-1.6,1.6-1.6c0.9,0,1.6,0.7,1.6,1.6c0,0.9-0.7,1.6-1.6,1.6C201.9,75.6,201.2,74.9,201.2,74 M203.3,74.2L203.3,74.2
		c0.3-0.2,0.4-0.4,0.4-0.7c0-0.4-0.3-0.7-0.7-0.7h-1.1l-0.1,0.1v2.1l0.1,0.1h0.3l0.1-0.1v-0.8l0.1-0.1h0.3l0.1,0.1l0.6,0.8l0.1,0.1
		h0.2l0.1-0.1v-0.3L203.3,74.2z M203.3,73.6c0,0.2-0.1,0.3-0.3,0.3h-0.7l-0.1-0.1v-0.4l0.1-0.1h0.7
		C203.2,73.3,203.3,73.4,203.3,73.6"/>
</g>
<g>
</g>
<g>
</g>
<g>
</g>
<g>
</g>
<g>
</g>
<g>
</g>
</svg>
