<?xml version="1.0" encoding="utf-8"?>
<!-- Generator: Adobe Illustrator 19.1.0, SVG Export Plug-In . SVG Version: 6.00 Build 0)  -->
<svg version="1.1" id="Layer_1" xmlns="http://www.w3.org/2000/svg" xmlns:xlink="http://www.w3.org/1999/xlink" x="0px" y="0px"
	 viewBox="0 0 266.8 288" style="enable-background:new 0 0 266.8 288;" xml:space="preserve">
<style type="text/css">
	.st0{fill:#F2BE1A;}
	.st1{fill:#363D39;}
	.st2{clip-path:url(#SVGID_2_);fill:#363D39;}
	.st3{clip-path:url(#SVGID_4_);fill:#363D39;}
	.st4{fill:#BCC0BC;}
	.st5{clip-path:url(#SVGID_6_);fill:#BCC0BC;}
	.st6{clip-path:url(#SVGID_8_);fill:#BCC0BC;}
	.st7{fill:#FFFFFF;}
	.st8{clip-path:url(#SVGID_10_);fill:#FFFFFF;}
	.st9{clip-path:url(#SVGID_12_);fill:#FFFFFF;}
</style>
<rect x="194.8" class="st0" width="72" height="288"/>
<rect x="0.8" y="71.6" class="st1" width="60" height="0.8"/>
<rect x="0.8" y="143.6" class="st1" width="60" height="0.8"/>
<rect x="0.8" y="215.6" class="st1" width="60" height="0.8"/>
<g>
	<defs>
		<rect id="SVGID_1_" width="266.8" height="288"/>
	</defs>
	<clipPath id="SVGID_2_">
		<use xlink:href="#SVGID_1_"  style="overflow:visible;"/>
	</clipPath>
	<path class="st2" d="M30.8,206.8C16,206.8,4,194.8,4,180c0-14.8,12-26.8,26.8-26.8s26.8,12,26.8,26.8
		C57.5,194.8,45.5,206.8,30.8,206.8 M30.8,149.3C13.8,149.3,0,163,0,180s13.8,30.8,30.8,30.8S61.5,197,61.5,180
		S47.7,149.3,30.8,149.3"/>
</g>
<polygon class="st1" points="0.7,6 0.7,66 12.8,66 12.8,45 57.8,45 57.8,33 12.8,33 12.8,18 60.7,18 60.7,6 "/>
<polygon class="st1" points="0.7,78 0.7,138 60.7,138 60.7,126 12.8,126 12.8,78 "/>
<g>
	<defs>
		<rect id="SVGID_3_" width="266.8" height="288"/>
	</defs>
	<clipPath id="SVGID_4_">
		<use xlink:href="#SVGID_3_"  style="overflow:visible;"/>
	</clipPath>
	<path class="st3" d="M12.8,234h27.8c5,0,9,4,9,9c0,5-4,9-9,9H12.8V234z M61.5,243c0-11.6-9.4-21-21-21H0.8v60h12v-18h21.5l18,18
		h8.5v-8.5l-11.4-11.4C56.5,258.7,61.5,251.5,61.5,243"/>
	<path class="st3" d="M57.5,224c0,1.1,0.9,2,2,2s2-0.9,2-2c0-1.1-0.9-2-2-2S57.5,222.9,57.5,224 M57.9,224c0-0.9,0.7-1.6,1.6-1.6
		s1.6,0.7,1.6,1.6c0,0.9-0.7,1.6-1.6,1.6S57.9,224.9,57.9,224 M60.1,224.2L60.1,224.2c0.3-0.2,0.4-0.4,0.4-0.7
		c0-0.4-0.3-0.7-0.7-0.7h-1.1l-0.1,0.1v2.1l0.1,0.1H59l0.1-0.1v-0.8l0.1-0.1h0.3l0.1,0.1l0.6,0.8l0.1,0.1h0.2l0.1-0.1v-0.3
		L60.1,224.2z M60.1,223.6c0,0.2-0.1,0.3-0.3,0.3h-0.7l-0.1-0.1v-0.4l0.1-0.1h0.7C59.9,223.3,60.1,223.4,60.1,223.6"/>
</g>
<rect x="100.8" y="71.6" class="st4" width="60" height="0.8"/>
<rect x="100.8" y="143.6" class="st4" width="60" height="0.8"/>
<rect x="100.8" y="215.6" class="st4" width="60" height="0.8"/>
<g>
	<defs>
		<rect id="SVGID_5_" width="266.8" height="288"/>
	</defs>
	<clipPath id="SVGID_6_">
		<use xlink:href="#SVGID_5_"  style="overflow:visible;"/>
	</clipPath>
	<path class="st5" d="M130.8,206.8c-14.8,0-26.8-12-26.8-26.8c0-14.8,12-26.8,26.8-26.8c14.8,0,26.8,12,26.8,26.8
		C157.5,194.8,145.5,206.8,130.8,206.8 M130.8,149.3c-17,0-30.8,13.8-30.8,30.8s13.8,30.8,30.8,30.8s30.8-13.8,30.8-30.8
		S147.7,149.3,130.8,149.3"/>
</g>
<polygon class="st4" points="160.8,18 160.8,6 100.8,6 100.8,66 112.8,66 112.8,45 157.8,45 157.8,33 112.8,33 112.8,18 "/>
<polygon class="st4" points="112.8,126 112.8,78 100.8,78 100.8,138 160.8,138 160.8,126 "/>
<g>
	<defs>
		<rect id="SVGID_7_" width="266.8" height="288"/>
	</defs>
	<clipPath id="SVGID_8_">
		<use xlink:href="#SVGID_7_"  style="overflow:visible;"/>
	</clipPath>
	<path class="st6" d="M112.8,234h27.8c5,0,9,4,9,9c0,5-4,9-9,9h-27.8V234z M161.5,243c0-11.6-9.4-21-21-21h-39.8v60h12v-18h21.5
		l18,18h8.5v-8.5l-11.4-11.4C156.5,258.7,161.5,251.5,161.5,243"/>
	<path class="st6" d="M157.5,224c0,1.1,0.9,2,2,2c1.1,0,2-0.9,2-2c0-1.1-0.9-2-2-2C158.4,222,157.5,222.9,157.5,224 M157.9,224
		c0-0.9,0.7-1.6,1.6-1.6c0.9,0,1.6,0.7,1.6,1.6c0,0.9-0.7,1.6-1.6,1.6C158.6,225.6,157.9,224.9,157.9,224 M160.1,224.2L160.1,224.2
		c0.3-0.2,0.4-0.4,0.4-0.7c0-0.4-0.3-0.7-0.7-0.7h-1.1l-0.1,0.1v2.1l0.1,0.1h0.3l0.1-0.1v-0.8l0.1-0.1h0.3l0.1,0.1l0.6,0.8l0.1,0.1
		h0.2l0.1-0.1v-0.3L160.1,224.2z M160.1,223.6c0,0.2-0.1,0.3-0.3,0.3h-0.7l-0.1-0.1v-0.4l0.1-0.1h0.7
		C159.9,223.3,160.1,223.4,160.1,223.6"/>
</g>
<rect x="200.8" y="71.6" class="st7" width="60" height="0.8"/>
<rect x="200.8" y="143.6" class="st7" width="60" height="0.8"/>
<rect x="200.8" y="215.6" class="st7" width="60" height="0.8"/>
<g>
	<defs>
		<rect id="SVGID_9_" width="266.8" height="288"/>
	</defs>
	<clipPath id="SVGID_10_">
		<use xlink:href="#SVGID_9_"  style="overflow:visible;"/>
	</clipPath>
	<path class="st8" d="M230.8,206.8c-14.8,0-26.8-12-26.8-26.8c0-14.8,12-26.8,26.8-26.8c14.8,0,26.8,12,26.8,26.8
		C257.5,194.8,245.5,206.8,230.8,206.8 M230.8,149.3c-17,0-30.8,13.8-30.8,30.8s13.8,30.8,30.8,30.8s30.8-13.8,30.8-30.8
		S247.7,149.3,230.8,149.3"/>
</g>
<polygon class="st7" points="260.8,18 260.8,6 200.8,6 200.8,66 212.8,66 212.8,45 257.8,45 257.8,33 212.8,33 212.8,18 "/>
<polygon class="st7" points="212.8,126 212.8,78 200.8,78 200.8,138 260.8,138 260.8,126 "/>
<g>
	<defs>
		<rect id="SVGID_11_" width="266.8" height="288"/>
	</defs>
	<clipPath id="SVGID_12_">
		<use xlink:href="#SVGID_11_"  style="overflow:visible;"/>
	</clipPath>
	<path class="st9" d="M212.8,234h27.8c5,0,9,4,9,9c0,5-4,9-9,9h-27.8V234z M261.5,243c0-11.6-9.4-21-21-21h-39.8v60h12v-18h21.5
		l18,18h8.5v-8.5l-11.4-11.4C256.5,258.7,261.5,251.5,261.5,243"/>
	<path class="st9" d="M257.5,224c0,1.1,0.9,2,2,2c1.1,0,2-0.9,2-2c0-1.1-0.9-2-2-2C258.4,222,257.5,222.9,257.5,224 M257.9,224
		c0-0.9,0.7-1.6,1.6-1.6c0.9,0,1.6,0.7,1.6,1.6c0,0.9-0.7,1.6-1.6,1.6C258.6,225.6,257.9,224.9,257.9,224 M260.1,224.2L260.1,224.2
		c0.3-0.2,0.4-0.4,0.4-0.7c0-0.4-0.3-0.7-0.7-0.7h-1.1l-0.1,0.1v2.1l0.1,0.1h0.3l0.1-0.1v-0.8l0.1-0.1h0.3l0.1,0.1l0.6,0.8l0.1,0.1
		h0.2l0.1-0.1v-0.3L260.1,224.2z M260.1,223.6c0,0.2-0.1,0.3-0.3,0.3h-0.7l-0.1-0.1v-0.4l0.1-0.1h0.7
		C259.9,223.3,260.1,223.4,260.1,223.6"/>
</g>
<g>
</g>
<g>
</g>
<g>
</g>
<g>
</g>
<g>
</g>
<g>
</g>
</svg>
