<?xml version="1.0" encoding="utf-8"?>
<!-- Generator: Adobe Illustrator 19.1.0, SVG Export Plug-In . SVG Version: 6.00 Build 0)  -->
<svg version="1.1" id="Layer_1" xmlns="http://www.w3.org/2000/svg" xmlns:xlink="http://www.w3.org/1999/xlink" x="0px" y="0px"
	 viewBox="0 0 732 144" style="enable-background:new 0 0 732 144;" xml:space="preserve">
<style type="text/css">
	.st0{fill:#F2BE1A;}
	.st1{fill:#363D39;}
	.st2{clip-path:url(#SVGID_2_);fill:#363D39;}
	.st3{clip-path:url(#SVGID_4_);fill:#363D39;}
	.st4{fill:#BCC0BC;}
	.st5{clip-path:url(#SVGID_6_);fill:#BCC0BC;}
	.st6{clip-path:url(#SVGID_8_);fill:#BCC0BC;}
	.st7{clip-path:url(#SVGID_10_);fill:#F2BE1A;}
	.st8{clip-path:url(#SVGID_12_);fill:#F2BE1A;}
	.st9{fill:#FFFFFF;}
	.st10{clip-path:url(#SVGID_14_);fill:#FFFFFF;}
	.st11{clip-path:url(#SVGID_16_);fill:#FFFFFF;}
</style>
<rect x="588" class="st0" width="144" height="144"/>
<rect x="66.4" y="6" class="st1" width="0.8" height="132"/>
<rect x="0.8" y="71.6" class="st1" width="132" height="0.8"/>
<g>
	<defs>
		<rect id="SVGID_1_" width="732" height="144"/>
	</defs>
	<clipPath id="SVGID_2_">
		<use xlink:href="#SVGID_1_"  style="overflow:visible;"/>
	</clipPath>
	<path class="st2" d="M30.8,134.8C16,134.8,4,122.8,4,108c0-14.8,12-26.8,26.8-26.8s26.8,12,26.8,26.8
		C57.5,122.8,45.5,134.8,30.8,134.8 M30.8,77.3C13.8,77.3,0,91,0,108s13.8,30.8,30.8,30.8S61.5,125,61.5,108S47.7,77.3,30.8,77.3"/>
</g>
<polygon class="st1" points="0.7,6 0.7,66 12.8,66 12.8,45 57.8,45 57.8,33 12.8,33 12.8,18 60.7,18 60.7,6 "/>
<polygon class="st1" points="84.8,54 84.8,6 72.8,6 72.8,66 132.8,66 132.8,54 "/>
<g>
	<defs>
		<rect id="SVGID_3_" width="732" height="144"/>
	</defs>
	<clipPath id="SVGID_4_">
		<use xlink:href="#SVGID_3_"  style="overflow:visible;"/>
	</clipPath>
	<path class="st3" d="M84.8,90h27.8c5,0,9,4,9,9c0,5-4,9-9,9H84.8V90z M133.5,99c0-11.6-9.4-21-21-21H72.8v60h12v-18h21.5l18,18h8.5
		v-8.5l-11.4-11.4C128.5,114.7,133.5,107.5,133.5,99"/>
	<path class="st3" d="M129.5,80c0,1.1,0.9,2,2,2c1.1,0,2-0.9,2-2c0-1.1-0.9-2-2-2C130.4,78,129.5,78.9,129.5,80 M129.9,80
		c0-0.9,0.7-1.6,1.6-1.6c0.9,0,1.6,0.7,1.6,1.6c0,0.9-0.7,1.6-1.6,1.6C130.6,81.6,129.9,80.9,129.9,80 M132.1,80.2L132.1,80.2
		c0.3-0.2,0.4-0.4,0.4-0.7c0-0.4-0.3-0.7-0.7-0.7h-1.1l-0.1,0.1v2.1l0.1,0.1h0.3l0.1-0.1v-0.8l0.1-0.1h0.3l0.1,0.1l0.6,0.8l0.1,0.1
		h0.2l0.1-0.1v-0.3L132.1,80.2z M132.1,79.6c0,0.2-0.1,0.3-0.3,0.3h-0.7l-0.1-0.1v-0.4l0.1-0.1h0.7
		C131.9,79.3,132.1,79.4,132.1,79.6"/>
</g>
<rect x="264.1" y="6" class="st4" width="0.8" height="132"/>
<rect x="198.5" y="71.6" class="st4" width="132" height="0.8"/>
<g>
	<defs>
		<rect id="SVGID_5_" width="732" height="144"/>
	</defs>
	<clipPath id="SVGID_6_">
		<use xlink:href="#SVGID_5_"  style="overflow:visible;"/>
	</clipPath>
	<path class="st5" d="M228.5,134.8c-14.8,0-26.8-12-26.8-26.8c0-14.8,12-26.8,26.8-26.8c14.8,0,26.8,12,26.8,26.8
		C255.2,122.8,243.3,134.8,228.5,134.8 M228.5,77.3c-17,0-30.8,13.8-30.8,30.8s13.8,30.8,30.8,30.8s30.8-13.8,30.8-30.8
		S245.5,77.3,228.5,77.3"/>
</g>
<polygon class="st4" points="258.5,18 258.5,6 198.5,6 198.5,66 210.5,66 210.5,45 255.5,45 255.5,33 210.5,33 210.5,18 "/>
<polygon class="st4" points="282.5,54 282.5,6 270.5,6 270.5,66 330.5,66 330.5,54 "/>
<g>
	<defs>
		<rect id="SVGID_7_" width="732" height="144"/>
	</defs>
	<clipPath id="SVGID_8_">
		<use xlink:href="#SVGID_7_"  style="overflow:visible;"/>
	</clipPath>
	<path class="st6" d="M282.5,90h27.8c5,0,9,4,9,9c0,5-4,9-9,9h-27.8V90z M331.2,99c0-11.6-9.4-21-21-21h-39.8v60h12v-18H304l18,18
		h8.5v-8.5l-11.4-11.4C326.3,114.7,331.2,107.5,331.2,99"/>
	<path class="st6" d="M327.2,80c0,1.1,0.9,2,2,2c1.1,0,2-0.9,2-2c0-1.1-0.9-2-2-2C328.1,78,327.2,78.9,327.2,80 M327.7,80
		c0-0.9,0.7-1.6,1.6-1.6c0.9,0,1.6,0.7,1.6,1.6c0,0.9-0.7,1.6-1.6,1.6C328.4,81.6,327.7,80.9,327.7,80 M329.8,80.2L329.8,80.2
		c0.3-0.2,0.4-0.4,0.4-0.7c0-0.4-0.3-0.7-0.7-0.7h-1.1l-0.1,0.1v2.1l0.1,0.1h0.3l0.1-0.1v-0.8l0.1-0.1h0.3l0.1,0.1l0.6,0.8l0.1,0.1
		h0.2l0.1-0.1v-0.3L329.8,80.2z M329.8,79.6c0,0.2-0.1,0.3-0.3,0.3h-0.7l-0.1-0.1v-0.4l0.1-0.1h0.7
		C329.7,79.3,329.8,79.4,329.8,79.6"/>
</g>
<rect x="461.9" y="6" class="st0" width="0.8" height="132"/>
<rect x="396.2" y="71.6" class="st0" width="132" height="0.8"/>
<g>
	<defs>
		<rect id="SVGID_9_" width="732" height="144"/>
	</defs>
	<clipPath id="SVGID_10_">
		<use xlink:href="#SVGID_9_"  style="overflow:visible;"/>
	</clipPath>
	<path class="st7" d="M426.2,134.8c-14.8,0-26.8-12-26.8-26.8c0-14.8,12-26.8,26.8-26.8c14.8,0,26.8,12,26.8,26.8
		C453,122.8,441,134.8,426.2,134.8 M426.2,77.3c-17,0-30.8,13.8-30.8,30.8s13.8,30.8,30.8,30.8c17,0,30.8-13.8,30.8-30.8
		S443.2,77.3,426.2,77.3"/>
</g>
<polygon class="st0" points="456.2,18 456.2,6 396.2,6 396.2,66 408.2,66 408.2,45 453.2,45 453.2,33 408.2,33 408.2,18 "/>
<polygon class="st0" points="480.2,54 480.2,6 468.2,6 468.2,66 528.2,66 528.2,54 "/>
<g>
	<defs>
		<rect id="SVGID_11_" width="732" height="144"/>
	</defs>
	<clipPath id="SVGID_12_">
		<use xlink:href="#SVGID_11_"  style="overflow:visible;"/>
	</clipPath>
	<path class="st8" d="M480.2,90H508c5,0,9,4,9,9c0,5-4,9-9,9h-27.8V90z M529,99c0-11.6-9.4-21-21-21h-39.8v60h12v-18h21.5l18,18h8.5
		v-8.5l-11.4-11.4C524,114.7,529,107.5,529,99"/>
	<path class="st8" d="M525,80c0,1.1,0.9,2,2,2s2-0.9,2-2c0-1.1-0.9-2-2-2S525,78.9,525,80 M525.4,80c0-0.9,0.7-1.6,1.6-1.6
		s1.6,0.7,1.6,1.6c0,0.9-0.7,1.6-1.6,1.6S525.4,80.9,525.4,80 M527.6,80.2L527.6,80.2c0.3-0.2,0.4-0.4,0.4-0.7
		c0-0.4-0.3-0.7-0.7-0.7h-1.1l-0.1,0.1v2.1l0.1,0.1h0.3l0.1-0.1v-0.8l0.1-0.1h0.3l0.1,0.1l0.6,0.8l0.1,0.1h0.2l0.1-0.1v-0.3
		L527.6,80.2z M527.6,79.6c0,0.2-0.1,0.3-0.3,0.3h-0.7l-0.1-0.1v-0.4l0.1-0.1h0.7C527.4,79.3,527.6,79.4,527.6,79.6"/>
</g>
<rect x="659.6" y="6" class="st9" width="0.8" height="132"/>
<rect x="594" y="71.6" class="st9" width="132" height="0.8"/>
<g>
	<defs>
		<rect id="SVGID_13_" width="732" height="144"/>
	</defs>
	<clipPath id="SVGID_14_">
		<use xlink:href="#SVGID_13_"  style="overflow:visible;"/>
	</clipPath>
	<path class="st10" d="M624,134.8c-14.8,0-26.8-12-26.8-26.8c0-14.8,12-26.8,26.8-26.8c14.8,0,26.8,12,26.8,26.8
		C650.8,122.8,638.8,134.8,624,134.8 M624,77.3c-17,0-30.8,13.8-30.8,30.8s13.8,30.8,30.8,30.8c17,0,30.8-13.8,30.8-30.8
		S641,77.3,624,77.3"/>
</g>
<polygon class="st9" points="654,18 654,6 594,6 594,66 606,66 606,45 651,45 651,33 606,33 606,18 "/>
<polygon class="st9" points="678,54 678,6 666,6 666,66 726,66 726,54 "/>
<g>
	<defs>
		<rect id="SVGID_15_" width="732" height="144"/>
	</defs>
	<clipPath id="SVGID_16_">
		<use xlink:href="#SVGID_15_"  style="overflow:visible;"/>
	</clipPath>
	<path class="st11" d="M678,90h27.8c5,0,9,4,9,9c0,5-4,9-9,9H678V90z M726.8,99c0-11.6-9.4-21-21-21H666v60h12v-18h21.5l18,18h8.5
		v-8.5l-11.4-11.4C721.8,114.7,726.8,107.5,726.8,99"/>
	<path class="st11" d="M722.8,80c0,1.1,0.9,2,2,2s2-0.9,2-2c0-1.1-0.9-2-2-2S722.8,78.9,722.8,80 M723.2,80c0-0.9,0.7-1.6,1.6-1.6
		s1.6,0.7,1.6,1.6c0,0.9-0.7,1.6-1.6,1.6S723.2,80.9,723.2,80 M725.3,80.2L725.3,80.2c0.3-0.2,0.4-0.4,0.4-0.7
		c0-0.4-0.3-0.7-0.7-0.7h-1.1l-0.1,0.1v2.1l0.1,0.1h0.3l0.1-0.1v-0.8l0.1-0.1h0.3l0.1,0.1l0.6,0.8l0.1,0.1h0.2l0.1-0.1v-0.3
		L725.3,80.2z M725.3,79.6c0,0.2-0.1,0.3-0.3,0.3h-0.7l-0.1-0.1v-0.4l0.1-0.1h0.7C725.2,79.3,725.3,79.4,725.3,79.6"/>
</g>
<g>
</g>
<g>
</g>
<g>
</g>
<g>
</g>
<g>
</g>
<g>
</g>
</svg>
