<?xml version="1.0" encoding="utf-8"?>
<!-- Generator: Adobe Illustrator 19.1.0, SVG Export Plug-In . SVG Version: 6.00 Build 0)  -->
<svg version="1.1" id="Layer_1" xmlns="http://www.w3.org/2000/svg" xmlns:xlink="http://www.w3.org/1999/xlink" x="0px" y="0px"
	 viewBox="0 0 307 283.6" style="enable-background:new 0 0 307 283.6;" xml:space="preserve">
<style type="text/css">
	.st0{fill:none;stroke:#363D39;stroke-width:0.75;stroke-linecap:round;stroke-linejoin:round;stroke-dasharray:0,3;}
	.st1{fill:none;stroke:#363D39;stroke-width:0.75;stroke-linecap:round;stroke-linejoin:round;}
	.st2{fill:#363D39;}
	.st3{fill:none;stroke:#F2BE1A;stroke-width:0.75;}
	.st4{clip-path:url(#SVGID_2_);fill:none;stroke:#363D39;stroke-width:0.75;stroke-miterlimit:10;}
	.st5{fill:none;stroke:#363D39;stroke-width:0.75;stroke-miterlimit:10;}
</style>
<line class="st0" x1="13.4" y1="194.9" x2="263.9" y2="194.9"/>
<path class="st1" d="M265.4,194.9L265.4,194.9 M10.4,194.9L10.4,194.9"/>
<g>
	<path class="st2" d="M13,219c-2.4,0-3.5-1.2-3.5-2.8l0.1-0.1h1.4l0.1,0.1c0,0.8,0.5,1.3,1.9,1.3c1.1,0,1.7-0.4,1.7-1.1
		c0-0.8-0.5-1.1-2.2-1.3c-1.7-0.2-3-0.8-3-2.5c0-1.2,1-2.3,3.2-2.3s3.2,1.1,3.2,2.5L16,213h-1.4l-0.1-0.1c0-0.7-0.4-1.1-1.7-1.1
		c-1.1,0-1.4,0.4-1.4,0.8c0,0.7,0.5,1,2.2,1.2s3,1,3,2.6C16.5,217.8,15.5,219,13,219z"/>
	<path class="st2" d="M25.6,218.9H20l-0.1-0.1v-8.2l0.1-0.1h5.6l0.1,0.1v1.2l-0.1,0.1h-4l-0.1,0.1v1.7l0.1,0.1h3.7l0.1,0.1v1.2
		l-0.1,0.1h-3.7l-0.1,0.1v1.9l0.1,0.1h4l0.1,0.1v1.2L25.6,218.9z"/>
	<path class="st2" d="M38.2,218.9h-1.4l-0.1-0.1v-4.7h-0.1l-1.9,4.7l-0.1,0.1h-1.3l-0.1-0.1l-1.9-4.7H31v4.7l-0.1,0.1h-1.4l-0.1-0.1
		v-8.2l0.1-0.1h1.8l0.1,0.1l2.4,5.9h0.1l2.4-5.9l0.1-0.1h1.8l0.1,0.1v8.2L38.2,218.9z"/>
	<path class="st2" d="M43.7,218.9h-1.4l-0.1-0.1v-8.2l0.1-0.1h1.4l0.1,0.1v8.2L43.7,218.9z"/>
	<path class="st2" d="M51.9,218.9h-4.1l-0.1-0.1v-8.2l0.1-0.1h3.8c1.2,0,2.4,0.6,2.4,2.2c0,0.8-0.4,1.6-1.2,1.8v0.1
		c1,0.2,1.4,1,1.4,2C54.3,218.3,53.1,218.9,51.9,218.9z M51.4,211.9h-1.9l-0.1,0.1v1.7l0.1,0.1h1.9c0.7,0,1-0.5,1-1
		C52.4,212.3,52.1,211.9,51.4,211.9z M51.4,215.3h-1.9l-0.1,0.1v1.9l0.1,0.1h1.9c0.8,0,1.2-0.4,1.2-1.1S52.3,215.3,51.4,215.3z"/>
	<path class="st2" d="M61.3,219c-2.5,0-4.1-1.8-4.1-4.3c0-2.5,1.6-4.3,4.1-4.3s4.1,1.8,4.1,4.3C65.3,217.2,63.8,219,61.3,219z
		 M61.3,211.8c-1.6,0-2.4,1.2-2.4,2.9c0,1.7,0.8,2.9,2.4,2.9s2.4-1.2,2.4-2.9C63.7,213,62.8,211.8,61.3,211.8z"/>
	<path class="st2" d="M74.2,218.9h-5.4l-0.1-0.1v-8.2l0.1-0.1h1.4l0.1,0.1v6.7l0.1,0.1h3.7l0.1,0.1v1.2L74.2,218.9z"/>
	<path class="st2" d="M80.1,218.9h-2.6l-0.1-0.1v-8.2l0.1-0.1h2.6c3,0,4.1,1.6,4.1,4.2C84.2,217.3,83.1,218.9,80.1,218.9z
		 M80.2,211.9h-1.1L79,212v5.3l0.1,0.1h1.1c1.7,0,2.3-0.8,2.3-2.8S81.9,211.9,80.2,211.9z"/>
</g>
<g>
	<path class="st2" d="M9.4,236.4h4v0.7h-4V236.4z"/>
</g>
<g>
	<path class="st2" d="M10.1,256.9c0-0.8,0.5-1.4,1.2-1.6v-0.1c-0.5-0.2-0.9-0.8-0.9-1.6c0-1.3,1-2.1,2.4-2.1c1.4,0,2.4,0.8,2.4,2.1
		c0,0.8-0.4,1.4-0.9,1.6v0.1c0.6,0.2,1.2,0.8,1.2,1.6c0,1.3-1.2,2.2-2.6,2.2C11.3,259,10.1,258.2,10.1,256.9z M14.2,256.9
		c0-0.8-0.6-1.2-1.6-1.2c-0.9,0-1.6,0.4-1.6,1.2c0,0.8,0.7,1.2,1.6,1.2C13.5,258.1,14.2,257.7,14.2,256.9z M14,253.5
		c0-0.8-0.6-1.2-1.4-1.2c-0.8,0-1.4,0.4-1.4,1.2c0,0.7,0.6,1.2,1.4,1.2S14,254.3,14,253.5z"/>
	<path class="st2" d="M30.2,251.1l0.8,0.5l-5.1,8.9l-0.8-0.5L30.2,251.1z"/>
	<path class="st2" d="M42.8,252H44v5.6l0.4,0.4h2v0.9h-5.9V258h2.1l0.4-0.4V253l-1.9,1.3l-0.5-0.8L42.8,252z"/>
	<path class="st2" d="M48.1,253.6c0.6-1,1.8-1.8,3-1.8c1.5,0,2.2,0.9,2.2,2c0,1.1-1,1.8-1.9,2.5l-2.2,1.7h3.1l0.4-0.4v-0.9h0.9v2.1
		h-5.5v-1.2l2.6-2.1c0.9-0.7,1.5-1.1,1.5-1.8c0-0.6-0.4-1-1.1-1c-0.8,0-1.7,0.6-2.2,1.4L48.1,253.6z"/>
	<path class="st2" d="M65.4,255.9v1.7l0.4,0.4h1.6v0.9H63V258h1.1l0.4-0.4v-4.3l-0.4-0.4H63V252h3.8c1.8,0,2.7,0.7,2.7,1.9
		c0,1.3-0.9,1.9-2.7,1.9H65.4z M65.4,255h1.4c1.2,0,1.7-0.4,1.7-1.1s-0.5-1.1-1.7-1.1h-1.4V255z"/>
	<path class="st2" d="M76.1,254.8c0.1,0,0.1,0,0.2,0C76.2,254.8,76.2,254.8,76.1,254.8c0-0.2-0.2-0.3-0.5-0.3
		c-0.8,0-1.5,0.7-2.4,1.7v1.5l0.4,0.4h2v0.9h-4.6V258h1l0.4-0.4V255l-0.4-0.4h-1v-0.9h2.3v1.3c0.7-0.8,1.5-1.5,2.4-1.5
		c1.1,0,1.6,0.7,1.6,1.4c0,0.5-0.3,1.1-0.9,1.1c-0.4,0-0.8-0.2-0.8-0.7C75.4,255.1,75.7,254.8,76.1,254.8z"/>
	<path class="st2" d="M82.7,258h1.7v0.9h-5.3V258h2l0.4-0.4V255l-0.4-0.4h-2v-0.9h3.2v3.8L82.7,258z M81.7,251
		c0.5,0,0.9,0.4,0.9,0.9c0,0.5-0.4,0.9-0.9,0.9c-0.5,0-0.9-0.4-0.9-0.9C80.8,251.4,81.2,251,81.7,251z"/>
	<path class="st2" d="M88,257.6l0.4,0.4H89v0.9h-2.9V258h0.6l0.4-0.4V255l-0.4-0.4h-0.6v-0.9H88v0.8c0.3-0.5,1-1,1.8-1
		c1.1,0,1.9,0.7,1.9,1.9v2.1l0.4,0.4h0.6v0.9h-2.9V258h0.6l0.4-0.4v-1.7c0-0.7-0.2-1.4-1.1-1.4c-0.8,0-1.4,0.4-1.8,1.2V257.6z"/>
	<path class="st2" d="M94.9,254.7h-1.1v-0.9h1.5V252h0.9v1.8h2.8v0.9h-2.5l-0.4,0.4v1.5c0,1.1,0.5,1.6,1.4,1.6c0.8,0,1.3-0.4,1.8-1
		l0.6,0.6c-0.6,0.8-1.4,1.4-2.4,1.4c-1.4,0-2.3-0.7-2.3-2.4V255L94.9,254.7z"/>
</g>
<g>
	<path class="st2" d="M12.1,272.1h1.3v5.6l0.4,0.4h2v0.9H9.9V278H12l0.4-0.4V273l-1.9,1.3l-0.5-0.8L12.1,272.1z"/>
	<path class="st2" d="M17.4,273.6c0.6-1,1.8-1.8,3-1.8c1.5,0,2.2,0.9,2.2,2c0,1.1-1,1.8-1.9,2.5l-2.2,1.7h3.1l0.4-0.4v-0.9H23v2.1
		h-5.5v-1.2l2.6-2.1c0.9-0.7,1.5-1.1,1.5-1.8c0-0.6-0.4-1-1.1-1c-0.8,0-1.7,0.6-2.2,1.4L17.4,273.6z"/>
	<path class="st2" d="M37.8,271.1l0.8,0.5l-5.1,8.9l-0.8-0.5L37.8,271.1z"/>
	<path class="st2" d="M48.1,273.6c0.6-1,1.8-1.8,3-1.8c1.5,0,2.2,0.9,2.2,2c0,1.1-1,1.8-1.9,2.5l-2.2,1.7h3.1l0.4-0.4v-0.9h0.9v2.1
		h-5.5v-1.2l2.6-2.1c0.9-0.7,1.5-1.1,1.5-1.8c0-0.6-0.4-1-1.1-1c-0.8,0-1.7,0.6-2.2,1.4L48.1,273.6z"/>
	<path class="st2" d="M58.7,271.9c1.7,0,2.9,1.6,2.9,3.6c0,2-1.1,3.6-2.9,3.6c-1.7,0-2.9-1.6-2.9-3.6
		C55.8,273.5,56.9,271.9,58.7,271.9z M58.7,272.8c-1.2,0-1.8,1.2-1.8,2.6c0,1.4,0.6,2.6,1.8,2.6c1.2,0,1.8-1.2,1.8-2.6
		C60.5,274,59.8,272.8,58.7,272.8z"/>
	<path class="st2" d="M75.3,278h0.3l0.5-4.8l-0.2-0.3h-1.1v-0.9h2.9v0.9H77l-0.7,6h-1.6l-0.7-4.3l-0.6,4.3h-1.7l-0.7-6h-0.6v-0.9
		h2.9v0.9h-1.1l-0.2,0.3l0.5,4.8h0.3l0.6-4.2h1.3L75.3,278z"/>
	<path class="st2" d="M81.8,279.1c-1.8,0-3-1.2-3-2.7s1.2-2.7,2.9-2.7c1.9,0,2.8,1.5,2.8,3h-4.7c0.1,0.8,0.8,1.5,2,1.5
		c0.8,0,1.4-0.3,2-0.8l0.5,0.6C83.5,278.7,82.7,279.1,81.8,279.1z M83.4,275.9c-0.2-0.7-0.8-1.3-1.7-1.3c-0.9,0-1.7,0.5-1.8,1.4
		L83.4,275.9L83.4,275.9z"/>
	<path class="st2" d="M86.1,278.9V278h0.6l0.2-0.2v-5.2l-0.2-0.2H86v-0.9h1.8v3.1c0.3-0.5,1-1,1.9-1c1.5,0,2.6,1.2,2.6,2.7
		c0,1.5-1.1,2.7-2.6,2.7c-0.9,0-1.6-0.5-1.9-1v0.9H86.1z M87.8,276.9c0.4,0.7,0.9,1.2,1.9,1.2c1,0,1.7-0.8,1.7-1.8
		c0-1-0.6-1.8-1.7-1.8c-0.9,0-1.5,0.5-1.9,1.2V276.9z"/>
</g>
<g>
	<path class="st2" d="M9.6,9.7c0.6-1,1.8-1.8,3-1.8c1.5,0,2.2,0.9,2.2,2c0,1.1-1,1.8-1.9,2.5l-2.2,1.7h3.1l0.4-0.4v-0.9h0.9V15H9.7
		v-1.2l2.6-2.1c0.9-0.7,1.5-1.1,1.5-1.8c0-0.6-0.4-1-1.1-1c-0.8,0-1.7,0.6-2.2,1.4L9.6,9.7z"/>
	<path class="st2" d="M30,7.2l0.8,0.5l-5.1,8.9l-0.8-0.5L30,7.2z"/>
	<path class="st2" d="M45.1,13.4l-0.4,0.4V15h-1v-1.2l-0.4-0.4h-3.3v-1.2c1-1.2,2.4-3.2,3.1-4.8l1,0.3c-0.8,1.8-2.3,3.7-3.1,4.8h2.7
		v-1.6h1v1.6h1.6v0.9H45.1z"/>
	<path class="st2" d="M51.4,12.4l2.2,1.7h0.5V15h-2.9v-0.9H52l0.2-0.2l-1.3-1.1l-1.3,1.1l0.2,0.2h0.8V15h-2.9v-0.9H48l2.2-1.7
		l-2.1-1.6h-0.5V9.9h2.8v0.9h-0.7l-0.2,0.2l1.2,1l1.2-1l-0.2-0.2h-0.7V9.9H54v0.9h-0.5L51.4,12.4z"/>
</g>
<g>
	<path class="st2" d="M9.6,49.7c0.6-1,1.8-1.8,3-1.8c1.5,0,2.2,0.9,2.2,2c0,1.1-1,1.8-1.9,2.5l-2.2,1.7h3.1l0.4-0.4v-0.9h0.9V55H9.7
		v-1.2l2.6-2.1c0.9-0.7,1.5-1.1,1.5-1.8c0-0.6-0.4-1-1.1-1c-0.8,0-1.7,0.6-2.2,1.4L9.6,49.7z"/>
	<path class="st2" d="M25.4,49.7l0.6-0.6l1.8,1.9l1.8-1.9l0.6,0.6l-1.9,1.9l1.9,1.8L29.7,54l-1.8-1.9L26,54l-0.6-0.6l1.9-1.8
		L25.4,49.7z"/>
	<path class="st2" d="M44.3,49h-3.6v-0.9h4.6v1.2l-2,1.5c0.1,0,0.2-0.1,0.3-0.1c1.2,0,2,0.9,2,2c0,2.1-2.4,3.2-4.7,3.5l-0.2-0.9
		c2.2-0.4,4-1.2,4-2.6c0-0.7-0.5-1.2-1.3-1.2c-0.5,0-0.9,0.1-1.4,0.5l-0.5-0.6L44.3,49z"/>
</g>
<g>
	<path class="st2" d="M12.6,87.9c1.7,0,2.9,1.6,2.9,3.6c0,2-1.1,3.6-2.9,3.6c-1.7,0-2.9-1.6-2.9-3.6C9.8,89.5,10.9,87.9,12.6,87.9z
		 M12.6,88.9c-1.2,0-1.8,1.2-1.8,2.6c0,1.4,0.6,2.6,1.8,2.6c1.2,0,1.8-1.2,1.8-2.6C14.5,90.1,13.8,88.9,12.6,88.9z"/>
	<path class="st2" d="M17.7,90.4c0-1.4,1.2-2.5,2.6-2.5c0.9,0,1.8,0.4,2.2,1.1c0.3,0.5,0.4,1.1,0.4,1.7c0,2.3-1.8,4.6-4.7,5.4
		L18,95.3c2-0.6,3.1-1.8,3.6-2.9c-0.3,0.3-0.8,0.6-1.4,0.6C18.8,92.9,17.7,91.9,17.7,90.4z M20.3,92c0.9,0,1.6-0.7,1.6-1.6
		c0-0.9-0.7-1.6-1.6-1.6c-0.9,0-1.6,0.7-1.6,1.6C18.7,91.3,19.4,92,20.3,92z"/>
</g>
<g>
	<path class="st2" d="M12.4,136.7v-1.6c-1.5-0.1-2.6-0.7-2.6-1.8c0-0.5,0.4-0.9,0.9-0.9c0.5,0,0.8,0.3,0.8,0.8
		c0,0.3-0.1,0.5-0.4,0.6c0.2,0.2,0.7,0.4,1.4,0.5v-2.5l-0.3-0.1c-1.2-0.3-2-0.8-2-1.9c0-1.1,1-1.8,2.3-1.9v-1.5h0.9v1.5
		c1.4,0.1,2.4,0.9,2.4,1.8c0,0.5-0.3,0.9-0.8,0.9c-0.4,0-0.8-0.3-0.8-0.7c0-0.3,0.1-0.5,0.4-0.6c-0.2-0.2-0.5-0.4-1.2-0.5v2.2
		l0.8,0.2c1,0.2,1.7,0.8,1.7,1.8c0,1.1-1,2-2.5,2.1v1.6H12.4z M12.4,128.8c-0.8,0.1-1.3,0.5-1.3,1c0,0.5,0.4,0.8,1.1,0.9l0.2,0
		V128.8z M13.3,134.3c0.9-0.1,1.5-0.6,1.5-1.2c0-0.6-0.5-0.8-0.9-0.9l-0.6-0.1L13.3,134.3L13.3,134.3z"/>
	<path class="st2" d="M17.7,129.7c0.6-1,1.8-1.8,3-1.8c1.5,0,2.2,0.9,2.2,2c0,1.1-1,1.8-1.9,2.5l-2.2,1.7h3.1l0.4-0.4v-0.9h0.9v2.1
		h-5.5v-1.2l2.6-2.1c0.9-0.7,1.5-1.1,1.5-1.8c0-0.6-0.4-1-1.1-1c-0.8,0-1.7,0.6-2.2,1.4L17.7,129.7z"/>
	<path class="st2" d="M30.2,133.4l-0.4,0.4v1.2h-1v-1.2l-0.4-0.4h-3.3v-1.2c1-1.2,2.4-3.2,3.1-4.8l1,0.3c-0.8,1.8-2.3,3.7-3.1,4.8
		h2.7v-1.6h1v1.6h1.6v0.9H30.2z"/>
	<path class="st2" d="M45.7,127.2l0.8,0.5l-5.1,8.9l-0.8-0.5L45.7,127.2z"/>
	<path class="st2" d="M60.6,133.1c0-0.6-0.5-0.8-1-1l-1.6-0.4c-1.1-0.3-1.9-0.7-1.9-1.9c0-1.1,0.9-1.9,2.3-1.9
		c0.7,0,1.3,0.3,1.8,0.8l0.2-0.1v-0.5h0.9v2.4h-0.8c-0.4-1.2-1.3-1.6-2.1-1.6c-0.8,0-1.3,0.4-1.3,0.9c0,0.6,0.5,0.8,1.1,0.9l1.6,0.4
		c1,0.3,1.7,0.8,1.7,1.8c0,1.2-0.9,2.1-2.4,2.1c-0.8,0-1.6-0.4-2-0.9l-0.2,0.1v0.6h-0.9v-2.6h0.8c0.4,1.3,1.5,1.9,2.4,1.9
		C60.1,134.2,60.6,133.7,60.6,133.1z"/>
	<path class="st2" d="M67.9,134.8c-0.4,0.2-0.8,0.3-1.3,0.3c-1.9,0-3.1-1.6-3.1-3.6c0-2,1.2-3.6,3.1-3.6s3.1,1.6,3.1,3.6
		c0,1.1-0.4,2.1-1,2.7l0.8,1.1l-0.8,0.6L67.9,134.8z M66.5,134.2c0.3,0,0.5,0,0.7-0.1l-0.8-1.1l0.8-0.6l0.8,1.1
		c0.4-0.5,0.6-1.2,0.6-1.9c0-1.5-0.7-2.6-2.1-2.6c-1.4,0-2.1,1.2-2.1,2.6S65.2,134.2,66.5,134.2z"/>
</g>
<line class="st3" x1="9.6" y1="169.4" x2="33" y2="169.4"/>
<polyline class="st3" points="13.3,172.8 9.6,169.4 13.3,165.9 "/>
<line class="st3" x1="144.4" y1="169.4" x2="121" y2="169.4"/>
<polyline class="st3" points="140.7,165.9 144.4,169.4 140.7,172.8 "/>
<g>
	<path class="st2" d="M50.8,165.3h-2.5l-0.1,0.1v7.1l-0.1,0.1h-1l-0.1-0.1v-7.1l-0.1-0.1h-2.5l-0.1-0.1v-0.8l0.1-0.1h6.5l0.1,0.1
		v0.8L50.8,165.3z"/>
	<path class="st2" d="M54.2,167.7h-0.6c-1,0-1.6,0.4-1.6,1.8v3l-0.1,0.1h-1l-0.1-0.1v-5.8l0.1-0.1h0.8l0.1,0.1l0.1,0.5h0.1
		c0.4-0.4,0.7-0.6,1.6-0.6h0.5l0.1,0.1v0.8L54.2,167.7z"/>
	<path class="st2" d="M59.8,172.6H59l-0.1-0.1l-0.1-0.5h-0.1c0,0-0.5,0.7-1.7,0.7c-1.3,0-2-0.7-2-1.9c0-1.3,1.1-1.9,2.6-1.9
		c0.6,0,1.1,0.1,1.1,0.1l0.1-0.1v-0.2c0-0.8-0.4-1.1-1.2-1.1c-0.8,0-1.2,0.2-1.2,0.7l-0.1,0.1h-1l-0.1-0.1c0-0.8,0.6-1.8,2.4-1.8
		c1.8,0,2.4,0.8,2.4,2.6v3.4L59.8,172.6z M58.8,170.1l-0.1-0.1c0,0-0.4-0.1-1-0.1c-1.1,0-1.6,0.4-1.6,1s0.4,0.8,1.1,0.8
		c1,0,1.6-0.5,1.6-1.2V170.1z"/>
	<path class="st2" d="M64,171.7c1,0,1.3-0.5,1.4-1l0.1-0.1h1l0.1,0.1c-0.1,1.1-1,2-2.6,2c-1.8,0-2.9-1.2-2.9-3.1s1.1-3.1,2.9-3.1
		c1.7,0,2.5,1,2.6,2l-0.1,0.1h-1l-0.1-0.1c-0.1-0.5-0.5-1-1.4-1c-1.1,0-1.7,0.7-1.7,2S62.9,171.7,64,171.7z"/>
	<path class="st2" d="M72.7,172.6h-0.5l-0.2-0.1l-1.8-2.3H70l-0.8,0.8l-0.1,0.2v1.2l-0.1,0.1h-1l-0.1-0.1v-8.2l0.1-0.1h1l0.1,0.1
		v5.2h0.1l2.8-2.8l0.2-0.1h0.4l0.1,0.1v0.8l-1.7,1.7v0.1l1.8,2.3v0.8L72.7,172.6z"/>
	<path class="st2" d="M75.1,165.7h-1l-0.1-0.1v-1l0.1-0.1h1l0.1,0.1v1L75.1,165.7z M75.1,172.6h-1l-0.1-0.1v-5.8l0.1-0.1h1l0.1,0.1
		v5.8L75.1,172.6z"/>
	<path class="st2" d="M81.9,172.6h-1l-0.1-0.1V169c0-0.6-0.1-1.4-1.2-1.4s-1.6,0.6-1.6,2v2.9l-0.1,0.1h-1l-0.1-0.1v-5.8l0.1-0.1h0.8
		l0.1,0.1l0.1,0.5h0.1c0,0,0.5-0.7,1.6-0.7c1.7,0,2.3,1.1,2.3,2.5v3.5L81.9,172.6z"/>
	<path class="st2" d="M87.5,172h-0.1c0,0-0.5,0.7-1.6,0.7c-1.7,0-2.6-1.3-2.6-3.1s1-3.1,2.6-3.1c1.1,0,1.6,0.7,1.6,0.7h0.1l0.1-0.5
		l0.1-0.1h0.8l0.1,0.1v5.2c0,2.4-1.3,3.2-2.8,3.2c-1.4,0-2.3-0.7-2.4-1.7l0.1-0.1h1l0.1,0.1c0.2,0.5,0.6,0.6,1.2,0.6
		C87,174,87.5,173.3,87.5,172z M85.9,167.6c-1,0-1.6,0.7-1.6,2s0.6,2,1.6,2s1.6-0.6,1.6-2C87.5,168.2,86.9,167.6,85.9,167.6z"/>
	<path class="st2" d="M91.9,168.1h-1.2l-0.1-0.1v-1.2l0.1-0.1h1.2l0.1,0.1v1.2L91.9,168.1z M91.9,172.6h-1.2l-0.1-0.1v-1.2l0.1-0.1
		h1.2l0.1,0.1v1.2L91.9,172.6z"/>
	<path class="st2" d="M102.4,172.6H97l-0.1-0.1v-1l0.1-0.2l2.4-1.9c1.2-1,1.7-1.6,1.7-2.6c0-0.8-0.4-1.6-1.4-1.6s-1.6,0.6-1.6,1.6
		l-0.1,0.1h-1l-0.1-0.1c0-1.6,1-2.6,2.8-2.6c1.9,0,2.6,1.3,2.6,2.5c0,1.6-0.7,2.4-1.9,3.4l-1.8,1.4v0.1h3.8l0.1,0.1v0.8L102.4,172.6
		z"/>
	<path class="st2" d="M106.5,172.7c-1.8,0-2.6-1-2.8-2.4l0.1-0.1h1l0.1,0.1c0.1,0.7,0.4,1.3,1.6,1.3s1.7-0.7,1.7-1.9
		c0-1.1-0.4-1.8-1.6-1.8c-1.2,0-1.6,1-1.6,1l-0.2,0.1l-0.8-0.1l-0.1-0.1l0.2-4.4l0.1-0.1h4.7l0.1,0.1v0.8l-0.1,0.1h-3.6l-0.1,0.1
		l-0.1,2.2h0.1c0,0,0.5-0.7,1.7-0.7c1.8,0,2.5,1.3,2.5,2.8C109.4,171.8,108.3,172.7,106.5,172.7z"/>
</g>
<g>
	<defs>
		<rect id="SVGID_1_" width="307" height="283.6"/>
	</defs>
	<clipPath id="SVGID_2_">
		<use xlink:href="#SVGID_1_"  style="overflow:visible;"/>
	</clipPath>
	<circle class="st4" cx="106.7" cy="224.5" r="9.6"/>
</g>
<line class="st5" x1="111.7" y1="224.5" x2="101.7" y2="224.5"/>
<line class="st5" x1="106.7" y1="229.5" x2="106.7" y2="219.5"/>
<g>
	<path class="st2" d="M204.6,8.1h1.3v5.6l0.4,0.4h2V15h-5.9v-0.9h2.1l0.4-0.4V9.1l-1.9,1.3l-0.5-0.8L204.6,8.1z"/>
	<path class="st2" d="M222.6,7.2l0.8,0.5l-5.1,8.9l-0.8-0.5L222.6,7.2z"/>
	<path class="st2" d="M236.9,9h-3.6V8.1h4.6v1.2l-2,1.5c0.1,0,0.2-0.1,0.3-0.1c1.2,0,2,0.9,2,2c0,2.1-2.4,3.2-4.7,3.5l-0.2-0.9
		c2.2-0.4,4-1.2,4-2.6c0-0.7-0.5-1.2-1.3-1.2c-0.5,0-0.9,0.1-1.4,0.5l-0.5-0.6L236.9,9z"/>
</g>
<g>
	<path class="st2" d="M202.7,49.7c0.6-1,1.8-1.8,3-1.8c1.5,0,2.2,0.9,2.2,2c0,1.1-1,1.8-1.9,2.5l-2.2,1.7h3.1l0.4-0.4v-0.9h0.9V55
		h-5.5v-1.2l2.6-2.1c0.9-0.7,1.5-1.1,1.5-1.8c0-0.6-0.4-1-1.1-1c-0.8,0-1.7,0.6-2.2,1.4L202.7,49.7z"/>
	<path class="st2" d="M213.1,51.2l-0.4-2.1c-0.1-0.3-0.1-0.7-0.1-0.9c0-0.4,0.3-0.8,0.8-0.8c0.5,0,0.7,0.3,0.7,0.8
		c0,0.2,0,0.6-0.1,0.9l-0.5,2.1H213.1z"/>
	<path class="st2" d="M226.1,49.7l0.6-0.6l1.8,1.9l1.8-1.9l0.6,0.6l-1.9,1.9l1.9,1.8l-0.6,0.6l-1.8-1.9l-1.8,1.9l-0.6-0.6l1.9-1.8
		L226.1,49.7z"/>
	<path class="st2" d="M245,49h-3.6v-0.9h4.6v1.2l-2,1.5c0.1,0,0.2-0.1,0.3-0.1c1.2,0,2,0.9,2,2c0,2.1-2.4,3.2-4.7,3.5l-0.2-0.9
		c2.2-0.4,4-1.2,4-2.6c0-0.7-0.5-1.2-1.3-1.2c-0.5,0-0.9,0.1-1.4,0.5l-0.5-0.6L245,49z"/>
	<path class="st2" d="M251.4,51.2l-0.4-2.1c-0.1-0.3-0.1-0.7-0.1-0.9c0-0.4,0.3-0.8,0.8-0.8c0.5,0,0.7,0.3,0.7,0.8
		c0,0.2,0,0.6-0.1,0.9l-0.5,2.1H251.4z"/>
</g>
<g>
	<path class="st2" d="M205.6,87.9c1.7,0,2.9,1.6,2.9,3.6c0,2-1.1,3.6-2.9,3.6c-1.7,0-2.9-1.6-2.9-3.6
		C202.8,89.5,203.9,87.9,205.6,87.9z M205.6,88.9c-1.2,0-1.8,1.2-1.8,2.6c0,1.4,0.6,2.6,1.8,2.6s1.8-1.2,1.8-2.6
		C207.5,90.1,206.8,88.9,205.6,88.9z"/>
	<path class="st2" d="M210.7,90.4c0-1.4,1.2-2.5,2.6-2.5c0.9,0,1.8,0.4,2.2,1.1c0.3,0.5,0.4,1.1,0.4,1.7c0,2.3-1.8,4.6-4.7,5.4
		l-0.3-0.9c2-0.6,3.1-1.8,3.6-2.9c-0.3,0.3-0.8,0.6-1.4,0.6C211.8,92.9,210.7,91.9,210.7,90.4z M213.3,92c0.9,0,1.6-0.7,1.6-1.6
		c0-0.9-0.7-1.6-1.6-1.6c-0.9,0-1.6,0.7-1.6,1.6C211.7,91.3,212.4,92,213.3,92z"/>
	<path class="st2" d="M221,93c0.6,0,1.1,0.5,1.1,1.1c0,0.6-0.5,1.1-1.1,1.1s-1.1-0.5-1.1-1.1C219.9,93.4,220.4,93,221,93z"/>
	<path class="st2" d="M228.1,88.1h1.3v5.6l0.4,0.4h2v0.9h-5.9v-0.9h2.1l0.4-0.4v-4.6l-1.9,1.3l-0.5-0.8L228.1,88.1z"/>
	<path class="st2" d="M233.4,89.7c0.6-1,1.8-1.8,3-1.8c1.5,0,2.2,0.9,2.2,2c0,1.1-1,1.8-1.9,2.5l-2.2,1.7h3.1l0.4-0.4v-0.9h0.9v2.1
		h-5.5v-1.2l2.6-2.1c0.9-0.7,1.5-1.1,1.5-1.8c0-0.6-0.4-1-1.1-1c-0.8,0-1.7,0.6-2.2,1.4L233.4,89.7z"/>
	<path class="st2" d="M241.5,95.3c2.2-0.4,3.8-1.1,3.8-2.5c0-0.6-0.4-1.1-1.2-1.1c-0.5,0-1,0.3-1.2,0.7h-1.2l0.2-4.2h4.3V89h-3.4
		l-0.1,2.4c0.3-0.4,0.9-0.7,1.6-0.7c1.5,0,2.2,1.1,2.2,2c0,2.1-2.3,3.1-4.7,3.4L241.5,95.3z"/>
	<path class="st2" d="M250.3,91.2l-0.4-2.1c-0.1-0.3-0.1-0.7-0.1-0.9c0-0.4,0.3-0.8,0.8-0.8c0.5,0,0.7,0.3,0.7,0.8
		c0,0.2,0,0.6-0.1,0.9l-0.5,2.1H250.3z M252.7,91.2l-0.4-2.1c-0.1-0.3-0.1-0.7-0.1-0.9c0-0.4,0.3-0.8,0.8-0.8c0.5,0,0.7,0.3,0.7,0.8
		c0,0.2,0,0.6-0.1,0.9l-0.5,2.1H252.7z"/>
</g>
<g>
	<path class="st2" d="M205.4,136.7v-1.6c-1.5-0.1-2.6-0.7-2.6-1.8c0-0.5,0.4-0.9,0.9-0.9c0.5,0,0.8,0.3,0.8,0.8
		c0,0.3-0.1,0.5-0.4,0.6c0.2,0.2,0.7,0.4,1.4,0.5v-2.5l-0.3-0.1c-1.2-0.3-2-0.8-2-1.9c0-1.1,1-1.8,2.3-1.9v-1.5h0.9v1.5
		c1.4,0.1,2.4,0.9,2.4,1.8c0,0.5-0.3,0.9-0.8,0.9c-0.4,0-0.8-0.3-0.8-0.7c0-0.3,0.1-0.5,0.4-0.6c-0.2-0.2-0.5-0.4-1.2-0.5v2.2
		l0.8,0.2c1,0.2,1.7,0.8,1.7,1.8c0,1.1-1,2-2.5,2.1v1.6H205.4z M205.4,128.8c-0.8,0.1-1.3,0.5-1.3,1c0,0.5,0.4,0.8,1.1,0.9l0.2,0
		V128.8z M206.3,134.2c0.9-0.1,1.5-0.6,1.5-1.2c0-0.6-0.5-0.8-0.9-0.9l-0.6-0.1L206.3,134.2L206.3,134.2z"/>
	<path class="st2" d="M213,128.1h1.3v5.6l0.4,0.4h2v0.9h-5.9v-0.9h2.1l0.4-0.4v-4.6l-1.9,1.3l-0.5-0.8L213,128.1z"/>
	<path class="st2" d="M218.7,132.9c0-0.8,0.5-1.4,1.2-1.6v-0.1c-0.5-0.2-0.9-0.8-0.9-1.6c0-1.3,1-2.1,2.4-2.1c1.4,0,2.4,0.8,2.4,2.1
		c0,0.8-0.4,1.4-0.9,1.6v0.1c0.6,0.2,1.2,0.8,1.2,1.6c0,1.3-1.2,2.2-2.6,2.2C219.8,135.1,218.7,134.3,218.7,132.9z M222.8,132.9
		c0-0.8-0.6-1.2-1.6-1.2c-0.9,0-1.6,0.4-1.6,1.2c0,0.8,0.7,1.2,1.6,1.2C222.1,134.2,222.8,133.7,222.8,132.9z M222.6,129.6
		c0-0.8-0.6-1.2-1.4-1.2c-0.8,0-1.4,0.4-1.4,1.2c0,0.7,0.6,1.2,1.4,1.2C222,130.8,222.6,130.3,222.6,129.6z"/>
	<path class="st2" d="M238.7,127.2l0.8,0.5l-5.1,8.9l-0.8-0.5L238.7,127.2z"/>
	<path class="st2" d="M253.7,133.1c0-0.6-0.5-0.8-1-1l-1.6-0.4c-1.1-0.3-1.9-0.7-1.9-1.9c0-1.1,0.9-1.9,2.3-1.9
		c0.7,0,1.3,0.3,1.8,0.8l0.2-0.1v-0.5h0.9v2.4h-0.8c-0.4-1.2-1.3-1.6-2.1-1.6c-0.8,0-1.3,0.4-1.3,0.9c0,0.6,0.5,0.8,1.1,0.9l1.6,0.4
		c1,0.3,1.7,0.8,1.7,1.8c0,1.2-0.9,2.1-2.3,2.1c-0.8,0-1.6-0.4-2-0.9l-0.2,0.1v0.6h-0.9v-2.6h0.8c0.4,1.3,1.5,1.9,2.4,1.9
		C253.2,134.2,253.7,133.7,253.7,133.1z"/>
	<path class="st2" d="M260.9,134.8c-0.4,0.2-0.8,0.3-1.3,0.3c-1.9,0-3.1-1.6-3.1-3.6c0-2,1.2-3.6,3.1-3.6c1.9,0,3.1,1.6,3.1,3.6
		c0,1.1-0.4,2.1-1,2.7l0.8,1.1l-0.8,0.6L260.9,134.8z M259.6,134.2c0.3,0,0.5,0,0.7-0.1l-0.8-1.1l0.8-0.6l0.8,1.1
		c0.4-0.5,0.6-1.2,0.6-1.9c0-1.5-0.7-2.6-2.1-2.6s-2.1,1.2-2.1,2.6S258.2,134.2,259.6,134.2z"/>
</g>
<g>
</g>
<g>
</g>
<g>
</g>
<g>
</g>
<g>
</g>
<g>
</g>
</svg>
