<?xml version="1.0" encoding="utf-8"?>
<!-- Generator: Adobe Illustrator 19.1.0, SVG Export Plug-In . SVG Version: 6.00 Build 0)  -->
<svg version="1.1" id="Layer_1" xmlns="http://www.w3.org/2000/svg" xmlns:xlink="http://www.w3.org/1999/xlink" x="0px" y="0px"
	 viewBox="-143.1 260.9 298.5 286.8" style="enable-background:new -143.1 260.9 298.5 286.8;" xml:space="preserve">
<style type="text/css">
	
		.st0{fill:none;stroke:#363D39;stroke-width:0.75;stroke-linecap:round;stroke-linejoin:round;stroke-dasharray:5.000000e-03,3.005;}
	.st1{fill:#363D39;}
	.st2{fill:none;stroke:#F1BD19;stroke-width:0.75;}
	.st3{fill:none;stroke:#363D39;stroke-width:0.75;stroke-miterlimit:10;}
</style>
<line class="st0" x1="-138.6" y1="450.3" x2="155" y2="450.3"/>
<g>
	<path class="st1" d="M-138.1,484.1c-2.4,0-3.5-1.2-3.5-2.8l0.1-0.1h1.4l0.1,0.1c0,0.8,0.5,1.3,1.9,1.3c1.1,0,1.7-0.4,1.7-1.1
		c0-0.8-0.5-1.1-2.2-1.3c-1.7-0.2-3-0.8-3-2.5c0-1.2,1-2.3,3.2-2.3s3.2,1.1,3.2,2.5l-0.1,0.1h-1.4l-0.1-0.1c0-0.7-0.4-1.1-1.7-1.1
		c-1.1,0-1.4,0.4-1.4,0.8c0,0.7,0.5,1,2.2,1.2c1.7,0.2,3,1,3,2.6C-134.7,482.9-135.6,484.1-138.1,484.1z"/>
	<path class="st1" d="M-125.6,484h-5.6l-0.1-0.1v-8.2l0.1-0.1h5.6l0.1,0.1v1.2l-0.1,0.1h-4l-0.1,0.1v1.7l0.1,0.1h3.7l0.1,0.1v1.2
		l-0.1,0.1h-3.7l-0.1,0.1v1.9l0.1,0.1h4l0.1,0.1v1.2L-125.6,484z"/>
	<path class="st1" d="M-113,484h-1.4l-0.1-0.1v-4.7h-0.1l-1.9,4.7l-0.1,0.1h-1.3l-0.1-0.1l-1.9-4.7h-0.1v4.7l-0.1,0.1h-1.4l-0.1-0.1
		v-8.2l0.1-0.1h1.8l0.1,0.1l2.4,5.9h0.1l2.4-5.9l0.1-0.1h1.8l0.1,0.1v8.2L-113,484z"/>
	<path class="st1" d="M-107.4,484h-1.4l-0.1-0.1v-8.2l0.1-0.1h1.4l0.1,0.1v8.2L-107.4,484z"/>
	<path class="st1" d="M-99.3,484h-4.1l-0.1-0.1v-8.2l0.1-0.1h3.8c1.2,0,2.4,0.6,2.4,2.2c0,0.8-0.4,1.6-1.2,1.8v0.1
		c1,0.2,1.4,1,1.4,2C-96.9,483.4-98.1,484-99.3,484z M-99.7,477.1h-1.9l-0.1,0.1v1.7l0.1,0.1h1.9c0.7,0,1-0.5,1-1
		C-98.8,477.4-99,477.1-99.7,477.1z M-99.7,480.4h-1.9l-0.1,0.1v1.9l0.1,0.1h1.9c0.8,0,1.2-0.4,1.2-1.1S-98.9,480.4-99.7,480.4z"/>
	<path class="st1" d="M-89.9,484.1c-2.5,0-4.1-1.8-4.1-4.3s1.6-4.3,4.1-4.3s4.1,1.8,4.1,4.3S-87.4,484.1-89.9,484.1z M-89.9,476.9
		c-1.6,0-2.4,1.2-2.4,2.9c0,1.7,0.8,2.9,2.4,2.9c1.6,0,2.4-1.2,2.4-2.9C-87.5,478.1-88.4,476.9-89.9,476.9z"/>
	<path class="st1" d="M-77,484h-5.4l-0.1-0.1v-8.2l0.1-0.1h1.4l0.1,0.1v6.7l0.1,0.1h3.7l0.1,0.1v1.2L-77,484z"/>
	<path class="st1" d="M-71.1,484h-2.6l-0.1-0.1v-8.2l0.1-0.1h2.6c3,0,4.1,1.6,4.1,4.2C-67,482.5-68.1,484-71.1,484z M-71,477.1h-1.1
		l-0.1,0.1v5.3l0.1,0.1h1.1c1.7,0,2.3-0.8,2.3-2.8S-69.3,477.1-71,477.1z"/>
</g>
<g>
	<path class="st1" d="M-141.7,501.5h4v0.7h-4V501.5z"/>
</g>
<g>
	<path class="st1" d="M-141.1,522c0-0.8,0.5-1.4,1.2-1.6v-0.1c-0.5-0.2-0.9-0.8-0.9-1.6c0-1.3,1-2.1,2.4-2.1c1.4,0,2.4,0.8,2.4,2.1
		c0,0.8-0.4,1.4-0.9,1.6v0.1c0.6,0.2,1.2,0.8,1.2,1.6c0,1.3-1.2,2.2-2.6,2.2C-139.9,524.2-141.1,523.3-141.1,522z M-136.9,522
		c0-0.8-0.6-1.2-1.6-1.2c-0.9,0-1.6,0.4-1.6,1.2c0,0.8,0.7,1.2,1.6,1.2C-137.6,523.2-136.9,522.8-136.9,522z M-137.1,518.7
		c0-0.8-0.6-1.2-1.4-1.2c-0.8,0-1.4,0.4-1.4,1.2c0,0.7,0.6,1.2,1.4,1.2C-137.7,519.8-137.1,519.4-137.1,518.7z"/>
	<path class="st1" d="M-121,516.3l0.8,0.5l-5.1,8.9l-0.8-0.5L-121,516.3z"/>
	<path class="st1" d="M-108.4,517.2h1.3v5.6l0.4,0.4h2v0.9h-5.9v-0.9h2.1l0.4-0.4v-4.6l-1.9,1.3l-0.5-0.8L-108.4,517.2z"/>
	<path class="st1" d="M-103.1,518.8c0.6-1,1.8-1.8,3-1.8c1.5,0,2.2,0.9,2.2,2c0,1.1-1,1.8-1.9,2.5l-2.2,1.7h3.1l0.4-0.4v-0.9h0.9
		v2.1h-5.5v-1.2l2.6-2.1c0.9-0.7,1.5-1.1,1.5-1.8c0-0.6-0.4-1-1.1-1c-0.8,0-1.7,0.6-2.2,1.4L-103.1,518.8z"/>
	<path class="st1" d="M-85.8,521v1.7l0.4,0.4h1.6v0.9h-4.4v-0.9h1.1l0.4-0.4v-4.3l-0.4-0.4h-1.1v-0.9h3.8c1.8,0,2.7,0.7,2.7,1.9
		c0,1.3-0.9,1.9-2.7,1.9H-85.8z M-85.8,520.2h1.4c1.2,0,1.7-0.4,1.7-1.1s-0.5-1.1-1.7-1.1h-1.4V520.2z"/>
	<path class="st1" d="M-75.1,519.9c0.1,0,0.1,0,0.2,0C-74.9,519.9-74.9,519.9-75.1,519.9c0-0.2-0.2-0.3-0.5-0.3
		c-0.8,0-1.5,0.7-2.4,1.7v1.5l0.4,0.4h2v0.9h-4.6v-0.9h1l0.4-0.4v-2.6l-0.4-0.4h-1v-0.9h2.3v1.3c0.7-0.8,1.5-1.5,2.4-1.5
		c1.1,0,1.6,0.7,1.6,1.4c0,0.5-0.3,1.1-0.9,1.1c-0.4,0-0.8-0.2-0.8-0.7C-75.7,520.2-75.5,519.9-75.1,519.9z"/>
	<path class="st1" d="M-68.5,523.1h1.7v0.9h-5.3v-0.9h2l0.4-0.4v-2.6l-0.4-0.4h-2v-0.9h3.2v3.8L-68.5,523.1z M-69.5,516.1
		c0.5,0,0.9,0.4,0.9,0.9c0,0.5-0.4,0.9-0.9,0.9c-0.5,0-0.9-0.4-0.9-0.9C-70.4,516.5-70,516.1-69.5,516.1z"/>
	<path class="st1" d="M-63.2,522.8l0.4,0.4h0.6v0.9h-2.9v-0.9h0.6l0.4-0.4v-2.6l-0.4-0.4h-0.6v-0.9h1.9v0.8c0.3-0.5,1-1,1.8-1
		c1.1,0,1.9,0.7,1.9,1.9v2.1l0.4,0.4h0.6v0.9h-2.9v-0.9h0.6l0.4-0.4V521c0-0.7-0.2-1.4-1.1-1.4c-0.8,0-1.4,0.4-1.8,1.2V522.8z"/>
	<path class="st1" d="M-56.3,519.8h-1.1v-0.9h1.5v-1.8h0.9v1.8h2.8v0.9h-2.5l-0.4,0.4v1.5c0,1.1,0.5,1.6,1.4,1.6
		c0.8,0,1.3-0.4,1.8-1l0.6,0.6c-0.6,0.8-1.4,1.4-2.4,1.4c-1.4,0-2.3-0.7-2.3-2.4v-1.6L-56.3,519.8z"/>
</g>
<g>
	<path class="st1" d="M-139,537.2h1.3v5.6l0.4,0.4h2v0.9h-5.9v-0.9h2.1l0.4-0.4v-4.6l-1.9,1.3l-0.5-0.8L-139,537.2z"/>
	<path class="st1" d="M-133.7,538.8c0.6-1,1.8-1.8,3-1.8c1.5,0,2.2,0.9,2.2,2c0,1.1-1,1.8-1.9,2.5l-2.2,1.7h3.1l0.4-0.4v-0.9h0.9
		v2.1h-5.5v-1.2l2.6-2.1c0.9-0.7,1.5-1.1,1.5-1.8c0-0.6-0.4-1-1.1-1c-0.8,0-1.7,0.6-2.2,1.4L-133.7,538.8z"/>
	<path class="st1" d="M-113.3,536.3l0.8,0.5l-5.1,8.9l-0.8-0.5L-113.3,536.3z"/>
	<path class="st1" d="M-103.1,538.8c0.6-1,1.8-1.8,3-1.8c1.5,0,2.2,0.9,2.2,2c0,1.1-1,1.8-1.9,2.5l-2.2,1.7h3.1l0.4-0.4v-0.9h0.9
		v2.1h-5.5v-1.2l2.6-2.1c0.9-0.7,1.5-1.1,1.5-1.8c0-0.6-0.4-1-1.1-1c-0.8,0-1.7,0.6-2.2,1.4L-103.1,538.8z"/>
	<path class="st1" d="M-92.5,537c1.7,0,2.9,1.6,2.9,3.6c0,2-1.1,3.6-2.9,3.6c-1.7,0-2.9-1.6-2.9-3.6C-95.4,538.6-94.3,537-92.5,537z
		 M-92.5,538c-1.2,0-1.8,1.2-1.8,2.6c0,1.4,0.6,2.6,1.8,2.6s1.8-1.2,1.8-2.6C-90.7,539.2-91.3,538-92.5,538z"/>
	<path class="st1" d="M-75.9,543.1h0.3l0.5-4.8l-0.2-0.3h-1.1v-0.9h2.9v0.9h-0.6l-0.7,6h-1.6l-0.7-4.3l-0.6,4.3h-1.7l-0.7-6h-0.6
		v-0.9h2.9v0.9h-1.1l-0.2,0.3l0.5,4.8h0.3l0.6-4.2h1.3L-75.9,543.1z"/>
	<path class="st1" d="M-69.4,544.2c-1.8,0-3-1.2-3-2.7s1.2-2.7,2.9-2.7c1.9,0,2.8,1.5,2.8,3h-4.7c0.1,0.8,0.8,1.5,2,1.5
		c0.8,0,1.4-0.3,2-0.8l0.5,0.6C-67.7,543.9-68.5,544.2-69.4,544.2z M-67.8,541c-0.2-0.7-0.8-1.3-1.7-1.3c-0.9,0-1.7,0.5-1.8,1.4
		L-67.8,541L-67.8,541z"/>
	<path class="st1" d="M-65.1,544v-0.9h0.6l0.2-0.2v-5.2l-0.2-0.2h-0.7v-0.9h1.8v3.1c0.3-0.5,1-1,1.9-1c1.5,0,2.6,1.2,2.6,2.7
		c0,1.5-1.1,2.7-2.6,2.7c-0.9,0-1.6-0.5-1.9-1v0.9H-65.1z M-63.4,542.1c0.4,0.7,0.9,1.2,1.9,1.2c1,0,1.7-0.8,1.7-1.8
		c0-1-0.6-1.8-1.7-1.8c-0.9,0-1.5,0.5-1.9,1.2V542.1z"/>
</g>
<g>
	<path class="st1" d="M-142.4,265.1c0.6-1,1.8-1.8,3-1.8c1.5,0,2.2,0.9,2.2,2c0,1.1-1,1.8-1.9,2.5l-2.2,1.7h3.1l0.4-0.4v-0.9h0.9
		v2.1h-5.5v-1.2l2.6-2.1c0.9-0.7,1.5-1.1,1.5-1.8c0-0.6-0.4-1-1.1-1c-0.8,0-1.7,0.6-2.2,1.4L-142.4,265.1z"/>
	<path class="st1" d="M-122,262.6l0.8,0.5l-5.1,8.9l-0.8-0.5L-122,262.6z"/>
	<path class="st1" d="M-106.9,268.8l-0.4,0.4v1.2h-1v-1.2l-0.4-0.4h-3.3v-1.2c1-1.2,2.4-3.2,3.1-4.8l1,0.3c-0.8,1.8-2.3,3.7-3.1,4.8
		h2.7v-1.6h1v1.6h1.6v0.9H-106.9z"/>
	<path class="st1" d="M-100.6,267.8l2.2,1.7h0.5v0.9h-2.9v-0.9h0.8l0.2-0.2l-1.3-1.1l-1.3,1.1l0.2,0.2h0.8v0.9h-2.9v-0.9h0.5
		l2.2-1.7l-2.1-1.6h-0.5v-0.9h2.8v0.9h-0.7l-0.2,0.2l1.2,1l1.2-1l-0.2-0.2h-0.7v-0.9h2.8v0.9h-0.5L-100.6,267.8z"/>
</g>
<g>
	<path class="st1" d="M-142.4,305.1c0.6-1,1.8-1.8,3-1.8c1.5,0,2.2,0.9,2.2,2c0,1.1-1,1.8-1.9,2.5l-2.2,1.7h3.1l0.4-0.4v-0.9h0.9
		v2.1h-5.5v-1.2l2.6-2.1c0.9-0.7,1.5-1.1,1.5-1.8c0-0.6-0.4-1-1.1-1c-0.8,0-1.7,0.6-2.2,1.4L-142.4,305.1z"/>
	<path class="st1" d="M-126.6,305.1l0.6-0.6l1.8,1.9l1.8-1.9l0.6,0.6l-1.9,1.9l1.9,1.8l-0.6,0.6l-1.8-1.9l-1.8,1.9l-0.6-0.6l1.9-1.8
		L-126.6,305.1z"/>
	<path class="st1" d="M-107.7,304.4h-3.6v-0.9h4.6v1.2l-2,1.5c0.1,0,0.2-0.1,0.3-0.1c1.2,0,2,0.9,2,2c0,2.1-2.4,3.2-4.7,3.5
		l-0.2-0.9c2.2-0.4,4-1.2,4-2.6c0-0.7-0.5-1.2-1.3-1.2c-0.5,0-0.9,0.1-1.4,0.5l-0.5-0.6L-107.7,304.4z"/>
</g>
<g>
	<path class="st1" d="M-139.4,343.4c1.7,0,2.9,1.6,2.9,3.6c0,2-1.1,3.6-2.9,3.6c-1.7,0-2.9-1.6-2.9-3.6
		C-142.2,344.9-141.1,343.4-139.4,343.4z M-139.4,344.3c-1.2,0-1.8,1.2-1.8,2.6c0,1.4,0.6,2.6,1.8,2.6c1.2,0,1.8-1.2,1.8-2.6
		C-137.5,345.5-138.2,344.3-139.4,344.3z"/>
	<path class="st1" d="M-134.3,345.8c0-1.4,1.2-2.5,2.6-2.5c0.9,0,1.8,0.4,2.2,1.1c0.3,0.5,0.4,1.1,0.4,1.7c0,2.3-1.8,4.6-4.7,5.4
		l-0.3-0.9c2-0.6,3.1-1.8,3.6-2.9c-0.3,0.3-0.8,0.6-1.4,0.6C-133.2,348.3-134.3,347.3-134.3,345.8z M-131.7,347.4
		c0.9,0,1.6-0.7,1.6-1.6c0-0.9-0.7-1.6-1.6-1.6c-0.9,0-1.6,0.7-1.6,1.6C-133.3,346.7-132.6,347.4-131.7,347.4z"/>
</g>
<g>
	<path class="st1" d="M-139.6,392.1v-1.6c-1.5-0.1-2.6-0.7-2.6-1.8c0-0.5,0.4-0.9,0.9-0.9c0.5,0,0.8,0.3,0.8,0.8
		c0,0.3-0.1,0.5-0.4,0.6c0.2,0.2,0.7,0.4,1.4,0.5v-2.5l-0.3-0.1c-1.2-0.3-2-0.8-2-1.9c0-1.1,1-1.8,2.3-1.9v-1.5h0.9v1.5
		c1.4,0.1,2.4,0.9,2.4,1.8c0,0.5-0.3,0.9-0.8,0.9c-0.4,0-0.8-0.3-0.8-0.7c0-0.3,0.1-0.5,0.4-0.6c-0.2-0.2-0.5-0.4-1.2-0.5v2.2
		l0.8,0.2c1,0.2,1.7,0.8,1.7,1.8c0,1.1-1,2-2.5,2.1v1.6H-139.6z M-139.6,384.2c-0.8,0.1-1.3,0.5-1.3,1c0,0.5,0.4,0.8,1.1,0.9l0.2,0
		V384.2z M-138.7,389.7c0.9-0.1,1.5-0.6,1.5-1.2c0-0.6-0.5-0.8-0.9-0.9l-0.6-0.1L-138.7,389.7L-138.7,389.7z"/>
	<path class="st1" d="M-134.3,385.1c0.6-1,1.8-1.8,3-1.8c1.5,0,2.2,0.9,2.2,2c0,1.1-1,1.8-1.9,2.5l-2.2,1.7h3.1l0.4-0.4v-0.9h0.9
		v2.1h-5.5v-1.2l2.6-2.1c0.9-0.7,1.5-1.1,1.5-1.8c0-0.6-0.4-1-1.1-1c-0.8,0-1.7,0.6-2.2,1.4L-134.3,385.1z"/>
	<path class="st1" d="M-121.8,388.8l-0.4,0.4v1.2h-1v-1.2l-0.4-0.4h-3.3v-1.2c1-1.2,2.4-3.2,3.1-4.8l1,0.3c-0.8,1.8-2.3,3.7-3.1,4.8
		h2.7v-1.6h1v1.6h1.6v0.9H-121.8z"/>
	<path class="st1" d="M-106.3,382.6l0.8,0.5l-5.1,8.9l-0.8-0.5L-106.3,382.6z"/>
	<path class="st1" d="M-91.4,388.5c0-0.6-0.5-0.8-1-1l-1.6-0.4c-1.1-0.3-1.9-0.7-1.9-1.9c0-1.1,0.9-1.9,2.3-1.9
		c0.7,0,1.3,0.3,1.8,0.8l0.2-0.1v-0.5h0.9v2.4h-0.8c-0.4-1.2-1.3-1.6-2.1-1.6c-0.8,0-1.3,0.4-1.3,0.9c0,0.6,0.5,0.8,1.1,0.9l1.6,0.4
		c1,0.3,1.7,0.8,1.7,1.8c0,1.2-0.9,2.1-2.4,2.1c-0.8,0-1.6-0.4-2-0.9l-0.2,0.1v0.6h-0.9v-2.6h0.8c0.4,1.3,1.5,1.9,2.4,1.9
		C-91.9,389.6-91.4,389.2-91.4,388.5z"/>
	<path class="st1" d="M-84.1,390.2c-0.4,0.2-0.8,0.3-1.3,0.3c-1.9,0-3.1-1.6-3.1-3.6c0-2,1.2-3.6,3.1-3.6s3.1,1.6,3.1,3.6
		c0,1.1-0.4,2.1-1,2.7l0.8,1.1l-0.8,0.6L-84.1,390.2z M-85.5,389.6c0.3,0,0.5,0,0.7-0.1l-0.8-1.1l0.8-0.6l0.8,1.1
		c0.4-0.5,0.6-1.2,0.6-1.9c0-1.5-0.7-2.6-2.1-2.6c-1.4,0-2.1,1.2-2.1,2.6S-86.8,389.6-85.5,389.6z"/>
</g>
<line class="st2" x1="-142.4" y1="424.8" x2="-119" y2="424.8"/>
<polyline class="st2" points="-138.7,428.2 -142.4,424.8 -138.7,421.3 "/>
<line class="st2" x1="-7.6" y1="424.8" x2="-31" y2="424.8"/>
<polyline class="st2" points="-11.3,421.3 -7.6,424.8 -11.3,428.2 "/>
<g>
	<path class="st1" d="M-101.2,420.7h-2.5l-0.1,0.1v7.1l-0.1,0.1h-1l-0.1-0.1v-7.1l-0.1-0.1h-2.5l-0.1-0.1v-0.8l0.1-0.1h6.5l0.1,0.1
		v0.8L-101.2,420.7z"/>
	<path class="st1" d="M-97.8,423.1h-0.6c-1,0-1.6,0.4-1.6,1.8v3l-0.1,0.1h-1l-0.1-0.1v-5.8l0.1-0.1h0.8l0.1,0.1l0.1,0.5h0.1
		c0.4-0.4,0.7-0.6,1.6-0.6h0.5l0.1,0.1v0.8L-97.8,423.1z"/>
	<path class="st1" d="M-92.2,428H-93l-0.1-0.1l-0.1-0.5h-0.1c0,0-0.5,0.7-1.7,0.7c-1.3,0-2-0.7-2-1.9c0-1.3,1.1-1.9,2.6-1.9
		c0.6,0,1.1,0.1,1.1,0.1l0.1-0.1v-0.2c0-0.8-0.4-1.1-1.2-1.1c-0.8,0-1.2,0.2-1.2,0.7l-0.1,0.1h-1l-0.1-0.1c0-0.8,0.6-1.8,2.4-1.8
		c1.8,0,2.4,0.8,2.4,2.6v3.4L-92.2,428z M-93.2,425.5l-0.1-0.1c0,0-0.4-0.1-1-0.1c-1.1,0-1.6,0.4-1.6,1s0.4,0.8,1.1,0.8
		c1,0,1.6-0.5,1.6-1.2V425.5z"/>
	<path class="st1" d="M-88,427.1c1,0,1.3-0.5,1.4-1l0.1-0.1h1l0.1,0.1c-0.1,1.1-1,2-2.6,2c-1.8,0-2.9-1.2-2.9-3.1s1.1-3.1,2.9-3.1
		c1.7,0,2.5,1,2.6,2l-0.1,0.1h-1l-0.1-0.1c-0.1-0.5-0.5-1-1.4-1c-1.1,0-1.7,0.7-1.7,2S-89.1,427.1-88,427.1z"/>
	<path class="st1" d="M-79.3,428h-0.5l-0.2-0.1l-1.8-2.3H-82l-0.8,0.8l-0.1,0.2v1.2l-0.1,0.1h-1l-0.1-0.1v-8.2l0.1-0.1h1l0.1,0.1
		v5.2h0.1l2.8-2.8l0.2-0.1h0.4l0.1,0.1v0.8l-1.7,1.7v0.1l1.8,2.3v0.8L-79.3,428z"/>
	<path class="st1" d="M-76.9,421.1h-1l-0.1-0.1v-1l0.1-0.1h1l0.1,0.1v1L-76.9,421.1z M-76.9,428h-1l-0.1-0.1v-5.8l0.1-0.1h1l0.1,0.1
		v5.8L-76.9,428z"/>
	<path class="st1" d="M-70.1,428h-1l-0.1-0.1v-3.5c0-0.6-0.1-1.4-1.2-1.4s-1.6,0.6-1.6,2v2.9l-0.1,0.1h-1l-0.1-0.1v-5.8l0.1-0.1h0.8
		l0.1,0.1l0.1,0.5h0.1c0,0,0.5-0.7,1.6-0.7c1.7,0,2.3,1.1,2.3,2.5v3.5L-70.1,428z"/>
	<path class="st1" d="M-64.5,427.4h-0.1c0,0-0.5,0.7-1.6,0.7c-1.7,0-2.6-1.3-2.6-3.1c0-1.8,1-3.1,2.6-3.1c1.1,0,1.6,0.7,1.6,0.7h0.1
		l0.1-0.5l0.1-0.1h0.8l0.1,0.1v5.2c0,2.4-1.3,3.2-2.8,3.2c-1.4,0-2.3-0.7-2.4-1.7l0.1-0.1h1l0.1,0.1c0.2,0.5,0.6,0.6,1.2,0.6
		C-65,429.4-64.5,428.7-64.5,427.4z M-66.1,423c-1,0-1.6,0.7-1.6,2s0.6,2,1.6,2s1.6-0.6,1.6-2C-64.5,423.6-65.1,423-66.1,423z"/>
	<path class="st1" d="M-60.1,423.5h-1.2l-0.1-0.1v-1.2l0.1-0.1h1.2l0.1,0.1v1.2L-60.1,423.5z M-60.1,428h-1.2l-0.1-0.1v-1.2l0.1-0.1
		h1.2l0.1,0.1v1.2L-60.1,428z"/>
	<path class="st1" d="M-49.6,428H-55l-0.1-0.1v-1l0.1-0.2l2.4-1.9c1.2-1,1.7-1.6,1.7-2.6c0-0.8-0.4-1.6-1.4-1.6s-1.6,0.6-1.6,1.6
		l-0.1,0.1h-1l-0.1-0.1c0-1.6,1-2.6,2.8-2.6c1.9,0,2.6,1.3,2.6,2.5c0,1.6-0.7,2.4-1.9,3.4l-1.8,1.4v0.1h3.8l0.1,0.1v0.8L-49.6,428z"
		/>
	<path class="st1" d="M-45.5,428.1c-1.8,0-2.6-1-2.8-2.4l0.1-0.1h1l0.1,0.1c0.1,0.7,0.4,1.3,1.6,1.3s1.7-0.7,1.7-1.9
		c0-1.1-0.4-1.8-1.6-1.8c-1.2,0-1.6,1-1.6,1l-0.2,0.1l-0.8-0.1l-0.1-0.1l0.2-4.4l0.1-0.1h4.7l0.1,0.1v0.8l-0.1,0.1h-3.6l-0.1,0.1
		l-0.1,2.2h0.1c0,0,0.5-0.7,1.7-0.7c1.8,0,2.5,1.3,2.5,2.8C-42.6,427.2-43.7,428.1-45.5,428.1z"/>
</g>
<circle class="st3" cx="-35.5" cy="481.7" r="9.6"/>
<line class="st3" x1="-30.5" y1="481.7" x2="-40.5" y2="481.7"/>
<line class="st3" x1="-35.5" y1="486.7" x2="-35.5" y2="476.7"/>
<g>
	<path class="st1" d="M52.6,263.5h1.3v5.6l0.4,0.4h2v0.9h-5.9v-0.9h2.1l0.4-0.4v-4.6l-1.9,1.3l-0.5-0.8L52.6,263.5z"/>
	<path class="st1" d="M70.6,262.6l0.8,0.5l-5.1,8.9l-0.8-0.5L70.6,262.6z"/>
	<path class="st1" d="M84.9,264.4h-3.6v-0.9h4.6v1.2l-2,1.5c0.1,0,0.2-0.1,0.3-0.1c1.2,0,2,0.9,2,2c0,2.1-2.4,3.2-4.7,3.5l-0.2-0.9
		c2.2-0.4,4-1.2,4-2.6c0-0.7-0.5-1.2-1.3-1.2c-0.5,0-0.9,0.1-1.4,0.5l-0.5-0.6L84.9,264.4z"/>
</g>
<g>
	<path class="st1" d="M50.7,305.1c0.6-1,1.8-1.8,3-1.8c1.5,0,2.2,0.9,2.2,2c0,1.1-1,1.8-1.9,2.5l-2.2,1.7h3.1l0.4-0.4v-0.9h0.9v2.1
		h-5.5v-1.2l2.6-2.1c0.9-0.7,1.5-1.1,1.5-1.8c0-0.6-0.4-1-1.1-1c-0.8,0-1.7,0.6-2.2,1.4L50.7,305.1z"/>
	<path class="st1" d="M61.1,306.6l-0.4-2.1c-0.1-0.3-0.1-0.7-0.1-0.9c0-0.4,0.3-0.8,0.8-0.8c0.5,0,0.7,0.3,0.7,0.8
		c0,0.2,0,0.6-0.1,0.9l-0.5,2.1H61.1z"/>
	<path class="st1" d="M74.1,305.1l0.6-0.6l1.8,1.9l1.8-1.9l0.6,0.6l-1.9,1.9l1.9,1.8l-0.6,0.6l-1.8-1.9l-1.8,1.9l-0.6-0.6L76,307
		L74.1,305.1z"/>
	<path class="st1" d="M93,304.4h-3.6v-0.9h4.6v1.2l-2,1.5c0.1,0,0.2-0.1,0.3-0.1c1.2,0,2,0.9,2,2c0,2.1-2.4,3.2-4.7,3.5l-0.2-0.9
		c2.2-0.4,4-1.2,4-2.6c0-0.7-0.5-1.2-1.3-1.2c-0.5,0-0.9,0.1-1.4,0.5l-0.5-0.6L93,304.4z"/>
	<path class="st1" d="M99.4,306.6l-0.4-2.1c-0.1-0.3-0.1-0.7-0.1-0.9c0-0.4,0.3-0.8,0.8-0.8c0.5,0,0.7,0.3,0.7,0.8
		c0,0.2,0,0.6-0.1,0.9l-0.5,2.1H99.4z"/>
</g>
<g>
	<path class="st1" d="M53.6,343.3c1.7,0,2.9,1.6,2.9,3.6c0,2-1.1,3.6-2.9,3.6c-1.7,0-2.9-1.6-2.9-3.6
		C50.8,344.9,51.9,343.3,53.6,343.3z M53.6,344.3c-1.2,0-1.8,1.2-1.8,2.6c0,1.4,0.6,2.6,1.8,2.6s1.8-1.2,1.8-2.6
		C55.5,345.5,54.8,344.3,53.6,344.3z"/>
	<path class="st1" d="M58.7,345.8c0-1.4,1.2-2.5,2.6-2.5c0.9,0,1.8,0.4,2.2,1.1c0.3,0.5,0.4,1.1,0.4,1.7c0,2.3-1.8,4.6-4.7,5.4
		l-0.3-0.9c2-0.6,3.1-1.8,3.6-2.9c-0.3,0.3-0.8,0.6-1.4,0.6C59.8,348.3,58.7,347.3,58.7,345.8z M61.3,347.4c0.9,0,1.6-0.7,1.6-1.6
		c0-0.9-0.7-1.6-1.6-1.6c-0.9,0-1.6,0.7-1.6,1.6C59.7,346.7,60.4,347.4,61.3,347.4z"/>
	<path class="st1" d="M69,348.4c0.6,0,1.1,0.5,1.1,1.1c0,0.6-0.5,1.1-1.1,1.1s-1.1-0.5-1.1-1.1C67.9,348.8,68.4,348.4,69,348.4z"/>
	<path class="st1" d="M76.1,343.5h1.3v5.6l0.4,0.4h2v0.9h-5.9v-0.9H76l0.4-0.4v-4.6l-1.9,1.3l-0.5-0.8L76.1,343.5z"/>
	<path class="st1" d="M81.4,345.1c0.6-1,1.8-1.8,3-1.8c1.5,0,2.2,0.9,2.2,2c0,1.1-1,1.8-1.9,2.5l-2.2,1.7h3.1l0.4-0.4v-0.9h0.9v2.1
		h-5.5v-1.2l2.6-2.1c0.9-0.7,1.5-1.1,1.5-1.8c0-0.6-0.4-1-1.1-1c-0.8,0-1.7,0.6-2.2,1.4L81.4,345.1z"/>
	<path class="st1" d="M89.5,350.7c2.2-0.4,3.8-1.1,3.8-2.5c0-0.6-0.4-1.1-1.2-1.1c-0.5,0-1,0.3-1.2,0.7h-1.2l0.2-4.2h4.3v0.9h-3.4
		l-0.1,2.4c0.3-0.4,0.9-0.7,1.6-0.7c1.5,0,2.2,1.1,2.2,2c0,2.1-2.3,3.1-4.7,3.4L89.5,350.7z"/>
	<path class="st1" d="M98.3,346.6l-0.4-2.1c-0.1-0.3-0.1-0.7-0.1-0.9c0-0.4,0.3-0.8,0.8-0.8c0.5,0,0.7,0.3,0.7,0.8
		c0,0.2,0,0.6-0.1,0.9l-0.5,2.1H98.3z M100.7,346.6l-0.4-2.1c-0.1-0.3-0.1-0.7-0.1-0.9c0-0.4,0.3-0.8,0.8-0.8c0.5,0,0.7,0.3,0.7,0.8
		c0,0.2,0,0.6-0.1,0.9l-0.5,2.1H100.7z"/>
</g>
<g>
	<path class="st1" d="M53.4,392.1v-1.6c-1.5-0.1-2.6-0.7-2.6-1.8c0-0.5,0.4-0.9,0.9-0.9c0.5,0,0.8,0.3,0.8,0.8
		c0,0.3-0.1,0.5-0.4,0.6c0.2,0.2,0.7,0.4,1.4,0.5v-2.5l-0.3-0.1c-1.2-0.3-2-0.8-2-1.9c0-1.1,1-1.8,2.3-1.9v-1.5h0.9v1.5
		c1.4,0.1,2.4,0.9,2.4,1.8c0,0.5-0.3,0.9-0.8,0.9c-0.4,0-0.8-0.3-0.8-0.7c0-0.3,0.1-0.5,0.4-0.6c-0.2-0.2-0.5-0.4-1.2-0.5v2.2
		l0.8,0.2c1,0.2,1.7,0.8,1.7,1.8c0,1.1-1,2-2.5,2.1v1.6H53.4z M53.4,384.2c-0.8,0.1-1.3,0.5-1.3,1c0,0.5,0.4,0.8,1.1,0.9l0.2,0
		V384.2z M54.3,389.6c0.9-0.1,1.5-0.6,1.5-1.2c0-0.6-0.5-0.8-0.9-0.9l-0.6-0.1L54.3,389.6L54.3,389.6z"/>
	<path class="st1" d="M61,383.5h1.3v5.6l0.4,0.4h2v0.9h-5.9v-0.9h2.1l0.4-0.4v-4.6l-1.9,1.3l-0.5-0.8L61,383.5z"/>
	<path class="st1" d="M66.7,388.3c0-0.8,0.5-1.4,1.2-1.6v-0.1c-0.5-0.2-0.9-0.8-0.9-1.6c0-1.3,1-2.1,2.4-2.1c1.4,0,2.4,0.8,2.4,2.1
		c0,0.8-0.4,1.4-0.9,1.6v0.1c0.6,0.2,1.2,0.8,1.2,1.6c0,1.3-1.2,2.2-2.6,2.2C67.8,390.5,66.7,389.7,66.7,388.3z M70.8,388.3
		c0-0.8-0.6-1.2-1.6-1.2c-0.9,0-1.6,0.4-1.6,1.2c0,0.8,0.7,1.2,1.6,1.2C70.1,389.6,70.8,389.1,70.8,388.3z M70.6,385
		c0-0.8-0.6-1.2-1.4-1.2c-0.8,0-1.4,0.4-1.4,1.2c0,0.7,0.6,1.2,1.4,1.2C70,386.2,70.6,385.7,70.6,385z"/>
	<path class="st1" d="M86.7,382.6l0.8,0.5l-5.1,8.9l-0.8-0.5L86.7,382.6z"/>
	<path class="st1" d="M101.7,388.5c0-0.6-0.5-0.8-1-1l-1.6-0.4c-1.1-0.3-1.9-0.7-1.9-1.9c0-1.1,0.9-1.9,2.3-1.9
		c0.7,0,1.3,0.3,1.8,0.8l0.2-0.1v-0.5h0.9v2.4h-0.8c-0.4-1.2-1.3-1.6-2.1-1.6c-0.8,0-1.3,0.4-1.3,0.9c0,0.6,0.5,0.8,1.1,0.9l1.6,0.4
		c1,0.3,1.7,0.8,1.7,1.8c0,1.2-0.9,2.1-2.3,2.1c-0.8,0-1.6-0.4-2-0.9l-0.2,0.1v0.6h-0.9v-2.6h0.8c0.4,1.3,1.5,1.9,2.4,1.9
		C101.2,389.6,101.7,389.1,101.7,388.5z"/>
	<path class="st1" d="M108.9,390.2c-0.4,0.2-0.8,0.3-1.3,0.3c-1.9,0-3.1-1.6-3.1-3.6c0-2,1.2-3.6,3.1-3.6c1.9,0,3.1,1.6,3.1,3.6
		c0,1.1-0.4,2.1-1,2.7l0.8,1.1l-0.8,0.6L108.9,390.2z M107.6,389.6c0.3,0,0.5,0,0.7-0.1l-0.8-1.1l0.8-0.6l0.8,1.1
		c0.4-0.5,0.6-1.2,0.6-1.9c0-1.5-0.7-2.6-2.1-2.6s-2.1,1.2-2.1,2.6S106.2,389.6,107.6,389.6z"/>
</g>
</svg>
