<?xml version="1.0" encoding="utf-8"?>
<!-- Generator: Adobe Illustrator 19.1.0, SVG Export Plug-In . SVG Version: 6.00 Build 0)  -->
<svg version="1.1" id="Layer_3" xmlns="http://www.w3.org/2000/svg" xmlns:xlink="http://www.w3.org/1999/xlink" x="0px" y="0px"
	 viewBox="0 0 724.2 192.9" style="enable-background:new 0 0 724.2 192.9;" xml:space="preserve">
<style type="text/css">
	
		.st0{clip-path:url(#SVGID_2_);fill:none;stroke:#363D39;stroke-width:0.75;stroke-linecap:round;stroke-linejoin:round;stroke-dasharray:5.000000e-03,3.005;}
	.st1{clip-path:url(#SVGID_2_);fill:none;stroke:#363D39;stroke-width:0.75;stroke-linecap:round;stroke-linejoin:round;}
	.st2{fill:#363D39;}
	.st3{fill:none;stroke:#F2BE1A;stroke-width:0.75;}
	.st4{clip-path:url(#SVGID_4_);fill:none;stroke:#363D39;stroke-width:0.75;stroke-miterlimit:10;}
	.st5{fill:none;stroke:#363D39;stroke-width:0.75;stroke-miterlimit:10;}
</style>
<g>
	<defs>
		<rect id="SVGID_1_" x="-8" y="-7" width="609" height="195.3"/>
	</defs>
	<clipPath id="SVGID_2_">
		<use xlink:href="#SVGID_1_"  style="overflow:visible;"/>
	</clipPath>
	<line class="st0" x1="5.4" y1="187.9" x2="407.1" y2="187.9"/>
	<path class="st1" d="M408.6,187.9L408.6,187.9 M2.4,187.9L2.4,187.9"/>
</g>
<g>
	<path class="st2" d="M485.4,15c-2.4,0-3.5-1.2-3.5-2.8l0.1-0.1h1.4l0.1,0.1c0,0.8,0.5,1.3,1.9,1.3c1.1,0,1.7-0.4,1.7-1.1
		c0-0.8-0.5-1.1-2.2-1.3c-1.7-0.2-3-0.8-3-2.5c0-1.2,1-2.3,3.2-2.3s3.2,1.1,3.2,2.5L488.3,9h-1.4l-0.1-0.1c0-0.7-0.4-1.1-1.7-1.1
		c-1.1,0-1.4,0.4-1.4,0.8c0,0.7,0.5,1,2.2,1.2c1.7,0.2,3,1,3,2.6C488.8,13.8,487.9,15,485.4,15z"/>
	<path class="st2" d="M497.9,14.9h-5.6l-0.1-0.1V6.6l0.1-0.1h5.6l0.1,0.1v1.2l-0.1,0.1h-4L493.9,8v1.7l0.1,0.1h3.7l0.1,0.1v1.2
		l-0.1,0.1H494l-0.1,0.1v1.9l0.1,0.1h4l0.1,0.1v1.2L497.9,14.9z"/>
	<path class="st2" d="M510.5,14.9h-1.4l-0.1-0.1v-4.7h-0.1l-1.9,4.7l-0.1,0.1h-1.3l-0.1-0.1l-1.9-4.7h-0.1v4.7l-0.1,0.1h-1.4
		l-0.1-0.1V6.6l0.1-0.1h1.8l0.1,0.1l2.4,5.9h0.1l2.4-5.9l0.1-0.1h1.8l0.1,0.1v8.2L510.5,14.9z"/>
	<path class="st2" d="M516.1,14.9h-1.4l-0.1-0.1V6.6l0.1-0.1h1.4l0.1,0.1v8.2L516.1,14.9z"/>
	<path class="st2" d="M524.2,14.9h-4.1l-0.1-0.1V6.6l0.1-0.1h3.8c1.2,0,2.4,0.6,2.4,2.2c0,0.8-0.4,1.6-1.2,1.8v0.1
		c1,0.2,1.4,1,1.4,2C526.6,14.3,525.4,14.9,524.2,14.9z M523.8,7.9h-1.9L521.7,8v1.7l0.1,0.1h1.9c0.7,0,1-0.5,1-1
		C524.7,8.3,524.5,7.9,523.8,7.9z M523.8,11.3h-1.9l-0.1,0.1v1.9l0.1,0.1h1.9c0.8,0,1.2-0.4,1.2-1.1S524.6,11.3,523.8,11.3z"/>
	<path class="st2" d="M533.6,15c-2.5,0-4.1-1.8-4.1-4.3s1.6-4.3,4.1-4.3s4.1,1.8,4.1,4.3S536.1,15,533.6,15z M533.6,7.8
		c-1.6,0-2.4,1.2-2.4,2.9c0,1.7,0.8,2.9,2.4,2.9c1.6,0,2.4-1.2,2.4-2.9C536,9,535.1,7.8,533.6,7.8z"/>
	<path class="st2" d="M546.5,14.9h-5.4l-0.1-0.1V6.6l0.1-0.1h1.4l0.1,0.1v6.7l0.1,0.1h3.7l0.1,0.1v1.2L546.5,14.9z"/>
	<path class="st2" d="M552.4,14.9h-2.6l-0.1-0.1V6.6l0.1-0.1h2.6c3,0,4.1,1.6,4.1,4.2C556.5,13.3,555.4,14.9,552.4,14.9z M552.5,7.9
		h-1.1L551.3,8v5.3l0.1,0.1h1.1c1.7,0,2.3-0.8,2.3-2.8S554.2,7.9,552.5,7.9z"/>
</g>
<g>
	<path class="st2" d="M481.8,32.4h4V33h-4V32.4z"/>
</g>
<g>
	<path class="st2" d="M482.4,52.9c0-0.8,0.5-1.4,1.2-1.6v-0.1c-0.5-0.2-0.9-0.8-0.9-1.6c0-1.3,1-2.1,2.4-2.1c1.4,0,2.4,0.8,2.4,2.1
		c0,0.8-0.4,1.4-0.9,1.6v0.1c0.6,0.2,1.2,0.8,1.2,1.6c0,1.3-1.2,2.2-2.6,2.2C483.6,55,482.4,54.2,482.4,52.9z M486.6,52.9
		c0-0.8-0.6-1.2-1.6-1.2c-0.9,0-1.6,0.4-1.6,1.2c0,0.8,0.7,1.2,1.6,1.2C485.9,54.1,486.6,53.7,486.6,52.9z M486.4,49.5
		c0-0.8-0.6-1.2-1.4-1.2c-0.8,0-1.4,0.4-1.4,1.2c0,0.7,0.6,1.2,1.4,1.2C485.8,50.7,486.4,50.3,486.4,49.5z"/>
	<path class="st2" d="M502.5,47.1l0.8,0.5l-5.1,8.9l-0.8-0.5L502.5,47.1z"/>
	<path class="st2" d="M515.1,48h1.3v5.6l0.4,0.4h2v0.9h-5.9V54h2.1l0.4-0.4V49l-1.9,1.3l-0.5-0.8L515.1,48z"/>
	<path class="st2" d="M520.4,49.6c0.6-1,1.8-1.8,3-1.8c1.5,0,2.2,0.9,2.2,2c0,1.1-1,1.8-1.9,2.5l-2.2,1.7h3.1l0.4-0.4v-0.9h0.9v2.1
		h-5.5v-1.2l2.6-2.1c0.9-0.7,1.5-1.1,1.5-1.8c0-0.6-0.4-1-1.1-1c-0.8,0-1.7,0.6-2.2,1.4L520.4,49.6z"/>
	<path class="st2" d="M537.7,51.9v1.7l0.4,0.4h1.6v0.9h-4.4V54h1.1l0.4-0.4v-4.3l-0.4-0.4h-1.1V48h3.8c1.8,0,2.7,0.7,2.7,1.9
		c0,1.3-0.9,1.9-2.7,1.9H537.7z M537.7,51h1.4c1.2,0,1.7-0.4,1.7-1.1s-0.5-1.1-1.7-1.1h-1.4V51z"/>
	<path class="st2" d="M548.4,50.8c0.1,0,0.1,0,0.2,0C548.6,50.8,548.6,50.8,548.4,50.8c0-0.2-0.2-0.3-0.5-0.3
		c-0.8,0-1.5,0.7-2.4,1.7v1.5l0.4,0.4h2v0.9h-4.6V54h1l0.4-0.4V51l-0.4-0.4h-1v-0.9h2.3v1.3c0.7-0.8,1.5-1.5,2.4-1.5
		c1.1,0,1.6,0.7,1.6,1.4c0,0.5-0.3,1.1-0.9,1.1c-0.4,0-0.8-0.2-0.8-0.7C547.8,51.1,548,50.8,548.4,50.8z"/>
	<path class="st2" d="M555,54h1.7v0.9h-5.3V54h2l0.4-0.4V51l-0.4-0.4h-2v-0.9h3.2v3.8L555,54z M554,47c0.5,0,0.9,0.4,0.9,0.9
		c0,0.5-0.4,0.9-0.9,0.9c-0.5,0-0.9-0.4-0.9-0.9C553.1,47.4,553.5,47,554,47z"/>
	<path class="st2" d="M560.3,53.6l0.4,0.4h0.6v0.9h-2.9V54h0.6l0.4-0.4V51l-0.4-0.4h-0.6v-0.9h1.9v0.8c0.3-0.5,1-1,1.8-1
		c1.1,0,1.9,0.7,1.9,1.9v2.1l0.4,0.4h0.6v0.9h-2.9V54h0.6l0.4-0.4v-1.7c0-0.7-0.2-1.4-1.1-1.4c-0.8,0-1.4,0.4-1.8,1.2V53.6z"/>
	<path class="st2" d="M567.2,50.7h-1.1v-0.9h1.5V48h0.9v1.8h2.8v0.9h-2.5l-0.4,0.4v1.5c0,1.1,0.5,1.6,1.4,1.6c0.8,0,1.3-0.4,1.8-1
		l0.6,0.6c-0.6,0.8-1.4,1.4-2.4,1.4c-1.4,0-2.3-0.7-2.3-2.4V51L567.2,50.7z"/>
</g>
<g>
	<path class="st2" d="M484.5,68.1h1.3v5.6l0.4,0.4h2v0.9h-5.9V74h2.1l0.4-0.4V69l-1.9,1.3l-0.5-0.8L484.5,68.1z"/>
	<path class="st2" d="M489.8,69.6c0.6-1,1.8-1.8,3-1.8c1.5,0,2.2,0.9,2.2,2c0,1.1-1,1.8-1.9,2.5l-2.2,1.7h3.1l0.4-0.4v-0.9h0.9v2.1
		h-5.5v-1.2l2.6-2.1c0.9-0.7,1.5-1.1,1.5-1.8c0-0.6-0.4-1-1.1-1c-0.8,0-1.7,0.6-2.2,1.4L489.8,69.6z"/>
	<path class="st2" d="M510.2,67.1l0.8,0.5l-5.1,8.9l-0.8-0.5L510.2,67.1z"/>
	<path class="st2" d="M520.4,69.6c0.6-1,1.8-1.8,3-1.8c1.5,0,2.2,0.9,2.2,2c0,1.1-1,1.8-1.9,2.5l-2.2,1.7h3.1l0.4-0.4v-0.9h0.9v2.1
		h-5.5v-1.2l2.6-2.1c0.9-0.7,1.5-1.1,1.5-1.8c0-0.6-0.4-1-1.1-1c-0.8,0-1.7,0.6-2.2,1.4L520.4,69.6z"/>
	<path class="st2" d="M531,67.9c1.7,0,2.9,1.6,2.9,3.6c0,2-1.1,3.6-2.9,3.6c-1.7,0-2.9-1.6-2.9-3.6C528.1,69.5,529.2,67.9,531,67.9z
		 M531,68.8c-1.2,0-1.8,1.2-1.8,2.6c0,1.4,0.6,2.6,1.8,2.6s1.8-1.2,1.8-2.6C532.8,70,532.2,68.8,531,68.8z"/>
	<path class="st2" d="M547.6,74h0.3l0.5-4.8l-0.2-0.3H547v-0.9h2.9v0.9h-0.6l-0.7,6H547l-0.7-4.3l-0.6,4.3H544l-0.7-6h-0.6v-0.9h2.9
		v0.9h-1.1l-0.2,0.3l0.5,4.8h0.3l0.6-4.2h1.3L547.6,74z"/>
	<path class="st2" d="M554.1,75.1c-1.8,0-3-1.2-3-2.7s1.2-2.7,2.9-2.7c1.9,0,2.8,1.5,2.8,3h-4.7c0.1,0.8,0.8,1.5,2,1.5
		c0.8,0,1.4-0.3,2-0.8l0.5,0.6C555.8,74.7,555,75.1,554.1,75.1z M555.7,71.9c-0.2-0.7-0.8-1.3-1.7-1.3c-0.9,0-1.7,0.5-1.8,1.4
		L555.7,71.9L555.7,71.9z"/>
	<path class="st2" d="M558.4,74.9V74h0.6l0.2-0.2v-5.2l-0.2-0.2h-0.7v-0.9h1.8v3.1c0.3-0.5,1-1,1.9-1c1.5,0,2.6,1.2,2.6,2.7
		c0,1.5-1.1,2.7-2.6,2.7c-0.9,0-1.6-0.5-1.9-1v0.9H558.4z M560.1,72.9c0.4,0.7,0.9,1.2,1.9,1.2c1,0,1.7-0.8,1.7-1.8
		c0-1-0.6-1.8-1.7-1.8c-0.9,0-1.5,0.5-1.9,1.2V72.9z"/>
</g>
<g>
	<path class="st2" d="M1.6,2.7c0.6-1,1.8-1.8,3-1.8c1.5,0,2.2,0.9,2.2,2c0,1.1-1,1.8-1.9,2.5L2.8,7.1h3.1l0.4-0.4V5.8h0.9V8H1.7V6.8
		l2.6-2.1C5.2,4,5.8,3.6,5.8,2.9c0-0.6-0.4-1-1.1-1C3.8,1.9,3,2.5,2.4,3.3L1.6,2.7z"/>
	<path class="st2" d="M22,0.2l0.8,0.5l-5.1,8.9l-0.8-0.5L22,0.2z"/>
	<path class="st2" d="M37.1,6.4l-0.4,0.4V8h-1V6.8l-0.4-0.4h-3.3V5.2c1-1.2,2.4-3.2,3.1-4.8l1,0.3c-0.8,1.8-2.3,3.7-3.1,4.8h2.7V3.9
		h1v1.6h1.6v0.9H37.1z"/>
	<path class="st2" d="M43.4,5.4l2.2,1.7h0.5V8h-2.9V7.1H44l0.2-0.2l-1.3-1.1l-1.3,1.1l0.2,0.2h0.8V8h-2.9V7.1H40l2.2-1.7l-2.1-1.6
		h-0.5V2.9h2.8v0.9h-0.7l-0.2,0.2l1.2,1l1.2-1l-0.2-0.2h-0.7V2.9H46v0.9h-0.5L43.4,5.4z"/>
</g>
<g>
	<path class="st2" d="M1.6,42.7c0.6-1,1.8-1.8,3-1.8c1.5,0,2.2,0.9,2.2,2c0,1.1-1,1.8-1.9,2.5l-2.2,1.7h3.1l0.4-0.4v-0.9h0.9V48H1.7
		v-1.2l2.6-2.1c0.9-0.7,1.5-1.1,1.5-1.8c0-0.6-0.4-1-1.1-1c-0.8,0-1.7,0.6-2.2,1.4L1.6,42.7z"/>
	<path class="st2" d="M17.4,42.7l0.6-0.6l1.8,1.9l1.8-1.9l0.6,0.6l-1.9,1.9l1.9,1.8L21.7,47l-1.8-1.9L18,47l-0.6-0.6l1.9-1.8
		L17.4,42.7z"/>
	<path class="st2" d="M36.3,42h-3.6v-0.9h4.6v1.2l-2,1.5c0.1,0,0.2-0.1,0.3-0.1c1.2,0,2,0.9,2,2c0,2.1-2.4,3.2-4.7,3.5l-0.2-0.9
		c2.2-0.4,4-1.2,4-2.6c0-0.7-0.5-1.2-1.3-1.2c-0.5,0-0.9,0.1-1.4,0.5l-0.5-0.6L36.3,42z"/>
</g>
<g>
	<path class="st2" d="M4.6,81c1.7,0,2.9,1.6,2.9,3.6c0,2-1.1,3.6-2.9,3.6c-1.7,0-2.9-1.6-2.9-3.6C1.8,82.5,2.9,81,4.6,81z M4.6,81.9
		c-1.2,0-1.8,1.2-1.8,2.6c0,1.4,0.6,2.6,1.8,2.6c1.2,0,1.8-1.2,1.8-2.6C6.5,83.1,5.8,81.9,4.6,81.9z"/>
	<path class="st2" d="M9.7,83.4c0-1.4,1.2-2.5,2.6-2.5c0.9,0,1.8,0.4,2.2,1.1c0.3,0.5,0.4,1.1,0.4,1.7c0,2.3-1.8,4.6-4.7,5.4
		l-0.3-0.9c2-0.6,3.1-1.8,3.6-2.9c-0.3,0.3-0.8,0.6-1.4,0.6C10.8,85.9,9.7,84.9,9.7,83.4z M12.3,85c0.9,0,1.6-0.7,1.6-1.6
		c0-0.9-0.7-1.6-1.6-1.6c-0.9,0-1.6,0.7-1.6,1.6C10.7,84.3,11.4,85,12.3,85z"/>
</g>
<g>
	<path class="st2" d="M4.4,129.7v-1.6c-1.5-0.1-2.6-0.7-2.6-1.8c0-0.5,0.4-0.9,0.9-0.9c0.5,0,0.8,0.3,0.8,0.8c0,0.3-0.1,0.5-0.4,0.6
		c0.2,0.2,0.7,0.4,1.4,0.5v-2.5l-0.3-0.1c-1.2-0.3-2-0.8-2-1.9c0-1.1,1-1.8,2.3-1.9v-1.5h0.9v1.5c1.4,0.1,2.4,0.9,2.4,1.8
		c0,0.5-0.3,0.9-0.8,0.9c-0.4,0-0.8-0.3-0.8-0.7c0-0.3,0.1-0.5,0.4-0.6c-0.2-0.2-0.5-0.4-1.2-0.5v2.2l0.8,0.2c1,0.2,1.7,0.8,1.7,1.8
		c0,1.1-1,2-2.5,2.1v1.6H4.4z M4.4,121.8c-0.8,0.1-1.3,0.5-1.3,1c0,0.5,0.4,0.8,1.1,0.9l0.2,0V121.8z M5.3,127.3
		c0.9-0.1,1.5-0.6,1.5-1.2c0-0.6-0.5-0.8-0.9-0.9L5.3,125L5.3,127.3L5.3,127.3z"/>
	<path class="st2" d="M9.7,122.7c0.6-1,1.8-1.8,3-1.8c1.5,0,2.2,0.9,2.2,2c0,1.1-1,1.8-1.9,2.5l-2.2,1.7h3.1l0.4-0.4v-0.9h0.9v2.1
		H9.7v-1.2l2.6-2.1c0.9-0.7,1.5-1.1,1.5-1.8c0-0.6-0.4-1-1.1-1c-0.8,0-1.7,0.6-2.2,1.4L9.7,122.7z"/>
	<path class="st2" d="M22.2,126.4l-0.4,0.4v1.2h-1v-1.2l-0.4-0.4h-3.3v-1.2c1-1.2,2.4-3.2,3.1-4.8l1,0.3c-0.8,1.8-2.3,3.7-3.1,4.8
		h2.7v-1.6h1v1.6h1.6v0.9H22.2z"/>
	<path class="st2" d="M37.7,120.2l0.8,0.5l-5.1,8.9l-0.8-0.5L37.7,120.2z"/>
	<path class="st2" d="M52.6,126.1c0-0.6-0.5-0.8-1-1l-1.6-0.4c-1.1-0.3-1.9-0.7-1.9-1.9c0-1.1,0.9-1.9,2.3-1.9
		c0.7,0,1.3,0.3,1.8,0.8l0.2-0.1v-0.5h0.9v2.4h-0.8c-0.4-1.2-1.3-1.6-2.1-1.6c-0.8,0-1.3,0.4-1.3,0.9c0,0.6,0.5,0.8,1.1,0.9l1.6,0.4
		c1,0.3,1.7,0.8,1.7,1.8c0,1.2-0.9,2.1-2.4,2.1c-0.8,0-1.6-0.4-2-0.9l-0.2,0.1v0.6h-0.9v-2.6h0.8c0.4,1.3,1.5,1.9,2.4,1.9
		C52.1,127.2,52.6,126.8,52.6,126.1z"/>
	<path class="st2" d="M59.9,127.8c-0.4,0.2-0.8,0.3-1.3,0.3c-1.9,0-3.1-1.6-3.1-3.6c0-2,1.2-3.6,3.1-3.6s3.1,1.6,3.1,3.6
		c0,1.1-0.4,2.1-1,2.7l0.8,1.1l-0.8,0.6L59.9,127.8z M58.5,127.2c0.3,0,0.5,0,0.7-0.1l-0.8-1.1l0.8-0.6l0.8,1.1
		c0.4-0.5,0.6-1.2,0.6-1.9c0-1.5-0.7-2.6-2.1-2.6c-1.4,0-2.1,1.2-2.1,2.6S57.2,127.2,58.5,127.2z"/>
</g>
<line class="st3" x1="1.6" y1="162.4" x2="25" y2="162.4"/>
<polyline class="st3" points="5.3,165.8 1.6,162.4 5.3,158.9 "/>
<line class="st3" x1="136.4" y1="162.4" x2="113" y2="162.4"/>
<polyline class="st3" points="132.7,158.9 136.4,162.4 132.7,165.8 "/>
<g>
	<path class="st2" d="M42.8,158.3h-2.5l-0.1,0.1v7.1l-0.1,0.1h-1l-0.1-0.1v-7.1l-0.1-0.1h-2.5l-0.1-0.1v-0.8l0.1-0.1h6.5l0.1,0.1
		v0.8L42.8,158.3z"/>
	<path class="st2" d="M46.2,160.7h-0.6c-1,0-1.6,0.4-1.6,1.8v3l-0.1,0.1h-1l-0.1-0.1v-5.8l0.1-0.1h0.8l0.1,0.1l0.1,0.5h0.1
		c0.4-0.4,0.7-0.6,1.6-0.6h0.5l0.1,0.1v0.8L46.2,160.7z"/>
	<path class="st2" d="M51.8,165.6H51l-0.1-0.1l-0.1-0.5h-0.1c0,0-0.5,0.7-1.7,0.7c-1.3,0-2-0.7-2-1.9c0-1.3,1.1-1.9,2.6-1.9
		c0.6,0,1.1,0.1,1.1,0.1l0.1-0.1v-0.2c0-0.8-0.4-1.1-1.2-1.1c-0.8,0-1.2,0.2-1.2,0.7l-0.1,0.1h-1l-0.1-0.1c0-0.8,0.6-1.8,2.4-1.8
		c1.8,0,2.4,0.8,2.4,2.6v3.4L51.8,165.6z M50.8,163.1l-0.1-0.1c0,0-0.4-0.1-1-0.1c-1.1,0-1.6,0.4-1.6,1s0.4,0.8,1.1,0.8
		c1,0,1.6-0.5,1.6-1.2V163.1z"/>
	<path class="st2" d="M56,164.7c1,0,1.3-0.5,1.4-1l0.1-0.1h1l0.1,0.1c-0.1,1.1-1,2-2.6,2c-1.8,0-2.9-1.2-2.9-3.1s1.1-3.1,2.9-3.1
		c1.7,0,2.5,1,2.6,2l-0.1,0.1h-1l-0.1-0.1c-0.1-0.5-0.5-1-1.4-1c-1.1,0-1.7,0.7-1.7,2S54.9,164.7,56,164.7z"/>
	<path class="st2" d="M64.7,165.6h-0.5l-0.2-0.1l-1.8-2.3H62l-0.8,0.8l-0.1,0.2v1.2l-0.1,0.1h-1l-0.1-0.1v-8.2l0.1-0.1h1l0.1,0.1
		v5.2h0.1l2.8-2.8l0.2-0.1h0.4l0.1,0.1v0.8l-1.7,1.7v0.1l1.8,2.3v0.8L64.7,165.6z"/>
	<path class="st2" d="M67.1,158.7h-1l-0.1-0.1v-1l0.1-0.1h1l0.1,0.1v1L67.1,158.7z M67.1,165.6h-1l-0.1-0.1v-5.8l0.1-0.1h1l0.1,0.1
		v5.8L67.1,165.6z"/>
	<path class="st2" d="M73.9,165.6h-1l-0.1-0.1V162c0-0.6-0.1-1.4-1.2-1.4s-1.6,0.6-1.6,2v2.9l-0.1,0.1h-1l-0.1-0.1v-5.8l0.1-0.1h0.8
		l0.1,0.1l0.1,0.5h0.1c0,0,0.5-0.7,1.6-0.7c1.7,0,2.3,1.1,2.3,2.5v3.5L73.9,165.6z"/>
	<path class="st2" d="M79.5,165h-0.1c0,0-0.5,0.7-1.6,0.7c-1.7,0-2.6-1.3-2.6-3.1c0-1.8,1-3.1,2.6-3.1c1.1,0,1.6,0.7,1.6,0.7h0.1
		l0.1-0.5l0.1-0.1h0.8l0.1,0.1v5.2c0,2.4-1.3,3.2-2.8,3.2c-1.4,0-2.3-0.7-2.4-1.7l0.1-0.1h1l0.1,0.1c0.2,0.5,0.6,0.6,1.2,0.6
		C79,167,79.5,166.3,79.5,165z M77.9,160.6c-1,0-1.6,0.7-1.6,2s0.6,2,1.6,2s1.6-0.6,1.6-2C79.5,161.2,78.9,160.6,77.9,160.6z"/>
	<path class="st2" d="M83.9,161.1h-1.2l-0.1-0.1v-1.2l0.1-0.1h1.2l0.1,0.1v1.2L83.9,161.1z M83.9,165.6h-1.2l-0.1-0.1v-1.2l0.1-0.1
		h1.2l0.1,0.1v1.2L83.9,165.6z"/>
	<path class="st2" d="M94.4,165.6H89l-0.1-0.1v-1l0.1-0.2l2.4-1.9c1.2-1,1.7-1.6,1.7-2.6c0-0.8-0.4-1.6-1.4-1.6s-1.6,0.6-1.6,1.6
		l-0.1,0.1h-1l-0.1-0.1c0-1.6,1-2.6,2.8-2.6c1.9,0,2.6,1.3,2.6,2.5c0,1.6-0.7,2.4-1.9,3.4l-1.8,1.4v0.1h3.8l0.1,0.1v0.8L94.4,165.6z
		"/>
	<path class="st2" d="M98.5,165.7c-1.8,0-2.6-1-2.8-2.4l0.1-0.1h1l0.1,0.1c0.1,0.7,0.4,1.3,1.6,1.3s1.7-0.7,1.7-1.9
		c0-1.1-0.4-1.8-1.6-1.8c-1.2,0-1.6,1-1.6,1l-0.2,0.1l-0.8-0.1l-0.1-0.1l0.2-4.4l0.1-0.1h4.7l0.1,0.1v0.8l-0.1,0.1h-3.6l-0.1,0.1
		l-0.1,2.2h0.1c0,0,0.5-0.7,1.7-0.7c1.8,0,2.5,1.3,2.5,2.8C101.4,164.8,100.3,165.7,98.5,165.7z"/>
</g>
<g>
	<defs>
		<rect id="SVGID_3_" x="-8" y="-7" width="609" height="195.3"/>
	</defs>
	<clipPath id="SVGID_4_">
		<use xlink:href="#SVGID_3_"  style="overflow:visible;"/>
	</clipPath>
	<circle class="st4" cx="458" cy="12.5" r="9.6"/>
</g>
<line class="st5" x1="463" y1="12.5" x2="453" y2="12.5"/>
<line class="st5" x1="458" y1="17.5" x2="458" y2="7.5"/>
<g>
	<path class="st2" d="M196.6,1.1h1.3v5.6l0.4,0.4h2V8h-5.9V7.1h2.1l0.4-0.4V2.1l-1.9,1.3l-0.5-0.8L196.6,1.1z"/>
	<path class="st2" d="M214.6,0.2l0.8,0.5l-5.1,8.9l-0.8-0.5L214.6,0.2z"/>
	<path class="st2" d="M228.9,2h-3.6V1.1h4.6v1.2l-2,1.5c0.1,0,0.2-0.1,0.3-0.1c1.2,0,2,0.9,2,2c0,2.1-2.4,3.2-4.7,3.5l-0.2-0.9
		c2.2-0.4,4-1.2,4-2.6c0-0.7-0.5-1.2-1.3-1.2c-0.5,0-0.9,0.1-1.4,0.5L226,4.3L228.9,2z"/>
</g>
<g>
	<path class="st2" d="M194.6,42.7c0.6-1,1.8-1.8,3-1.8c1.5,0,2.2,0.9,2.2,2c0,1.1-1,1.8-1.9,2.5l-2.2,1.7h3.1l0.4-0.4v-0.9h0.9V48
		h-5.5v-1.2l2.6-2.1c0.9-0.7,1.5-1.1,1.5-1.8c0-0.6-0.4-1-1.1-1c-0.8,0-1.7,0.6-2.2,1.4L194.6,42.7z"/>
	<path class="st2" d="M205.1,44.2l-0.4-2.1c-0.1-0.3-0.1-0.7-0.1-0.9c0-0.4,0.3-0.8,0.8-0.8c0.5,0,0.7,0.3,0.7,0.8
		c0,0.2,0,0.6-0.1,0.9l-0.5,2.1H205.1z"/>
	<path class="st2" d="M218.1,42.7l0.6-0.6l1.8,1.9l1.8-1.9l0.6,0.6l-1.9,1.9l1.9,1.8l-0.6,0.6l-1.8-1.9l-1.8,1.9l-0.6-0.6l1.9-1.8
		L218.1,42.7z"/>
	<path class="st2" d="M237,42h-3.6v-0.9h4.6v1.2l-2,1.5c0.1,0,0.2-0.1,0.3-0.1c1.2,0,2,0.9,2,2c0,2.1-2.4,3.2-4.7,3.5l-0.2-0.9
		c2.2-0.4,4-1.2,4-2.6c0-0.7-0.5-1.2-1.3-1.2c-0.5,0-0.9,0.1-1.4,0.5l-0.5-0.6L237,42z"/>
	<path class="st2" d="M243.4,44.2l-0.4-2.1c-0.1-0.3-0.1-0.7-0.1-0.9c0-0.4,0.3-0.8,0.8-0.8c0.5,0,0.7,0.3,0.7,0.8
		c0,0.2,0,0.6-0.1,0.9l-0.5,2.1H243.4z"/>
</g>
<g>
	<path class="st2" d="M197.6,80.9c1.7,0,2.9,1.6,2.9,3.6c0,2-1.1,3.6-2.9,3.6c-1.7,0-2.9-1.6-2.9-3.6
		C194.8,82.5,195.9,80.9,197.6,80.9z M197.6,81.9c-1.2,0-1.8,1.2-1.8,2.6c0,1.4,0.6,2.6,1.8,2.6c1.2,0,1.8-1.2,1.8-2.6
		C199.5,83.1,198.8,81.9,197.6,81.9z"/>
	<path class="st2" d="M202.7,83.4c0-1.4,1.2-2.5,2.6-2.5c0.9,0,1.8,0.4,2.2,1.1c0.3,0.5,0.4,1.1,0.4,1.7c0,2.3-1.8,4.6-4.7,5.4
		l-0.3-0.9c2-0.6,3.1-1.8,3.6-2.9c-0.3,0.3-0.8,0.6-1.4,0.6C203.8,85.9,202.7,84.9,202.7,83.4z M205.3,85c0.9,0,1.6-0.7,1.6-1.6
		c0-0.9-0.7-1.6-1.6-1.6c-0.9,0-1.6,0.7-1.6,1.6C203.7,84.3,204.4,85,205.3,85z"/>
	<path class="st2" d="M213,86c0.6,0,1.1,0.5,1.1,1.1c0,0.6-0.5,1.1-1.1,1.1c-0.6,0-1.1-0.5-1.1-1.1C211.9,86.4,212.4,86,213,86z"/>
	<path class="st2" d="M220.1,81.1h1.3v5.6l0.4,0.4h2v0.9h-5.9v-0.9h2.1l0.4-0.4v-4.6l-1.9,1.3l-0.5-0.8L220.1,81.1z"/>
	<path class="st2" d="M225.4,82.7c0.6-1,1.8-1.8,3-1.8c1.5,0,2.2,0.9,2.2,2c0,1.1-1,1.8-1.9,2.5l-2.2,1.7h3.1l0.4-0.4v-0.9h0.9v2.1
		h-5.5v-1.2l2.6-2.1c0.9-0.7,1.5-1.1,1.5-1.8c0-0.6-0.4-1-1.1-1c-0.8,0-1.7,0.6-2.2,1.4L225.4,82.7z"/>
	<path class="st2" d="M233.5,88.3c2.2-0.4,3.8-1.1,3.8-2.5c0-0.6-0.4-1.1-1.2-1.1c-0.5,0-1,0.3-1.2,0.7h-1.2l0.2-4.2h4.3V82h-3.4
		l-0.1,2.4c0.3-0.4,0.9-0.7,1.6-0.7c1.5,0,2.2,1.1,2.2,2c0,2.1-2.3,3.1-4.7,3.4L233.5,88.3z"/>
	<path class="st2" d="M242.3,84.2l-0.4-2.1c-0.1-0.3-0.1-0.7-0.1-0.9c0-0.4,0.3-0.8,0.8-0.8c0.5,0,0.7,0.3,0.7,0.8
		c0,0.2,0,0.6-0.1,0.9l-0.5,2.1H242.3z M244.7,84.2l-0.4-2.1c-0.1-0.3-0.1-0.7-0.1-0.9c0-0.4,0.3-0.8,0.8-0.8c0.5,0,0.7,0.3,0.7,0.8
		c0,0.2,0,0.6-0.1,0.9l-0.5,2.1H244.7z"/>
</g>
<g>
	<path class="st2" d="M197.4,129.7v-1.6c-1.5-0.1-2.6-0.7-2.6-1.8c0-0.5,0.4-0.9,0.9-0.9c0.5,0,0.8,0.3,0.8,0.8
		c0,0.3-0.1,0.5-0.4,0.6c0.2,0.2,0.7,0.4,1.4,0.5v-2.5l-0.3-0.1c-1.2-0.3-2-0.8-2-1.9c0-1.1,1-1.8,2.3-1.9v-1.5h0.9v1.5
		c1.4,0.1,2.4,0.9,2.4,1.8c0,0.5-0.3,0.9-0.8,0.9c-0.4,0-0.8-0.3-0.8-0.7c0-0.3,0.1-0.5,0.4-0.6c-0.2-0.2-0.5-0.4-1.2-0.5v2.2
		l0.8,0.2c1,0.2,1.7,0.8,1.7,1.8c0,1.1-1,2-2.5,2.1v1.6H197.4z M197.4,121.8c-0.8,0.1-1.3,0.5-1.3,1c0,0.5,0.4,0.8,1.1,0.9l0.2,0
		V121.8z M198.3,127.2c0.9-0.1,1.5-0.6,1.5-1.2c0-0.6-0.5-0.8-0.9-0.9l-0.6-0.1L198.3,127.2L198.3,127.2z"/>
	<path class="st2" d="M205,121.1h1.3v5.6l0.4,0.4h2v0.9h-5.9v-0.9h2.1l0.4-0.4v-4.6l-1.9,1.3l-0.5-0.8L205,121.1z"/>
	<path class="st2" d="M210.7,125.9c0-0.8,0.5-1.4,1.2-1.6v-0.1c-0.5-0.2-0.9-0.8-0.9-1.6c0-1.3,1-2.1,2.4-2.1c1.4,0,2.4,0.8,2.4,2.1
		c0,0.8-0.4,1.4-0.9,1.6v0.1c0.6,0.2,1.2,0.8,1.2,1.6c0,1.3-1.2,2.2-2.6,2.2C211.8,128.1,210.7,127.3,210.7,125.9z M214.8,125.9
		c0-0.8-0.6-1.2-1.6-1.2c-0.9,0-1.6,0.4-1.6,1.2c0,0.8,0.7,1.2,1.6,1.2C214.1,127.2,214.8,126.7,214.8,125.9z M214.6,122.6
		c0-0.8-0.6-1.2-1.4-1.2c-0.8,0-1.4,0.4-1.4,1.2c0,0.7,0.6,1.2,1.4,1.2S214.6,123.3,214.6,122.6z"/>
	<path class="st2" d="M230.7,120.2l0.8,0.5l-5.1,8.9l-0.8-0.5L230.7,120.2z"/>
	<path class="st2" d="M245.7,126.1c0-0.6-0.5-0.8-1-1l-1.6-0.4c-1.1-0.3-1.9-0.7-1.9-1.9c0-1.1,0.9-1.9,2.3-1.9
		c0.7,0,1.3,0.3,1.8,0.8l0.2-0.1v-0.5h0.9v2.4h-0.8c-0.4-1.2-1.3-1.6-2.1-1.6c-0.8,0-1.3,0.4-1.3,0.9c0,0.6,0.5,0.8,1.1,0.9l1.6,0.4
		c1,0.3,1.7,0.8,1.7,1.8c0,1.2-0.9,2.1-2.4,2.1c-0.8,0-1.6-0.4-2-0.9l-0.2,0.1v0.6h-0.9v-2.6h0.8c0.4,1.3,1.5,1.9,2.4,1.9
		C245.2,127.2,245.7,126.7,245.7,126.1z"/>
	<path class="st2" d="M252.9,127.8c-0.4,0.2-0.8,0.3-1.3,0.3c-1.9,0-3.1-1.6-3.1-3.6c0-2,1.2-3.6,3.1-3.6s3.1,1.6,3.1,3.6
		c0,1.1-0.4,2.1-1,2.7l0.8,1.1l-0.8,0.6L252.9,127.8z M251.6,127.2c0.3,0,0.5,0,0.7-0.1l-0.8-1.1l0.8-0.6l0.8,1.1
		c0.4-0.5,0.6-1.2,0.6-1.9c0-1.5-0.7-2.6-2.1-2.6c-1.4,0-2.1,1.2-2.1,2.6S250.2,127.2,251.6,127.2z"/>
</g>
<g>
</g>
<g>
</g>
<g>
</g>
<g>
</g>
<g>
</g>
<g>
</g>
</svg>
