<?xml version="1.0" encoding="utf-8"?>
<!-- Generator: Adobe Illustrator 19.1.0, SVG Export Plug-In . SVG Version: 6.00 Build 0)  -->
<svg version="1.1" id="Layer_1" xmlns="http://www.w3.org/2000/svg" xmlns:xlink="http://www.w3.org/1999/xlink" x="0px" y="0px"
	 viewBox="0 0 132.8 204" style="enable-background:new 0 0 132.8 204;" xml:space="preserve">
<style type="text/css">
	.st0{fill:#363D39;}
	.st1{clip-path:url(#SVGID_2_);fill:#363D39;}
	.st2{clip-path:url(#SVGID_4_);fill:#363D39;}
</style>
<rect x="65.6" y="0" class="st0" width="0.8" height="204"/>
<rect y="65.6" class="st0" width="132" height="0.8"/>
<rect y="137.6" class="st0" width="132" height="0.8"/>
<g>
	<defs>
		<rect id="SVGID_1_" width="132.8" height="204"/>
	</defs>
	<clipPath id="SVGID_2_">
		<use xlink:href="#SVGID_1_"  style="overflow:visible;"/>
	</clipPath>
	<path class="st1" d="M102,128.8c-14.8,0-26.8-12-26.8-26.8c0-14.8,12-26.8,26.8-26.8s26.8,12,26.8,26.8
		C128.8,116.8,116.8,128.8,102,128.8 M102,71.3C85,71.3,71.3,85,71.3,102S85,132.8,102,132.8s30.8-13.8,30.8-30.8S119,71.3,102,71.3
		"/>
</g>
<polygon class="st0" points="0,0 0,60 12,60 12,39 57,39 57,27 12,27 12,12 60,12 60,0 "/>
<polygon class="st0" points="0,72 0,132 60,132 60,120 12,120 12,72 "/>
<g>
	<defs>
		<rect id="SVGID_3_" width="132.8" height="204"/>
	</defs>
	<clipPath id="SVGID_4_">
		<use xlink:href="#SVGID_3_"  style="overflow:visible;"/>
	</clipPath>
	<path class="st2" d="M84,156h27.8c5,0,9,4,9,9c0,5-4,9-9,9H84V156z M132.8,165c0-11.6-9.4-21-21-21H72v60h12v-18h21.5l18,18h8.5
		v-8.5l-11.4-11.4C127.8,180.7,132.8,173.5,132.8,165"/>
	<path class="st2" d="M128.7,146c0,1.1,0.9,2,2,2c1.1,0,2-0.9,2-2c0-1.1-0.9-2-2-2C129.6,144,128.7,144.9,128.7,146 M129.2,146
		c0-0.9,0.7-1.6,1.6-1.6c0.9,0,1.6,0.7,1.6,1.6c0,0.9-0.7,1.6-1.6,1.6C129.9,147.6,129.2,146.9,129.2,146 M131.3,146.2L131.3,146.2
		c0.3-0.2,0.4-0.4,0.4-0.7c0-0.4-0.3-0.7-0.7-0.7h-1.1l-0.1,0.1v2.1l0.1,0.1h0.3l0.1-0.1v-0.8l0.1-0.1h0.3l0.1,0.1l0.6,0.8l0.1,0.1
		h0.2l0.1-0.1v-0.3L131.3,146.2z M131.3,145.6c0,0.2-0.1,0.3-0.3,0.3h-0.7l-0.1-0.1v-0.4l0.1-0.1h0.7
		C131.2,145.3,131.3,145.4,131.3,145.6"/>
</g>
<g>
</g>
<g>
</g>
<g>
</g>
<g>
</g>
<g>
</g>
<g>
</g>
</svg>
