<?xml version="1.0" encoding="utf-8"?>
<!-- Generator: Adobe Illustrator 19.1.0, SVG Export Plug-In . SVG Version: 6.00 Build 0)  -->
<svg version="1.1" id="Layer_1" xmlns="http://www.w3.org/2000/svg" xmlns:xlink="http://www.w3.org/1999/xlink" x="0px" y="0px"
	 viewBox="0 0 437 132.8" style="enable-background:new 0 0 437 132.8;" xml:space="preserve">
<style type="text/css">
	.st0{fill:#BCC0BC;}
	.st1{clip-path:url(#SVGID_2_);fill:#BCC0BC;}
	.st2{clip-path:url(#SVGID_4_);fill:#BCC0BC;}
	.st3{fill:#F2BE1A;}
	.st4{clip-path:url(#SVGID_6_);fill:#F2BE1A;}
	.st5{clip-path:url(#SVGID_8_);fill:#F2BE1A;}
</style>
<rect x="65.6" y="0" class="st0" width="0.8" height="132"/>
<rect x="137.6" y="0" class="st0" width="0.8" height="132"/>
<rect y="65.6" class="st0" width="204" height="0.8"/>
<g>
	<defs>
		<rect id="SVGID_1_" y="0" width="437" height="132.8"/>
	</defs>
	<clipPath id="SVGID_2_">
		<use xlink:href="#SVGID_1_"  style="overflow:visible;"/>
	</clipPath>
	<path class="st1" d="M102,128.8c-14.8,0-26.8-12-26.8-26.8c0-14.8,12-26.8,26.8-26.8s26.8,12,26.8,26.8
		C128.8,116.8,116.8,128.8,102,128.8 M102,71.3C85,71.3,71.3,85,71.3,102S85,132.8,102,132.8s30.8-13.8,30.8-30.8S119,71.3,102,71.3
		"/>
</g>
<polygon class="st0" points="0,0 0,60 12,60 12,39 57,39 57,27 12,27 12,12 60,12 60,0 "/>
<polygon class="st0" points="72,0 72,60 132,60 132,48 84,48 84,0 "/>
<g>
	<defs>
		<rect id="SVGID_3_" y="0" width="437" height="132.8"/>
	</defs>
	<clipPath id="SVGID_4_">
		<use xlink:href="#SVGID_3_"  style="overflow:visible;"/>
	</clipPath>
	<path class="st2" d="M156,84h27.8c5,0,9,4,9,9c0,5-4,9-9,9H156V84z M204.8,93c0-11.6-9.4-21-21-21H144v60h12v-18h21.5l18,18h8.5
		v-8.5l-11.4-11.4C199.8,108.7,204.8,101.5,204.8,93"/>
	<path class="st2" d="M200.8,74c0,1.1,0.9,2,2,2c1.1,0,2-0.9,2-2c0-1.1-0.9-2-2-2C201.6,72,200.8,72.9,200.8,74 M201.2,74
		c0-0.9,0.7-1.6,1.6-1.6c0.9,0,1.6,0.7,1.6,1.6c0,0.9-0.7,1.6-1.6,1.6C201.9,75.6,201.2,74.9,201.2,74 M203.3,74.2L203.3,74.2
		c0.3-0.2,0.4-0.4,0.4-0.7c0-0.4-0.3-0.7-0.7-0.7h-1.1l-0.1,0.1v2.1l0.1,0.1h0.3l0.1-0.1v-0.8l0.1-0.1h0.3l0.1,0.1l0.6,0.8l0.1,0.1
		h0.2l0.1-0.1v-0.3L203.3,74.2z M203.3,73.6c0,0.2-0.1,0.3-0.3,0.3h-0.7l-0.1-0.1v-0.4l0.1-0.1h0.7
		C203.2,73.3,203.3,73.4,203.3,73.6"/>
</g>
<rect x="297.9" y="0" class="st3" width="0.8" height="132"/>
<rect x="369.9" y="0" class="st3" width="0.8" height="132"/>
<rect x="232.2" y="65.6" class="st3" width="204" height="0.8"/>
<g>
	<defs>
		<rect id="SVGID_5_" y="0" width="437" height="132.8"/>
	</defs>
	<clipPath id="SVGID_6_">
		<use xlink:href="#SVGID_5_"  style="overflow:visible;"/>
	</clipPath>
	<path class="st4" d="M334.2,128.8c-14.8,0-26.8-12-26.8-26.8c0-14.8,12-26.8,26.8-26.8c14.8,0,26.8,12,26.8,26.8
		C361,116.8,349,128.8,334.2,128.8 M334.2,71.3c-17,0-30.8,13.8-30.8,30.8s13.8,30.8,30.8,30.8c17,0,30.8-13.8,30.8-30.8
		S351.2,71.3,334.2,71.3"/>
</g>
<polygon class="st3" points="232.3,0 232.3,60 244.3,60 244.3,39 289.3,39 289.3,27 244.3,27 244.3,12 292.2,12 292.2,0 "/>
<polygon class="st3" points="304.3,0 304.3,60 364.2,60 364.2,48 316.3,48 316.3,0 "/>
<g>
	<defs>
		<rect id="SVGID_7_" y="0" width="437" height="132.8"/>
	</defs>
	<clipPath id="SVGID_8_">
		<use xlink:href="#SVGID_7_"  style="overflow:visible;"/>
	</clipPath>
	<path class="st5" d="M388.2,84H416c5,0,9,4,9,9c0,5-4,9-9,9h-27.8V84z M437,93c0-11.6-9.4-21-21-21h-39.8v60h12v-18h21.5l18,18h8.5
		v-8.5l-11.4-11.4C432,108.7,437,101.5,437,93"/>
	<path class="st5" d="M433,74c0,1.1,0.9,2,2,2c1.1,0,2-0.9,2-2c0-1.1-0.9-2-2-2C433.9,72,433,72.9,433,74 M433.4,74
		c0-0.9,0.7-1.6,1.6-1.6c0.9,0,1.6,0.7,1.6,1.6c0,0.9-0.7,1.6-1.6,1.6C434.1,75.6,433.4,74.9,433.4,74 M435.6,74.2L435.6,74.2
		c0.3-0.2,0.4-0.4,0.4-0.7c0-0.4-0.3-0.7-0.7-0.7h-1.1l-0.1,0.1v2.1l0.1,0.1h0.3l0.1-0.1v-0.8l0.1-0.1h0.3l0.1,0.1l0.6,0.8l0.1,0.1
		h0.2l0.1-0.1v-0.3L435.6,74.2z M435.6,73.6c0,0.2-0.1,0.3-0.3,0.3h-0.7l-0.1-0.1v-0.4l0.1-0.1h0.7
		C435.4,73.3,435.6,73.4,435.6,73.6"/>
</g>
<g>
</g>
<g>
</g>
<g>
</g>
<g>
</g>
<g>
</g>
<g>
</g>
</svg>
