<?xml version="1.0" encoding="utf-8"?>
<!-- Generator: Adobe Illustrator 19.1.0, SVG Export Plug-In . SVG Version: 6.00 Build 0)  -->
<svg version="1.1" id="Layer_1" xmlns="http://www.w3.org/2000/svg" xmlns:xlink="http://www.w3.org/1999/xlink" x="0px" y="0px"
	 viewBox="0 0 276.8 295.8" style="enable-background:new 0 0 276.8 295.8;" xml:space="preserve">
<style type="text/css">
	.st0{clip-path:url(#SVGID_2_);fill:#363D39;}
	.st1{fill:#363D39;}
	.st2{clip-path:url(#SVGID_4_);fill:#363D39;}
	.st3{clip-path:url(#SVGID_6_);fill:#363D39;}
	.st4{clip-path:url(#SVGID_6_);fill:#F2BE1A;}
	.st5{fill:#F2BE1A;}
	.st6{clip-path:url(#SVGID_8_);fill:#F2BE1A;}
	.st7{clip-path:url(#SVGID_10_);fill:#F2BE1A;}
</style>
<g>
	<defs>
		<rect id="SVGID_1_" width="276.8" height="295.8"/>
	</defs>
	<clipPath id="SVGID_2_">
		<use xlink:href="#SVGID_1_"  style="overflow:visible;"/>
	</clipPath>
	<path class="st0" d="M253,115.4c0,0.7-0.6,1-1.2,1c-0.5,0-0.8-0.3-0.8-0.8c0-1.1,1.2-1.1,2-1.2V115.4z M252.1,110.6
		c-0.9,0-2,0.3-2.7,1l0.8,1.2c0.4-0.5,1.1-0.8,1.8-0.8c0.4,0,1.1,0.1,1.1,0.7v0.6c-1.7,0.2-3.9,0.3-3.9,2.6c0,1.2,0.8,2.1,2,2.1
		c0.8,0,1.4-0.3,1.9-0.8l0.1,0.7h1.9v-5.2C254.9,111,253.4,110.6,252.1,110.6 M245.4,109.9v0.9h-0.8v1.4h0.8v5.5h1.9v-5.5h1.3v-1.4
		h-1.3v-0.6c0-0.7,0.3-1,0.9-1c0.2,0,0.4,0,0.6,0.1V108c-0.3-0.1-0.7-0.1-1.1-0.1C246.6,107.9,245.4,108.5,245.4,109.9 M259.6,116.5
		c-0.9,0-1.4-0.8-1.4-2.2c0-1.4,0.3-2.2,1.4-2.2c0.6,0,1,0.5,1.1,0.9l1.3-0.7c-0.4-1.1-1.4-1.6-2.7-1.6c-1.7,0-3.2,1.3-3.2,3.6
		c0,2.3,1.1,3.7,3.2,3.7c1.1,0,2.3-0.4,2.7-1.5l-1.2-0.8C260.7,116.2,260.2,116.5,259.6,116.5 M264.5,113.7c0-0.8,0.3-1.7,1.3-1.7
		c0.9,0,1.1,0.9,1.1,1.7H264.5z M265.9,110.6c-2.2,0-3.4,1.5-3.4,3.6c0,2,1.2,3.7,3.3,3.7c1.2,0,2.1-0.3,2.9-1.1l-0.9-1.1
		c-0.5,0.6-1,0.8-1.7,0.8c-1,0-1.6-0.6-1.6-1.7h4.3c0-0.2,0-0.4,0-0.5C268.9,112.3,268,110.6,265.9,110.6 M224.2,110.6
		c-0.8,0-1.4,0.3-2.1,0.8l-0.1-0.7h-1.8v7h1.9v-4.4c0-0.8,0.4-1.3,1.3-1.3c0.5,0,0.7,0.4,0.7,0.8v4.8h1.9v-5.2
		C226,111.4,225.4,110.6,224.2,110.6 M229.8,115.4v-3.3h1.5v-1.4h-1.5v-1.7h-1.1c-0.2,0.9-0.7,1.7-1.7,2v1.1h0.8v4
		c0,1.3,1.2,1.7,2.1,1.7c0.6,0,1.2-0.2,1.6-0.3v-1.3c-0.1,0.1-0.6,0.2-0.9,0.2C229.9,116.5,229.8,116.1,229.8,115.4 M216.3,117.8
		h2.2v-9.2h-2.2V117.8z M241.9,111.8l-0.1-1H240v7h1.9v-3.9c0-0.8,0.6-1.5,1.4-1.5c0.2,0,0.3,0,0.6,0.1v-1.8c-0.1,0-0.1,0-0.2,0
		C242.9,110.6,242.2,111.1,241.9,111.8 M234.2,113.7c0-0.8,0.3-1.7,1.3-1.7c0.9,0,1.1,0.9,1.1,1.7H234.2z M235.6,110.6
		c-2.2,0-3.4,1.5-3.4,3.6c0,2,1.2,3.7,3.3,3.7c1.2,0,2.1-0.3,2.9-1.1l-0.9-1.1c-0.5,0.6-1,0.8-1.7,0.8c-1,0-1.6-0.6-1.6-1.7h4.3
		c0-0.2,0-0.4,0-0.5C238.6,112.3,237.7,110.6,235.6,110.6"/>
	<path class="st0" d="M270.8,112.8c-0.6,0-1.1-0.5-1.1-1.1c0-0.6,0.5-1.1,1.1-1.1c0.6,0,1.1,0.5,1.1,1.1
		C271.9,112.3,271.4,112.8,270.8,112.8 M270.8,110.5c-0.7,0-1.2,0.5-1.2,1.2c0,0.7,0.5,1.2,1.2,1.2c0.7,0,1.2-0.5,1.2-1.2
		C272,111,271.4,110.5,270.8,110.5 M270.5,111.6v-0.5h0.2c0.2,0,0.3,0.1,0.3,0.3c0,0.2-0.1,0.3-0.3,0.3H270.5z M271.3,111.4
		c0-0.3-0.1-0.4-0.5-0.4h-0.4v1.5h0.2v-0.7h0.2l0.3,0.7h0.2l-0.3-0.7C271.1,111.7,271.3,111.6,271.3,111.4"/>
	<path class="st0" d="M223.6,126c0.5,0,1.4-1.2,1.4-1.7c0-0.2-0.1-0.4-0.2-0.6c-0.1-0.1-0.3-0.3-0.4-0.3c-0.8-0.6-2.1-0.8-3-0.8
		c-3.1,0-5.6,2.2-5.6,5.4c0,2.8,2.1,4.9,4.9,4.9c1,0,2-0.3,2.9-0.8c0.4-0.2,1.4-0.9,1.4-1.4c0-0.2-0.2-0.4-0.4-0.4
		c-0.3,0.1-0.6,0.4-1.2,0.7c-0.5,0.2-1.3,0.4-1.8,0.4c-2.3,0-4-1.8-4-4.1c0-2,1.3-3.6,3.4-3.6c0.7,0,2.4,0.3,2.4,1.3
		c0,0.2-0.1,0.4-0.1,0.6C223.3,125.8,223.4,126,223.6,126"/>
	<path class="st0" d="M229.3,132c-1.3,0-1.8-1.7-1.8-2.7c0-0.9,0.4-2.2,1.5-2.2c1.3,0,1.7,1.7,1.7,2.8
		C230.8,130.7,230.4,132,229.3,132 M229.1,126.2c-2,0-3.3,1.5-3.3,3.5c0,2,1.5,3.2,3.4,3.2c1.9,0,3.4-1.4,3.4-3.3
		C232.5,127.6,231.1,126.2,229.1,126.2"/>
	<path class="st0" d="M218.1,98.4c0.2-0.6,1.3-3.2,1.5-3.5c0.1,0.3,0.8,1.9,1,2.5c0.1,0.2,0.4,1,0.4,1.1c0,0.2-0.1,0.2-0.3,0.2h-2.4
		C218.2,98.7,218,98.6,218.1,98.4 M215.5,102.8c0.4,0,0.7-0.1,1.1-0.1c0.4,0,0.7,0.1,1.1,0.1c0.3,0,0.6,0,0.6-0.4
		c0-0.2-0.1-0.3-0.4-0.4c-0.6-0.2-0.7-0.3-0.7-0.6c0-0.3,0.2-1.1,0.4-1.4c0.1-0.2,0.3-0.3,0.5-0.3l3,0c0.4,0,0.5,0.3,0.6,0.6
		c0.1,0.3,0.2,0.7,0.2,1c0,0.1,0,0.4-0.3,0.6c-0.3,0.1-0.6,0.2-0.6,0.5c0,0.3,0.3,0.4,0.8,0.4c0.6,0,0.9-0.1,1.4-0.1
		c0.5,0,0.8,0.1,1.4,0.1c0.4,0,0.8-0.1,0.7-0.4c0-0.2,0-0.3-0.4-0.5c-0.4-0.2-0.5-0.4-0.7-0.8c-0.3-0.5-0.5-1.2-0.7-1.7
		c-0.4-1-0.8-1.9-1.2-2.8c-0.4-0.8-0.7-1.6-1.1-2.5c-0.4-0.9-0.5-1.2-0.8-1.3c-0.1-0.1-0.3-0.1-0.4-0.1c-0.3,0-0.6,0-0.9,0
		c-0.3,0-1,0-1,0.5c0,0.4,0.7,0.4,0.7,0.8c0,0.1-0.1,0.3-0.1,0.5c-0.1,0.2-0.2,0.4-0.3,0.7c-0.7,1.8-1.5,3.4-2.1,5.3
		c-0.1,0.4-0.2,0.9-0.4,1.2c-0.2,0.3-0.3,0.3-0.6,0.4c-0.2,0.1-0.5,0.2-0.5,0.5C214.9,102.8,215.3,102.8,215.5,102.8"/>
	<path class="st0" d="M267.6,131.6c-0.2,0-0.4,0.2-0.5,0.2c-0.3,0-0.3-0.4-0.3-0.7v-2.2c0-0.7,0-1.3-0.4-1.8c-0.4-0.5-1-0.8-1.6-0.8
		c-0.8,0-1.5,0.4-2.1,0.9c0-0.5,0-0.8-0.6-0.8h-1.6c-0.3,0-0.5,0.1-0.5,0.4c0,0.2,0.2,0.3,0.4,0.4c0.6,0.1,0.7,0.2,0.7,0.9v3.1
		c0,0.6-0.1,0.7-0.6,0.9c-0.2,0-0.4,0.1-0.4,0.4c0,0.3,0.3,0.4,0.6,0.4c0.4,0,0.9-0.1,1.3-0.1s0.9,0.1,1.3,0.1
		c0.3,0,0.6-0.1,0.6-0.4c0-0.2-0.2-0.3-0.4-0.4c-0.6-0.1-0.6-0.3-0.6-0.9v-3c0.4-0.4,0.8-0.7,1.4-0.7c0.9,0,1,0.9,1,1.6v2.4
		c0,0.7,0.4,1.4,1.2,1.4c0.5,0,1.6-0.4,1.6-1C267.9,131.7,267.8,131.6,267.6,131.6"/>
	<path class="st0" d="M249.3,131.9c-0.4,0-0.8-0.2-1-0.5c-0.3-0.4-0.3-0.9-0.3-1.3v-1.9c0.4-0.3,0.8-0.6,1.3-0.6
		c1.1,0,1.8,1.1,1.8,2.1C251.1,130.8,250.5,131.9,249.3,131.9 M250.1,126.3c-0.9,0-1.4,0.5-2.1,1c0-0.5,0-0.9-0.6-0.9h-1.6
		c-0.3,0-0.5,0.1-0.5,0.4c0,0.2,0.2,0.3,0.4,0.4c0.6,0.1,0.7,0.2,0.7,0.9v6c0,0.6-0.1,0.7-0.6,0.9c-0.2,0-0.4,0.2-0.4,0.4
		c0,0.3,0.3,0.4,0.6,0.4c0.4,0,0.9-0.1,1.3-0.1s0.9,0.1,1.3,0.1c0.3,0,0.6-0.1,0.6-0.4c0-0.2-0.2-0.3-0.4-0.4
		c-0.6-0.1-0.6-0.3-0.6-0.9v-1.3c0.3,0.1,0.7,0.2,1.1,0.2c1.9,0,3.4-1.8,3.4-3.7C252.5,127.8,251.7,126.3,250.1,126.3"/>
	<path class="st0" d="M226.1,97.1c0.6,0.1,0.7,0.2,0.7,0.9v3.1c0,0.6-0.1,0.7-0.6,0.9c-0.2,0-0.4,0.2-0.4,0.4c0,0.3,0.3,0.4,0.6,0.4
		c0.4,0,0.9-0.1,1.3-0.1s0.9,0.1,1.3,0.1c0.3,0,0.6-0.1,0.6-0.4c0-0.2-0.2-0.3-0.4-0.4c-0.6-0.1-0.6-0.3-0.6-0.9v-3
		c0.4-0.4,0.8-0.7,1.4-0.7c0.9,0,1,0.9,1,1.6v2.4c0,0.7,0.4,1.4,1.2,1.4c0.5,0,1.6-0.4,1.6-1c0-0.2-0.1-0.3-0.3-0.3
		c-0.2,0-0.4,0.2-0.5,0.2c-0.3,0-0.3-0.5-0.3-0.7v-2.2c0-0.7,0-1.3-0.4-1.8c-0.4-0.5-1-0.8-1.6-0.8c-0.8,0-1.5,0.4-2.1,0.9
		c0-0.5,0-0.8-0.6-0.8h-1.6c-0.3,0-0.5,0.1-0.5,0.4C225.7,97,225.9,97.1,226.1,97.1"/>
	<path class="st0" d="M244.8,131.6c-0.2,0-0.4,0.2-0.5,0.2c-0.3,0-0.3-0.4-0.3-0.7v-2.2c0-0.7,0-1.3-0.4-1.8
		c-0.4-0.5-0.9-0.8-1.6-0.8c-0.8,0-1.4,0.4-2.2,1.2c-0.1-0.1-0.1-0.2-0.2-0.4c-0.4-0.5-0.9-0.8-1.6-0.8c-0.8,0-1.4,0.5-2,1
		c0-0.5,0-0.8-0.6-0.8h-1.6c-0.3,0-0.5,0.1-0.5,0.4c0,0.2,0.2,0.3,0.4,0.4c0.6,0.1,0.7,0.2,0.7,0.9v3.1c0,0.6-0.1,0.7-0.6,0.9
		c-0.2,0-0.4,0.1-0.4,0.4c0,0.3,0.3,0.4,0.6,0.4c0.4,0,0.9-0.1,1.3-0.1c0.4,0,0.9,0.1,1.3,0.1c0.3,0,0.6-0.1,0.6-0.4
		c0-0.2-0.2-0.3-0.4-0.4c-0.6-0.1-0.6-0.3-0.6-0.9v-3.1c0.4-0.4,0.9-0.7,1.3-0.7c0.9,0,1,0.9,1,1.6v2.4c0,0.7,0.4,1.4,1.2,1.4
		c0.6,0,1.6-0.4,1.6-1c0-0.2-0.1-0.3-0.3-0.3c-0.2,0-0.4,0.2-0.5,0.2c-0.3,0-0.3-0.4-0.3-0.7v-2.2c0-0.2,0-0.5,0-0.7
		c0.5-0.5,0.9-0.7,1.4-0.7c0.9,0,1,0.9,1,1.6v2.4c0,0.7,0.4,1.4,1.2,1.4c0.6,0,1.6-0.4,1.6-1C245.1,131.7,245,131.6,244.8,131.6"/>
	<path class="st0" d="M274.5,126.3h-1.8c-0.2,0-0.4,0.2-0.4,0.4c0,0.5,0.7,0.2,0.7,0.8c0,0.4-0.6,2.1-1.2,3.5
		c-0.4-0.8-0.7-1.5-1.1-2.3c-0.1-0.3-0.4-0.9-0.4-1.2c0-0.5,0.7-0.3,0.7-0.8c0-0.2-0.2-0.4-0.4-0.4h-1.2h-1.3
		c-0.2,0-0.4,0.1-0.4,0.4c0,0.2,0.1,0.3,0.3,0.4c0.3,0.2,0.4,0.3,0.6,0.6c0.2,0.3,0.3,0.7,0.5,1c0.6,1.5,1.3,3,2,4.4
		c-0.2,0.5-0.7,1.4-1.2,1.4c-0.7,0-0.3-0.9-0.8-0.9c-0.4,0-1,0.8-1,1.2c0,0.2,0.1,0.4,0.3,0.5c0.3,0.3,0.6,0.5,1,0.5
		c0.8,0,1.5-0.5,2-1.2c0.7-1.2,1.2-2.6,1.7-3.8l1.1-3.1c0.3-0.8,0.9-0.6,0.9-1.1C274.9,126.5,274.8,126.3,274.5,126.3"/>
	<path class="st0" d="M256.8,131c-0.2,0.3-0.7,0.7-1.2,0.7c-0.5,0-0.8-0.4-0.8-0.9c0-0.5,0.6-0.9,1-1.1l1-0.4V131z M259,132
		c-0.3-0.1-0.4-0.2-0.4-0.9v-2.8c0-0.6-0.1-1.2-0.6-1.6c-0.5-0.4-1-0.5-1.6-0.5c-0.9,0-1.8,0.5-2.4,1.1c-0.3,0.3-0.3,0.4,0,0.6
		s0.5,0.2,0.8,0c0.3-0.2,0.9-0.5,1.3-0.5c0.6,0,1,0.4,0.9,1.2l-1.5,0.6c-0.9,0.4-2.2,1.1-2.2,2.2c0,1,0.9,1.6,1.8,1.6
		c0.9,0,1.5-0.4,2-1c0.2,1,1,1,1.5,1c0.3,0,1,0,1-0.4C259.5,132.1,259.2,132.1,259,132"/>
</g>
<rect x="65.6" y="0.8" class="st1" width="0.8" height="60"/>
<rect x="137.6" y="0.8" class="st1" width="0.8" height="60"/>
<rect x="209.6" y="0.8" class="st1" width="0.8" height="60"/>
<g>
	<defs>
		<rect id="SVGID_3_" width="276.8" height="295.8"/>
	</defs>
	<clipPath id="SVGID_4_">
		<use xlink:href="#SVGID_3_"  style="overflow:visible;"/>
	</clipPath>
	<path class="st2" d="M174,57.5c-14.8,0-26.8-12-26.8-26.8C147.2,16,159.2,4,174,4c14.8,0,26.8,12,26.8,26.8
		C200.8,45.5,188.8,57.5,174,57.5 M174,0c-17,0-30.8,13.8-30.8,30.8c0,17,13.8,30.8,30.8,30.8s30.8-13.8,30.8-30.8
		C204.8,13.8,191,0,174,0"/>
</g>
<polygon class="st1" points="0,0.7 0,60.7 12,60.7 12,39.8 57,39.8 57,27.7 12,27.7 12,12.8 60,12.8 60,0.7 "/>
<polygon class="st1" points="72,0.7 72,60.7 132,60.7 132,48.8 84,48.8 84,0.7 "/>
<g>
	<defs>
		<rect id="SVGID_5_" width="276.8" height="295.8"/>
	</defs>
	<clipPath id="SVGID_6_">
		<use xlink:href="#SVGID_5_"  style="overflow:visible;"/>
	</clipPath>
	<path class="st3" d="M228,12.7h27.8c5,0,9,4,9,9c0,5-4,9-9,9H228V12.7z M276.8,21.7c0-11.6-9.4-21-21-21H216v60h12v-18h21.5l18,18
		h8.5v-8.5l-11.4-11.4C271.8,37.5,276.8,30.2,276.8,21.7"/>
	<path class="st3" d="M272.7,2.8c0,1.1,0.9,2,2,2c1.1,0,2-0.9,2-2c0-1.1-0.9-2-2-2C273.6,0.8,272.7,1.6,272.7,2.8 M273.2,2.8
		c0-0.9,0.7-1.6,1.6-1.6c0.9,0,1.6,0.7,1.6,1.6c0,0.9-0.7,1.6-1.6,1.6C273.9,4.3,273.2,3.6,273.2,2.8 M275.3,3L275.3,3
		c0.3-0.2,0.4-0.4,0.4-0.7c0-0.4-0.3-0.7-0.7-0.7h-1.1l-0.1,0.1v2.1l0.1,0.1h0.3l0.1-0.1V3l0.1-0.1h0.3l0.1,0.1l0.6,0.8l0.1,0.1h0.2
		l0.1-0.1V3.5L275.3,3z M275.3,2.3c0,0.2-0.1,0.3-0.3,0.3h-0.7l-0.1-0.1V2.1l0.1-0.1h0.7C275.2,2,275.3,2.1,275.3,2.3"/>
	<path class="st4" d="M253,275.4c0,0.7-0.6,1-1.2,1c-0.5,0-0.8-0.3-0.8-0.8c0-1.1,1.2-1.1,2-1.2V275.4z M252.1,270.6
		c-0.9,0-2,0.3-2.7,1l0.8,1.2c0.4-0.5,1.1-0.8,1.8-0.8c0.4,0,1.1,0.1,1.1,0.7v0.6c-1.7,0.2-3.9,0.3-3.9,2.6c0,1.2,0.8,2.1,2,2.1
		c0.8,0,1.4-0.3,1.9-0.8l0.1,0.7h1.9v-5.2C254.9,271,253.4,270.6,252.1,270.6 M245.4,269.9v0.9h-0.8v1.4h0.8v5.5h1.9v-5.5h1.3v-1.4
		h-1.3v-0.6c0-0.7,0.3-1,0.9-1c0.2,0,0.4,0,0.6,0.1V268c-0.3-0.1-0.7-0.1-1.1-0.1C246.6,267.9,245.4,268.5,245.4,269.9 M259.6,276.5
		c-0.9,0-1.4-0.8-1.4-2.2c0-1.4,0.3-2.2,1.4-2.2c0.6,0,1,0.5,1.1,0.9l1.3-0.7c-0.4-1.1-1.4-1.6-2.7-1.6c-1.7,0-3.2,1.3-3.2,3.6
		c0,2.3,1.1,3.7,3.2,3.7c1.1,0,2.3-0.4,2.7-1.5l-1.2-0.8C260.7,276.2,260.2,276.5,259.6,276.5 M264.5,273.7c0-0.8,0.3-1.7,1.3-1.7
		c0.9,0,1.1,0.9,1.1,1.7H264.5z M265.9,270.6c-2.2,0-3.4,1.5-3.4,3.6c0,2,1.2,3.7,3.3,3.7c1.2,0,2.1-0.3,2.9-1.1l-0.9-1.1
		c-0.5,0.6-1,0.8-1.7,0.8c-1,0-1.6-0.6-1.6-1.7h4.3c0-0.2,0-0.4,0-0.5C268.9,272.3,268,270.6,265.9,270.6 M224.2,270.6
		c-0.8,0-1.4,0.3-2.1,0.8l-0.1-0.7h-1.8v7h1.9v-4.4c0-0.8,0.4-1.3,1.3-1.3c0.5,0,0.7,0.4,0.7,0.8v4.8h1.9v-5.2
		C226,271.4,225.4,270.6,224.2,270.6 M229.8,275.4v-3.3h1.5v-1.4h-1.5v-1.7h-1.1c-0.2,0.9-0.7,1.7-1.7,2v1.1h0.8v4
		c0,1.3,1.2,1.7,2.1,1.7c0.6,0,1.2-0.2,1.6-0.3v-1.3c-0.1,0.1-0.6,0.2-0.9,0.2C229.9,276.5,229.8,276.1,229.8,275.4 M216.3,277.8
		h2.2v-9.2h-2.2V277.8z M241.9,271.8l-0.1-1H240v7h1.9v-3.9c0-0.8,0.6-1.5,1.4-1.5c0.2,0,0.3,0,0.6,0.1v-1.8c-0.1,0-0.1,0-0.2,0
		C242.9,270.6,242.2,271.1,241.9,271.8 M234.2,273.7c0-0.8,0.3-1.7,1.3-1.7c0.9,0,1.1,0.9,1.1,1.7H234.2z M235.6,270.6
		c-2.2,0-3.4,1.5-3.4,3.6c0,2,1.2,3.7,3.3,3.7c1.2,0,2.1-0.3,2.9-1.1l-0.9-1.1c-0.5,0.6-1,0.8-1.7,0.8c-1,0-1.6-0.6-1.6-1.7h4.3
		c0-0.2,0-0.4,0-0.5C238.6,272.3,237.7,270.6,235.6,270.6"/>
	<path class="st4" d="M270.8,272.8c-0.6,0-1.1-0.5-1.1-1.1c0-0.6,0.5-1.1,1.1-1.1c0.6,0,1.1,0.5,1.1,1.1
		C271.9,272.3,271.4,272.8,270.8,272.8 M270.8,270.5c-0.7,0-1.2,0.5-1.2,1.2c0,0.7,0.5,1.2,1.2,1.2c0.7,0,1.2-0.5,1.2-1.2
		C272,271,271.4,270.5,270.8,270.5 M270.5,271.6v-0.5h0.2c0.2,0,0.3,0.1,0.3,0.3c0,0.2-0.1,0.3-0.3,0.3H270.5z M271.3,271.4
		c0-0.3-0.1-0.4-0.5-0.4h-0.4v1.5h0.2v-0.7h0.2l0.3,0.7h0.2l-0.3-0.7C271.1,271.7,271.3,271.6,271.3,271.4"/>
	<path class="st4" d="M223.6,286c0.5,0,1.4-1.2,1.4-1.7c0-0.2-0.1-0.4-0.2-0.6c-0.1-0.1-0.3-0.3-0.4-0.3c-0.8-0.6-2.1-0.8-3-0.8
		c-3.1,0-5.6,2.2-5.6,5.4c0,2.8,2.1,5,4.9,5c1,0,2-0.3,2.9-0.8c0.4-0.2,1.4-0.9,1.4-1.4c0-0.2-0.2-0.4-0.4-0.4
		c-0.3,0.1-0.6,0.4-1.2,0.7c-0.5,0.2-1.3,0.4-1.8,0.4c-2.3,0-4-1.8-4-4.1c0-2,1.3-3.6,3.4-3.6c0.7,0,2.4,0.3,2.4,1.3
		c0,0.2-0.1,0.4-0.1,0.6S223.4,286,223.6,286"/>
	<path class="st4" d="M229.3,292c-1.3,0-1.8-1.7-1.8-2.7c0-0.9,0.4-2.2,1.5-2.2c1.3,0,1.7,1.7,1.7,2.8
		C230.8,290.7,230.4,292,229.3,292 M229.1,286.2c-2,0-3.3,1.5-3.3,3.5c0,2,1.5,3.2,3.4,3.2c1.9,0,3.4-1.4,3.4-3.3
		C232.5,287.6,231.1,286.2,229.1,286.2"/>
	<path class="st4" d="M218.1,258.4c0.2-0.6,1.3-3.2,1.5-3.5c0.1,0.3,0.8,1.9,1,2.5c0.1,0.2,0.4,1,0.4,1.1c0,0.2-0.1,0.2-0.3,0.2
		h-2.4C218.2,258.7,218,258.6,218.1,258.4 M215.5,262.8c0.4,0,0.7-0.1,1.1-0.1c0.4,0,0.7,0.1,1.1,0.1c0.3,0,0.6,0,0.6-0.4
		c0-0.2-0.1-0.3-0.4-0.4c-0.6-0.2-0.7-0.3-0.7-0.6c0-0.3,0.2-1.1,0.4-1.4c0.1-0.2,0.3-0.3,0.5-0.3l3,0c0.4,0,0.5,0.3,0.6,0.6
		c0.1,0.3,0.2,0.7,0.2,1c0,0.1,0,0.4-0.3,0.6c-0.3,0.1-0.6,0.2-0.6,0.5c0,0.3,0.3,0.4,0.8,0.4c0.6,0,0.9-0.1,1.4-0.1
		c0.5,0,0.8,0.1,1.4,0.1c0.4,0,0.8-0.1,0.7-0.4c0-0.2,0-0.3-0.4-0.5c-0.4-0.2-0.5-0.4-0.7-0.8c-0.3-0.5-0.5-1.2-0.7-1.7
		c-0.4-1-0.8-1.9-1.2-2.8c-0.4-0.8-0.7-1.6-1.1-2.5c-0.4-0.9-0.5-1.2-0.8-1.3c-0.1-0.1-0.3-0.1-0.4-0.1c-0.3,0-0.6,0-0.9,0
		c-0.3,0-1,0-1,0.5c0,0.4,0.7,0.4,0.7,0.8c0,0.1-0.1,0.3-0.1,0.5c-0.1,0.2-0.2,0.4-0.3,0.7c-0.7,1.8-1.5,3.4-2.1,5.3
		c-0.1,0.4-0.2,0.9-0.4,1.2c-0.2,0.3-0.3,0.3-0.6,0.4c-0.2,0.1-0.5,0.2-0.5,0.5C214.9,262.8,215.3,262.8,215.5,262.8"/>
	<path class="st4" d="M267.6,291.6c-0.2,0-0.4,0.2-0.5,0.2c-0.3,0-0.3-0.5-0.3-0.7v-2.2c0-0.7,0-1.3-0.4-1.8c-0.4-0.5-1-0.8-1.6-0.8
		c-0.8,0-1.5,0.4-2.1,0.9c0-0.5,0-0.8-0.6-0.8h-1.6c-0.3,0-0.5,0.1-0.5,0.4c0,0.2,0.2,0.3,0.4,0.4c0.6,0.1,0.7,0.2,0.7,0.9v3.1
		c0,0.6-0.1,0.7-0.6,0.9c-0.2,0-0.4,0.1-0.4,0.4c0,0.3,0.3,0.4,0.6,0.4c0.4,0,0.9-0.1,1.3-0.1s0.9,0.1,1.3,0.1
		c0.3,0,0.6-0.1,0.6-0.4c0-0.2-0.2-0.3-0.4-0.4c-0.6-0.1-0.6-0.3-0.6-0.9v-3c0.4-0.4,0.8-0.7,1.4-0.7c0.9,0,1,0.9,1,1.6v2.4
		c0,0.7,0.4,1.4,1.2,1.4c0.5,0,1.6-0.4,1.6-1C267.9,291.7,267.8,291.6,267.6,291.6"/>
	<path class="st4" d="M249.3,291.9c-0.4,0-0.8-0.1-1-0.5c-0.3-0.4-0.3-0.9-0.3-1.3v-1.9c0.4-0.3,0.8-0.6,1.3-0.6
		c1.1,0,1.8,1.1,1.8,2.1C251.1,290.8,250.5,291.9,249.3,291.9 M250.1,286.3c-0.9,0-1.4,0.5-2.1,1c0-0.5,0-0.9-0.6-0.9h-1.6
		c-0.3,0-0.5,0.1-0.5,0.4c0,0.2,0.2,0.3,0.4,0.4c0.6,0.1,0.7,0.2,0.7,0.9v6c0,0.6-0.1,0.7-0.6,0.9c-0.2,0-0.4,0.1-0.4,0.4
		c0,0.3,0.3,0.4,0.6,0.4c0.4,0,0.9-0.1,1.3-0.1s0.9,0.1,1.3,0.1c0.3,0,0.6-0.1,0.6-0.4c0-0.2-0.2-0.3-0.4-0.4
		c-0.6-0.1-0.6-0.3-0.6-0.9v-1.3c0.3,0.1,0.7,0.2,1.1,0.2c1.9,0,3.4-1.8,3.4-3.7C252.5,287.8,251.7,286.3,250.1,286.3"/>
	<path class="st4" d="M226.1,257.1c0.6,0.1,0.7,0.2,0.7,0.9v3.1c0,0.6-0.1,0.7-0.6,0.9c-0.2,0-0.4,0.2-0.4,0.4
		c0,0.3,0.3,0.4,0.6,0.4c0.4,0,0.9-0.1,1.3-0.1s0.9,0.1,1.3,0.1c0.3,0,0.6-0.1,0.6-0.4c0-0.2-0.2-0.3-0.4-0.4
		c-0.6-0.1-0.6-0.3-0.6-0.9v-3c0.4-0.4,0.8-0.7,1.4-0.7c0.9,0,1,0.9,1,1.6v2.4c0,0.7,0.4,1.4,1.2,1.4c0.5,0,1.6-0.4,1.6-1
		c0-0.2-0.1-0.3-0.3-0.3c-0.2,0-0.4,0.2-0.5,0.2c-0.3,0-0.3-0.5-0.3-0.7v-2.2c0-0.7,0-1.3-0.4-1.8c-0.4-0.5-1-0.8-1.6-0.8
		c-0.8,0-1.5,0.4-2.1,0.9c0-0.5,0-0.8-0.6-0.8h-1.6c-0.3,0-0.5,0.1-0.5,0.4C225.7,257,225.9,257.1,226.1,257.1"/>
	<path class="st4" d="M244.8,291.6c-0.2,0-0.4,0.2-0.5,0.2c-0.3,0-0.3-0.5-0.3-0.7v-2.2c0-0.7,0-1.3-0.4-1.8
		c-0.4-0.5-0.9-0.8-1.6-0.8c-0.8,0-1.4,0.4-2.2,1.2c-0.1-0.1-0.1-0.2-0.2-0.4c-0.4-0.5-0.9-0.8-1.6-0.8c-0.8,0-1.4,0.5-2,1
		c0-0.5,0-0.8-0.6-0.8h-1.6c-0.3,0-0.5,0.1-0.5,0.4c0,0.2,0.2,0.3,0.4,0.4c0.6,0.1,0.7,0.2,0.7,0.9v3.1c0,0.6-0.1,0.7-0.6,0.9
		c-0.2,0-0.4,0.1-0.4,0.4c0,0.3,0.3,0.4,0.6,0.4c0.4,0,0.9-0.1,1.3-0.1c0.4,0,0.9,0.1,1.3,0.1c0.3,0,0.6-0.1,0.6-0.4
		c0-0.2-0.2-0.3-0.4-0.4c-0.6-0.1-0.6-0.3-0.6-0.9v-3.1c0.4-0.4,0.9-0.7,1.3-0.7c0.9,0,1,0.9,1,1.6v2.4c0,0.7,0.4,1.4,1.2,1.4
		c0.6,0,1.6-0.4,1.6-1c0-0.2-0.1-0.3-0.3-0.3c-0.2,0-0.4,0.2-0.5,0.2c-0.3,0-0.3-0.5-0.3-0.7v-2.2c0-0.2,0-0.5,0-0.7
		c0.5-0.5,0.9-0.7,1.4-0.7c0.9,0,1,0.9,1,1.6v2.4c0,0.7,0.4,1.4,1.2,1.4c0.6,0,1.6-0.4,1.6-1C245.1,291.7,245,291.6,244.8,291.6"/>
	<path class="st4" d="M274.5,286.3h-1.8c-0.2,0-0.4,0.2-0.4,0.4c0,0.5,0.7,0.2,0.7,0.8c0,0.4-0.6,2.1-1.2,3.5
		c-0.4-0.8-0.7-1.5-1.1-2.3c-0.1-0.3-0.4-0.9-0.4-1.2c0-0.5,0.7-0.3,0.7-0.8c0-0.2-0.2-0.4-0.4-0.4h-1.2h-1.3
		c-0.2,0-0.4,0.1-0.4,0.4c0,0.2,0.1,0.3,0.3,0.4c0.3,0.2,0.4,0.3,0.6,0.6c0.2,0.3,0.3,0.7,0.5,1c0.6,1.5,1.3,3,2,4.4
		c-0.2,0.5-0.7,1.4-1.2,1.4c-0.7,0-0.3-0.9-0.8-0.9c-0.4,0-1,0.8-1,1.2c0,0.2,0.1,0.4,0.3,0.5c0.3,0.3,0.6,0.5,1,0.5
		c0.8,0,1.5-0.5,2-1.2c0.7-1.2,1.2-2.5,1.7-3.8l1.1-3.1c0.3-0.8,0.9-0.6,0.9-1C274.9,286.5,274.8,286.3,274.5,286.3"/>
	<path class="st4" d="M256.8,291c-0.2,0.3-0.7,0.7-1.2,0.7c-0.5,0-0.8-0.4-0.8-0.9c0-0.5,0.6-0.9,1-1l1-0.5V291z M259,292
		c-0.3-0.1-0.4-0.2-0.4-0.9v-2.8c0-0.6-0.1-1.2-0.6-1.6c-0.5-0.4-1-0.5-1.6-0.5c-0.9,0-1.8,0.5-2.4,1c-0.3,0.3-0.3,0.4,0,0.6
		c0.2,0.2,0.5,0.2,0.8,0c0.3-0.2,0.9-0.5,1.3-0.5c0.6,0,1,0.4,0.9,1.2l-1.5,0.6c-0.9,0.4-2.2,1-2.2,2.2c0,1,0.9,1.6,1.8,1.6
		c0.9,0,1.5-0.4,2-1c0.2,1,1,1,1.5,1c0.3,0,1,0,1-0.4C259.5,292.1,259.2,292.1,259,292"/>
</g>
<rect x="65.6" y="160.8" class="st5" width="0.8" height="60"/>
<rect x="137.6" y="160.8" class="st5" width="0.8" height="60"/>
<rect x="209.6" y="160.8" class="st5" width="0.8" height="60"/>
<g>
	<defs>
		<rect id="SVGID_7_" width="276.8" height="295.8"/>
	</defs>
	<clipPath id="SVGID_8_">
		<use xlink:href="#SVGID_7_"  style="overflow:visible;"/>
	</clipPath>
	<path class="st6" d="M174,217.5c-14.8,0-26.8-12-26.8-26.8c0-14.8,12-26.8,26.8-26.8c14.8,0,26.8,12,26.8,26.8
		C200.8,205.5,188.8,217.5,174,217.5 M174,160c-17,0-30.8,13.8-30.8,30.8s13.8,30.8,30.8,30.8s30.8-13.8,30.8-30.8S191,160,174,160"
		/>
</g>
<polygon class="st5" points="0,160.7 0,220.7 12,220.7 12,199.7 57,199.7 57,187.7 12,187.7 12,172.7 60,172.7 60,160.7 "/>
<polygon class="st5" points="84,208.7 84,160.7 72,160.7 72,220.7 132,220.7 132,208.7 "/>
<g>
	<defs>
		<rect id="SVGID_9_" width="276.8" height="295.8"/>
	</defs>
	<clipPath id="SVGID_10_">
		<use xlink:href="#SVGID_9_"  style="overflow:visible;"/>
	</clipPath>
	<path class="st7" d="M228,172.7h27.8c5,0,9,4,9,9c0,5-4,9-9,9H228V172.7z M276.8,181.7c0-11.6-9.4-21-21-21H216v60h12v-18h21.5
		l18,18h8.5v-8.5l-11.4-11.4C271.8,197.5,276.8,190.2,276.8,181.7"/>
	<path class="st7" d="M272.7,162.8c0,1.1,0.9,2,2,2c1.1,0,2-0.9,2-2c0-1.1-0.9-2-2-2C273.6,160.8,272.7,161.6,272.7,162.8
		 M273.2,162.8c0-0.9,0.7-1.6,1.6-1.6c0.9,0,1.6,0.7,1.6,1.6c0,0.9-0.7,1.6-1.6,1.6C273.9,164.3,273.2,163.6,273.2,162.8 M275.3,163
		L275.3,163c0.3-0.2,0.4-0.4,0.4-0.7c0-0.4-0.3-0.7-0.7-0.7h-1.1l-0.1,0.1v2.1l0.1,0.1h0.3l0.1-0.1V163l0.1-0.1h0.3l0.1,0.1l0.6,0.8
		l0.1,0.1h0.2l0.1-0.1v-0.3L275.3,163z M275.3,162.3c0,0.2-0.1,0.3-0.3,0.3h-0.7l-0.1-0.1v-0.4l0.1-0.1h0.7
		C275.2,162,275.3,162.1,275.3,162.3"/>
</g>
<g>
</g>
<g>
</g>
<g>
</g>
<g>
</g>
<g>
</g>
<g>
</g>
</svg>
