<?xml version="1.0" encoding="utf-8"?>
<!-- Generator: Adobe Illustrator 19.1.0, SVG Export Plug-In . SVG Version: 6.00 Build 0)  -->
<svg version="1.1" id="Layer_1" xmlns="http://www.w3.org/2000/svg" xmlns:xlink="http://www.w3.org/1999/xlink" x="0px" y="0px"
	 viewBox="0 0 361.2 156" style="enable-background:new 0 0 361.2 156;" xml:space="preserve">
<style type="text/css">
	.st0{clip-path:url(#SVGID_2_);fill:#363D39;}
	.st1{fill:none;stroke:#F2BE1A;stroke-width:1.5;}
	.st2{clip-path:url(#SVGID_4_);fill:#363D39;}
	.st3{clip-path:url(#SVGID_4_);fill:none;stroke:#F2BE1A;stroke-width:1.5;}
	.st4{clip-path:url(#SVGID_4_);}
	.st5{fill:#363D39;}
</style>
<g>
	<defs>
		<rect id="SVGID_1_" width="361.2" height="156"/>
	</defs>
	<clipPath id="SVGID_2_">
		<use xlink:href="#SVGID_1_"  style="overflow:visible;"/>
	</clipPath>
	<path class="st0" d="M24,24h55.5c9.9,0,18,8.1,18,18s-8.1,18-18,18H24V24z M121.5,42c0-23.2-18.8-42-42-42H0v120h24V84h43l36,36h17
		v-17L97.1,80.1C111.5,73.5,121.5,58.9,121.5,42"/>
</g>
<line class="st1" x1="190.9" y1="60" x2="144" y2="60"/>
<polyline class="st1" points="186.4,55.8 190.9,60 186.4,64.2 "/>
<g>
	<defs>
		<rect id="SVGID_3_" width="361.2" height="156"/>
	</defs>
	<clipPath id="SVGID_4_">
		<use xlink:href="#SVGID_3_"  style="overflow:visible;"/>
	</clipPath>
	<path class="st2" d="M305.8,36.2c0,12-6.8,15.4-17.1,15.4h-32.5l-1.7-1.7V22.5l1.7-1.7h32.5C298.9,20.8,305.8,24.2,305.8,36.2
		 M329.7,36.2c0-23.9-17.1-35.9-41-35.9h-56.4L230.5,2v116.3l1.7,1.7h20.5l1.7-1.7V73.8l1.7-1.7h17.1l3.4,1.7l34.2,44.5l3.4,1.7
		h10.3l1.7-1.7v-17.1l-22.2-29.1v-1.7C317.7,67,329.7,55,329.7,36.2"/>
	<circle class="st3" cx="108" cy="108" r="23.2"/>
	<circle class="st3" cx="313.6" cy="108" r="23.2"/>
	<g class="st4">
		<path class="st5" d="M4.3,133.4H1.6l-0.1,0.1v1.6l0.1,0.1h2.5l0.1,0.1v0.6l-0.1,0.1H1.6l-0.1,0.1v2.2l-0.1,0.1H0.8l-0.1-0.1v-5.4
			l0.1-0.1h3.4l0.1,0.1L4.3,133.4L4.3,133.4z"/>
		<path class="st5" d="M9,138.2H5.6l-0.1-0.1v-5.4l0.1-0.1h0.6l0.1,0.1v4.7l0.1,0.1H9l0.1,0.1L9,138.2L9,138.2z"/>
		<path class="st5" d="M12.2,132.6c1.7,0,2.6,1.2,2.6,2.9c0,1.7-1,2.9-2.6,2.9s-2.6-1.2-2.6-2.9C9.5,133.8,10.5,132.6,12.2,132.6z
			 M12.2,137.6c1.2,0,1.8-0.9,1.8-2.2s-0.6-2.2-1.8-2.2c-1.2,0-1.8,0.9-1.8,2.2S11,137.6,12.2,137.6z"/>
		<path class="st5" d="M19.2,135.8L19.2,135.8l1.1,1.8v0.6l-0.1,0.1h-0.3l-0.2-0.1l-1.4-2.2l-0.2-0.1h-1.3l-0.1,0.1v2.2l-0.1,0.1H16
			l-0.1-0.1v-5.4l0.1-0.1h2.5c1.1,0,1.8,0.5,1.8,1.6C20.4,135.1,19.9,135.6,19.2,135.8z M18.5,133.4h-1.7l-0.1,0.1v1.6l0.1,0.1h1.7
			c0.7,0,1-0.2,1-0.9S19.2,133.4,18.5,133.4z"/>
		<path class="st5" d="M29.6,138.2h-0.6l-0.1-0.1v-3.8h-0.1l-1.6,3.8l-0.1,0.1h-0.7l-0.1-0.1l-1.6-3.8h-0.1v3.8l-0.1,0.1h-0.6
			l-0.1-0.1v-5.4l0.1-0.1h0.9l0.1,0.1l1.8,4.5h0.1l1.8-4.5l0.1-0.1h0.9l0.1,0.1L29.6,138.2L29.6,138.2z"/>
		<path class="st5" d="M32.6,134.2c1.2,0,1.9,0.8,1.9,2.1s-0.7,2.1-1.9,2.1s-1.9-0.8-1.9-2.1S31.4,134.2,32.6,134.2z M32.6,137.6
			c0.7,0,1.1-0.5,1.1-1.4s-0.4-1.4-1.1-1.4s-1.1,0.5-1.1,1.4S31.9,137.6,32.6,137.6z"/>
		<path class="st5" d="M38.8,138.2h-0.6l-0.1-0.1v-2.3c0-0.4-0.1-1-0.8-1c-0.7,0-1,0.4-1,1.4v1.9l-0.1,0.1h-0.6l-0.1-0.1v-3.8
			l0.1-0.1h0.6l0.1,0.1l0.1,0.3h0.1c0,0,0.3-0.5,1-0.5c1.1,0,1.5,0.7,1.5,1.7L38.8,138.2L38.8,138.2z"/>
		<path class="st5" d="M41.7,134.2c1.2,0,1.9,0.8,1.9,2.1s-0.7,2.1-1.9,2.1s-1.9-0.8-1.9-2.1S40.5,134.2,41.7,134.2z M41.7,137.6
			c0.7,0,1.1-0.5,1.1-1.4s-0.4-1.4-1.1-1.4s-1.1,0.5-1.1,1.4S41,137.6,41.7,137.6z"/>
	</g>
</g>
<g>
	<path class="st5" d="M233.2,135.8L233.2,135.8l1.1,1.8v0.6l-0.1,0.1h-0.3l-0.2-0.1l-1.4-2.2l-0.2-0.1h-1.3l-0.1,0.1v2.2l-0.1,0.1
		h-0.6l-0.1-0.1v-5.4l0.1-0.1h2.5c1.1,0,1.8,0.5,1.8,1.6C234.4,135.1,233.9,135.6,233.2,135.8z M232.5,133.4h-1.7l-0.1,0.1v1.6
		l0.1,0.1h1.7c0.7,0,1-0.2,1-0.9S233.3,133.4,232.5,133.4z"/>
	<path class="st5" d="M235.1,136.2c0-1.1,0.6-2.1,1.8-2.1s1.8,1,1.8,2.1v0.2l-0.1,0.1H236l-0.1,0.1c0,0.2,0.1,1,1,1
		c0.3,0,0.6-0.1,0.8-0.5l0.1-0.1h0.6l0.1,0.1c-0.1,0.6-0.6,1.2-1.6,1.2C235.7,138.3,235.1,137.4,235.1,136.2z M237.9,135.8
		c0-0.2-0.1-1-1-1c-0.9,0-1,0.7-1,1l0.1,0.1L237.9,135.8L237.9,135.8z"/>
	<path class="st5" d="M241.6,138.3c-0.7,0-1-0.5-1-0.5h-0.1v1.9l-0.1,0.1h-0.6l-0.1-0.1v-5.4l0.1-0.1h0.6l0.1,0.1l0.1,0.3h0.1
		c0,0,0.3-0.5,1-0.5c1.1,0,1.8,0.9,1.8,2.1S242.7,138.3,241.6,138.3z M241.5,134.9c-0.6,0-1,0.4-1,1.4c0,1,0.4,1.4,1,1.4
		s1-0.5,1-1.4S242.1,134.9,241.5,134.9z"/>
	<path class="st5" d="M245,138.2h-0.6l-0.1-0.1v-5.4l0.1-0.1h0.6l0.1,0.1L245,138.2L245,138.2z"/>
	<path class="st5" d="M246.9,133.6h-0.6l-0.1-0.1v-0.6l0.1-0.1h0.6l0.1,0.1L246.9,133.6L246.9,133.6z M246.9,138.2h-0.6l-0.1-0.1
		v-3.8l0.1-0.1h0.6l0.1,0.1L246.9,138.2L246.9,138.2z"/>
	<path class="st5" d="M249.9,137.6c0.6,0,0.9-0.3,1-0.6l0.1-0.1h0.6l0.1,0.1c-0.1,0.7-0.6,1.4-1.8,1.4c-1.2,0-1.9-0.8-1.9-2.1
		s0.7-2.1,1.9-2.1c1.1,0,1.7,0.6,1.8,1.4l-0.1,0.1h-0.6l-0.1-0.1c-0.1-0.3-0.3-0.6-1-0.6c-0.7,0-1.1,0.5-1.1,1.4
		S249.1,137.6,249.9,137.6z"/>
	<path class="st5" d="M255.6,138.2H255l-0.1-0.1l-0.1-0.3h-0.1c0,0-0.3,0.5-1.1,0.5c-0.9,0-1.4-0.5-1.4-1.3c0-0.9,0.7-1.3,1.8-1.3
		c0.4,0,0.7,0.1,0.7,0.1l0.1-0.1v-0.2c0-0.6-0.2-0.7-0.8-0.7s-0.8,0.2-0.8,0.5l-0.1,0.1h-0.6l-0.1-0.1c0-0.6,0.4-1.2,1.6-1.2
		s1.6,0.6,1.6,1.8L255.6,138.2L255.6,138.2z M254.9,136.6L254.9,136.6c-0.1-0.1-0.3-0.2-0.7-0.2c-0.7,0-1,0.2-1,0.6
		c0,0.4,0.2,0.6,0.7,0.6c0.6,0,1-0.3,1-0.8V136.6z"/>
	<path class="st5" d="M261.7,135.8H260l-0.1,0.1v2.2l-0.1,0.1h-0.6l-0.1-0.1v-5.4l0.1-0.1h2.5c1.1,0,1.8,0.5,1.8,1.6
		S262.8,135.8,261.7,135.8z M261.7,133.4H260l-0.1,0.1v1.6l0.1,0.1h1.7c0.7,0,1-0.2,1-0.9S262.4,133.4,261.7,133.4z"/>
	<path class="st5" d="M266.6,135h-0.4c-0.6,0-1,0.2-1,1.2v2l-0.1,0.1h-0.6l-0.1-0.1v-3.8l0.1-0.1h0.6l0.1,0.1l0.1,0.3h0.1
		c0.2-0.2,0.5-0.4,1-0.4h0.3l0.1,0.1L266.6,135L266.6,135z"/>
	<path class="st5" d="M269,134.2c1.2,0,1.9,0.8,1.9,2.1s-0.7,2.1-1.9,2.1s-1.9-0.8-1.9-2.1S267.8,134.2,269,134.2z M269,137.6
		c0.7,0,1.1-0.5,1.1-1.4s-0.4-1.4-1.1-1.4c-0.7,0-1.1,0.5-1.1,1.4S268.3,137.6,269,137.6z"/>
</g>
<g>
</g>
<g>
</g>
<g>
</g>
<g>
</g>
<g>
</g>
<g>
</g>
</svg>
